<?xml version="1.0"?>
<svg xmlns="http://www.w3.org/2000/svg" height="304" width="148">
  <rect y="0" x="0" height="304" width="148" fill="black" />
  <rect y="0" x="0" height="4" width="4" fill="white"/>
    <rect y="0" x="4" height="4" width="4" fill="white"/>
    <rect y="0" x="8" height="4" width="4" fill="white"/>
    <rect y="0" x="12" height="4" width="4" fill="white"/>
    <rect y="0" x="16" height="4" width="4" fill="white"/>
    <rect y="0" x="20" height="4" width="4" fill="white"/>
    <rect y="0" x="24" height="4" width="4" fill="white"/>
    <rect y="0" x="28" height="4" width="4" fill="white"/>
    <rect y="0" x="32" height="4" width="4" fill="white"/>
    <rect y="0" x="36" height="4" width="4" fill="white"/>
    <rect y="0" x="40" height="4" width="4" fill="white"/>
    <rect y="0" x="44" height="4" width="4" fill="white"/>
    <rect y="0" x="48" height="4" width="4" fill="white"/>
    <rect y="0" x="52" height="4" width="4" fill="white"/>
    <rect y="0" x="56" height="4" width="4" fill="white"/>
    <rect y="0" x="60" height="4" width="4" fill="white"/>
    <rect y="0" x="64" height="4" width="4" fill="white"/>
    <rect y="0" x="68" height="4" width="4" fill="white"/>
    <rect y="0" x="72" height="4" width="4" fill="white"/>
    <rect y="0" x="76" height="4" width="4" fill="white"/>
    <rect y="0" x="80" height="4" width="4" fill="white"/>
    <rect y="0" x="84" height="4" width="4" fill="white"/>
    <rect y="0" x="88" height="4" width="4" fill="white"/>
    <rect y="0" x="92" height="4" width="4" fill="white"/>
    <rect y="0" x="96" height="4" width="4" fill="white"/>
    <rect y="0" x="100" height="4" width="4" fill="white"/>
    <rect y="0" x="104" height="4" width="4" fill="white"/>
    <rect y="0" x="108" height="4" width="4" fill="white"/>
    <rect y="0" x="112" height="4" width="4" fill="white"/>
    <rect y="0" x="116" height="4" width="4" fill="white"/>
    <rect y="0" x="120" height="4" width="4" fill="white"/>
    <rect y="0" x="124" height="4" width="4" fill="white"/>
    <rect y="0" x="128" height="4" width="4" fill="white"/>
    <rect y="0" x="132" height="4" width="4" fill="white"/>
    <rect y="0" x="136" height="4" width="4" fill="white"/>
    <rect y="0" x="140" height="4" width="4" fill="white"/>
    <rect y="0" x="144" height="4" width="4" fill="white"/>
    <rect y="4" x="0" height="4" width="4" fill="white"/>
    <rect y="4" x="144" height="4" width="4" fill="white"/>
    <rect y="8" x="0" height="4" width="4" fill="white"/>
    <rect y="8" x="8" height="4" width="4" fill="white"/>
    <rect y="8" x="12" height="4" width="4" fill="white"/>
    <rect y="8" x="16" height="4" width="4" fill="white"/>
    <rect y="8" x="20" height="4" width="4" fill="white"/>
    <rect y="8" x="144" height="4" width="4" fill="white"/>
    <rect y="12" x="0" height="4" width="4" fill="white"/>
    <rect y="12" x="8" height="4" width="4" fill="white"/>
    <rect y="12" x="12" height="4" width="4" fill="white"/>
    <rect y="12" x="144" height="4" width="4" fill="white"/>
    <rect y="16" x="0" height="4" width="4" fill="white"/>
    <rect y="16" x="8" height="4" width="4" fill="white"/>
    <rect y="16" x="20" height="4" width="4" fill="white"/>
    <rect y="16" x="144" height="4" width="4" fill="white"/>
    <rect y="20" x="0" height="4" width="4" fill="white"/>
    <rect y="20" x="8" height="4" width="4" fill="white"/>
    <rect y="20" x="16" height="4" width="4" fill="white"/>
    <rect y="20" x="20" height="4" width="4" fill="white"/>
    <rect y="20" x="144" height="4" width="4" fill="white"/>
    <rect y="24" x="0" height="4" width="4" fill="white"/>
    <rect y="24" x="144" height="4" width="4" fill="white"/>
    <rect y="28" x="0" height="4" width="4" fill="white"/>
    <rect y="28" x="144" height="4" width="4" fill="white"/>
    <rect y="32" x="0" height="4" width="4" fill="white"/>
    <rect y="32" x="8" height="4" width="4" fill="white"/>
    <rect y="32" x="12" height="4" width="4" fill="white"/>
    <rect y="32" x="24" height="4" width="4" fill="white"/>
    <rect y="32" x="28" height="4" width="4" fill="white"/>
    <rect y="32" x="32" height="4" width="4" fill="white"/>
    <rect y="32" x="36" height="4" width="4" fill="white"/>
    <rect y="32" x="52" height="4" width="4" fill="white"/>
    <rect y="32" x="80" height="4" width="4" fill="white"/>
    <rect y="32" x="84" height="4" width="4" fill="white"/>
    <rect y="32" x="88" height="4" width="4" fill="white"/>
    <rect y="32" x="120" height="4" width="4" fill="white"/>
    <rect y="32" x="144" height="4" width="4" fill="white"/>
    <rect y="36" x="0" height="4" width="4" fill="white"/>
    <rect y="36" x="8" height="4" width="4" fill="white"/>
    <rect y="36" x="24" height="4" width="4" fill="white"/>
    <rect y="36" x="28" height="4" width="4" fill="white"/>
    <rect y="36" x="48" height="4" width="4" fill="white"/>
    <rect y="36" x="80" height="4" width="4" fill="white"/>
    <rect y="36" x="116" height="4" width="4" fill="white"/>
    <rect y="36" x="120" height="4" width="4" fill="white"/>
    <rect y="36" x="144" height="4" width="4" fill="white"/>
    <rect y="40" x="0" height="4" width="4" fill="white"/>
    <rect y="40" x="24" height="4" width="4" fill="white"/>
    <rect y="40" x="36" height="4" width="4" fill="white"/>
    <rect y="40" x="80" height="4" width="4" fill="white"/>
    <rect y="40" x="84" height="4" width="4" fill="white"/>
    <rect y="40" x="88" height="4" width="4" fill="white"/>
    <rect y="40" x="144" height="4" width="4" fill="white"/>
    <rect y="44" x="0" height="4" width="4" fill="white"/>
    <rect y="44" x="24" height="4" width="4" fill="white"/>
    <rect y="44" x="32" height="4" width="4" fill="white"/>
    <rect y="44" x="36" height="4" width="4" fill="white"/>
    <rect y="44" x="144" height="4" width="4" fill="white"/>
    <rect y="48" x="0" height="4" width="4" fill="white"/>
    <rect y="48" x="144" height="4" width="4" fill="white"/>
    <rect y="52" x="0" height="4" width="4" fill="white"/>
    <rect y="52" x="144" height="4" width="4" fill="white"/>
    <rect y="56" x="0" height="4" width="4" fill="white"/>
    <rect y="56" x="8" height="4" width="4" fill="white"/>
    <rect y="56" x="12" height="4" width="4" fill="white"/>
    <rect y="56" x="24" height="4" width="4" fill="white"/>
    <rect y="56" x="28" height="4" width="4" fill="white"/>
    <rect y="56" x="32" height="4" width="4" fill="white"/>
    <rect y="56" x="36" height="4" width="4" fill="white"/>
    <rect y="56" x="52" height="4" width="4" fill="white"/>
    <rect y="56" x="80" height="4" width="4" fill="white"/>
    <rect y="56" x="84" height="4" width="4" fill="white"/>
    <rect y="56" x="88" height="4" width="4" fill="white"/>
    <rect y="56" x="120" height="4" width="4" fill="white"/>
    <rect y="56" x="124" height="4" width="4" fill="white"/>
    <rect y="56" x="144" height="4" width="4" fill="white"/>
    <rect y="60" x="0" height="4" width="4" fill="white"/>
    <rect y="60" x="8" height="4" width="4" fill="white"/>
    <rect y="60" x="24" height="4" width="4" fill="white"/>
    <rect y="60" x="28" height="4" width="4" fill="white"/>
    <rect y="60" x="48" height="4" width="4" fill="white"/>
    <rect y="60" x="52" height="4" width="4" fill="white"/>
    <rect y="60" x="80" height="4" width="4" fill="white"/>
    <rect y="60" x="116" height="4" width="4" fill="white"/>
    <rect y="60" x="124" height="4" width="4" fill="white"/>
    <rect y="60" x="144" height="4" width="4" fill="white"/>
    <rect y="64" x="0" height="4" width="4" fill="white"/>
    <rect y="64" x="24" height="4" width="4" fill="white"/>
    <rect y="64" x="36" height="4" width="4" fill="white"/>
    <rect y="64" x="80" height="4" width="4" fill="white"/>
    <rect y="64" x="84" height="4" width="4" fill="white"/>
    <rect y="64" x="88" height="4" width="4" fill="white"/>
    <rect y="64" x="116" height="4" width="4" fill="white"/>
    <rect y="64" x="144" height="4" width="4" fill="white"/>
    <rect y="68" x="0" height="4" width="4" fill="white"/>
    <rect y="68" x="24" height="4" width="4" fill="white"/>
    <rect y="68" x="32" height="4" width="4" fill="white"/>
    <rect y="68" x="36" height="4" width="4" fill="white"/>
    <rect y="68" x="144" height="4" width="4" fill="white"/>
    <rect y="72" x="0" height="4" width="4" fill="white"/>
    <rect y="72" x="144" height="4" width="4" fill="white"/>
    <rect y="76" x="0" height="4" width="4" fill="white"/>
    <rect y="76" x="144" height="4" width="4" fill="white"/>
    <rect y="80" x="0" height="4" width="4" fill="white"/>
    <rect y="80" x="8" height="4" width="4" fill="white"/>
    <rect y="80" x="12" height="4" width="4" fill="white"/>
    <rect y="80" x="24" height="4" width="4" fill="white"/>
    <rect y="80" x="28" height="4" width="4" fill="white"/>
    <rect y="80" x="32" height="4" width="4" fill="white"/>
    <rect y="80" x="36" height="4" width="4" fill="white"/>
    <rect y="80" x="52" height="4" width="4" fill="white"/>
    <rect y="80" x="56" height="4" width="4" fill="white"/>
    <rect y="80" x="84" height="4" width="4" fill="white"/>
    <rect y="80" x="88" height="4" width="4" fill="white"/>
    <rect y="80" x="92" height="4" width="4" fill="white"/>
    <rect y="80" x="124" height="4" width="4" fill="white"/>
    <rect y="80" x="128" height="4" width="4" fill="white"/>
    <rect y="80" x="144" height="4" width="4" fill="white"/>
    <rect y="84" x="0" height="4" width="4" fill="white"/>
    <rect y="84" x="8" height="4" width="4" fill="white"/>
    <rect y="84" x="24" height="4" width="4" fill="white"/>
    <rect y="84" x="28" height="4" width="4" fill="white"/>
    <rect y="84" x="48" height="4" width="4" fill="white"/>
    <rect y="84" x="56" height="4" width="4" fill="white"/>
    <rect y="84" x="84" height="4" width="4" fill="white"/>
    <rect y="84" x="120" height="4" width="4" fill="white"/>
    <rect y="84" x="124" height="4" width="4" fill="white"/>
    <rect y="84" x="128" height="4" width="4" fill="white"/>
    <rect y="84" x="144" height="4" width="4" fill="white"/>
    <rect y="88" x="0" height="4" width="4" fill="white"/>
    <rect y="88" x="24" height="4" width="4" fill="white"/>
    <rect y="88" x="36" height="4" width="4" fill="white"/>
    <rect y="88" x="48" height="4" width="4" fill="white"/>
    <rect y="88" x="84" height="4" width="4" fill="white"/>
    <rect y="88" x="88" height="4" width="4" fill="white"/>
    <rect y="88" x="92" height="4" width="4" fill="white"/>
    <rect y="88" x="120" height="4" width="4" fill="white"/>
    <rect y="88" x="144" height="4" width="4" fill="white"/>
    <rect y="92" x="0" height="4" width="4" fill="white"/>
    <rect y="92" x="24" height="4" width="4" fill="white"/>
    <rect y="92" x="32" height="4" width="4" fill="white"/>
    <rect y="92" x="36" height="4" width="4" fill="white"/>
    <rect y="92" x="144" height="4" width="4" fill="white"/>
    <rect y="96" x="0" height="4" width="4" fill="white"/>
    <rect y="96" x="144" height="4" width="4" fill="white"/>
    <rect y="100" x="0" height="4" width="4" fill="white"/>
    <rect y="100" x="144" height="4" width="4" fill="white"/>
    <rect y="104" x="0" height="4" width="4" fill="white"/>
    <rect y="104" x="8" height="4" width="4" fill="white"/>
    <rect y="104" x="12" height="4" width="4" fill="white"/>
    <rect y="104" x="24" height="4" width="4" fill="white"/>
    <rect y="104" x="28" height="4" width="4" fill="white"/>
    <rect y="104" x="32" height="4" width="4" fill="white"/>
    <rect y="104" x="36" height="4" width="4" fill="white"/>
    <rect y="104" x="52" height="4" width="4" fill="white"/>
    <rect y="104" x="56" height="4" width="4" fill="white"/>
    <rect y="104" x="84" height="4" width="4" fill="white"/>
    <rect y="104" x="88" height="4" width="4" fill="white"/>
    <rect y="104" x="92" height="4" width="4" fill="white"/>
    <rect y="104" x="124" height="4" width="4" fill="white"/>
    <rect y="104" x="128" height="4" width="4" fill="white"/>
    <rect y="104" x="144" height="4" width="4" fill="white"/>
    <rect y="108" x="0" height="4" width="4" fill="white"/>
    <rect y="108" x="8" height="4" width="4" fill="white"/>
    <rect y="108" x="24" height="4" width="4" fill="white"/>
    <rect y="108" x="28" height="4" width="4" fill="white"/>
    <rect y="108" x="48" height="4" width="4" fill="white"/>
    <rect y="108" x="52" height="4" width="4" fill="white"/>
    <rect y="108" x="56" height="4" width="4" fill="white"/>
    <rect y="108" x="84" height="4" width="4" fill="white"/>
    <rect y="108" x="120" height="4" width="4" fill="white"/>
    <rect y="108" x="144" height="4" width="4" fill="white"/>
    <rect y="112" x="0" height="4" width="4" fill="white"/>
    <rect y="112" x="24" height="4" width="4" fill="white"/>
    <rect y="112" x="36" height="4" width="4" fill="white"/>
    <rect y="112" x="48" height="4" width="4" fill="white"/>
    <rect y="112" x="84" height="4" width="4" fill="white"/>
    <rect y="112" x="88" height="4" width="4" fill="white"/>
    <rect y="112" x="92" height="4" width="4" fill="white"/>
    <rect y="112" x="120" height="4" width="4" fill="white"/>
    <rect y="112" x="124" height="4" width="4" fill="white"/>
    <rect y="112" x="144" height="4" width="4" fill="white"/>
    <rect y="116" x="0" height="4" width="4" fill="white"/>
    <rect y="116" x="24" height="4" width="4" fill="white"/>
    <rect y="116" x="32" height="4" width="4" fill="white"/>
    <rect y="116" x="36" height="4" width="4" fill="white"/>
    <rect y="116" x="144" height="4" width="4" fill="white"/>
    <rect y="120" x="0" height="4" width="4" fill="white"/>
    <rect y="120" x="144" height="4" width="4" fill="white"/>
    <rect y="124" x="0" height="4" width="4" fill="white"/>
    <rect y="124" x="144" height="4" width="4" fill="white"/>
    <rect y="128" x="0" height="4" width="4" fill="white"/>
    <rect y="128" x="144" height="4" width="4" fill="white"/>
    <rect y="132" x="0" height="4" width="4" fill="white"/>
    <rect y="132" x="8" height="4" width="4" fill="white"/>
    <rect y="132" x="16" height="4" width="4" fill="white"/>
    <rect y="132" x="24" height="4" width="4" fill="white"/>
    <rect y="132" x="32" height="4" width="4" fill="white"/>
    <rect y="132" x="144" height="4" width="4" fill="white"/>
    <rect y="136" x="0" height="4" width="4" fill="white"/>
    <rect y="136" x="144" height="4" width="4" fill="white"/>
    <rect y="140" x="0" height="4" width="4" fill="white"/>
    <rect y="140" x="144" height="4" width="4" fill="white"/>
    <rect y="144" x="0" height="4" width="4" fill="white"/>
    <rect y="144" x="144" height="4" width="4" fill="white"/>
    <rect y="148" x="0" height="4" width="4" fill="white"/>
    <rect y="148" x="8" height="4" width="4" fill="white"/>
    <rect y="148" x="12" height="4" width="4" fill="white"/>
    <rect y="148" x="24" height="4" width="4" fill="white"/>
    <rect y="148" x="28" height="4" width="4" fill="white"/>
    <rect y="148" x="32" height="4" width="4" fill="white"/>
    <rect y="148" x="36" height="4" width="4" fill="white"/>
    <rect y="148" x="52" height="4" width="4" fill="white"/>
    <rect y="148" x="56" height="4" width="4" fill="white"/>
    <rect y="148" x="60" height="4" width="4" fill="white"/>
    <rect y="148" x="88" height="4" width="4" fill="white"/>
    <rect y="148" x="92" height="4" width="4" fill="white"/>
    <rect y="148" x="96" height="4" width="4" fill="white"/>
    <rect y="148" x="128" height="4" width="4" fill="white"/>
    <rect y="148" x="132" height="4" width="4" fill="white"/>
    <rect y="148" x="136" height="4" width="4" fill="white"/>
    <rect y="148" x="144" height="4" width="4" fill="white"/>
    <rect y="152" x="0" height="4" width="4" fill="white"/>
    <rect y="152" x="8" height="4" width="4" fill="white"/>
    <rect y="152" x="24" height="4" width="4" fill="white"/>
    <rect y="152" x="28" height="4" width="4" fill="white"/>
    <rect y="152" x="48" height="4" width="4" fill="white"/>
    <rect y="152" x="60" height="4" width="4" fill="white"/>
    <rect y="152" x="88" height="4" width="4" fill="white"/>
    <rect y="152" x="124" height="4" width="4" fill="white"/>
    <rect y="152" x="128" height="4" width="4" fill="white"/>
    <rect y="152" x="136" height="4" width="4" fill="white"/>
    <rect y="152" x="144" height="4" width="4" fill="white"/>
    <rect y="156" x="0" height="4" width="4" fill="white"/>
    <rect y="156" x="24" height="4" width="4" fill="white"/>
    <rect y="156" x="36" height="4" width="4" fill="white"/>
    <rect y="156" x="48" height="4" width="4" fill="white"/>
    <rect y="156" x="52" height="4" width="4" fill="white"/>
    <rect y="156" x="60" height="4" width="4" fill="white"/>
    <rect y="156" x="88" height="4" width="4" fill="white"/>
    <rect y="156" x="92" height="4" width="4" fill="white"/>
    <rect y="156" x="96" height="4" width="4" fill="white"/>
    <rect y="156" x="124" height="4" width="4" fill="white"/>
    <rect y="156" x="128" height="4" width="4" fill="white"/>
    <rect y="156" x="136" height="4" width="4" fill="white"/>
    <rect y="156" x="144" height="4" width="4" fill="white"/>
    <rect y="160" x="0" height="4" width="4" fill="white"/>
    <rect y="160" x="24" height="4" width="4" fill="white"/>
    <rect y="160" x="32" height="4" width="4" fill="white"/>
    <rect y="160" x="36" height="4" width="4" fill="white"/>
    <rect y="160" x="48" height="4" width="4" fill="white"/>
    <rect y="160" x="60" height="4" width="4" fill="white"/>
    <rect y="160" x="124" height="4" width="4" fill="white"/>
    <rect y="160" x="136" height="4" width="4" fill="white"/>
    <rect y="160" x="144" height="4" width="4" fill="white"/>
    <rect y="164" x="0" height="4" width="4" fill="white"/>
    <rect y="164" x="144" height="4" width="4" fill="white"/>
    <rect y="168" x="0" height="4" width="4" fill="white"/>
    <rect y="168" x="144" height="4" width="4" fill="white"/>
    <rect y="172" x="0" height="4" width="4" fill="white"/>
    <rect y="172" x="8" height="4" width="4" fill="white"/>
    <rect y="172" x="12" height="4" width="4" fill="white"/>
    <rect y="172" x="24" height="4" width="4" fill="white"/>
    <rect y="172" x="28" height="4" width="4" fill="white"/>
    <rect y="172" x="32" height="4" width="4" fill="white"/>
    <rect y="172" x="36" height="4" width="4" fill="white"/>
    <rect y="172" x="52" height="4" width="4" fill="white"/>
    <rect y="172" x="56" height="4" width="4" fill="white"/>
    <rect y="172" x="60" height="4" width="4" fill="white"/>
    <rect y="172" x="88" height="4" width="4" fill="white"/>
    <rect y="172" x="92" height="4" width="4" fill="white"/>
    <rect y="172" x="96" height="4" width="4" fill="white"/>
    <rect y="172" x="128" height="4" width="4" fill="white"/>
    <rect y="172" x="132" height="4" width="4" fill="white"/>
    <rect y="172" x="136" height="4" width="4" fill="white"/>
    <rect y="172" x="144" height="4" width="4" fill="white"/>
    <rect y="176" x="0" height="4" width="4" fill="white"/>
    <rect y="176" x="8" height="4" width="4" fill="white"/>
    <rect y="176" x="24" height="4" width="4" fill="white"/>
    <rect y="176" x="28" height="4" width="4" fill="white"/>
    <rect y="176" x="48" height="4" width="4" fill="white"/>
    <rect y="176" x="52" height="4" width="4" fill="white"/>
    <rect y="176" x="60" height="4" width="4" fill="white"/>
    <rect y="176" x="88" height="4" width="4" fill="white"/>
    <rect y="176" x="124" height="4" width="4" fill="white"/>
    <rect y="176" x="132" height="4" width="4" fill="white"/>
    <rect y="176" x="136" height="4" width="4" fill="white"/>
    <rect y="176" x="144" height="4" width="4" fill="white"/>
    <rect y="180" x="0" height="4" width="4" fill="white"/>
    <rect y="180" x="24" height="4" width="4" fill="white"/>
    <rect y="180" x="36" height="4" width="4" fill="white"/>
    <rect y="180" x="48" height="4" width="4" fill="white"/>
    <rect y="180" x="52" height="4" width="4" fill="white"/>
    <rect y="180" x="60" height="4" width="4" fill="white"/>
    <rect y="180" x="88" height="4" width="4" fill="white"/>
    <rect y="180" x="92" height="4" width="4" fill="white"/>
    <rect y="180" x="96" height="4" width="4" fill="white"/>
    <rect y="180" x="124" height="4" width="4" fill="white"/>
    <rect y="180" x="128" height="4" width="4" fill="white"/>
    <rect y="180" x="136" height="4" width="4" fill="white"/>
    <rect y="180" x="144" height="4" width="4" fill="white"/>
    <rect y="184" x="0" height="4" width="4" fill="white"/>
    <rect y="184" x="24" height="4" width="4" fill="white"/>
    <rect y="184" x="32" height="4" width="4" fill="white"/>
    <rect y="184" x="36" height="4" width="4" fill="white"/>
    <rect y="184" x="48" height="4" width="4" fill="white"/>
    <rect y="184" x="60" height="4" width="4" fill="white"/>
    <rect y="184" x="124" height="4" width="4" fill="white"/>
    <rect y="184" x="136" height="4" width="4" fill="white"/>
    <rect y="184" x="144" height="4" width="4" fill="white"/>
    <rect y="188" x="0" height="4" width="4" fill="white"/>
    <rect y="188" x="144" height="4" width="4" fill="white"/>
    <rect y="192" x="0" height="4" width="4" fill="white"/>
    <rect y="192" x="144" height="4" width="4" fill="white"/>
    <rect y="196" x="0" height="4" width="4" fill="white"/>
    <rect y="196" x="144" height="4" width="4" fill="white"/>
    <rect y="200" x="0" height="4" width="4" fill="white"/>
    <rect y="200" x="8" height="4" width="4" fill="white"/>
    <rect y="200" x="16" height="4" width="4" fill="white"/>
    <rect y="200" x="24" height="4" width="4" fill="white"/>
    <rect y="200" x="32" height="4" width="4" fill="white"/>
    <rect y="200" x="144" height="4" width="4" fill="white"/>
    <rect y="204" x="0" height="4" width="4" fill="white"/>
    <rect y="204" x="144" height="4" width="4" fill="white"/>
    <rect y="208" x="0" height="4" width="4" fill="white"/>
    <rect y="208" x="144" height="4" width="4" fill="white"/>
    <rect y="212" x="0" height="4" width="4" fill="white"/>
    <rect y="212" x="144" height="4" width="4" fill="white"/>
    <rect y="216" x="0" height="4" width="4" fill="white"/>
    <rect y="216" x="8" height="4" width="4" fill="white"/>
    <rect y="216" x="12" height="4" width="4" fill="white"/>
    <rect y="216" x="24" height="4" width="4" fill="white"/>
    <rect y="216" x="28" height="4" width="4" fill="white"/>
    <rect y="216" x="32" height="4" width="4" fill="white"/>
    <rect y="216" x="36" height="4" width="4" fill="white"/>
    <rect y="216" x="52" height="4" width="4" fill="white"/>
    <rect y="216" x="80" height="4" width="4" fill="white"/>
    <rect y="216" x="84" height="4" width="4" fill="white"/>
    <rect y="216" x="88" height="4" width="4" fill="white"/>
    <rect y="216" x="120" height="4" width="4" fill="white"/>
    <rect y="216" x="144" height="4" width="4" fill="white"/>
    <rect y="220" x="0" height="4" width="4" fill="white"/>
    <rect y="220" x="8" height="4" width="4" fill="white"/>
    <rect y="220" x="24" height="4" width="4" fill="white"/>
    <rect y="220" x="28" height="4" width="4" fill="white"/>
    <rect y="220" x="48" height="4" width="4" fill="white"/>
    <rect y="220" x="52" height="4" width="4" fill="white"/>
    <rect y="220" x="80" height="4" width="4" fill="white"/>
    <rect y="220" x="116" height="4" width="4" fill="white"/>
    <rect y="220" x="144" height="4" width="4" fill="white"/>
    <rect y="224" x="0" height="4" width="4" fill="white"/>
    <rect y="224" x="24" height="4" width="4" fill="white"/>
    <rect y="224" x="36" height="4" width="4" fill="white"/>
    <rect y="224" x="48" height="4" width="4" fill="white"/>
    <rect y="224" x="80" height="4" width="4" fill="white"/>
    <rect y="224" x="84" height="4" width="4" fill="white"/>
    <rect y="224" x="88" height="4" width="4" fill="white"/>
    <rect y="224" x="144" height="4" width="4" fill="white"/>
    <rect y="228" x="0" height="4" width="4" fill="white"/>
    <rect y="228" x="24" height="4" width="4" fill="white"/>
    <rect y="228" x="32" height="4" width="4" fill="white"/>
    <rect y="228" x="36" height="4" width="4" fill="white"/>
    <rect y="228" x="144" height="4" width="4" fill="white"/>
    <rect y="232" x="0" height="4" width="4" fill="white"/>
    <rect y="232" x="144" height="4" width="4" fill="white"/>
    <rect y="236" x="0" height="4" width="4" fill="white"/>
    <rect y="236" x="144" height="4" width="4" fill="white"/>
    <rect y="240" x="0" height="4" width="4" fill="white"/>
    <rect y="240" x="8" height="4" width="4" fill="white"/>
    <rect y="240" x="12" height="4" width="4" fill="white"/>
    <rect y="240" x="24" height="4" width="4" fill="white"/>
    <rect y="240" x="28" height="4" width="4" fill="white"/>
    <rect y="240" x="32" height="4" width="4" fill="white"/>
    <rect y="240" x="36" height="4" width="4" fill="white"/>
    <rect y="240" x="52" height="4" width="4" fill="white"/>
    <rect y="240" x="56" height="4" width="4" fill="white"/>
    <rect y="240" x="84" height="4" width="4" fill="white"/>
    <rect y="240" x="88" height="4" width="4" fill="white"/>
    <rect y="240" x="92" height="4" width="4" fill="white"/>
    <rect y="240" x="124" height="4" width="4" fill="white"/>
    <rect y="240" x="144" height="4" width="4" fill="white"/>
    <rect y="244" x="0" height="4" width="4" fill="white"/>
    <rect y="244" x="8" height="4" width="4" fill="white"/>
    <rect y="244" x="24" height="4" width="4" fill="white"/>
    <rect y="244" x="28" height="4" width="4" fill="white"/>
    <rect y="244" x="48" height="4" width="4" fill="white"/>
    <rect y="244" x="56" height="4" width="4" fill="white"/>
    <rect y="244" x="84" height="4" width="4" fill="white"/>
    <rect y="244" x="120" height="4" width="4" fill="white"/>
    <rect y="244" x="124" height="4" width="4" fill="white"/>
    <rect y="244" x="144" height="4" width="4" fill="white"/>
    <rect y="248" x="0" height="4" width="4" fill="white"/>
    <rect y="248" x="24" height="4" width="4" fill="white"/>
    <rect y="248" x="36" height="4" width="4" fill="white"/>
    <rect y="248" x="48" height="4" width="4" fill="white"/>
    <rect y="248" x="84" height="4" width="4" fill="white"/>
    <rect y="248" x="88" height="4" width="4" fill="white"/>
    <rect y="248" x="92" height="4" width="4" fill="white"/>
    <rect y="248" x="120" height="4" width="4" fill="white"/>
    <rect y="248" x="144" height="4" width="4" fill="white"/>
    <rect y="252" x="0" height="4" width="4" fill="white"/>
    <rect y="252" x="24" height="4" width="4" fill="white"/>
    <rect y="252" x="32" height="4" width="4" fill="white"/>
    <rect y="252" x="36" height="4" width="4" fill="white"/>
    <rect y="252" x="48" height="4" width="4" fill="white"/>
    <rect y="252" x="144" height="4" width="4" fill="white"/>
    <rect y="256" x="0" height="4" width="4" fill="white"/>
    <rect y="256" x="144" height="4" width="4" fill="white"/>
    <rect y="260" x="0" height="4" width="4" fill="white"/>
    <rect y="260" x="144" height="4" width="4" fill="white"/>
    <rect y="264" x="0" height="4" width="4" fill="white"/>
    <rect y="264" x="8" height="4" width="4" fill="white"/>
    <rect y="264" x="12" height="4" width="4" fill="white"/>
    <rect y="264" x="24" height="4" width="4" fill="white"/>
    <rect y="264" x="28" height="4" width="4" fill="white"/>
    <rect y="264" x="32" height="4" width="4" fill="white"/>
    <rect y="264" x="36" height="4" width="4" fill="white"/>
    <rect y="264" x="52" height="4" width="4" fill="white"/>
    <rect y="264" x="56" height="4" width="4" fill="white"/>
    <rect y="264" x="84" height="4" width="4" fill="white"/>
    <rect y="264" x="88" height="4" width="4" fill="white"/>
    <rect y="264" x="92" height="4" width="4" fill="white"/>
    <rect y="264" x="124" height="4" width="4" fill="white"/>
    <rect y="264" x="128" height="4" width="4" fill="white"/>
    <rect y="264" x="144" height="4" width="4" fill="white"/>
    <rect y="268" x="0" height="4" width="4" fill="white"/>
    <rect y="268" x="8" height="4" width="4" fill="white"/>
    <rect y="268" x="24" height="4" width="4" fill="white"/>
    <rect y="268" x="28" height="4" width="4" fill="white"/>
    <rect y="268" x="48" height="4" width="4" fill="white"/>
    <rect y="268" x="52" height="4" width="4" fill="white"/>
    <rect y="268" x="56" height="4" width="4" fill="white"/>
    <rect y="268" x="84" height="4" width="4" fill="white"/>
    <rect y="268" x="120" height="4" width="4" fill="white"/>
    <rect y="268" x="128" height="4" width="4" fill="white"/>
    <rect y="268" x="144" height="4" width="4" fill="white"/>
    <rect y="272" x="0" height="4" width="4" fill="white"/>
    <rect y="272" x="24" height="4" width="4" fill="white"/>
    <rect y="272" x="36" height="4" width="4" fill="white"/>
    <rect y="272" x="48" height="4" width="4" fill="white"/>
    <rect y="272" x="84" height="4" width="4" fill="white"/>
    <rect y="272" x="88" height="4" width="4" fill="white"/>
    <rect y="272" x="92" height="4" width="4" fill="white"/>
    <rect y="272" x="120" height="4" width="4" fill="white"/>
    <rect y="272" x="144" height="4" width="4" fill="white"/>
    <rect y="276" x="0" height="4" width="4" fill="white"/>
    <rect y="276" x="24" height="4" width="4" fill="white"/>
    <rect y="276" x="32" height="4" width="4" fill="white"/>
    <rect y="276" x="36" height="4" width="4" fill="white"/>
    <rect y="276" x="48" height="4" width="4" fill="white"/>
    <rect y="276" x="120" height="4" width="4" fill="white"/>
    <rect y="276" x="144" height="4" width="4" fill="white"/>
    <rect y="280" x="0" height="4" width="4" fill="white"/>
    <rect y="280" x="144" height="4" width="4" fill="white"/>
    <rect y="284" x="0" height="4" width="4" fill="white"/>
    <rect y="284" x="144" height="4" width="4" fill="white"/>
    <rect y="288" x="0" height="4" width="4" fill="white"/>
    <rect y="288" x="144" height="4" width="4" fill="white"/>
    <rect y="292" x="0" height="4" width="4" fill="white"/>
    <rect y="292" x="8" height="4" width="4" fill="white"/>
    <rect y="292" x="16" height="4" width="4" fill="white"/>
    <rect y="292" x="24" height="4" width="4" fill="white"/>
    <rect y="292" x="32" height="4" width="4" fill="white"/>
    <rect y="292" x="144" height="4" width="4" fill="white"/>
    <rect y="296" x="0" height="4" width="4" fill="white"/>
    <rect y="296" x="144" height="4" width="4" fill="white"/>
    <rect y="300" x="0" height="4" width="4" fill="white"/>
    <rect y="300" x="4" height="4" width="4" fill="white"/>
    <rect y="300" x="8" height="4" width="4" fill="white"/>
    <rect y="300" x="12" height="4" width="4" fill="white"/>
    <rect y="300" x="16" height="4" width="4" fill="white"/>
    <rect y="300" x="20" height="4" width="4" fill="white"/>
    <rect y="300" x="24" height="4" width="4" fill="white"/>
    <rect y="300" x="28" height="4" width="4" fill="white"/>
    <rect y="300" x="32" height="4" width="4" fill="white"/>
    <rect y="300" x="36" height="4" width="4" fill="white"/>
    <rect y="300" x="40" height="4" width="4" fill="white"/>
    <rect y="300" x="44" height="4" width="4" fill="white"/>
    <rect y="300" x="48" height="4" width="4" fill="white"/>
    <rect y="300" x="52" height="4" width="4" fill="white"/>
    <rect y="300" x="56" height="4" width="4" fill="white"/>
    <rect y="300" x="60" height="4" width="4" fill="white"/>
    <rect y="300" x="64" height="4" width="4" fill="white"/>
    <rect y="300" x="68" height="4" width="4" fill="white"/>
    <rect y="300" x="72" height="4" width="4" fill="white"/>
    <rect y="300" x="76" height="4" width="4" fill="white"/>
    <rect y="300" x="80" height="4" width="4" fill="white"/>
    <rect y="300" x="84" height="4" width="4" fill="white"/>
    <rect y="300" x="88" height="4" width="4" fill="white"/>
    <rect y="300" x="92" height="4" width="4" fill="white"/>
    <rect y="300" x="96" height="4" width="4" fill="white"/>
    <rect y="300" x="100" height="4" width="4" fill="white"/>
    <rect y="300" x="104" height="4" width="4" fill="white"/>
    <rect y="300" x="108" height="4" width="4" fill="white"/>
    <rect y="300" x="112" height="4" width="4" fill="white"/>
    <rect y="300" x="116" height="4" width="4" fill="white"/>
    <rect y="300" x="120" height="4" width="4" fill="white"/>
    <rect y="300" x="124" height="4" width="4" fill="white"/>
    <rect y="300" x="128" height="4" width="4" fill="white"/>
    <rect y="300" x="132" height="4" width="4" fill="white"/>
    <rect y="300" x="136" height="4" width="4" fill="white"/>
    <rect y="300" x="140" height="4" width="4" fill="white"/>
    <rect y="300" x="144" height="4" width="4" fill="white"/>
    
  <rect y="8" x="8" height="16" width="16" fill="green" fill-opacity="0.4"/>
<text y="16" x="16" dominant-baseline='middle' text-anchor='middle' fill='white' style='paint-order: stroke; fill: white; stroke: black; stroke-width: 2px; font-size: 10px'>inc</text>
<rect y="32" x="8" height="8" width="8" fill="green" fill-opacity="0.4"/>
<text y="36" x="12" dominant-baseline='middle' text-anchor='middle' fill='white' style='paint-order: stroke; fill: white; stroke: black; stroke-width: 2px; font-size: 10px'>ap</text>
<rect y="32" x="24" height="16" width="16" fill="green" fill-opacity="0.4"/>
<text y="40" x="32" dominant-baseline='middle' text-anchor='middle' fill='white' style='paint-order: stroke; fill: white; stroke: black; stroke-width: 2px; font-size: 10px'>inc</text>
<rect y="32" x="48" height="8" width="8" fill="yellow" fill-opacity="0.4"/>
<text y="36" x="52" dominant-baseline='middle' text-anchor='middle' fill='white' style='paint-order: stroke; fill: white; stroke: black; stroke-width: 2px; font-size: 10px'>0</text>
<rect y="32" x="80" height="12" width="12" fill="green" fill-opacity="0.4"/>
<text y="38" x="86" dominant-baseline='middle' text-anchor='middle' fill='white' style='paint-order: stroke; fill: white; stroke: black; stroke-width: 2px; font-size: 10px'>==</text>
<rect y="32" x="116" height="8" width="8" fill="yellow" fill-opacity="0.4"/>
<text y="36" x="120" dominant-baseline='middle' text-anchor='middle' fill='white' style='paint-order: stroke; fill: white; stroke: black; stroke-width: 2px; font-size: 10px'>1</text>
<rect y="56" x="8" height="8" width="8" fill="green" fill-opacity="0.4"/>
<text y="60" x="12" dominant-baseline='middle' text-anchor='middle' fill='white' style='paint-order: stroke; fill: white; stroke: black; stroke-width: 2px; font-size: 10px'>ap</text>
<rect y="56" x="24" height="16" width="16" fill="green" fill-opacity="0.4"/>
<text y="64" x="32" dominant-baseline='middle' text-anchor='middle' fill='white' style='paint-order: stroke; fill: white; stroke: black; stroke-width: 2px; font-size: 10px'>inc</text>
<rect y="56" x="48" height="8" width="8" fill="yellow" fill-opacity="0.4"/>
<text y="60" x="52" dominant-baseline='middle' text-anchor='middle' fill='white' style='paint-order: stroke; fill: white; stroke: black; stroke-width: 2px; font-size: 10px'>1</text>
<rect y="56" x="80" height="12" width="12" fill="green" fill-opacity="0.4"/>
<text y="62" x="86" dominant-baseline='middle' text-anchor='middle' fill='white' style='paint-order: stroke; fill: white; stroke: black; stroke-width: 2px; font-size: 10px'>==</text>
<rect y="56" x="116" height="12" width="12" fill="yellow" fill-opacity="0.4"/>
<text y="62" x="122" dominant-baseline='middle' text-anchor='middle' fill='white' style='paint-order: stroke; fill: white; stroke: black; stroke-width: 2px; font-size: 10px'>2</text>
<rect y="80" x="8" height="8" width="8" fill="green" fill-opacity="0.4"/>
<text y="84" x="12" dominant-baseline='middle' text-anchor='middle' fill='white' style='paint-order: stroke; fill: white; stroke: black; stroke-width: 2px; font-size: 10px'>ap</text>
<rect y="80" x="24" height="16" width="16" fill="green" fill-opacity="0.4"/>
<text y="88" x="32" dominant-baseline='middle' text-anchor='middle' fill='white' style='paint-order: stroke; fill: white; stroke: black; stroke-width: 2px; font-size: 10px'>inc</text>
<rect y="80" x="48" height="12" width="12" fill="yellow" fill-opacity="0.4"/>
<text y="86" x="54" dominant-baseline='middle' text-anchor='middle' fill='white' style='paint-order: stroke; fill: white; stroke: black; stroke-width: 2px; font-size: 10px'>2</text>
<rect y="80" x="84" height="12" width="12" fill="green" fill-opacity="0.4"/>
<text y="86" x="90" dominant-baseline='middle' text-anchor='middle' fill='white' style='paint-order: stroke; fill: white; stroke: black; stroke-width: 2px; font-size: 10px'>==</text>
<rect y="80" x="120" height="12" width="12" fill="yellow" fill-opacity="0.4"/>
<text y="86" x="126" dominant-baseline='middle' text-anchor='middle' fill='white' style='paint-order: stroke; fill: white; stroke: black; stroke-width: 2px; font-size: 10px'>3</text>
<rect y="104" x="8" height="8" width="8" fill="green" fill-opacity="0.4"/>
<text y="108" x="12" dominant-baseline='middle' text-anchor='middle' fill='white' style='paint-order: stroke; fill: white; stroke: black; stroke-width: 2px; font-size: 10px'>ap</text>
<rect y="104" x="24" height="16" width="16" fill="green" fill-opacity="0.4"/>
<text y="112" x="32" dominant-baseline='middle' text-anchor='middle' fill='white' style='paint-order: stroke; fill: white; stroke: black; stroke-width: 2px; font-size: 10px'>inc</text>
<rect y="104" x="48" height="12" width="12" fill="yellow" fill-opacity="0.4"/>
<text y="110" x="54" dominant-baseline='middle' text-anchor='middle' fill='white' style='paint-order: stroke; fill: white; stroke: black; stroke-width: 2px; font-size: 10px'>3</text>
<rect y="104" x="84" height="12" width="12" fill="green" fill-opacity="0.4"/>
<text y="110" x="90" dominant-baseline='middle' text-anchor='middle' fill='white' style='paint-order: stroke; fill: white; stroke: black; stroke-width: 2px; font-size: 10px'>==</text>
<rect y="104" x="120" height="12" width="12" fill="yellow" fill-opacity="0.4"/>
<text y="110" x="126" dominant-baseline='middle' text-anchor='middle' fill='white' style='paint-order: stroke; fill: white; stroke: black; stroke-width: 2px; font-size: 10px'>4</text>
<rect y="132" x="8" height="4" width="28" fill="black" fill-opacity="0.4"/>
<text y="134" x="22" dominant-baseline='middle' text-anchor='middle' fill='white' style='paint-order: stroke; fill: white; stroke: black; stroke-width: 2px; font-size: 10px'>...</text>
<rect y="148" x="8" height="8" width="8" fill="green" fill-opacity="0.4"/>
<text y="152" x="12" dominant-baseline='middle' text-anchor='middle' fill='white' style='paint-order: stroke; fill: white; stroke: black; stroke-width: 2px; font-size: 10px'>ap</text>
<rect y="148" x="24" height="16" width="16" fill="green" fill-opacity="0.4"/>
<text y="156" x="32" dominant-baseline='middle' text-anchor='middle' fill='white' style='paint-order: stroke; fill: white; stroke: black; stroke-width: 2px; font-size: 10px'>inc</text>
<rect y="148" x="48" height="16" width="16" fill="yellow" fill-opacity="0.4"/>
<text y="156" x="56" dominant-baseline='middle' text-anchor='middle' fill='white' style='paint-order: stroke; fill: white; stroke: black; stroke-width: 2px; font-size: 10px'>300</text>
<rect y="148" x="88" height="12" width="12" fill="green" fill-opacity="0.4"/>
<text y="154" x="94" dominant-baseline='middle' text-anchor='middle' fill='white' style='paint-order: stroke; fill: white; stroke: black; stroke-width: 2px; font-size: 10px'>==</text>
<rect y="148" x="124" height="16" width="16" fill="yellow" fill-opacity="0.4"/>
<text y="156" x="132" dominant-baseline='middle' text-anchor='middle' fill='white' style='paint-order: stroke; fill: white; stroke: black; stroke-width: 2px; font-size: 10px'>301</text>
<rect y="172" x="8" height="8" width="8" fill="green" fill-opacity="0.4"/>
<text y="176" x="12" dominant-baseline='middle' text-anchor='middle' fill='white' style='paint-order: stroke; fill: white; stroke: black; stroke-width: 2px; font-size: 10px'>ap</text>
<rect y="172" x="24" height="16" width="16" fill="green" fill-opacity="0.4"/>
<text y="180" x="32" dominant-baseline='middle' text-anchor='middle' fill='white' style='paint-order: stroke; fill: white; stroke: black; stroke-width: 2px; font-size: 10px'>inc</text>
<rect y="172" x="48" height="16" width="16" fill="yellow" fill-opacity="0.4"/>
<text y="180" x="56" dominant-baseline='middle' text-anchor='middle' fill='white' style='paint-order: stroke; fill: white; stroke: black; stroke-width: 2px; font-size: 10px'>301</text>
<rect y="172" x="88" height="12" width="12" fill="green" fill-opacity="0.4"/>
<text y="178" x="94" dominant-baseline='middle' text-anchor='middle' fill='white' style='paint-order: stroke; fill: white; stroke: black; stroke-width: 2px; font-size: 10px'>==</text>
<rect y="172" x="124" height="16" width="16" fill="yellow" fill-opacity="0.4"/>
<text y="180" x="132" dominant-baseline='middle' text-anchor='middle' fill='white' style='paint-order: stroke; fill: white; stroke: black; stroke-width: 2px; font-size: 10px'>302</text>
<rect y="200" x="8" height="4" width="28" fill="black" fill-opacity="0.4"/>
<text y="202" x="22" dominant-baseline='middle' text-anchor='middle' fill='white' style='paint-order: stroke; fill: white; stroke: black; stroke-width: 2px; font-size: 10px'>...</text>
<rect y="216" x="8" height="8" width="8" fill="green" fill-opacity="0.4"/>
<text y="220" x="12" dominant-baseline='middle' text-anchor='middle' fill='white' style='paint-order: stroke; fill: white; stroke: black; stroke-width: 2px; font-size: 10px'>ap</text>
<rect y="216" x="24" height="16" width="16" fill="green" fill-opacity="0.4"/>
<text y="224" x="32" dominant-baseline='middle' text-anchor='middle' fill='white' style='paint-order: stroke; fill: white; stroke: black; stroke-width: 2px; font-size: 10px'>inc</text>
<rect y="216" x="48" height="12" width="8" fill="yellow" fill-opacity="0.4"/>
<text y="222" x="52" dominant-baseline='middle' text-anchor='middle' fill='white' style='paint-order: stroke; fill: white; stroke: black; stroke-width: 2px; font-size: 10px'>-1</text>
<rect y="216" x="80" height="12" width="12" fill="green" fill-opacity="0.4"/>
<text y="222" x="86" dominant-baseline='middle' text-anchor='middle' fill='white' style='paint-order: stroke; fill: white; stroke: black; stroke-width: 2px; font-size: 10px'>==</text>
<rect y="216" x="116" height="8" width="8" fill="yellow" fill-opacity="0.4"/>
<text y="220" x="120" dominant-baseline='middle' text-anchor='middle' fill='white' style='paint-order: stroke; fill: white; stroke: black; stroke-width: 2px; font-size: 10px'>0</text>
<rect y="240" x="8" height="8" width="8" fill="green" fill-opacity="0.4"/>
<text y="244" x="12" dominant-baseline='middle' text-anchor='middle' fill='white' style='paint-order: stroke; fill: white; stroke: black; stroke-width: 2px; font-size: 10px'>ap</text>
<rect y="240" x="24" height="16" width="16" fill="green" fill-opacity="0.4"/>
<text y="248" x="32" dominant-baseline='middle' text-anchor='middle' fill='white' style='paint-order: stroke; fill: white; stroke: black; stroke-width: 2px; font-size: 10px'>inc</text>
<rect y="240" x="48" height="16" width="12" fill="yellow" fill-opacity="0.4"/>
<text y="248" x="54" dominant-baseline='middle' text-anchor='middle' fill='white' style='paint-order: stroke; fill: white; stroke: black; stroke-width: 2px; font-size: 10px'>-2</text>
<rect y="240" x="84" height="12" width="12" fill="green" fill-opacity="0.4"/>
<text y="246" x="90" dominant-baseline='middle' text-anchor='middle' fill='white' style='paint-order: stroke; fill: white; stroke: black; stroke-width: 2px; font-size: 10px'>==</text>
<rect y="240" x="120" height="12" width="8" fill="yellow" fill-opacity="0.4"/>
<text y="246" x="124" dominant-baseline='middle' text-anchor='middle' fill='white' style='paint-order: stroke; fill: white; stroke: black; stroke-width: 2px; font-size: 10px'>-1</text>
<rect y="264" x="8" height="8" width="8" fill="green" fill-opacity="0.4"/>
<text y="268" x="12" dominant-baseline='middle' text-anchor='middle' fill='white' style='paint-order: stroke; fill: white; stroke: black; stroke-width: 2px; font-size: 10px'>ap</text>
<rect y="264" x="24" height="16" width="16" fill="green" fill-opacity="0.4"/>
<text y="272" x="32" dominant-baseline='middle' text-anchor='middle' fill='white' style='paint-order: stroke; fill: white; stroke: black; stroke-width: 2px; font-size: 10px'>inc</text>
<rect y="264" x="48" height="16" width="12" fill="yellow" fill-opacity="0.4"/>
<text y="272" x="54" dominant-baseline='middle' text-anchor='middle' fill='white' style='paint-order: stroke; fill: white; stroke: black; stroke-width: 2px; font-size: 10px'>-3</text>
<rect y="264" x="84" height="12" width="12" fill="green" fill-opacity="0.4"/>
<text y="270" x="90" dominant-baseline='middle' text-anchor='middle' fill='white' style='paint-order: stroke; fill: white; stroke: black; stroke-width: 2px; font-size: 10px'>==</text>
<rect y="264" x="120" height="16" width="12" fill="yellow" fill-opacity="0.4"/>
<text y="272" x="126" dominant-baseline='middle' text-anchor='middle' fill='white' style='paint-order: stroke; fill: white; stroke: black; stroke-width: 2px; font-size: 10px'>-2</text>
<rect y="292" x="8" height="4" width="28" fill="black" fill-opacity="0.4"/>
<text y="294" x="22" dominant-baseline='middle' text-anchor='middle' fill='white' style='paint-order: stroke; fill: white; stroke: black; stroke-width: 2px; font-size: 10px'>...</text>

</svg>
