<?xml version="1.0"?>
<svg xmlns="http://www.w3.org/2000/svg" height="284" width="156">
  <rect y="0" x="0" height="284" width="156" fill="black" />
  <rect y="0" x="0" height="4" width="4" fill="white"/>
    <rect y="0" x="4" height="4" width="4" fill="white"/>
    <rect y="0" x="8" height="4" width="4" fill="white"/>
    <rect y="0" x="12" height="4" width="4" fill="white"/>
    <rect y="0" x="16" height="4" width="4" fill="white"/>
    <rect y="0" x="20" height="4" width="4" fill="white"/>
    <rect y="0" x="24" height="4" width="4" fill="white"/>
    <rect y="0" x="28" height="4" width="4" fill="white"/>
    <rect y="0" x="32" height="4" width="4" fill="white"/>
    <rect y="0" x="36" height="4" width="4" fill="white"/>
    <rect y="0" x="40" height="4" width="4" fill="white"/>
    <rect y="0" x="44" height="4" width="4" fill="white"/>
    <rect y="0" x="48" height="4" width="4" fill="white"/>
    <rect y="0" x="52" height="4" width="4" fill="white"/>
    <rect y="0" x="56" height="4" width="4" fill="white"/>
    <rect y="0" x="60" height="4" width="4" fill="white"/>
    <rect y="0" x="64" height="4" width="4" fill="white"/>
    <rect y="0" x="68" height="4" width="4" fill="white"/>
    <rect y="0" x="72" height="4" width="4" fill="white"/>
    <rect y="0" x="76" height="4" width="4" fill="white"/>
    <rect y="0" x="80" height="4" width="4" fill="white"/>
    <rect y="0" x="84" height="4" width="4" fill="white"/>
    <rect y="0" x="88" height="4" width="4" fill="white"/>
    <rect y="0" x="92" height="4" width="4" fill="white"/>
    <rect y="0" x="96" height="4" width="4" fill="white"/>
    <rect y="0" x="100" height="4" width="4" fill="white"/>
    <rect y="0" x="104" height="4" width="4" fill="white"/>
    <rect y="0" x="108" height="4" width="4" fill="white"/>
    <rect y="0" x="112" height="4" width="4" fill="white"/>
    <rect y="0" x="116" height="4" width="4" fill="white"/>
    <rect y="0" x="120" height="4" width="4" fill="white"/>
    <rect y="0" x="124" height="4" width="4" fill="white"/>
    <rect y="0" x="128" height="4" width="4" fill="white"/>
    <rect y="0" x="132" height="4" width="4" fill="white"/>
    <rect y="0" x="136" height="4" width="4" fill="white"/>
    <rect y="0" x="140" height="4" width="4" fill="white"/>
    <rect y="0" x="144" height="4" width="4" fill="white"/>
    <rect y="0" x="148" height="4" width="4" fill="white"/>
    <rect y="0" x="152" height="4" width="4" fill="white"/>
    <rect y="4" x="0" height="4" width="4" fill="white"/>
    <rect y="4" x="152" height="4" width="4" fill="white"/>
    <rect y="8" x="0" height="4" width="4" fill="white"/>
    <rect y="8" x="8" height="4" width="4" fill="white"/>
    <rect y="8" x="12" height="4" width="4" fill="white"/>
    <rect y="8" x="16" height="4" width="4" fill="white"/>
    <rect y="8" x="20" height="4" width="4" fill="white"/>
    <rect y="8" x="152" height="4" width="4" fill="white"/>
    <rect y="12" x="0" height="4" width="4" fill="white"/>
    <rect y="12" x="8" height="4" width="4" fill="white"/>
    <rect y="12" x="12" height="4" width="4" fill="white"/>
    <rect y="12" x="152" height="4" width="4" fill="white"/>
    <rect y="16" x="0" height="4" width="4" fill="white"/>
    <rect y="16" x="8" height="4" width="4" fill="white"/>
    <rect y="16" x="16" height="4" width="4" fill="white"/>
    <rect y="16" x="152" height="4" width="4" fill="white"/>
    <rect y="20" x="0" height="4" width="4" fill="white"/>
    <rect y="20" x="8" height="4" width="4" fill="white"/>
    <rect y="20" x="16" height="4" width="4" fill="white"/>
    <rect y="20" x="20" height="4" width="4" fill="white"/>
    <rect y="20" x="152" height="4" width="4" fill="white"/>
    <rect y="24" x="0" height="4" width="4" fill="white"/>
    <rect y="24" x="152" height="4" width="4" fill="white"/>
    <rect y="28" x="0" height="4" width="4" fill="white"/>
    <rect y="28" x="152" height="4" width="4" fill="white"/>
    <rect y="32" x="0" height="4" width="4" fill="white"/>
    <rect y="32" x="8" height="4" width="4" fill="white"/>
    <rect y="32" x="12" height="4" width="4" fill="white"/>
    <rect y="32" x="24" height="4" width="4" fill="white"/>
    <rect y="32" x="28" height="4" width="4" fill="white"/>
    <rect y="32" x="32" height="4" width="4" fill="white"/>
    <rect y="32" x="36" height="4" width="4" fill="white"/>
    <rect y="32" x="52" height="4" width="4" fill="white"/>
    <rect y="32" x="80" height="4" width="4" fill="white"/>
    <rect y="32" x="84" height="4" width="4" fill="white"/>
    <rect y="32" x="88" height="4" width="4" fill="white"/>
    <rect y="32" x="120" height="4" width="4" fill="white"/>
    <rect y="32" x="152" height="4" width="4" fill="white"/>
    <rect y="36" x="0" height="4" width="4" fill="white"/>
    <rect y="36" x="8" height="4" width="4" fill="white"/>
    <rect y="36" x="24" height="4" width="4" fill="white"/>
    <rect y="36" x="28" height="4" width="4" fill="white"/>
    <rect y="36" x="48" height="4" width="4" fill="white"/>
    <rect y="36" x="52" height="4" width="4" fill="white"/>
    <rect y="36" x="80" height="4" width="4" fill="white"/>
    <rect y="36" x="116" height="4" width="4" fill="white"/>
    <rect y="36" x="152" height="4" width="4" fill="white"/>
    <rect y="40" x="0" height="4" width="4" fill="white"/>
    <rect y="40" x="24" height="4" width="4" fill="white"/>
    <rect y="40" x="32" height="4" width="4" fill="white"/>
    <rect y="40" x="80" height="4" width="4" fill="white"/>
    <rect y="40" x="84" height="4" width="4" fill="white"/>
    <rect y="40" x="88" height="4" width="4" fill="white"/>
    <rect y="40" x="152" height="4" width="4" fill="white"/>
    <rect y="44" x="0" height="4" width="4" fill="white"/>
    <rect y="44" x="24" height="4" width="4" fill="white"/>
    <rect y="44" x="32" height="4" width="4" fill="white"/>
    <rect y="44" x="36" height="4" width="4" fill="white"/>
    <rect y="44" x="152" height="4" width="4" fill="white"/>
    <rect y="48" x="0" height="4" width="4" fill="white"/>
    <rect y="48" x="152" height="4" width="4" fill="white"/>
    <rect y="52" x="0" height="4" width="4" fill="white"/>
    <rect y="52" x="152" height="4" width="4" fill="white"/>
    <rect y="56" x="0" height="4" width="4" fill="white"/>
    <rect y="56" x="8" height="4" width="4" fill="white"/>
    <rect y="56" x="12" height="4" width="4" fill="white"/>
    <rect y="56" x="24" height="4" width="4" fill="white"/>
    <rect y="56" x="28" height="4" width="4" fill="white"/>
    <rect y="56" x="32" height="4" width="4" fill="white"/>
    <rect y="56" x="36" height="4" width="4" fill="white"/>
    <rect y="56" x="52" height="4" width="4" fill="white"/>
    <rect y="56" x="56" height="4" width="4" fill="white"/>
    <rect y="56" x="84" height="4" width="4" fill="white"/>
    <rect y="56" x="88" height="4" width="4" fill="white"/>
    <rect y="56" x="92" height="4" width="4" fill="white"/>
    <rect y="56" x="124" height="4" width="4" fill="white"/>
    <rect y="56" x="152" height="4" width="4" fill="white"/>
    <rect y="60" x="0" height="4" width="4" fill="white"/>
    <rect y="60" x="8" height="4" width="4" fill="white"/>
    <rect y="60" x="24" height="4" width="4" fill="white"/>
    <rect y="60" x="28" height="4" width="4" fill="white"/>
    <rect y="60" x="48" height="4" width="4" fill="white"/>
    <rect y="60" x="56" height="4" width="4" fill="white"/>
    <rect y="60" x="84" height="4" width="4" fill="white"/>
    <rect y="60" x="120" height="4" width="4" fill="white"/>
    <rect y="60" x="124" height="4" width="4" fill="white"/>
    <rect y="60" x="152" height="4" width="4" fill="white"/>
    <rect y="64" x="0" height="4" width="4" fill="white"/>
    <rect y="64" x="24" height="4" width="4" fill="white"/>
    <rect y="64" x="32" height="4" width="4" fill="white"/>
    <rect y="64" x="48" height="4" width="4" fill="white"/>
    <rect y="64" x="84" height="4" width="4" fill="white"/>
    <rect y="64" x="88" height="4" width="4" fill="white"/>
    <rect y="64" x="92" height="4" width="4" fill="white"/>
    <rect y="64" x="152" height="4" width="4" fill="white"/>
    <rect y="68" x="0" height="4" width="4" fill="white"/>
    <rect y="68" x="24" height="4" width="4" fill="white"/>
    <rect y="68" x="32" height="4" width="4" fill="white"/>
    <rect y="68" x="36" height="4" width="4" fill="white"/>
    <rect y="68" x="152" height="4" width="4" fill="white"/>
    <rect y="72" x="0" height="4" width="4" fill="white"/>
    <rect y="72" x="152" height="4" width="4" fill="white"/>
    <rect y="76" x="0" height="4" width="4" fill="white"/>
    <rect y="76" x="152" height="4" width="4" fill="white"/>
    <rect y="80" x="0" height="4" width="4" fill="white"/>
    <rect y="80" x="8" height="4" width="4" fill="white"/>
    <rect y="80" x="12" height="4" width="4" fill="white"/>
    <rect y="80" x="24" height="4" width="4" fill="white"/>
    <rect y="80" x="28" height="4" width="4" fill="white"/>
    <rect y="80" x="32" height="4" width="4" fill="white"/>
    <rect y="80" x="36" height="4" width="4" fill="white"/>
    <rect y="80" x="52" height="4" width="4" fill="white"/>
    <rect y="80" x="56" height="4" width="4" fill="white"/>
    <rect y="80" x="84" height="4" width="4" fill="white"/>
    <rect y="80" x="88" height="4" width="4" fill="white"/>
    <rect y="80" x="92" height="4" width="4" fill="white"/>
    <rect y="80" x="124" height="4" width="4" fill="white"/>
    <rect y="80" x="128" height="4" width="4" fill="white"/>
    <rect y="80" x="152" height="4" width="4" fill="white"/>
    <rect y="84" x="0" height="4" width="4" fill="white"/>
    <rect y="84" x="8" height="4" width="4" fill="white"/>
    <rect y="84" x="24" height="4" width="4" fill="white"/>
    <rect y="84" x="28" height="4" width="4" fill="white"/>
    <rect y="84" x="48" height="4" width="4" fill="white"/>
    <rect y="84" x="52" height="4" width="4" fill="white"/>
    <rect y="84" x="56" height="4" width="4" fill="white"/>
    <rect y="84" x="84" height="4" width="4" fill="white"/>
    <rect y="84" x="120" height="4" width="4" fill="white"/>
    <rect y="84" x="128" height="4" width="4" fill="white"/>
    <rect y="84" x="152" height="4" width="4" fill="white"/>
    <rect y="88" x="0" height="4" width="4" fill="white"/>
    <rect y="88" x="24" height="4" width="4" fill="white"/>
    <rect y="88" x="32" height="4" width="4" fill="white"/>
    <rect y="88" x="48" height="4" width="4" fill="white"/>
    <rect y="88" x="84" height="4" width="4" fill="white"/>
    <rect y="88" x="88" height="4" width="4" fill="white"/>
    <rect y="88" x="92" height="4" width="4" fill="white"/>
    <rect y="88" x="120" height="4" width="4" fill="white"/>
    <rect y="88" x="152" height="4" width="4" fill="white"/>
    <rect y="92" x="0" height="4" width="4" fill="white"/>
    <rect y="92" x="24" height="4" width="4" fill="white"/>
    <rect y="92" x="32" height="4" width="4" fill="white"/>
    <rect y="92" x="36" height="4" width="4" fill="white"/>
    <rect y="92" x="152" height="4" width="4" fill="white"/>
    <rect y="96" x="0" height="4" width="4" fill="white"/>
    <rect y="96" x="152" height="4" width="4" fill="white"/>
    <rect y="100" x="0" height="4" width="4" fill="white"/>
    <rect y="100" x="152" height="4" width="4" fill="white"/>
    <rect y="104" x="0" height="4" width="4" fill="white"/>
    <rect y="104" x="8" height="4" width="4" fill="white"/>
    <rect y="104" x="12" height="4" width="4" fill="white"/>
    <rect y="104" x="24" height="4" width="4" fill="white"/>
    <rect y="104" x="28" height="4" width="4" fill="white"/>
    <rect y="104" x="32" height="4" width="4" fill="white"/>
    <rect y="104" x="36" height="4" width="4" fill="white"/>
    <rect y="104" x="52" height="4" width="4" fill="white"/>
    <rect y="104" x="56" height="4" width="4" fill="white"/>
    <rect y="104" x="84" height="4" width="4" fill="white"/>
    <rect y="104" x="88" height="4" width="4" fill="white"/>
    <rect y="104" x="92" height="4" width="4" fill="white"/>
    <rect y="104" x="124" height="4" width="4" fill="white"/>
    <rect y="104" x="128" height="4" width="4" fill="white"/>
    <rect y="104" x="152" height="4" width="4" fill="white"/>
    <rect y="108" x="0" height="4" width="4" fill="white"/>
    <rect y="108" x="8" height="4" width="4" fill="white"/>
    <rect y="108" x="24" height="4" width="4" fill="white"/>
    <rect y="108" x="28" height="4" width="4" fill="white"/>
    <rect y="108" x="48" height="4" width="4" fill="white"/>
    <rect y="108" x="84" height="4" width="4" fill="white"/>
    <rect y="108" x="120" height="4" width="4" fill="white"/>
    <rect y="108" x="124" height="4" width="4" fill="white"/>
    <rect y="108" x="128" height="4" width="4" fill="white"/>
    <rect y="108" x="152" height="4" width="4" fill="white"/>
    <rect y="112" x="0" height="4" width="4" fill="white"/>
    <rect y="112" x="24" height="4" width="4" fill="white"/>
    <rect y="112" x="32" height="4" width="4" fill="white"/>
    <rect y="112" x="48" height="4" width="4" fill="white"/>
    <rect y="112" x="52" height="4" width="4" fill="white"/>
    <rect y="112" x="84" height="4" width="4" fill="white"/>
    <rect y="112" x="88" height="4" width="4" fill="white"/>
    <rect y="112" x="92" height="4" width="4" fill="white"/>
    <rect y="112" x="120" height="4" width="4" fill="white"/>
    <rect y="112" x="152" height="4" width="4" fill="white"/>
    <rect y="116" x="0" height="4" width="4" fill="white"/>
    <rect y="116" x="24" height="4" width="4" fill="white"/>
    <rect y="116" x="32" height="4" width="4" fill="white"/>
    <rect y="116" x="36" height="4" width="4" fill="white"/>
    <rect y="116" x="152" height="4" width="4" fill="white"/>
    <rect y="120" x="0" height="4" width="4" fill="white"/>
    <rect y="120" x="152" height="4" width="4" fill="white"/>
    <rect y="124" x="0" height="4" width="4" fill="white"/>
    <rect y="124" x="152" height="4" width="4" fill="white"/>
    <rect y="128" x="0" height="4" width="4" fill="white"/>
    <rect y="128" x="152" height="4" width="4" fill="white"/>
    <rect y="132" x="0" height="4" width="4" fill="white"/>
    <rect y="132" x="8" height="4" width="4" fill="white"/>
    <rect y="132" x="16" height="4" width="4" fill="white"/>
    <rect y="132" x="24" height="4" width="4" fill="white"/>
    <rect y="132" x="32" height="4" width="4" fill="white"/>
    <rect y="132" x="152" height="4" width="4" fill="white"/>
    <rect y="136" x="0" height="4" width="4" fill="white"/>
    <rect y="136" x="152" height="4" width="4" fill="white"/>
    <rect y="140" x="0" height="4" width="4" fill="white"/>
    <rect y="140" x="152" height="4" width="4" fill="white"/>
    <rect y="144" x="0" height="4" width="4" fill="white"/>
    <rect y="144" x="152" height="4" width="4" fill="white"/>
    <rect y="148" x="0" height="4" width="4" fill="white"/>
    <rect y="148" x="8" height="4" width="4" fill="white"/>
    <rect y="148" x="12" height="4" width="4" fill="white"/>
    <rect y="148" x="24" height="4" width="4" fill="white"/>
    <rect y="148" x="28" height="4" width="4" fill="white"/>
    <rect y="148" x="32" height="4" width="4" fill="white"/>
    <rect y="148" x="36" height="4" width="4" fill="white"/>
    <rect y="148" x="52" height="4" width="4" fill="white"/>
    <rect y="148" x="56" height="4" width="4" fill="white"/>
    <rect y="148" x="60" height="4" width="4" fill="white"/>
    <rect y="148" x="64" height="4" width="4" fill="white"/>
    <rect y="148" x="92" height="4" width="4" fill="white"/>
    <rect y="148" x="96" height="4" width="4" fill="white"/>
    <rect y="148" x="100" height="4" width="4" fill="white"/>
    <rect y="148" x="132" height="4" width="4" fill="white"/>
    <rect y="148" x="136" height="4" width="4" fill="white"/>
    <rect y="148" x="140" height="4" width="4" fill="white"/>
    <rect y="148" x="144" height="4" width="4" fill="white"/>
    <rect y="148" x="152" height="4" width="4" fill="white"/>
    <rect y="152" x="0" height="4" width="4" fill="white"/>
    <rect y="152" x="8" height="4" width="4" fill="white"/>
    <rect y="152" x="24" height="4" width="4" fill="white"/>
    <rect y="152" x="28" height="4" width="4" fill="white"/>
    <rect y="152" x="48" height="4" width="4" fill="white"/>
    <rect y="152" x="92" height="4" width="4" fill="white"/>
    <rect y="152" x="128" height="4" width="4" fill="white"/>
    <rect y="152" x="132" height="4" width="4" fill="white"/>
    <rect y="152" x="136" height="4" width="4" fill="white"/>
    <rect y="152" x="140" height="4" width="4" fill="white"/>
    <rect y="152" x="144" height="4" width="4" fill="white"/>
    <rect y="152" x="152" height="4" width="4" fill="white"/>
    <rect y="156" x="0" height="4" width="4" fill="white"/>
    <rect y="156" x="24" height="4" width="4" fill="white"/>
    <rect y="156" x="32" height="4" width="4" fill="white"/>
    <rect y="156" x="48" height="4" width="4" fill="white"/>
    <rect y="156" x="92" height="4" width="4" fill="white"/>
    <rect y="156" x="96" height="4" width="4" fill="white"/>
    <rect y="156" x="100" height="4" width="4" fill="white"/>
    <rect y="156" x="128" height="4" width="4" fill="white"/>
    <rect y="156" x="132" height="4" width="4" fill="white"/>
    <rect y="156" x="136" height="4" width="4" fill="white"/>
    <rect y="156" x="140" height="4" width="4" fill="white"/>
    <rect y="156" x="144" height="4" width="4" fill="white"/>
    <rect y="156" x="152" height="4" width="4" fill="white"/>
    <rect y="160" x="0" height="4" width="4" fill="white"/>
    <rect y="160" x="24" height="4" width="4" fill="white"/>
    <rect y="160" x="32" height="4" width="4" fill="white"/>
    <rect y="160" x="36" height="4" width="4" fill="white"/>
    <rect y="160" x="48" height="4" width="4" fill="white"/>
    <rect y="160" x="60" height="4" width="4" fill="white"/>
    <rect y="160" x="128" height="4" width="4" fill="white"/>
    <rect y="160" x="132" height="4" width="4" fill="white"/>
    <rect y="160" x="136" height="4" width="4" fill="white"/>
    <rect y="160" x="152" height="4" width="4" fill="white"/>
    <rect y="164" x="0" height="4" width="4" fill="white"/>
    <rect y="164" x="48" height="4" width="4" fill="white"/>
    <rect y="164" x="128" height="4" width="4" fill="white"/>
    <rect y="164" x="152" height="4" width="4" fill="white"/>
    <rect y="168" x="0" height="4" width="4" fill="white"/>
    <rect y="168" x="152" height="4" width="4" fill="white"/>
    <rect y="172" x="0" height="4" width="4" fill="white"/>
    <rect y="172" x="152" height="4" width="4" fill="white"/>
    <rect y="176" x="0" height="4" width="4" fill="white"/>
    <rect y="176" x="152" height="4" width="4" fill="white"/>
    <rect y="180" x="0" height="4" width="4" fill="white"/>
    <rect y="180" x="8" height="4" width="4" fill="white"/>
    <rect y="180" x="16" height="4" width="4" fill="white"/>
    <rect y="180" x="24" height="4" width="4" fill="white"/>
    <rect y="180" x="32" height="4" width="4" fill="white"/>
    <rect y="180" x="152" height="4" width="4" fill="white"/>
    <rect y="184" x="0" height="4" width="4" fill="white"/>
    <rect y="184" x="152" height="4" width="4" fill="white"/>
    <rect y="188" x="0" height="4" width="4" fill="white"/>
    <rect y="188" x="152" height="4" width="4" fill="white"/>
    <rect y="192" x="0" height="4" width="4" fill="white"/>
    <rect y="192" x="152" height="4" width="4" fill="white"/>
    <rect y="196" x="0" height="4" width="4" fill="white"/>
    <rect y="196" x="8" height="4" width="4" fill="white"/>
    <rect y="196" x="12" height="4" width="4" fill="white"/>
    <rect y="196" x="24" height="4" width="4" fill="white"/>
    <rect y="196" x="28" height="4" width="4" fill="white"/>
    <rect y="196" x="32" height="4" width="4" fill="white"/>
    <rect y="196" x="36" height="4" width="4" fill="white"/>
    <rect y="196" x="52" height="4" width="4" fill="white"/>
    <rect y="196" x="80" height="4" width="4" fill="white"/>
    <rect y="196" x="84" height="4" width="4" fill="white"/>
    <rect y="196" x="88" height="4" width="4" fill="white"/>
    <rect y="196" x="120" height="4" width="4" fill="white"/>
    <rect y="196" x="152" height="4" width="4" fill="white"/>
    <rect y="200" x="0" height="4" width="4" fill="white"/>
    <rect y="200" x="8" height="4" width="4" fill="white"/>
    <rect y="200" x="24" height="4" width="4" fill="white"/>
    <rect y="200" x="28" height="4" width="4" fill="white"/>
    <rect y="200" x="48" height="4" width="4" fill="white"/>
    <rect y="200" x="80" height="4" width="4" fill="white"/>
    <rect y="200" x="116" height="4" width="4" fill="white"/>
    <rect y="200" x="120" height="4" width="4" fill="white"/>
    <rect y="200" x="152" height="4" width="4" fill="white"/>
    <rect y="204" x="0" height="4" width="4" fill="white"/>
    <rect y="204" x="24" height="4" width="4" fill="white"/>
    <rect y="204" x="32" height="4" width="4" fill="white"/>
    <rect y="204" x="80" height="4" width="4" fill="white"/>
    <rect y="204" x="84" height="4" width="4" fill="white"/>
    <rect y="204" x="88" height="4" width="4" fill="white"/>
    <rect y="204" x="116" height="4" width="4" fill="white"/>
    <rect y="204" x="152" height="4" width="4" fill="white"/>
    <rect y="208" x="0" height="4" width="4" fill="white"/>
    <rect y="208" x="24" height="4" width="4" fill="white"/>
    <rect y="208" x="32" height="4" width="4" fill="white"/>
    <rect y="208" x="36" height="4" width="4" fill="white"/>
    <rect y="208" x="152" height="4" width="4" fill="white"/>
    <rect y="212" x="0" height="4" width="4" fill="white"/>
    <rect y="212" x="152" height="4" width="4" fill="white"/>
    <rect y="216" x="0" height="4" width="4" fill="white"/>
    <rect y="216" x="152" height="4" width="4" fill="white"/>
    <rect y="220" x="0" height="4" width="4" fill="white"/>
    <rect y="220" x="8" height="4" width="4" fill="white"/>
    <rect y="220" x="12" height="4" width="4" fill="white"/>
    <rect y="220" x="24" height="4" width="4" fill="white"/>
    <rect y="220" x="28" height="4" width="4" fill="white"/>
    <rect y="220" x="32" height="4" width="4" fill="white"/>
    <rect y="220" x="36" height="4" width="4" fill="white"/>
    <rect y="220" x="52" height="4" width="4" fill="white"/>
    <rect y="220" x="80" height="4" width="4" fill="white"/>
    <rect y="220" x="84" height="4" width="4" fill="white"/>
    <rect y="220" x="88" height="4" width="4" fill="white"/>
    <rect y="220" x="120" height="4" width="4" fill="white"/>
    <rect y="220" x="124" height="4" width="4" fill="white"/>
    <rect y="220" x="152" height="4" width="4" fill="white"/>
    <rect y="224" x="0" height="4" width="4" fill="white"/>
    <rect y="224" x="8" height="4" width="4" fill="white"/>
    <rect y="224" x="24" height="4" width="4" fill="white"/>
    <rect y="224" x="28" height="4" width="4" fill="white"/>
    <rect y="224" x="48" height="4" width="4" fill="white"/>
    <rect y="224" x="52" height="4" width="4" fill="white"/>
    <rect y="224" x="80" height="4" width="4" fill="white"/>
    <rect y="224" x="116" height="4" width="4" fill="white"/>
    <rect y="224" x="124" height="4" width="4" fill="white"/>
    <rect y="224" x="152" height="4" width="4" fill="white"/>
    <rect y="228" x="0" height="4" width="4" fill="white"/>
    <rect y="228" x="24" height="4" width="4" fill="white"/>
    <rect y="228" x="32" height="4" width="4" fill="white"/>
    <rect y="228" x="48" height="4" width="4" fill="white"/>
    <rect y="228" x="80" height="4" width="4" fill="white"/>
    <rect y="228" x="84" height="4" width="4" fill="white"/>
    <rect y="228" x="88" height="4" width="4" fill="white"/>
    <rect y="228" x="116" height="4" width="4" fill="white"/>
    <rect y="228" x="152" height="4" width="4" fill="white"/>
    <rect y="232" x="0" height="4" width="4" fill="white"/>
    <rect y="232" x="24" height="4" width="4" fill="white"/>
    <rect y="232" x="32" height="4" width="4" fill="white"/>
    <rect y="232" x="36" height="4" width="4" fill="white"/>
    <rect y="232" x="116" height="4" width="4" fill="white"/>
    <rect y="232" x="152" height="4" width="4" fill="white"/>
    <rect y="236" x="0" height="4" width="4" fill="white"/>
    <rect y="236" x="152" height="4" width="4" fill="white"/>
    <rect y="240" x="0" height="4" width="4" fill="white"/>
    <rect y="240" x="152" height="4" width="4" fill="white"/>
    <rect y="244" x="0" height="4" width="4" fill="white"/>
    <rect y="244" x="8" height="4" width="4" fill="white"/>
    <rect y="244" x="12" height="4" width="4" fill="white"/>
    <rect y="244" x="24" height="4" width="4" fill="white"/>
    <rect y="244" x="28" height="4" width="4" fill="white"/>
    <rect y="244" x="32" height="4" width="4" fill="white"/>
    <rect y="244" x="36" height="4" width="4" fill="white"/>
    <rect y="244" x="52" height="4" width="4" fill="white"/>
    <rect y="244" x="56" height="4" width="4" fill="white"/>
    <rect y="244" x="84" height="4" width="4" fill="white"/>
    <rect y="244" x="88" height="4" width="4" fill="white"/>
    <rect y="244" x="92" height="4" width="4" fill="white"/>
    <rect y="244" x="124" height="4" width="4" fill="white"/>
    <rect y="244" x="128" height="4" width="4" fill="white"/>
    <rect y="244" x="152" height="4" width="4" fill="white"/>
    <rect y="248" x="0" height="4" width="4" fill="white"/>
    <rect y="248" x="8" height="4" width="4" fill="white"/>
    <rect y="248" x="24" height="4" width="4" fill="white"/>
    <rect y="248" x="28" height="4" width="4" fill="white"/>
    <rect y="248" x="48" height="4" width="4" fill="white"/>
    <rect y="248" x="56" height="4" width="4" fill="white"/>
    <rect y="248" x="84" height="4" width="4" fill="white"/>
    <rect y="248" x="120" height="4" width="4" fill="white"/>
    <rect y="248" x="124" height="4" width="4" fill="white"/>
    <rect y="248" x="128" height="4" width="4" fill="white"/>
    <rect y="248" x="152" height="4" width="4" fill="white"/>
    <rect y="252" x="0" height="4" width="4" fill="white"/>
    <rect y="252" x="24" height="4" width="4" fill="white"/>
    <rect y="252" x="32" height="4" width="4" fill="white"/>
    <rect y="252" x="48" height="4" width="4" fill="white"/>
    <rect y="252" x="84" height="4" width="4" fill="white"/>
    <rect y="252" x="88" height="4" width="4" fill="white"/>
    <rect y="252" x="92" height="4" width="4" fill="white"/>
    <rect y="252" x="120" height="4" width="4" fill="white"/>
    <rect y="252" x="152" height="4" width="4" fill="white"/>
    <rect y="256" x="0" height="4" width="4" fill="white"/>
    <rect y="256" x="24" height="4" width="4" fill="white"/>
    <rect y="256" x="32" height="4" width="4" fill="white"/>
    <rect y="256" x="36" height="4" width="4" fill="white"/>
    <rect y="256" x="48" height="4" width="4" fill="white"/>
    <rect y="256" x="120" height="4" width="4" fill="white"/>
    <rect y="256" x="152" height="4" width="4" fill="white"/>
    <rect y="260" x="0" height="4" width="4" fill="white"/>
    <rect y="260" x="152" height="4" width="4" fill="white"/>
    <rect y="264" x="0" height="4" width="4" fill="white"/>
    <rect y="264" x="152" height="4" width="4" fill="white"/>
    <rect y="268" x="0" height="4" width="4" fill="white"/>
    <rect y="268" x="152" height="4" width="4" fill="white"/>
    <rect y="272" x="0" height="4" width="4" fill="white"/>
    <rect y="272" x="8" height="4" width="4" fill="white"/>
    <rect y="272" x="16" height="4" width="4" fill="white"/>
    <rect y="272" x="24" height="4" width="4" fill="white"/>
    <rect y="272" x="32" height="4" width="4" fill="white"/>
    <rect y="272" x="152" height="4" width="4" fill="white"/>
    <rect y="276" x="0" height="4" width="4" fill="white"/>
    <rect y="276" x="152" height="4" width="4" fill="white"/>
    <rect y="280" x="0" height="4" width="4" fill="white"/>
    <rect y="280" x="4" height="4" width="4" fill="white"/>
    <rect y="280" x="8" height="4" width="4" fill="white"/>
    <rect y="280" x="12" height="4" width="4" fill="white"/>
    <rect y="280" x="16" height="4" width="4" fill="white"/>
    <rect y="280" x="20" height="4" width="4" fill="white"/>
    <rect y="280" x="24" height="4" width="4" fill="white"/>
    <rect y="280" x="28" height="4" width="4" fill="white"/>
    <rect y="280" x="32" height="4" width="4" fill="white"/>
    <rect y="280" x="36" height="4" width="4" fill="white"/>
    <rect y="280" x="40" height="4" width="4" fill="white"/>
    <rect y="280" x="44" height="4" width="4" fill="white"/>
    <rect y="280" x="48" height="4" width="4" fill="white"/>
    <rect y="280" x="52" height="4" width="4" fill="white"/>
    <rect y="280" x="56" height="4" width="4" fill="white"/>
    <rect y="280" x="60" height="4" width="4" fill="white"/>
    <rect y="280" x="64" height="4" width="4" fill="white"/>
    <rect y="280" x="68" height="4" width="4" fill="white"/>
    <rect y="280" x="72" height="4" width="4" fill="white"/>
    <rect y="280" x="76" height="4" width="4" fill="white"/>
    <rect y="280" x="80" height="4" width="4" fill="white"/>
    <rect y="280" x="84" height="4" width="4" fill="white"/>
    <rect y="280" x="88" height="4" width="4" fill="white"/>
    <rect y="280" x="92" height="4" width="4" fill="white"/>
    <rect y="280" x="96" height="4" width="4" fill="white"/>
    <rect y="280" x="100" height="4" width="4" fill="white"/>
    <rect y="280" x="104" height="4" width="4" fill="white"/>
    <rect y="280" x="108" height="4" width="4" fill="white"/>
    <rect y="280" x="112" height="4" width="4" fill="white"/>
    <rect y="280" x="116" height="4" width="4" fill="white"/>
    <rect y="280" x="120" height="4" width="4" fill="white"/>
    <rect y="280" x="124" height="4" width="4" fill="white"/>
    <rect y="280" x="128" height="4" width="4" fill="white"/>
    <rect y="280" x="132" height="4" width="4" fill="white"/>
    <rect y="280" x="136" height="4" width="4" fill="white"/>
    <rect y="280" x="140" height="4" width="4" fill="white"/>
    <rect y="280" x="144" height="4" width="4" fill="white"/>
    <rect y="280" x="148" height="4" width="4" fill="white"/>
    <rect y="280" x="152" height="4" width="4" fill="white"/>
    
  <rect y="8" x="8" height="16" width="16" fill="green" fill-opacity="0.4"/>
<text y="16" x="16" dominant-baseline='middle' text-anchor='middle' fill='white' style='paint-order: stroke; fill: white; stroke: black; stroke-width: 2px; font-size: 10px'>dec</text>
<rect y="32" x="8" height="8" width="8" fill="green" fill-opacity="0.4"/>
<text y="36" x="12" dominant-baseline='middle' text-anchor='middle' fill='white' style='paint-order: stroke; fill: white; stroke: black; stroke-width: 2px; font-size: 10px'>ap</text>
<rect y="32" x="24" height="16" width="16" fill="green" fill-opacity="0.4"/>
<text y="40" x="32" dominant-baseline='middle' text-anchor='middle' fill='white' style='paint-order: stroke; fill: white; stroke: black; stroke-width: 2px; font-size: 10px'>dec</text>
<rect y="32" x="48" height="8" width="8" fill="yellow" fill-opacity="0.4"/>
<text y="36" x="52" dominant-baseline='middle' text-anchor='middle' fill='white' style='paint-order: stroke; fill: white; stroke: black; stroke-width: 2px; font-size: 10px'>1</text>
<rect y="32" x="80" height="12" width="12" fill="green" fill-opacity="0.4"/>
<text y="38" x="86" dominant-baseline='middle' text-anchor='middle' fill='white' style='paint-order: stroke; fill: white; stroke: black; stroke-width: 2px; font-size: 10px'>==</text>
<rect y="32" x="116" height="8" width="8" fill="yellow" fill-opacity="0.4"/>
<text y="36" x="120" dominant-baseline='middle' text-anchor='middle' fill='white' style='paint-order: stroke; fill: white; stroke: black; stroke-width: 2px; font-size: 10px'>0</text>
<rect y="56" x="8" height="8" width="8" fill="green" fill-opacity="0.4"/>
<text y="60" x="12" dominant-baseline='middle' text-anchor='middle' fill='white' style='paint-order: stroke; fill: white; stroke: black; stroke-width: 2px; font-size: 10px'>ap</text>
<rect y="56" x="24" height="16" width="16" fill="green" fill-opacity="0.4"/>
<text y="64" x="32" dominant-baseline='middle' text-anchor='middle' fill='white' style='paint-order: stroke; fill: white; stroke: black; stroke-width: 2px; font-size: 10px'>dec</text>
<rect y="56" x="48" height="12" width="12" fill="yellow" fill-opacity="0.4"/>
<text y="62" x="54" dominant-baseline='middle' text-anchor='middle' fill='white' style='paint-order: stroke; fill: white; stroke: black; stroke-width: 2px; font-size: 10px'>2</text>
<rect y="56" x="84" height="12" width="12" fill="green" fill-opacity="0.4"/>
<text y="62" x="90" dominant-baseline='middle' text-anchor='middle' fill='white' style='paint-order: stroke; fill: white; stroke: black; stroke-width: 2px; font-size: 10px'>==</text>
<rect y="56" x="120" height="8" width="8" fill="yellow" fill-opacity="0.4"/>
<text y="60" x="124" dominant-baseline='middle' text-anchor='middle' fill='white' style='paint-order: stroke; fill: white; stroke: black; stroke-width: 2px; font-size: 10px'>1</text>
<rect y="80" x="8" height="8" width="8" fill="green" fill-opacity="0.4"/>
<text y="84" x="12" dominant-baseline='middle' text-anchor='middle' fill='white' style='paint-order: stroke; fill: white; stroke: black; stroke-width: 2px; font-size: 10px'>ap</text>
<rect y="80" x="24" height="16" width="16" fill="green" fill-opacity="0.4"/>
<text y="88" x="32" dominant-baseline='middle' text-anchor='middle' fill='white' style='paint-order: stroke; fill: white; stroke: black; stroke-width: 2px; font-size: 10px'>dec</text>
<rect y="80" x="48" height="12" width="12" fill="yellow" fill-opacity="0.4"/>
<text y="86" x="54" dominant-baseline='middle' text-anchor='middle' fill='white' style='paint-order: stroke; fill: white; stroke: black; stroke-width: 2px; font-size: 10px'>3</text>
<rect y="80" x="84" height="12" width="12" fill="green" fill-opacity="0.4"/>
<text y="86" x="90" dominant-baseline='middle' text-anchor='middle' fill='white' style='paint-order: stroke; fill: white; stroke: black; stroke-width: 2px; font-size: 10px'>==</text>
<rect y="80" x="120" height="12" width="12" fill="yellow" fill-opacity="0.4"/>
<text y="86" x="126" dominant-baseline='middle' text-anchor='middle' fill='white' style='paint-order: stroke; fill: white; stroke: black; stroke-width: 2px; font-size: 10px'>2</text>
<rect y="104" x="8" height="8" width="8" fill="green" fill-opacity="0.4"/>
<text y="108" x="12" dominant-baseline='middle' text-anchor='middle' fill='white' style='paint-order: stroke; fill: white; stroke: black; stroke-width: 2px; font-size: 10px'>ap</text>
<rect y="104" x="24" height="16" width="16" fill="green" fill-opacity="0.4"/>
<text y="112" x="32" dominant-baseline='middle' text-anchor='middle' fill='white' style='paint-order: stroke; fill: white; stroke: black; stroke-width: 2px; font-size: 10px'>dec</text>
<rect y="104" x="48" height="12" width="12" fill="yellow" fill-opacity="0.4"/>
<text y="110" x="54" dominant-baseline='middle' text-anchor='middle' fill='white' style='paint-order: stroke; fill: white; stroke: black; stroke-width: 2px; font-size: 10px'>4</text>
<rect y="104" x="84" height="12" width="12" fill="green" fill-opacity="0.4"/>
<text y="110" x="90" dominant-baseline='middle' text-anchor='middle' fill='white' style='paint-order: stroke; fill: white; stroke: black; stroke-width: 2px; font-size: 10px'>==</text>
<rect y="104" x="120" height="12" width="12" fill="yellow" fill-opacity="0.4"/>
<text y="110" x="126" dominant-baseline='middle' text-anchor='middle' fill='white' style='paint-order: stroke; fill: white; stroke: black; stroke-width: 2px; font-size: 10px'>3</text>
<rect y="132" x="8" height="4" width="28" fill="black" fill-opacity="0.4"/>
<text y="134" x="22" dominant-baseline='middle' text-anchor='middle' fill='white' style='paint-order: stroke; fill: white; stroke: black; stroke-width: 2px; font-size: 10px'>...</text>
<rect y="148" x="8" height="8" width="8" fill="green" fill-opacity="0.4"/>
<text y="152" x="12" dominant-baseline='middle' text-anchor='middle' fill='white' style='paint-order: stroke; fill: white; stroke: black; stroke-width: 2px; font-size: 10px'>ap</text>
<rect y="148" x="24" height="16" width="16" fill="green" fill-opacity="0.4"/>
<text y="156" x="32" dominant-baseline='middle' text-anchor='middle' fill='white' style='paint-order: stroke; fill: white; stroke: black; stroke-width: 2px; font-size: 10px'>dec</text>
<rect y="148" x="48" height="20" width="20" fill="yellow" fill-opacity="0.4"/>
<text y="158" x="58" dominant-baseline='middle' text-anchor='middle' fill='white' style='paint-order: stroke; fill: white; stroke: black; stroke-width: 2px; font-size: 10px'>1024</text>
<rect y="148" x="92" height="12" width="12" fill="green" fill-opacity="0.4"/>
<text y="154" x="98" dominant-baseline='middle' text-anchor='middle' fill='white' style='paint-order: stroke; fill: white; stroke: black; stroke-width: 2px; font-size: 10px'>==</text>
<rect y="148" x="128" height="20" width="20" fill="yellow" fill-opacity="0.4"/>
<text y="158" x="138" dominant-baseline='middle' text-anchor='middle' fill='white' style='paint-order: stroke; fill: white; stroke: black; stroke-width: 2px; font-size: 10px'>1023</text>
<rect y="180" x="8" height="4" width="28" fill="black" fill-opacity="0.4"/>
<text y="182" x="22" dominant-baseline='middle' text-anchor='middle' fill='white' style='paint-order: stroke; fill: white; stroke: black; stroke-width: 2px; font-size: 10px'>...</text>
<rect y="196" x="8" height="8" width="8" fill="green" fill-opacity="0.4"/>
<text y="200" x="12" dominant-baseline='middle' text-anchor='middle' fill='white' style='paint-order: stroke; fill: white; stroke: black; stroke-width: 2px; font-size: 10px'>ap</text>
<rect y="196" x="24" height="16" width="16" fill="green" fill-opacity="0.4"/>
<text y="204" x="32" dominant-baseline='middle' text-anchor='middle' fill='white' style='paint-order: stroke; fill: white; stroke: black; stroke-width: 2px; font-size: 10px'>dec</text>
<rect y="196" x="48" height="8" width="8" fill="yellow" fill-opacity="0.4"/>
<text y="200" x="52" dominant-baseline='middle' text-anchor='middle' fill='white' style='paint-order: stroke; fill: white; stroke: black; stroke-width: 2px; font-size: 10px'>0</text>
<rect y="196" x="80" height="12" width="12" fill="green" fill-opacity="0.4"/>
<text y="202" x="86" dominant-baseline='middle' text-anchor='middle' fill='white' style='paint-order: stroke; fill: white; stroke: black; stroke-width: 2px; font-size: 10px'>==</text>
<rect y="196" x="116" height="12" width="8" fill="yellow" fill-opacity="0.4"/>
<text y="202" x="120" dominant-baseline='middle' text-anchor='middle' fill='white' style='paint-order: stroke; fill: white; stroke: black; stroke-width: 2px; font-size: 10px'>-1</text>
<rect y="220" x="8" height="8" width="8" fill="green" fill-opacity="0.4"/>
<text y="224" x="12" dominant-baseline='middle' text-anchor='middle' fill='white' style='paint-order: stroke; fill: white; stroke: black; stroke-width: 2px; font-size: 10px'>ap</text>
<rect y="220" x="24" height="16" width="16" fill="green" fill-opacity="0.4"/>
<text y="228" x="32" dominant-baseline='middle' text-anchor='middle' fill='white' style='paint-order: stroke; fill: white; stroke: black; stroke-width: 2px; font-size: 10px'>dec</text>
<rect y="220" x="48" height="12" width="8" fill="yellow" fill-opacity="0.4"/>
<text y="226" x="52" dominant-baseline='middle' text-anchor='middle' fill='white' style='paint-order: stroke; fill: white; stroke: black; stroke-width: 2px; font-size: 10px'>-1</text>
<rect y="220" x="80" height="12" width="12" fill="green" fill-opacity="0.4"/>
<text y="226" x="86" dominant-baseline='middle' text-anchor='middle' fill='white' style='paint-order: stroke; fill: white; stroke: black; stroke-width: 2px; font-size: 10px'>==</text>
<rect y="220" x="116" height="16" width="12" fill="yellow" fill-opacity="0.4"/>
<text y="228" x="122" dominant-baseline='middle' text-anchor='middle' fill='white' style='paint-order: stroke; fill: white; stroke: black; stroke-width: 2px; font-size: 10px'>-2</text>
<rect y="244" x="8" height="8" width="8" fill="green" fill-opacity="0.4"/>
<text y="248" x="12" dominant-baseline='middle' text-anchor='middle' fill='white' style='paint-order: stroke; fill: white; stroke: black; stroke-width: 2px; font-size: 10px'>ap</text>
<rect y="244" x="24" height="16" width="16" fill="green" fill-opacity="0.4"/>
<text y="252" x="32" dominant-baseline='middle' text-anchor='middle' fill='white' style='paint-order: stroke; fill: white; stroke: black; stroke-width: 2px; font-size: 10px'>dec</text>
<rect y="244" x="48" height="16" width="12" fill="yellow" fill-opacity="0.4"/>
<text y="252" x="54" dominant-baseline='middle' text-anchor='middle' fill='white' style='paint-order: stroke; fill: white; stroke: black; stroke-width: 2px; font-size: 10px'>-2</text>
<rect y="244" x="84" height="12" width="12" fill="green" fill-opacity="0.4"/>
<text y="250" x="90" dominant-baseline='middle' text-anchor='middle' fill='white' style='paint-order: stroke; fill: white; stroke: black; stroke-width: 2px; font-size: 10px'>==</text>
<rect y="244" x="120" height="16" width="12" fill="yellow" fill-opacity="0.4"/>
<text y="252" x="126" dominant-baseline='middle' text-anchor='middle' fill='white' style='paint-order: stroke; fill: white; stroke: black; stroke-width: 2px; font-size: 10px'>-3</text>
<rect y="272" x="8" height="4" width="28" fill="black" fill-opacity="0.4"/>
<text y="274" x="22" dominant-baseline='middle' text-anchor='middle' fill='white' style='paint-order: stroke; fill: white; stroke: black; stroke-width: 2px; font-size: 10px'>...</text>

</svg>
