<?xml version="1.0"?>
<svg xmlns="http://www.w3.org/2000/svg" height="686" width="336">
  <rect y="0" x="0" height="686" width="336" fill="black" />
  <rect y="0" x="0" height="14" width="14" fill="#757575"/>
    <rect y="0" x="14" height="14" width="14" fill="#757575"/>
    <rect y="0" x="28" height="14" width="14" fill="#757575"/>
    <rect y="0" x="42" height="14" width="14" fill="#757575"/>
    <rect y="0" x="56" height="14" width="14" fill="#757575"/>
    <rect y="0" x="70" height="14" width="14" fill="#757575"/>
    <rect y="0" x="84" height="14" width="14" fill="#757575"/>
    <rect y="0" x="98" height="14" width="14" fill="#757575"/>
    <rect y="0" x="112" height="14" width="14" fill="#757575"/>
    <rect y="0" x="126" height="14" width="14" fill="#757575"/>
    <rect y="0" x="140" height="14" width="14" fill="#757575"/>
    <rect y="0" x="154" height="14" width="14" fill="#757575"/>
    <rect y="0" x="168" height="14" width="14" fill="#757575"/>
    <rect y="0" x="182" height="14" width="14" fill="#757575"/>
    <rect y="0" x="196" height="14" width="14" fill="#757575"/>
    <rect y="0" x="210" height="14" width="14" fill="#757575"/>
    <rect y="0" x="224" height="14" width="14" fill="#757575"/>
    <rect y="0" x="238" height="14" width="14" fill="#757575"/>
    <rect y="0" x="252" height="14" width="14" fill="#757575"/>
    <rect y="0" x="266" height="14" width="14" fill="#757575"/>
    <rect y="0" x="280" height="14" width="14" fill="#757575"/>
    <rect y="0" x="294" height="14" width="14" fill="#757575"/>
    <rect y="0" x="308" height="14" width="14" fill="#757575"/>
    <rect y="0" x="322" height="14" width="14" fill="#757575"/>
    <rect y="14" x="0" height="14" width="14" fill="#757575"/>
    <rect y="14" x="322" height="14" width="14" fill="#757575"/>
    <rect y="28" x="0" height="14" width="14" fill="#757575"/>
    <rect y="28" x="42" height="14" width="14" fill="#757575"/>
    <rect y="28" x="322" height="14" width="14" fill="#757575"/>
    <rect y="42" x="0" height="14" width="14" fill="#757575"/>
    <rect y="42" x="28" height="14" width="14" fill="#757575"/>
    <rect y="42" x="322" height="14" width="14" fill="#757575"/>
    <rect y="56" x="0" height="14" width="14" fill="#757575"/>
    <rect y="56" x="322" height="14" width="14" fill="#757575"/>
    <rect y="70" x="0" height="14" width="14" fill="#757575"/>
    <rect y="70" x="322" height="14" width="14" fill="#757575"/>
    <rect y="84" x="0" height="14" width="14" fill="#757575"/>
    <rect y="84" x="42" height="14" width="14" fill="#757575"/>
    <rect y="84" x="84" height="14" width="14" fill="#757575"/>
    <rect y="84" x="322" height="14" width="14" fill="#757575"/>
    <rect y="98" x="0" height="14" width="14" fill="#757575"/>
    <rect y="98" x="28" height="14" width="14" fill="#757575"/>
    <rect y="98" x="42" height="14" width="14" fill="#757575"/>
    <rect y="98" x="84" height="14" width="14" fill="#757575"/>
    <rect y="98" x="322" height="14" width="14" fill="#757575"/>
    <rect y="112" x="0" height="14" width="14" fill="#757575"/>
    <rect y="112" x="322" height="14" width="14" fill="#757575"/>
    <rect y="126" x="0" height="14" width="14" fill="#757575"/>
    <rect y="126" x="322" height="14" width="14" fill="#757575"/>
    <rect y="140" x="0" height="14" width="14" fill="#757575"/>
    <rect y="140" x="42" height="14" width="14" fill="#757575"/>
    <rect y="140" x="56" height="14" width="14" fill="#757575"/>
    <rect y="140" x="98" height="14" width="14" fill="#757575"/>
    <rect y="140" x="126" height="14" width="14" fill="#757575"/>
    <rect y="140" x="322" height="14" width="14" fill="#757575"/>
    <rect y="154" x="0" height="14" width="14" fill="#757575"/>
    <rect y="154" x="28" height="14" width="14" fill="#757575"/>
    <rect y="154" x="56" height="14" width="14" fill="#757575"/>
    <rect y="154" x="98" height="14" width="14" fill="#757575"/>
    <rect y="154" x="126" height="14" width="14" fill="#757575"/>
    <rect y="154" x="322" height="14" width="14" fill="#757575"/>
    <rect y="168" x="0" height="14" width="14" fill="#757575"/>
    <rect y="168" x="28" height="14" width="14" fill="#757575"/>
    <rect y="168" x="322" height="14" width="14" fill="#757575"/>
    <rect y="182" x="0" height="14" width="14" fill="#757575"/>
    <rect y="182" x="322" height="14" width="14" fill="#757575"/>
    <rect y="196" x="0" height="14" width="14" fill="#757575"/>
    <rect y="196" x="322" height="14" width="14" fill="#757575"/>
    <rect y="210" x="0" height="14" width="14" fill="#757575"/>
    <rect y="210" x="42" height="14" width="14" fill="#757575"/>
    <rect y="210" x="56" height="14" width="14" fill="#757575"/>
    <rect y="210" x="98" height="14" width="14" fill="#757575"/>
    <rect y="210" x="126" height="14" width="14" fill="#757575"/>
    <rect y="210" x="154" height="14" width="14" fill="#757575"/>
    <rect y="210" x="322" height="14" width="14" fill="#757575"/>
    <rect y="224" x="0" height="14" width="14" fill="#757575"/>
    <rect y="224" x="28" height="14" width="14" fill="#757575"/>
    <rect y="224" x="42" height="14" width="14" fill="#757575"/>
    <rect y="224" x="56" height="14" width="14" fill="#757575"/>
    <rect y="224" x="98" height="14" width="14" fill="#757575"/>
    <rect y="224" x="126" height="14" width="14" fill="#757575"/>
    <rect y="224" x="154" height="14" width="14" fill="#757575"/>
    <rect y="224" x="322" height="14" width="14" fill="#757575"/>
    <rect y="238" x="0" height="14" width="14" fill="#757575"/>
    <rect y="238" x="28" height="14" width="14" fill="#757575"/>
    <rect y="238" x="322" height="14" width="14" fill="#757575"/>
    <rect y="252" x="0" height="14" width="14" fill="#757575"/>
    <rect y="252" x="322" height="14" width="14" fill="#757575"/>
    <rect y="266" x="0" height="14" width="14" fill="#757575"/>
    <rect y="266" x="322" height="14" width="14" fill="#757575"/>
    <rect y="280" x="0" height="14" width="14" fill="#757575"/>
    <rect y="280" x="42" height="14" width="14" fill="#757575"/>
    <rect y="280" x="56" height="14" width="14" fill="#757575"/>
    <rect y="280" x="98" height="14" width="14" fill="#757575"/>
    <rect y="280" x="126" height="14" width="14" fill="#757575"/>
    <rect y="280" x="154" height="14" width="14" fill="#757575"/>
    <rect y="280" x="182" height="14" width="14" fill="#757575"/>
    <rect y="280" x="322" height="14" width="14" fill="#757575"/>
    <rect y="294" x="0" height="14" width="14" fill="#757575"/>
    <rect y="294" x="28" height="14" width="14" fill="#757575"/>
    <rect y="294" x="98" height="14" width="14" fill="#757575"/>
    <rect y="294" x="126" height="14" width="14" fill="#757575"/>
    <rect y="294" x="154" height="14" width="14" fill="#757575"/>
    <rect y="294" x="182" height="14" width="14" fill="#757575"/>
    <rect y="294" x="322" height="14" width="14" fill="#757575"/>
    <rect y="308" x="0" height="14" width="14" fill="#757575"/>
    <rect y="308" x="28" height="14" width="14" fill="#757575"/>
    <rect y="308" x="42" height="14" width="14" fill="#757575"/>
    <rect y="308" x="322" height="14" width="14" fill="#757575"/>
    <rect y="322" x="0" height="14" width="14" fill="#757575"/>
    <rect y="322" x="322" height="14" width="14" fill="#757575"/>
    <rect y="336" x="0" height="14" width="14" fill="#757575"/>
    <rect y="336" x="322" height="14" width="14" fill="#757575"/>
    <rect y="350" x="0" height="14" width="14" fill="#757575"/>
    <rect y="350" x="42" height="14" width="14" fill="#757575"/>
    <rect y="350" x="56" height="14" width="14" fill="#757575"/>
    <rect y="350" x="98" height="14" width="14" fill="#757575"/>
    <rect y="350" x="126" height="14" width="14" fill="#757575"/>
    <rect y="350" x="154" height="14" width="14" fill="#757575"/>
    <rect y="350" x="182" height="14" width="14" fill="#757575"/>
    <rect y="350" x="210" height="14" width="14" fill="#757575"/>
    <rect y="350" x="322" height="14" width="14" fill="#757575"/>
    <rect y="364" x="0" height="14" width="14" fill="#757575"/>
    <rect y="364" x="28" height="14" width="14" fill="#757575"/>
    <rect y="364" x="42" height="14" width="14" fill="#757575"/>
    <rect y="364" x="98" height="14" width="14" fill="#757575"/>
    <rect y="364" x="126" height="14" width="14" fill="#757575"/>
    <rect y="364" x="154" height="14" width="14" fill="#757575"/>
    <rect y="364" x="182" height="14" width="14" fill="#757575"/>
    <rect y="364" x="210" height="14" width="14" fill="#757575"/>
    <rect y="364" x="322" height="14" width="14" fill="#757575"/>
    <rect y="378" x="0" height="14" width="14" fill="#757575"/>
    <rect y="378" x="28" height="14" width="14" fill="#757575"/>
    <rect y="378" x="42" height="14" width="14" fill="#757575"/>
    <rect y="378" x="322" height="14" width="14" fill="#757575"/>
    <rect y="392" x="0" height="14" width="14" fill="#757575"/>
    <rect y="392" x="322" height="14" width="14" fill="#757575"/>
    <rect y="406" x="0" height="14" width="14" fill="#757575"/>
    <rect y="406" x="322" height="14" width="14" fill="#757575"/>
    <rect y="420" x="0" height="14" width="14" fill="#757575"/>
    <rect y="420" x="42" height="14" width="14" fill="#757575"/>
    <rect y="420" x="56" height="14" width="14" fill="#757575"/>
    <rect y="420" x="98" height="14" width="14" fill="#757575"/>
    <rect y="420" x="126" height="14" width="14" fill="#757575"/>
    <rect y="420" x="154" height="14" width="14" fill="#757575"/>
    <rect y="420" x="182" height="14" width="14" fill="#757575"/>
    <rect y="420" x="210" height="14" width="14" fill="#757575"/>
    <rect y="420" x="238" height="14" width="14" fill="#757575"/>
    <rect y="420" x="322" height="14" width="14" fill="#757575"/>
    <rect y="434" x="0" height="14" width="14" fill="#757575"/>
    <rect y="434" x="28" height="14" width="14" fill="#757575"/>
    <rect y="434" x="56" height="14" width="14" fill="#757575"/>
    <rect y="434" x="98" height="14" width="14" fill="#757575"/>
    <rect y="434" x="126" height="14" width="14" fill="#757575"/>
    <rect y="434" x="154" height="14" width="14" fill="#757575"/>
    <rect y="434" x="182" height="14" width="14" fill="#757575"/>
    <rect y="434" x="210" height="14" width="14" fill="#757575"/>
    <rect y="434" x="238" height="14" width="14" fill="#757575"/>
    <rect y="434" x="322" height="14" width="14" fill="#757575"/>
    <rect y="448" x="0" height="14" width="14" fill="#757575"/>
    <rect y="448" x="28" height="14" width="14" fill="#757575"/>
    <rect y="448" x="42" height="14" width="14" fill="#757575"/>
    <rect y="448" x="322" height="14" width="14" fill="#757575"/>
    <rect y="462" x="0" height="14" width="14" fill="#757575"/>
    <rect y="462" x="322" height="14" width="14" fill="#757575"/>
    <rect y="476" x="0" height="14" width="14" fill="#757575"/>
    <rect y="476" x="322" height="14" width="14" fill="#757575"/>
    <rect y="490" x="0" height="14" width="14" fill="#757575"/>
    <rect y="490" x="42" height="14" width="14" fill="#757575"/>
    <rect y="490" x="56" height="14" width="14" fill="#757575"/>
    <rect y="490" x="98" height="14" width="14" fill="#757575"/>
    <rect y="490" x="126" height="14" width="14" fill="#757575"/>
    <rect y="490" x="154" height="14" width="14" fill="#757575"/>
    <rect y="490" x="182" height="14" width="14" fill="#757575"/>
    <rect y="490" x="210" height="14" width="14" fill="#757575"/>
    <rect y="490" x="238" height="14" width="14" fill="#757575"/>
    <rect y="490" x="266" height="14" width="14" fill="#757575"/>
    <rect y="490" x="322" height="14" width="14" fill="#757575"/>
    <rect y="504" x="0" height="14" width="14" fill="#757575"/>
    <rect y="504" x="28" height="14" width="14" fill="#757575"/>
    <rect y="504" x="42" height="14" width="14" fill="#757575"/>
    <rect y="504" x="56" height="14" width="14" fill="#757575"/>
    <rect y="504" x="98" height="14" width="14" fill="#757575"/>
    <rect y="504" x="126" height="14" width="14" fill="#757575"/>
    <rect y="504" x="154" height="14" width="14" fill="#757575"/>
    <rect y="504" x="182" height="14" width="14" fill="#757575"/>
    <rect y="504" x="210" height="14" width="14" fill="#757575"/>
    <rect y="504" x="238" height="14" width="14" fill="#757575"/>
    <rect y="504" x="266" height="14" width="14" fill="#757575"/>
    <rect y="504" x="322" height="14" width="14" fill="#757575"/>
    <rect y="518" x="0" height="14" width="14" fill="#757575"/>
    <rect y="518" x="28" height="14" width="14" fill="#757575"/>
    <rect y="518" x="42" height="14" width="14" fill="#757575"/>
    <rect y="518" x="322" height="14" width="14" fill="#757575"/>
    <rect y="532" x="0" height="14" width="14" fill="#757575"/>
    <rect y="532" x="322" height="14" width="14" fill="#757575"/>
    <rect y="546" x="0" height="14" width="14" fill="#757575"/>
    <rect y="546" x="322" height="14" width="14" fill="#757575"/>
    <rect y="560" x="0" height="14" width="14" fill="#757575"/>
    <rect y="560" x="42" height="14" width="14" fill="#757575"/>
    <rect y="560" x="56" height="14" width="14" fill="#757575"/>
    <rect y="560" x="98" height="14" width="14" fill="#757575"/>
    <rect y="560" x="126" height="14" width="14" fill="#757575"/>
    <rect y="560" x="154" height="14" width="14" fill="#757575"/>
    <rect y="560" x="182" height="14" width="14" fill="#757575"/>
    <rect y="560" x="210" height="14" width="14" fill="#757575"/>
    <rect y="560" x="238" height="14" width="14" fill="#757575"/>
    <rect y="560" x="266" height="14" width="14" fill="#757575"/>
    <rect y="560" x="294" height="14" width="14" fill="#757575"/>
    <rect y="560" x="322" height="14" width="14" fill="#757575"/>
    <rect y="574" x="0" height="14" width="14" fill="#757575"/>
    <rect y="574" x="28" height="14" width="14" fill="#757575"/>
    <rect y="574" x="98" height="14" width="14" fill="#757575"/>
    <rect y="574" x="126" height="14" width="14" fill="#757575"/>
    <rect y="574" x="154" height="14" width="14" fill="#757575"/>
    <rect y="574" x="182" height="14" width="14" fill="#757575"/>
    <rect y="574" x="210" height="14" width="14" fill="#757575"/>
    <rect y="574" x="238" height="14" width="14" fill="#757575"/>
    <rect y="574" x="266" height="14" width="14" fill="#757575"/>
    <rect y="574" x="294" height="14" width="14" fill="#757575"/>
    <rect y="574" x="322" height="14" width="14" fill="#757575"/>
    <rect y="588" x="0" height="14" width="14" fill="#757575"/>
    <rect y="588" x="28" height="14" width="14" fill="#757575"/>
    <rect y="588" x="56" height="14" width="14" fill="#757575"/>
    <rect y="588" x="322" height="14" width="14" fill="#757575"/>
    <rect y="602" x="0" height="14" width="14" fill="#757575"/>
    <rect y="602" x="322" height="14" width="14" fill="#757575"/>
    <rect y="616" x="0" height="14" width="14" fill="#757575"/>
    <rect y="616" x="322" height="14" width="14" fill="#757575"/>
    <rect y="630" x="0" height="14" width="14" fill="#757575"/>
    <rect y="630" x="322" height="14" width="14" fill="#757575"/>
    <rect y="644" x="0" height="14" width="14" fill="#757575"/>
    <rect y="644" x="28" height="14" width="14" fill="#757575"/>
    <rect y="644" x="56" height="14" width="14" fill="#757575"/>
    <rect y="644" x="84" height="14" width="14" fill="#757575"/>
    <rect y="644" x="112" height="14" width="14" fill="#757575"/>
    <rect y="644" x="322" height="14" width="14" fill="#757575"/>
    <rect y="658" x="0" height="14" width="14" fill="#757575"/>
    <rect y="658" x="322" height="14" width="14" fill="#757575"/>
    <rect y="672" x="0" height="14" width="14" fill="#757575"/>
    <rect y="672" x="14" height="14" width="14" fill="#757575"/>
    <rect y="672" x="28" height="14" width="14" fill="#757575"/>
    <rect y="672" x="42" height="14" width="14" fill="#757575"/>
    <rect y="672" x="56" height="14" width="14" fill="#757575"/>
    <rect y="672" x="70" height="14" width="14" fill="#757575"/>
    <rect y="672" x="84" height="14" width="14" fill="#757575"/>
    <rect y="672" x="98" height="14" width="14" fill="#757575"/>
    <rect y="672" x="112" height="14" width="14" fill="#757575"/>
    <rect y="672" x="126" height="14" width="14" fill="#757575"/>
    <rect y="672" x="140" height="14" width="14" fill="#757575"/>
    <rect y="672" x="154" height="14" width="14" fill="#757575"/>
    <rect y="672" x="168" height="14" width="14" fill="#757575"/>
    <rect y="672" x="182" height="14" width="14" fill="#757575"/>
    <rect y="672" x="196" height="14" width="14" fill="#757575"/>
    <rect y="672" x="210" height="14" width="14" fill="#757575"/>
    <rect y="672" x="224" height="14" width="14" fill="#757575"/>
    <rect y="672" x="238" height="14" width="14" fill="#757575"/>
    <rect y="672" x="252" height="14" width="14" fill="#757575"/>
    <rect y="672" x="266" height="14" width="14" fill="#757575"/>
    <rect y="672" x="280" height="14" width="14" fill="#757575"/>
    <rect y="672" x="294" height="14" width="14" fill="#757575"/>
    <rect y="672" x="308" height="14" width="14" fill="#757575"/>
    <rect y="672" x="322" height="14" width="14" fill="#757575"/>
    
  <rect y="84" x="28" height="28" width="28" fill="#004D40" fill-opacity="0.5"/>
<text y="98" x="42" dominant-baseline='middle' text-anchor='middle' fill='white' style='paint-order: stroke; fill: white; stroke: black; stroke-width: 1px; font-family="monospace"; font-size: 18px'><tspan x="42" dy="-1em">1</tspan>
<tspan x="42" dy="1.1em">H</tspan></text>
<rect y="140" x="28" height="42" width="42" fill="#004D40" fill-opacity="0.5"/>
<text y="161" x="49" dominant-baseline='middle' text-anchor='middle' fill='white' style='paint-order: stroke; fill: white; stroke: black; stroke-width: 1px; font-family="monospace"; font-size: 18px'><tspan x="49" dy="-1em">2</tspan>
<tspan x="49" dy="1.1em">He</tspan></text>
<rect y="210" x="28" height="42" width="42" fill="#004D40" fill-opacity="0.5"/>
<text y="231" x="49" dominant-baseline='middle' text-anchor='middle' fill='white' style='paint-order: stroke; fill: white; stroke: black; stroke-width: 1px; font-family="monospace"; font-size: 18px'><tspan x="49" dy="-1em">3</tspan>
<tspan x="49" dy="1.1em">Li</tspan></text>
<rect y="280" x="28" height="42" width="42" fill="#004D40" fill-opacity="0.5"/>
<text y="301" x="49" dominant-baseline='middle' text-anchor='middle' fill='white' style='paint-order: stroke; fill: white; stroke: black; stroke-width: 1px; font-family="monospace"; font-size: 18px'><tspan x="49" dy="-1em">4</tspan>
<tspan x="49" dy="1.1em">Be</tspan></text>
<rect y="350" x="28" height="42" width="42" fill="#004D40" fill-opacity="0.5"/>
<text y="371" x="49" dominant-baseline='middle' text-anchor='middle' fill='white' style='paint-order: stroke; fill: white; stroke: black; stroke-width: 1px; font-family="monospace"; font-size: 18px'><tspan x="49" dy="-1em">5</tspan>
<tspan x="49" dy="1.1em">B</tspan></text>
<rect y="420" x="28" height="42" width="42" fill="#004D40" fill-opacity="0.5"/>
<text y="441" x="49" dominant-baseline='middle' text-anchor='middle' fill='white' style='paint-order: stroke; fill: white; stroke: black; stroke-width: 1px; font-family="monospace"; font-size: 18px'><tspan x="49" dy="-1em">6</tspan>
<tspan x="49" dy="1.1em">C</tspan></text>
<rect y="490" x="28" height="42" width="42" fill="#004D40" fill-opacity="0.5"/>
<text y="511" x="49" dominant-baseline='middle' text-anchor='middle' fill='white' style='paint-order: stroke; fill: white; stroke: black; stroke-width: 1px; font-family="monospace"; font-size: 18px'><tspan x="49" dy="-1em">7</tspan>
<tspan x="49" dy="1.1em">N</tspan></text>
<rect y="560" x="28" height="42" width="42" fill="#004D40" fill-opacity="0.5"/>
<text y="581" x="49" dominant-baseline='middle' text-anchor='middle' fill='white' style='paint-order: stroke; fill: white; stroke: black; stroke-width: 1px; font-family="monospace"; font-size: 18px'><tspan x="49" dy="-1em">8</tspan>
<tspan x="49" dy="1.1em">O</tspan></text>

</svg>
