<?xml version="1.0"?>
<svg xmlns="http://www.w3.org/2000/svg" height="490" width="240">
  <rect y="0" x="0" height="490" width="240" fill="black" />
  <rect y="0" x="0" height="10" width="10" fill="white"/>
    <rect y="0" x="10" height="10" width="10" fill="white"/>
    <rect y="0" x="20" height="10" width="10" fill="white"/>
    <rect y="0" x="30" height="10" width="10" fill="white"/>
    <rect y="0" x="40" height="10" width="10" fill="white"/>
    <rect y="0" x="50" height="10" width="10" fill="white"/>
    <rect y="0" x="60" height="10" width="10" fill="white"/>
    <rect y="0" x="70" height="10" width="10" fill="white"/>
    <rect y="0" x="80" height="10" width="10" fill="white"/>
    <rect y="0" x="90" height="10" width="10" fill="white"/>
    <rect y="0" x="100" height="10" width="10" fill="white"/>
    <rect y="0" x="110" height="10" width="10" fill="white"/>
    <rect y="0" x="120" height="10" width="10" fill="white"/>
    <rect y="0" x="130" height="10" width="10" fill="white"/>
    <rect y="0" x="140" height="10" width="10" fill="white"/>
    <rect y="0" x="150" height="10" width="10" fill="white"/>
    <rect y="0" x="160" height="10" width="10" fill="white"/>
    <rect y="0" x="170" height="10" width="10" fill="white"/>
    <rect y="0" x="180" height="10" width="10" fill="white"/>
    <rect y="0" x="190" height="10" width="10" fill="white"/>
    <rect y="0" x="200" height="10" width="10" fill="white"/>
    <rect y="0" x="210" height="10" width="10" fill="white"/>
    <rect y="0" x="220" height="10" width="10" fill="white"/>
    <rect y="0" x="230" height="10" width="10" fill="white"/>
    <rect y="10" x="0" height="10" width="10" fill="white"/>
    <rect y="10" x="230" height="10" width="10" fill="white"/>
    <rect y="20" x="0" height="10" width="10" fill="white"/>
    <rect y="20" x="230" height="10" width="10" fill="white"/>
    <rect y="30" x="0" height="10" width="10" fill="white"/>
    <rect y="30" x="140" height="10" width="10" fill="white"/>
    <rect y="30" x="230" height="10" width="10" fill="white"/>
    <rect y="40" x="0" height="10" width="10" fill="white"/>
    <rect y="40" x="130" height="10" width="10" fill="white"/>
    <rect y="40" x="230" height="10" width="10" fill="white"/>
    <rect y="50" x="0" height="10" width="10" fill="white"/>
    <rect y="50" x="100" height="10" width="10" fill="white"/>
    <rect y="50" x="110" height="10" width="10" fill="white"/>
    <rect y="50" x="160" height="10" width="10" fill="white"/>
    <rect y="50" x="170" height="10" width="10" fill="white"/>
    <rect y="50" x="230" height="10" width="10" fill="white"/>
    <rect y="60" x="0" height="10" width="10" fill="white"/>
    <rect y="60" x="90" height="10" width="10" fill="white"/>
    <rect y="60" x="180" height="10" width="10" fill="white"/>
    <rect y="60" x="230" height="10" width="10" fill="white"/>
    <rect y="70" x="0" height="10" width="10" fill="white"/>
    <rect y="70" x="90" height="10" width="10" fill="white"/>
    <rect y="70" x="180" height="10" width="10" fill="white"/>
    <rect y="70" x="230" height="10" width="10" fill="white"/>
    <rect y="80" x="0" height="10" width="10" fill="white"/>
    <rect y="80" x="80" height="10" width="10" fill="white"/>
    <rect y="80" x="190" height="10" width="10" fill="white"/>
    <rect y="80" x="230" height="10" width="10" fill="white"/>
    <rect y="90" x="0" height="10" width="10" fill="white"/>
    <rect y="90" x="30" height="10" width="10" fill="white"/>
    <rect y="90" x="80" height="10" width="10" fill="white"/>
    <rect y="90" x="130" height="10" width="10" fill="white"/>
    <rect y="90" x="190" height="10" width="10" fill="white"/>
    <rect y="90" x="230" height="10" width="10" fill="white"/>
    <rect y="100" x="0" height="10" width="10" fill="white"/>
    <rect y="100" x="20" height="10" width="10" fill="white"/>
    <rect y="100" x="30" height="10" width="10" fill="white"/>
    <rect y="100" x="80" height="10" width="10" fill="white"/>
    <rect y="100" x="130" height="10" width="10" fill="white"/>
    <rect y="100" x="190" height="10" width="10" fill="white"/>
    <rect y="100" x="230" height="10" width="10" fill="white"/>
    <rect y="110" x="0" height="10" width="10" fill="white"/>
    <rect y="110" x="80" height="10" width="10" fill="white"/>
    <rect y="110" x="190" height="10" width="10" fill="white"/>
    <rect y="110" x="230" height="10" width="10" fill="white"/>
    <rect y="120" x="0" height="10" width="10" fill="white"/>
    <rect y="120" x="90" height="10" width="10" fill="white"/>
    <rect y="120" x="180" height="10" width="10" fill="white"/>
    <rect y="120" x="230" height="10" width="10" fill="white"/>
    <rect y="130" x="0" height="10" width="10" fill="white"/>
    <rect y="130" x="90" height="10" width="10" fill="white"/>
    <rect y="130" x="180" height="10" width="10" fill="white"/>
    <rect y="130" x="230" height="10" width="10" fill="white"/>
    <rect y="140" x="0" height="10" width="10" fill="white"/>
    <rect y="140" x="100" height="10" width="10" fill="white"/>
    <rect y="140" x="110" height="10" width="10" fill="white"/>
    <rect y="140" x="160" height="10" width="10" fill="white"/>
    <rect y="140" x="170" height="10" width="10" fill="white"/>
    <rect y="140" x="230" height="10" width="10" fill="white"/>
    <rect y="150" x="0" height="10" width="10" fill="white"/>
    <rect y="150" x="120" height="10" width="10" fill="white"/>
    <rect y="150" x="130" height="10" width="10" fill="white"/>
    <rect y="150" x="140" height="10" width="10" fill="white"/>
    <rect y="150" x="150" height="10" width="10" fill="white"/>
    <rect y="150" x="230" height="10" width="10" fill="white"/>
    <rect y="160" x="0" height="10" width="10" fill="white"/>
    <rect y="160" x="230" height="10" width="10" fill="white"/>
    <rect y="170" x="0" height="10" width="10" fill="white"/>
    <rect y="170" x="230" height="10" width="10" fill="white"/>
    <rect y="180" x="0" height="10" width="10" fill="white"/>
    <rect y="180" x="140" height="10" width="10" fill="white"/>
    <rect y="180" x="230" height="10" width="10" fill="white"/>
    <rect y="190" x="0" height="10" width="10" fill="white"/>
    <rect y="190" x="130" height="10" width="10" fill="white"/>
    <rect y="190" x="230" height="10" width="10" fill="white"/>
    <rect y="200" x="0" height="10" width="10" fill="white"/>
    <rect y="200" x="100" height="10" width="10" fill="white"/>
    <rect y="200" x="110" height="10" width="10" fill="white"/>
    <rect y="200" x="160" height="10" width="10" fill="white"/>
    <rect y="200" x="170" height="10" width="10" fill="white"/>
    <rect y="200" x="230" height="10" width="10" fill="white"/>
    <rect y="210" x="0" height="10" width="10" fill="white"/>
    <rect y="210" x="90" height="10" width="10" fill="white"/>
    <rect y="210" x="180" height="10" width="10" fill="white"/>
    <rect y="210" x="230" height="10" width="10" fill="white"/>
    <rect y="220" x="0" height="10" width="10" fill="white"/>
    <rect y="220" x="90" height="10" width="10" fill="white"/>
    <rect y="220" x="180" height="10" width="10" fill="white"/>
    <rect y="220" x="230" height="10" width="10" fill="white"/>
    <rect y="230" x="0" height="10" width="10" fill="white"/>
    <rect y="230" x="20" height="10" width="10" fill="white"/>
    <rect y="230" x="80" height="10" width="10" fill="white"/>
    <rect y="230" x="130" height="10" width="10" fill="white"/>
    <rect y="230" x="190" height="10" width="10" fill="white"/>
    <rect y="230" x="230" height="10" width="10" fill="white"/>
    <rect y="240" x="0" height="10" width="10" fill="white"/>
    <rect y="240" x="30" height="10" width="10" fill="white"/>
    <rect y="240" x="80" height="10" width="10" fill="white"/>
    <rect y="240" x="130" height="10" width="10" fill="white"/>
    <rect y="240" x="190" height="10" width="10" fill="white"/>
    <rect y="240" x="230" height="10" width="10" fill="white"/>
    <rect y="250" x="0" height="10" width="10" fill="white"/>
    <rect y="250" x="20" height="10" width="10" fill="white"/>
    <rect y="250" x="30" height="10" width="10" fill="white"/>
    <rect y="250" x="80" height="10" width="10" fill="white"/>
    <rect y="250" x="190" height="10" width="10" fill="white"/>
    <rect y="250" x="230" height="10" width="10" fill="white"/>
    <rect y="260" x="0" height="10" width="10" fill="white"/>
    <rect y="260" x="40" height="10" width="10" fill="white"/>
    <rect y="260" x="50" height="10" width="10" fill="white"/>
    <rect y="260" x="80" height="10" width="10" fill="white"/>
    <rect y="260" x="130" height="10" width="10" fill="white"/>
    <rect y="260" x="140" height="10" width="10" fill="white"/>
    <rect y="260" x="190" height="10" width="10" fill="white"/>
    <rect y="260" x="230" height="10" width="10" fill="white"/>
    <rect y="270" x="0" height="10" width="10" fill="white"/>
    <rect y="270" x="90" height="10" width="10" fill="white"/>
    <rect y="270" x="180" height="10" width="10" fill="white"/>
    <rect y="270" x="230" height="10" width="10" fill="white"/>
    <rect y="280" x="0" height="10" width="10" fill="white"/>
    <rect y="280" x="90" height="10" width="10" fill="white"/>
    <rect y="280" x="180" height="10" width="10" fill="white"/>
    <rect y="280" x="230" height="10" width="10" fill="white"/>
    <rect y="290" x="0" height="10" width="10" fill="white"/>
    <rect y="290" x="100" height="10" width="10" fill="white"/>
    <rect y="290" x="110" height="10" width="10" fill="white"/>
    <rect y="290" x="160" height="10" width="10" fill="white"/>
    <rect y="290" x="170" height="10" width="10" fill="white"/>
    <rect y="290" x="230" height="10" width="10" fill="white"/>
    <rect y="300" x="0" height="10" width="10" fill="white"/>
    <rect y="300" x="120" height="10" width="10" fill="white"/>
    <rect y="300" x="130" height="10" width="10" fill="white"/>
    <rect y="300" x="140" height="10" width="10" fill="white"/>
    <rect y="300" x="150" height="10" width="10" fill="white"/>
    <rect y="300" x="230" height="10" width="10" fill="white"/>
    <rect y="310" x="0" height="10" width="10" fill="white"/>
    <rect y="310" x="230" height="10" width="10" fill="white"/>
    <rect y="320" x="0" height="10" width="10" fill="white"/>
    <rect y="320" x="230" height="10" width="10" fill="white"/>
    <rect y="330" x="0" height="10" width="10" fill="white"/>
    <rect y="330" x="140" height="10" width="10" fill="white"/>
    <rect y="330" x="230" height="10" width="10" fill="white"/>
    <rect y="340" x="0" height="10" width="10" fill="white"/>
    <rect y="340" x="130" height="10" width="10" fill="white"/>
    <rect y="340" x="230" height="10" width="10" fill="white"/>
    <rect y="350" x="0" height="10" width="10" fill="white"/>
    <rect y="350" x="100" height="10" width="10" fill="white"/>
    <rect y="350" x="110" height="10" width="10" fill="white"/>
    <rect y="350" x="160" height="10" width="10" fill="white"/>
    <rect y="350" x="170" height="10" width="10" fill="white"/>
    <rect y="350" x="230" height="10" width="10" fill="white"/>
    <rect y="360" x="0" height="10" width="10" fill="white"/>
    <rect y="360" x="90" height="10" width="10" fill="white"/>
    <rect y="360" x="180" height="10" width="10" fill="white"/>
    <rect y="360" x="230" height="10" width="10" fill="white"/>
    <rect y="370" x="0" height="10" width="10" fill="white"/>
    <rect y="370" x="90" height="10" width="10" fill="white"/>
    <rect y="370" x="130" height="10" width="10" fill="white"/>
    <rect y="370" x="180" height="10" width="10" fill="white"/>
    <rect y="370" x="230" height="10" width="10" fill="white"/>
    <rect y="380" x="0" height="10" width="10" fill="white"/>
    <rect y="380" x="80" height="10" width="10" fill="white"/>
    <rect y="380" x="130" height="10" width="10" fill="white"/>
    <rect y="380" x="190" height="10" width="10" fill="white"/>
    <rect y="380" x="230" height="10" width="10" fill="white"/>
    <rect y="390" x="0" height="10" width="10" fill="white"/>
    <rect y="390" x="20" height="10" width="10" fill="white"/>
    <rect y="390" x="80" height="10" width="10" fill="white"/>
    <rect y="390" x="190" height="10" width="10" fill="white"/>
    <rect y="390" x="230" height="10" width="10" fill="white"/>
    <rect y="400" x="0" height="10" width="10" fill="white"/>
    <rect y="400" x="30" height="10" width="10" fill="white"/>
    <rect y="400" x="40" height="10" width="10" fill="white"/>
    <rect y="400" x="50" height="10" width="10" fill="white"/>
    <rect y="400" x="80" height="10" width="10" fill="white"/>
    <rect y="400" x="130" height="10" width="10" fill="white"/>
    <rect y="400" x="140" height="10" width="10" fill="white"/>
    <rect y="400" x="190" height="10" width="10" fill="white"/>
    <rect y="400" x="230" height="10" width="10" fill="white"/>
    <rect y="410" x="0" height="10" width="10" fill="white"/>
    <rect y="410" x="20" height="10" width="10" fill="white"/>
    <rect y="410" x="30" height="10" width="10" fill="white"/>
    <rect y="410" x="80" height="10" width="10" fill="white"/>
    <rect y="410" x="190" height="10" width="10" fill="white"/>
    <rect y="410" x="230" height="10" width="10" fill="white"/>
    <rect y="420" x="0" height="10" width="10" fill="white"/>
    <rect y="420" x="40" height="10" width="10" fill="white"/>
    <rect y="420" x="50" height="10" width="10" fill="white"/>
    <rect y="420" x="90" height="10" width="10" fill="white"/>
    <rect y="420" x="130" height="10" width="10" fill="white"/>
    <rect y="420" x="140" height="10" width="10" fill="white"/>
    <rect y="420" x="180" height="10" width="10" fill="white"/>
    <rect y="420" x="230" height="10" width="10" fill="white"/>
    <rect y="430" x="0" height="10" width="10" fill="white"/>
    <rect y="430" x="90" height="10" width="10" fill="white"/>
    <rect y="430" x="180" height="10" width="10" fill="white"/>
    <rect y="430" x="230" height="10" width="10" fill="white"/>
    <rect y="440" x="0" height="10" width="10" fill="white"/>
    <rect y="440" x="100" height="10" width="10" fill="white"/>
    <rect y="440" x="110" height="10" width="10" fill="white"/>
    <rect y="440" x="160" height="10" width="10" fill="white"/>
    <rect y="440" x="170" height="10" width="10" fill="white"/>
    <rect y="440" x="230" height="10" width="10" fill="white"/>
    <rect y="450" x="0" height="10" width="10" fill="white"/>
    <rect y="450" x="120" height="10" width="10" fill="white"/>
    <rect y="450" x="130" height="10" width="10" fill="white"/>
    <rect y="450" x="140" height="10" width="10" fill="white"/>
    <rect y="450" x="150" height="10" width="10" fill="white"/>
    <rect y="450" x="230" height="10" width="10" fill="white"/>
    <rect y="460" x="0" height="10" width="10" fill="white"/>
    <rect y="460" x="20" height="10" width="10" fill="white"/>
    <rect y="460" x="40" height="10" width="10" fill="white"/>
    <rect y="460" x="60" height="10" width="10" fill="white"/>
    <rect y="460" x="230" height="10" width="10" fill="white"/>
    <rect y="470" x="0" height="10" width="10" fill="white"/>
    <rect y="470" x="230" height="10" width="10" fill="white"/>
    <rect y="480" x="0" height="10" width="10" fill="white"/>
    <rect y="480" x="10" height="10" width="10" fill="white"/>
    <rect y="480" x="20" height="10" width="10" fill="white"/>
    <rect y="480" x="30" height="10" width="10" fill="white"/>
    <rect y="480" x="40" height="10" width="10" fill="white"/>
    <rect y="480" x="50" height="10" width="10" fill="white"/>
    <rect y="480" x="60" height="10" width="10" fill="white"/>
    <rect y="480" x="70" height="10" width="10" fill="white"/>
    <rect y="480" x="80" height="10" width="10" fill="white"/>
    <rect y="480" x="90" height="10" width="10" fill="white"/>
    <rect y="480" x="100" height="10" width="10" fill="white"/>
    <rect y="480" x="110" height="10" width="10" fill="white"/>
    <rect y="480" x="120" height="10" width="10" fill="white"/>
    <rect y="480" x="130" height="10" width="10" fill="white"/>
    <rect y="480" x="140" height="10" width="10" fill="white"/>
    <rect y="480" x="150" height="10" width="10" fill="white"/>
    <rect y="480" x="160" height="10" width="10" fill="white"/>
    <rect y="480" x="170" height="10" width="10" fill="white"/>
    <rect y="480" x="180" height="10" width="10" fill="white"/>
    <rect y="480" x="190" height="10" width="10" fill="white"/>
    <rect y="480" x="200" height="10" width="10" fill="white"/>
    <rect y="480" x="210" height="10" width="10" fill="white"/>
    <rect y="480" x="220" height="10" width="10" fill="white"/>
    <rect y="480" x="230" height="10" width="10" fill="white"/>
    
  <rect y="30" x="130" height="20" width="20" fill="yellow" fill-opacity="0.4"/>
<text y="40" x="140" dominant-baseline='middle' text-anchor='middle' fill='white' style='paint-order: stroke; fill: white; stroke: black; stroke-width: 2px; font-size: 8px'><tspan x="140" dy="0em">0</tspan></text>
<rect y="90" x="20" height="20" width="20" fill="yellow" fill-opacity="0.4"/>
<text y="100" x="30" dominant-baseline='middle' text-anchor='middle' fill='white' style='paint-order: stroke; fill: white; stroke: black; stroke-width: 2px; font-size: 8px'><tspan x="30" dy="0em">1(H)</tspan></text>
<rect y="180" x="130" height="20" width="20" fill="yellow" fill-opacity="0.4"/>
<text y="190" x="140" dominant-baseline='middle' text-anchor='middle' fill='white' style='paint-order: stroke; fill: white; stroke: black; stroke-width: 2px; font-size: 8px'><tspan x="140" dy="0em">0</tspan></text>
<rect y="230" x="20" height="40" width="40" fill="yellow" fill-opacity="0.4"/>
<text y="250" x="40" dominant-baseline='middle' text-anchor='middle' fill='white' style='paint-order: stroke; fill: white; stroke: black; stroke-width: 2px; font-size: 8px'><tspan x="40" dy="0em">D</tspan></text>
<rect y="330" x="130" height="20" width="20" fill="yellow" fill-opacity="0.4"/>
<text y="340" x="140" dominant-baseline='middle' text-anchor='middle' fill='white' style='paint-order: stroke; fill: white; stroke: black; stroke-width: 2px; font-size: 8px'><tspan x="140" dy="0em">0</tspan></text>
<rect y="390" x="20" height="40" width="40" fill="yellow" fill-opacity="0.4"/>
<text y="410" x="40" dominant-baseline='middle' text-anchor='middle' fill='white' style='paint-order: stroke; fill: white; stroke: black; stroke-width: 2px; font-size: 8px'><tspan x="40" dy="0em">T</tspan></text>

</svg>
