<?xml version="1.0"?>
<svg xmlns="http://www.w3.org/2000/svg" height="686" width="336">
  <rect y="0" x="0" height="686" width="336" fill="black" />
  <rect y="0" x="0" height="14" width="14" fill="#757575"/>
    <rect y="0" x="14" height="14" width="14" fill="#757575"/>
    <rect y="0" x="28" height="14" width="14" fill="#757575"/>
    <rect y="0" x="42" height="14" width="14" fill="#757575"/>
    <rect y="0" x="56" height="14" width="14" fill="#757575"/>
    <rect y="0" x="70" height="14" width="14" fill="#757575"/>
    <rect y="0" x="84" height="14" width="14" fill="#757575"/>
    <rect y="0" x="98" height="14" width="14" fill="#757575"/>
    <rect y="0" x="112" height="14" width="14" fill="#757575"/>
    <rect y="0" x="126" height="14" width="14" fill="#757575"/>
    <rect y="0" x="140" height="14" width="14" fill="#757575"/>
    <rect y="0" x="154" height="14" width="14" fill="#757575"/>
    <rect y="0" x="168" height="14" width="14" fill="#757575"/>
    <rect y="0" x="182" height="14" width="14" fill="#757575"/>
    <rect y="0" x="196" height="14" width="14" fill="#757575"/>
    <rect y="0" x="210" height="14" width="14" fill="#757575"/>
    <rect y="0" x="224" height="14" width="14" fill="#757575"/>
    <rect y="0" x="238" height="14" width="14" fill="#757575"/>
    <rect y="0" x="252" height="14" width="14" fill="#757575"/>
    <rect y="0" x="266" height="14" width="14" fill="#757575"/>
    <rect y="0" x="280" height="14" width="14" fill="#757575"/>
    <rect y="0" x="294" height="14" width="14" fill="#757575"/>
    <rect y="0" x="308" height="14" width="14" fill="#757575"/>
    <rect y="0" x="322" height="14" width="14" fill="#757575"/>
    <rect y="14" x="0" height="14" width="14" fill="#757575"/>
    <rect y="14" x="322" height="14" width="14" fill="#757575"/>
    <rect y="28" x="0" height="14" width="14" fill="#757575"/>
    <rect y="28" x="322" height="14" width="14" fill="#757575"/>
    <rect y="42" x="0" height="14" width="14" fill="#757575"/>
    <rect y="42" x="196" height="14" width="14" fill="#757575"/>
    <rect y="42" x="322" height="14" width="14" fill="#757575"/>
    <rect y="56" x="0" height="14" width="14" fill="#757575"/>
    <rect y="56" x="182" height="14" width="14" fill="#757575"/>
    <rect y="56" x="322" height="14" width="14" fill="#757575"/>
    <rect y="70" x="0" height="14" width="14" fill="#757575"/>
    <rect y="70" x="140" height="14" width="14" fill="#757575"/>
    <rect y="70" x="154" height="14" width="14" fill="#757575"/>
    <rect y="70" x="224" height="14" width="14" fill="#757575"/>
    <rect y="70" x="238" height="14" width="14" fill="#757575"/>
    <rect y="70" x="322" height="14" width="14" fill="#757575"/>
    <rect y="84" x="0" height="14" width="14" fill="#757575"/>
    <rect y="84" x="126" height="14" width="14" fill="#757575"/>
    <rect y="84" x="252" height="14" width="14" fill="#757575"/>
    <rect y="84" x="322" height="14" width="14" fill="#757575"/>
    <rect y="98" x="0" height="14" width="14" fill="#757575"/>
    <rect y="98" x="126" height="14" width="14" fill="#757575"/>
    <rect y="98" x="252" height="14" width="14" fill="#757575"/>
    <rect y="98" x="322" height="14" width="14" fill="#757575"/>
    <rect y="112" x="0" height="14" width="14" fill="#757575"/>
    <rect y="112" x="112" height="14" width="14" fill="#757575"/>
    <rect y="112" x="266" height="14" width="14" fill="#757575"/>
    <rect y="112" x="322" height="14" width="14" fill="#757575"/>
    <rect y="126" x="0" height="14" width="14" fill="#757575"/>
    <rect y="126" x="42" height="14" width="14" fill="#757575"/>
    <rect y="126" x="112" height="14" width="14" fill="#757575"/>
    <rect y="126" x="182" height="14" width="14" fill="#757575"/>
    <rect y="126" x="266" height="14" width="14" fill="#757575"/>
    <rect y="126" x="322" height="14" width="14" fill="#757575"/>
    <rect y="140" x="0" height="14" width="14" fill="#757575"/>
    <rect y="140" x="28" height="14" width="14" fill="#757575"/>
    <rect y="140" x="42" height="14" width="14" fill="#757575"/>
    <rect y="140" x="112" height="14" width="14" fill="#757575"/>
    <rect y="140" x="182" height="14" width="14" fill="#757575"/>
    <rect y="140" x="266" height="14" width="14" fill="#757575"/>
    <rect y="140" x="322" height="14" width="14" fill="#757575"/>
    <rect y="154" x="0" height="14" width="14" fill="#757575"/>
    <rect y="154" x="112" height="14" width="14" fill="#757575"/>
    <rect y="154" x="266" height="14" width="14" fill="#757575"/>
    <rect y="154" x="322" height="14" width="14" fill="#757575"/>
    <rect y="168" x="0" height="14" width="14" fill="#757575"/>
    <rect y="168" x="126" height="14" width="14" fill="#757575"/>
    <rect y="168" x="252" height="14" width="14" fill="#757575"/>
    <rect y="168" x="322" height="14" width="14" fill="#757575"/>
    <rect y="182" x="0" height="14" width="14" fill="#757575"/>
    <rect y="182" x="126" height="14" width="14" fill="#757575"/>
    <rect y="182" x="252" height="14" width="14" fill="#757575"/>
    <rect y="182" x="322" height="14" width="14" fill="#757575"/>
    <rect y="196" x="0" height="14" width="14" fill="#757575"/>
    <rect y="196" x="140" height="14" width="14" fill="#757575"/>
    <rect y="196" x="154" height="14" width="14" fill="#757575"/>
    <rect y="196" x="224" height="14" width="14" fill="#757575"/>
    <rect y="196" x="238" height="14" width="14" fill="#757575"/>
    <rect y="196" x="322" height="14" width="14" fill="#757575"/>
    <rect y="210" x="0" height="14" width="14" fill="#757575"/>
    <rect y="210" x="168" height="14" width="14" fill="#757575"/>
    <rect y="210" x="182" height="14" width="14" fill="#757575"/>
    <rect y="210" x="196" height="14" width="14" fill="#757575"/>
    <rect y="210" x="210" height="14" width="14" fill="#757575"/>
    <rect y="210" x="322" height="14" width="14" fill="#757575"/>
    <rect y="224" x="0" height="14" width="14" fill="#757575"/>
    <rect y="224" x="322" height="14" width="14" fill="#757575"/>
    <rect y="238" x="0" height="14" width="14" fill="#757575"/>
    <rect y="238" x="322" height="14" width="14" fill="#757575"/>
    <rect y="252" x="0" height="14" width="14" fill="#757575"/>
    <rect y="252" x="196" height="14" width="14" fill="#757575"/>
    <rect y="252" x="322" height="14" width="14" fill="#757575"/>
    <rect y="266" x="0" height="14" width="14" fill="#757575"/>
    <rect y="266" x="182" height="14" width="14" fill="#757575"/>
    <rect y="266" x="322" height="14" width="14" fill="#757575"/>
    <rect y="280" x="0" height="14" width="14" fill="#757575"/>
    <rect y="280" x="140" height="14" width="14" fill="#757575"/>
    <rect y="280" x="154" height="14" width="14" fill="#757575"/>
    <rect y="280" x="224" height="14" width="14" fill="#757575"/>
    <rect y="280" x="238" height="14" width="14" fill="#757575"/>
    <rect y="280" x="322" height="14" width="14" fill="#757575"/>
    <rect y="294" x="0" height="14" width="14" fill="#757575"/>
    <rect y="294" x="126" height="14" width="14" fill="#757575"/>
    <rect y="294" x="252" height="14" width="14" fill="#757575"/>
    <rect y="294" x="322" height="14" width="14" fill="#757575"/>
    <rect y="308" x="0" height="14" width="14" fill="#757575"/>
    <rect y="308" x="126" height="14" width="14" fill="#757575"/>
    <rect y="308" x="252" height="14" width="14" fill="#757575"/>
    <rect y="308" x="322" height="14" width="14" fill="#757575"/>
    <rect y="322" x="0" height="14" width="14" fill="#757575"/>
    <rect y="322" x="28" height="14" width="14" fill="#757575"/>
    <rect y="322" x="112" height="14" width="14" fill="#757575"/>
    <rect y="322" x="182" height="14" width="14" fill="#757575"/>
    <rect y="322" x="266" height="14" width="14" fill="#757575"/>
    <rect y="322" x="322" height="14" width="14" fill="#757575"/>
    <rect y="336" x="0" height="14" width="14" fill="#757575"/>
    <rect y="336" x="42" height="14" width="14" fill="#757575"/>
    <rect y="336" x="112" height="14" width="14" fill="#757575"/>
    <rect y="336" x="182" height="14" width="14" fill="#757575"/>
    <rect y="336" x="266" height="14" width="14" fill="#757575"/>
    <rect y="336" x="322" height="14" width="14" fill="#757575"/>
    <rect y="350" x="0" height="14" width="14" fill="#757575"/>
    <rect y="350" x="28" height="14" width="14" fill="#757575"/>
    <rect y="350" x="42" height="14" width="14" fill="#757575"/>
    <rect y="350" x="112" height="14" width="14" fill="#757575"/>
    <rect y="350" x="266" height="14" width="14" fill="#757575"/>
    <rect y="350" x="322" height="14" width="14" fill="#757575"/>
    <rect y="364" x="0" height="14" width="14" fill="#757575"/>
    <rect y="364" x="56" height="14" width="14" fill="#757575"/>
    <rect y="364" x="70" height="14" width="14" fill="#757575"/>
    <rect y="364" x="112" height="14" width="14" fill="#757575"/>
    <rect y="364" x="182" height="14" width="14" fill="#757575"/>
    <rect y="364" x="196" height="14" width="14" fill="#757575"/>
    <rect y="364" x="266" height="14" width="14" fill="#757575"/>
    <rect y="364" x="322" height="14" width="14" fill="#757575"/>
    <rect y="378" x="0" height="14" width="14" fill="#757575"/>
    <rect y="378" x="126" height="14" width="14" fill="#757575"/>
    <rect y="378" x="252" height="14" width="14" fill="#757575"/>
    <rect y="378" x="322" height="14" width="14" fill="#757575"/>
    <rect y="392" x="0" height="14" width="14" fill="#757575"/>
    <rect y="392" x="126" height="14" width="14" fill="#757575"/>
    <rect y="392" x="252" height="14" width="14" fill="#757575"/>
    <rect y="392" x="322" height="14" width="14" fill="#757575"/>
    <rect y="406" x="0" height="14" width="14" fill="#757575"/>
    <rect y="406" x="140" height="14" width="14" fill="#757575"/>
    <rect y="406" x="154" height="14" width="14" fill="#757575"/>
    <rect y="406" x="224" height="14" width="14" fill="#757575"/>
    <rect y="406" x="238" height="14" width="14" fill="#757575"/>
    <rect y="406" x="322" height="14" width="14" fill="#757575"/>
    <rect y="420" x="0" height="14" width="14" fill="#757575"/>
    <rect y="420" x="168" height="14" width="14" fill="#757575"/>
    <rect y="420" x="182" height="14" width="14" fill="#757575"/>
    <rect y="420" x="196" height="14" width="14" fill="#757575"/>
    <rect y="420" x="210" height="14" width="14" fill="#757575"/>
    <rect y="420" x="322" height="14" width="14" fill="#757575"/>
    <rect y="434" x="0" height="14" width="14" fill="#757575"/>
    <rect y="434" x="322" height="14" width="14" fill="#757575"/>
    <rect y="448" x="0" height="14" width="14" fill="#757575"/>
    <rect y="448" x="322" height="14" width="14" fill="#757575"/>
    <rect y="462" x="0" height="14" width="14" fill="#757575"/>
    <rect y="462" x="196" height="14" width="14" fill="#757575"/>
    <rect y="462" x="322" height="14" width="14" fill="#757575"/>
    <rect y="476" x="0" height="14" width="14" fill="#757575"/>
    <rect y="476" x="182" height="14" width="14" fill="#757575"/>
    <rect y="476" x="322" height="14" width="14" fill="#757575"/>
    <rect y="490" x="0" height="14" width="14" fill="#757575"/>
    <rect y="490" x="140" height="14" width="14" fill="#757575"/>
    <rect y="490" x="154" height="14" width="14" fill="#757575"/>
    <rect y="490" x="224" height="14" width="14" fill="#757575"/>
    <rect y="490" x="238" height="14" width="14" fill="#757575"/>
    <rect y="490" x="322" height="14" width="14" fill="#757575"/>
    <rect y="504" x="0" height="14" width="14" fill="#757575"/>
    <rect y="504" x="126" height="14" width="14" fill="#757575"/>
    <rect y="504" x="252" height="14" width="14" fill="#757575"/>
    <rect y="504" x="322" height="14" width="14" fill="#757575"/>
    <rect y="518" x="0" height="14" width="14" fill="#757575"/>
    <rect y="518" x="126" height="14" width="14" fill="#757575"/>
    <rect y="518" x="182" height="14" width="14" fill="#757575"/>
    <rect y="518" x="252" height="14" width="14" fill="#757575"/>
    <rect y="518" x="322" height="14" width="14" fill="#757575"/>
    <rect y="532" x="0" height="14" width="14" fill="#757575"/>
    <rect y="532" x="112" height="14" width="14" fill="#757575"/>
    <rect y="532" x="182" height="14" width="14" fill="#757575"/>
    <rect y="532" x="266" height="14" width="14" fill="#757575"/>
    <rect y="532" x="322" height="14" width="14" fill="#757575"/>
    <rect y="546" x="0" height="14" width="14" fill="#757575"/>
    <rect y="546" x="28" height="14" width="14" fill="#757575"/>
    <rect y="546" x="112" height="14" width="14" fill="#757575"/>
    <rect y="546" x="266" height="14" width="14" fill="#757575"/>
    <rect y="546" x="322" height="14" width="14" fill="#757575"/>
    <rect y="560" x="0" height="14" width="14" fill="#757575"/>
    <rect y="560" x="42" height="14" width="14" fill="#757575"/>
    <rect y="560" x="56" height="14" width="14" fill="#757575"/>
    <rect y="560" x="70" height="14" width="14" fill="#757575"/>
    <rect y="560" x="112" height="14" width="14" fill="#757575"/>
    <rect y="560" x="182" height="14" width="14" fill="#757575"/>
    <rect y="560" x="196" height="14" width="14" fill="#757575"/>
    <rect y="560" x="266" height="14" width="14" fill="#757575"/>
    <rect y="560" x="322" height="14" width="14" fill="#757575"/>
    <rect y="574" x="0" height="14" width="14" fill="#757575"/>
    <rect y="574" x="28" height="14" width="14" fill="#757575"/>
    <rect y="574" x="42" height="14" width="14" fill="#757575"/>
    <rect y="574" x="112" height="14" width="14" fill="#757575"/>
    <rect y="574" x="266" height="14" width="14" fill="#757575"/>
    <rect y="574" x="322" height="14" width="14" fill="#757575"/>
    <rect y="588" x="0" height="14" width="14" fill="#757575"/>
    <rect y="588" x="56" height="14" width="14" fill="#757575"/>
    <rect y="588" x="70" height="14" width="14" fill="#757575"/>
    <rect y="588" x="126" height="14" width="14" fill="#757575"/>
    <rect y="588" x="182" height="14" width="14" fill="#757575"/>
    <rect y="588" x="196" height="14" width="14" fill="#757575"/>
    <rect y="588" x="252" height="14" width="14" fill="#757575"/>
    <rect y="588" x="322" height="14" width="14" fill="#757575"/>
    <rect y="602" x="0" height="14" width="14" fill="#757575"/>
    <rect y="602" x="126" height="14" width="14" fill="#757575"/>
    <rect y="602" x="252" height="14" width="14" fill="#757575"/>
    <rect y="602" x="322" height="14" width="14" fill="#757575"/>
    <rect y="616" x="0" height="14" width="14" fill="#757575"/>
    <rect y="616" x="140" height="14" width="14" fill="#757575"/>
    <rect y="616" x="154" height="14" width="14" fill="#757575"/>
    <rect y="616" x="224" height="14" width="14" fill="#757575"/>
    <rect y="616" x="238" height="14" width="14" fill="#757575"/>
    <rect y="616" x="322" height="14" width="14" fill="#757575"/>
    <rect y="630" x="0" height="14" width="14" fill="#757575"/>
    <rect y="630" x="168" height="14" width="14" fill="#757575"/>
    <rect y="630" x="182" height="14" width="14" fill="#757575"/>
    <rect y="630" x="196" height="14" width="14" fill="#757575"/>
    <rect y="630" x="210" height="14" width="14" fill="#757575"/>
    <rect y="630" x="322" height="14" width="14" fill="#757575"/>
    <rect y="644" x="0" height="14" width="14" fill="#757575"/>
    <rect y="644" x="28" height="14" width="14" fill="#757575"/>
    <rect y="644" x="56" height="14" width="14" fill="#757575"/>
    <rect y="644" x="84" height="14" width="14" fill="#757575"/>
    <rect y="644" x="322" height="14" width="14" fill="#757575"/>
    <rect y="658" x="0" height="14" width="14" fill="#757575"/>
    <rect y="658" x="322" height="14" width="14" fill="#757575"/>
    <rect y="672" x="0" height="14" width="14" fill="#757575"/>
    <rect y="672" x="14" height="14" width="14" fill="#757575"/>
    <rect y="672" x="28" height="14" width="14" fill="#757575"/>
    <rect y="672" x="42" height="14" width="14" fill="#757575"/>
    <rect y="672" x="56" height="14" width="14" fill="#757575"/>
    <rect y="672" x="70" height="14" width="14" fill="#757575"/>
    <rect y="672" x="84" height="14" width="14" fill="#757575"/>
    <rect y="672" x="98" height="14" width="14" fill="#757575"/>
    <rect y="672" x="112" height="14" width="14" fill="#757575"/>
    <rect y="672" x="126" height="14" width="14" fill="#757575"/>
    <rect y="672" x="140" height="14" width="14" fill="#757575"/>
    <rect y="672" x="154" height="14" width="14" fill="#757575"/>
    <rect y="672" x="168" height="14" width="14" fill="#757575"/>
    <rect y="672" x="182" height="14" width="14" fill="#757575"/>
    <rect y="672" x="196" height="14" width="14" fill="#757575"/>
    <rect y="672" x="210" height="14" width="14" fill="#757575"/>
    <rect y="672" x="224" height="14" width="14" fill="#757575"/>
    <rect y="672" x="238" height="14" width="14" fill="#757575"/>
    <rect y="672" x="252" height="14" width="14" fill="#757575"/>
    <rect y="672" x="266" height="14" width="14" fill="#757575"/>
    <rect y="672" x="280" height="14" width="14" fill="#757575"/>
    <rect y="672" x="294" height="14" width="14" fill="#757575"/>
    <rect y="672" x="308" height="14" width="14" fill="#757575"/>
    <rect y="672" x="322" height="14" width="14" fill="#757575"/>
    
  <rect y="126" x="28" height="28" width="28" fill="#004D40" fill-opacity="0.5"/>
<text y="140" x="42" dominant-baseline='middle' text-anchor='middle' fill='white' style='paint-order: stroke; fill: white; stroke: black; stroke-width: 1px; font-family="monospace"; font-size: 13px'><tspan x="42" dy="0em">1(H)</tspan></text>
<rect y="322" x="28" height="56" width="56" fill="#01579B" fill-opacity="0.5"/>
<text y="350" x="56" dominant-baseline='middle' text-anchor='middle' fill='white' style='paint-order: stroke; fill: white; stroke: black; stroke-width: 1px; font-family="monospace"; font-size: 13px'><tspan x="56" dy="0em">D</tspan></text>
<rect y="546" x="28" height="56" width="56" fill="#01579B" fill-opacity="0.5"/>
<text y="574" x="56" dominant-baseline='middle' text-anchor='middle' fill='white' style='paint-order: stroke; fill: white; stroke: black; stroke-width: 1px; font-family="monospace"; font-size: 13px'><tspan x="56" dy="0em">T</tspan></text>

</svg>
