<?xml version="1.0"?>
<svg xmlns="http://www.w3.org/2000/svg" height="490" width="240">
  <rect y="0" x="0" height="490" width="240" fill="black" />
  <rect y="0" x="0" height="10" width="10" fill="white"/>
    <rect y="0" x="10" height="10" width="10" fill="white"/>
    <rect y="0" x="20" height="10" width="10" fill="white"/>
    <rect y="0" x="30" height="10" width="10" fill="white"/>
    <rect y="0" x="40" height="10" width="10" fill="white"/>
    <rect y="0" x="50" height="10" width="10" fill="white"/>
    <rect y="0" x="60" height="10" width="10" fill="white"/>
    <rect y="0" x="70" height="10" width="10" fill="white"/>
    <rect y="0" x="80" height="10" width="10" fill="white"/>
    <rect y="0" x="90" height="10" width="10" fill="white"/>
    <rect y="0" x="100" height="10" width="10" fill="white"/>
    <rect y="0" x="110" height="10" width="10" fill="white"/>
    <rect y="0" x="120" height="10" width="10" fill="white"/>
    <rect y="0" x="130" height="10" width="10" fill="white"/>
    <rect y="0" x="140" height="10" width="10" fill="white"/>
    <rect y="0" x="150" height="10" width="10" fill="white"/>
    <rect y="0" x="160" height="10" width="10" fill="white"/>
    <rect y="0" x="170" height="10" width="10" fill="white"/>
    <rect y="0" x="180" height="10" width="10" fill="white"/>
    <rect y="0" x="190" height="10" width="10" fill="white"/>
    <rect y="0" x="200" height="10" width="10" fill="white"/>
    <rect y="0" x="210" height="10" width="10" fill="white"/>
    <rect y="0" x="220" height="10" width="10" fill="white"/>
    <rect y="0" x="230" height="10" width="10" fill="white"/>
    <rect y="10" x="0" height="10" width="10" fill="white"/>
    <rect y="10" x="230" height="10" width="10" fill="white"/>
    <rect y="20" x="0" height="10" width="10" fill="white"/>
    <rect y="20" x="230" height="10" width="10" fill="white"/>
    <rect y="30" x="0" height="10" width="10" fill="white"/>
    <rect y="30" x="230" height="10" width="10" fill="white"/>
    <rect y="40" x="0" height="10" width="10" fill="white"/>
    <rect y="40" x="230" height="10" width="10" fill="white"/>
    <rect y="50" x="0" height="10" width="10" fill="white"/>
    <rect y="50" x="230" height="10" width="10" fill="white"/>
    <rect y="60" x="0" height="10" width="10" fill="white"/>
    <rect y="60" x="140" height="10" width="10" fill="white"/>
    <rect y="60" x="230" height="10" width="10" fill="white"/>
    <rect y="70" x="0" height="10" width="10" fill="white"/>
    <rect y="70" x="130" height="10" width="10" fill="white"/>
    <rect y="70" x="230" height="10" width="10" fill="white"/>
    <rect y="80" x="0" height="10" width="10" fill="white"/>
    <rect y="80" x="100" height="10" width="10" fill="white"/>
    <rect y="80" x="110" height="10" width="10" fill="white"/>
    <rect y="80" x="160" height="10" width="10" fill="white"/>
    <rect y="80" x="170" height="10" width="10" fill="white"/>
    <rect y="80" x="230" height="10" width="10" fill="white"/>
    <rect y="90" x="0" height="10" width="10" fill="white"/>
    <rect y="90" x="90" height="10" width="10" fill="white"/>
    <rect y="90" x="180" height="10" width="10" fill="white"/>
    <rect y="90" x="230" height="10" width="10" fill="white"/>
    <rect y="100" x="0" height="10" width="10" fill="white"/>
    <rect y="100" x="90" height="10" width="10" fill="white"/>
    <rect y="100" x="180" height="10" width="10" fill="white"/>
    <rect y="100" x="230" height="10" width="10" fill="white"/>
    <rect y="110" x="0" height="10" width="10" fill="white"/>
    <rect y="110" x="80" height="10" width="10" fill="white"/>
    <rect y="110" x="190" height="10" width="10" fill="white"/>
    <rect y="110" x="230" height="10" width="10" fill="white"/>
    <rect y="120" x="0" height="10" width="10" fill="white"/>
    <rect y="120" x="80" height="10" width="10" fill="white"/>
    <rect y="120" x="130" height="10" width="10" fill="white"/>
    <rect y="120" x="190" height="10" width="10" fill="white"/>
    <rect y="120" x="230" height="10" width="10" fill="white"/>
    <rect y="130" x="0" height="10" width="10" fill="white"/>
    <rect y="130" x="80" height="10" width="10" fill="white"/>
    <rect y="130" x="130" height="10" width="10" fill="white"/>
    <rect y="130" x="190" height="10" width="10" fill="white"/>
    <rect y="130" x="230" height="10" width="10" fill="white"/>
    <rect y="140" x="0" height="10" width="10" fill="white"/>
    <rect y="140" x="80" height="10" width="10" fill="white"/>
    <rect y="140" x="190" height="10" width="10" fill="white"/>
    <rect y="140" x="230" height="10" width="10" fill="white"/>
    <rect y="150" x="0" height="10" width="10" fill="white"/>
    <rect y="150" x="90" height="10" width="10" fill="white"/>
    <rect y="150" x="180" height="10" width="10" fill="white"/>
    <rect y="150" x="230" height="10" width="10" fill="white"/>
    <rect y="160" x="0" height="10" width="10" fill="white"/>
    <rect y="160" x="90" height="10" width="10" fill="white"/>
    <rect y="160" x="180" height="10" width="10" fill="white"/>
    <rect y="160" x="230" height="10" width="10" fill="white"/>
    <rect y="170" x="0" height="10" width="10" fill="white"/>
    <rect y="170" x="100" height="10" width="10" fill="white"/>
    <rect y="170" x="110" height="10" width="10" fill="white"/>
    <rect y="170" x="160" height="10" width="10" fill="white"/>
    <rect y="170" x="170" height="10" width="10" fill="white"/>
    <rect y="170" x="230" height="10" width="10" fill="white"/>
    <rect y="180" x="0" height="10" width="10" fill="white"/>
    <rect y="180" x="120" height="10" width="10" fill="white"/>
    <rect y="180" x="130" height="10" width="10" fill="white"/>
    <rect y="180" x="140" height="10" width="10" fill="white"/>
    <rect y="180" x="150" height="10" width="10" fill="white"/>
    <rect y="180" x="230" height="10" width="10" fill="white"/>
    <rect y="190" x="0" height="10" width="10" fill="white"/>
    <rect y="190" x="230" height="10" width="10" fill="white"/>
    <rect y="200" x="0" height="10" width="10" fill="white"/>
    <rect y="200" x="230" height="10" width="10" fill="white"/>
    <rect y="210" x="0" height="10" width="10" fill="white"/>
    <rect y="210" x="230" height="10" width="10" fill="white"/>
    <rect y="220" x="0" height="10" width="10" fill="white"/>
    <rect y="220" x="230" height="10" width="10" fill="white"/>
    <rect y="230" x="0" height="10" width="10" fill="white"/>
    <rect y="230" x="230" height="10" width="10" fill="white"/>
    <rect y="240" x="0" height="10" width="10" fill="white"/>
    <rect y="240" x="230" height="10" width="10" fill="white"/>
    <rect y="250" x="0" height="10" width="10" fill="white"/>
    <rect y="250" x="230" height="10" width="10" fill="white"/>
    <rect y="260" x="0" height="10" width="10" fill="white"/>
    <rect y="260" x="60" height="10" width="10" fill="white"/>
    <rect y="260" x="70" height="10" width="10" fill="white"/>
    <rect y="260" x="100" height="10" width="10" fill="white"/>
    <rect y="260" x="120" height="10" width="10" fill="white"/>
    <rect y="260" x="150" height="10" width="10" fill="white"/>
    <rect y="260" x="160" height="10" width="10" fill="white"/>
    <rect y="260" x="230" height="10" width="10" fill="white"/>
    <rect y="270" x="0" height="10" width="10" fill="white"/>
    <rect y="270" x="50" height="10" width="10" fill="white"/>
    <rect y="270" x="90" height="10" width="10" fill="white"/>
    <rect y="270" x="130" height="10" width="10" fill="white"/>
    <rect y="270" x="170" height="10" width="10" fill="white"/>
    <rect y="270" x="230" height="10" width="10" fill="white"/>
    <rect y="280" x="0" height="10" width="10" fill="white"/>
    <rect y="280" x="50" height="10" width="10" fill="white"/>
    <rect y="280" x="170" height="10" width="10" fill="white"/>
    <rect y="280" x="230" height="10" width="10" fill="white"/>
    <rect y="290" x="0" height="10" width="10" fill="white"/>
    <rect y="290" x="40" height="10" width="10" fill="white"/>
    <rect y="290" x="180" height="10" width="10" fill="white"/>
    <rect y="290" x="230" height="10" width="10" fill="white"/>
    <rect y="300" x="0" height="10" width="10" fill="white"/>
    <rect y="300" x="40" height="10" width="10" fill="white"/>
    <rect y="300" x="100" height="10" width="10" fill="white"/>
    <rect y="300" x="120" height="10" width="10" fill="white"/>
    <rect y="300" x="180" height="10" width="10" fill="white"/>
    <rect y="300" x="230" height="10" width="10" fill="white"/>
    <rect y="310" x="0" height="10" width="10" fill="white"/>
    <rect y="310" x="30" height="10" width="10" fill="white"/>
    <rect y="310" x="100" height="10" width="10" fill="white"/>
    <rect y="310" x="120" height="10" width="10" fill="white"/>
    <rect y="310" x="190" height="10" width="10" fill="white"/>
    <rect y="310" x="230" height="10" width="10" fill="white"/>
    <rect y="320" x="0" height="10" width="10" fill="white"/>
    <rect y="320" x="30" height="10" width="10" fill="white"/>
    <rect y="320" x="190" height="10" width="10" fill="white"/>
    <rect y="320" x="230" height="10" width="10" fill="white"/>
    <rect y="330" x="0" height="10" width="10" fill="white"/>
    <rect y="330" x="30" height="10" width="10" fill="white"/>
    <rect y="330" x="100" height="10" width="10" fill="white"/>
    <rect y="330" x="110" height="10" width="10" fill="white"/>
    <rect y="330" x="190" height="10" width="10" fill="white"/>
    <rect y="330" x="230" height="10" width="10" fill="white"/>
    <rect y="340" x="0" height="10" width="10" fill="white"/>
    <rect y="340" x="40" height="10" width="10" fill="white"/>
    <rect y="340" x="180" height="10" width="10" fill="white"/>
    <rect y="340" x="230" height="10" width="10" fill="white"/>
    <rect y="350" x="0" height="10" width="10" fill="white"/>
    <rect y="350" x="40" height="10" width="10" fill="white"/>
    <rect y="350" x="100" height="10" width="10" fill="white"/>
    <rect y="350" x="110" height="10" width="10" fill="white"/>
    <rect y="350" x="180" height="10" width="10" fill="white"/>
    <rect y="350" x="230" height="10" width="10" fill="white"/>
    <rect y="360" x="0" height="10" width="10" fill="white"/>
    <rect y="360" x="50" height="10" width="10" fill="white"/>
    <rect y="360" x="170" height="10" width="10" fill="white"/>
    <rect y="360" x="230" height="10" width="10" fill="white"/>
    <rect y="370" x="0" height="10" width="10" fill="white"/>
    <rect y="370" x="50" height="10" width="10" fill="white"/>
    <rect y="370" x="170" height="10" width="10" fill="white"/>
    <rect y="370" x="230" height="10" width="10" fill="white"/>
    <rect y="380" x="0" height="10" width="10" fill="white"/>
    <rect y="380" x="60" height="10" width="10" fill="white"/>
    <rect y="380" x="70" height="10" width="10" fill="white"/>
    <rect y="380" x="150" height="10" width="10" fill="white"/>
    <rect y="380" x="160" height="10" width="10" fill="white"/>
    <rect y="380" x="230" height="10" width="10" fill="white"/>
    <rect y="390" x="0" height="10" width="10" fill="white"/>
    <rect y="390" x="80" height="10" width="10" fill="white"/>
    <rect y="390" x="90" height="10" width="10" fill="white"/>
    <rect y="390" x="130" height="10" width="10" fill="white"/>
    <rect y="390" x="140" height="10" width="10" fill="white"/>
    <rect y="390" x="230" height="10" width="10" fill="white"/>
    <rect y="400" x="0" height="10" width="10" fill="white"/>
    <rect y="400" x="100" height="10" width="10" fill="white"/>
    <rect y="400" x="110" height="10" width="10" fill="white"/>
    <rect y="400" x="120" height="10" width="10" fill="white"/>
    <rect y="400" x="230" height="10" width="10" fill="white"/>
    <rect y="410" x="0" height="10" width="10" fill="white"/>
    <rect y="410" x="230" height="10" width="10" fill="white"/>
    <rect y="420" x="0" height="10" width="10" fill="white"/>
    <rect y="420" x="230" height="10" width="10" fill="white"/>
    <rect y="430" x="0" height="10" width="10" fill="white"/>
    <rect y="430" x="230" height="10" width="10" fill="white"/>
    <rect y="440" x="0" height="10" width="10" fill="white"/>
    <rect y="440" x="230" height="10" width="10" fill="white"/>
    <rect y="450" x="0" height="10" width="10" fill="white"/>
    <rect y="450" x="230" height="10" width="10" fill="white"/>
    <rect y="460" x="0" height="10" width="10" fill="white"/>
    <rect y="460" x="20" height="10" width="10" fill="white"/>
    <rect y="460" x="230" height="10" width="10" fill="white"/>
    <rect y="470" x="0" height="10" width="10" fill="white"/>
    <rect y="470" x="230" height="10" width="10" fill="white"/>
    <rect y="480" x="0" height="10" width="10" fill="white"/>
    <rect y="480" x="10" height="10" width="10" fill="white"/>
    <rect y="480" x="20" height="10" width="10" fill="white"/>
    <rect y="480" x="30" height="10" width="10" fill="white"/>
    <rect y="480" x="40" height="10" width="10" fill="white"/>
    <rect y="480" x="50" height="10" width="10" fill="white"/>
    <rect y="480" x="60" height="10" width="10" fill="white"/>
    <rect y="480" x="70" height="10" width="10" fill="white"/>
    <rect y="480" x="80" height="10" width="10" fill="white"/>
    <rect y="480" x="90" height="10" width="10" fill="white"/>
    <rect y="480" x="100" height="10" width="10" fill="white"/>
    <rect y="480" x="110" height="10" width="10" fill="white"/>
    <rect y="480" x="120" height="10" width="10" fill="white"/>
    <rect y="480" x="130" height="10" width="10" fill="white"/>
    <rect y="480" x="140" height="10" width="10" fill="white"/>
    <rect y="480" x="150" height="10" width="10" fill="white"/>
    <rect y="480" x="160" height="10" width="10" fill="white"/>
    <rect y="480" x="170" height="10" width="10" fill="white"/>
    <rect y="480" x="180" height="10" width="10" fill="white"/>
    <rect y="480" x="190" height="10" width="10" fill="white"/>
    <rect y="480" x="200" height="10" width="10" fill="white"/>
    <rect y="480" x="210" height="10" width="10" fill="white"/>
    <rect y="480" x="220" height="10" width="10" fill="white"/>
    <rect y="480" x="230" height="10" width="10" fill="white"/>
    
  <rect y="60" x="130" height="20" width="20" fill="yellow" fill-opacity="0.4"/>
<text y="70" x="140" dominant-baseline='middle' text-anchor='middle' fill='white' style='paint-order: stroke; fill: white; stroke: black; stroke-width: 2px; font-size: 5px'>0</text>
<rect y="80" x="90" height="30" width="30" fill="yellow" fill-opacity="0.4"/>
<text y="95" x="105" dominant-baseline='middle' text-anchor='middle' fill='white' style='paint-order: stroke; fill: white; stroke: black; stroke-width: 2px; font-size: 5px'>0</text>
<rect y="80" x="160" height="10" width="10" fill="red" fill-opacity="0.4"/>
<text y="85" x="165" dominant-baseline='middle' text-anchor='middle' fill='white' style='paint-order: stroke; fill: white; stroke: black; stroke-width: 2px; font-size: 5px'>?-1</text>
<rect y="80" x="170" height="10" width="10" fill="red" fill-opacity="0.4"/>
<text y="85" x="175" dominant-baseline='middle' text-anchor='middle' fill='white' style='paint-order: stroke; fill: white; stroke: black; stroke-width: 2px; font-size: 5px'>?-1</text>
<rect y="90" x="180" height="10" width="10" fill="red" fill-opacity="0.4"/>
<text y="95" x="185" dominant-baseline='middle' text-anchor='middle' fill='white' style='paint-order: stroke; fill: white; stroke: black; stroke-width: 2px; font-size: 5px'>?-1</text>
<rect y="100" x="80" height="30" width="20" fill="yellow" fill-opacity="0.4"/>
<text y="115" x="90" dominant-baseline='middle' text-anchor='middle' fill='white' style='paint-order: stroke; fill: white; stroke: black; stroke-width: 2px; font-size: 5px'>0</text>
<rect y="100" x="180" height="10" width="10" fill="red" fill-opacity="0.4"/>
<text y="105" x="185" dominant-baseline='middle' text-anchor='middle' fill='white' style='paint-order: stroke; fill: white; stroke: black; stroke-width: 2px; font-size: 5px'>?-1</text>
<rect y="110" x="190" height="10" width="10" fill="red" fill-opacity="0.4"/>
<text y="115" x="195" dominant-baseline='middle' text-anchor='middle' fill='white' style='paint-order: stroke; fill: white; stroke: black; stroke-width: 2px; font-size: 5px'>?-1</text>
<rect y="120" x="130" height="10" width="10" fill="red" fill-opacity="0.4"/>
<text y="125" x="135" dominant-baseline='middle' text-anchor='middle' fill='white' style='paint-order: stroke; fill: white; stroke: black; stroke-width: 2px; font-size: 5px'>?-1</text>
<rect y="120" x="190" height="10" width="10" fill="red" fill-opacity="0.4"/>
<text y="125" x="195" dominant-baseline='middle' text-anchor='middle' fill='white' style='paint-order: stroke; fill: white; stroke: black; stroke-width: 2px; font-size: 5px'>?-1</text>
<rect y="130" x="80" height="10" width="10" fill="red" fill-opacity="0.4"/>
<text y="135" x="85" dominant-baseline='middle' text-anchor='middle' fill='white' style='paint-order: stroke; fill: white; stroke: black; stroke-width: 2px; font-size: 5px'>?-1</text>
<rect y="130" x="130" height="10" width="10" fill="red" fill-opacity="0.4"/>
<text y="135" x="135" dominant-baseline='middle' text-anchor='middle' fill='white' style='paint-order: stroke; fill: white; stroke: black; stroke-width: 2px; font-size: 5px'>?-1</text>
<rect y="130" x="190" height="10" width="10" fill="red" fill-opacity="0.4"/>
<text y="135" x="195" dominant-baseline='middle' text-anchor='middle' fill='white' style='paint-order: stroke; fill: white; stroke: black; stroke-width: 2px; font-size: 5px'>?-1</text>
<rect y="140" x="80" height="10" width="10" fill="red" fill-opacity="0.4"/>
<text y="145" x="85" dominant-baseline='middle' text-anchor='middle' fill='white' style='paint-order: stroke; fill: white; stroke: black; stroke-width: 2px; font-size: 5px'>?-1</text>
<rect y="140" x="180" height="30" width="20" fill="yellow" fill-opacity="0.4"/>
<text y="155" x="190" dominant-baseline='middle' text-anchor='middle' fill='white' style='paint-order: stroke; fill: white; stroke: black; stroke-width: 2px; font-size: 5px'>0</text>
<rect y="150" x="90" height="10" width="10" fill="red" fill-opacity="0.4"/>
<text y="155" x="95" dominant-baseline='middle' text-anchor='middle' fill='white' style='paint-order: stroke; fill: white; stroke: black; stroke-width: 2px; font-size: 5px'>?-1</text>
<rect y="160" x="90" height="10" width="10" fill="red" fill-opacity="0.4"/>
<text y="165" x="95" dominant-baseline='middle' text-anchor='middle' fill='white' style='paint-order: stroke; fill: white; stroke: black; stroke-width: 2px; font-size: 5px'>?-1</text>
<rect y="160" x="170" height="20" width="20" fill="yellow" fill-opacity="0.4"/>
<text y="170" x="180" dominant-baseline='middle' text-anchor='middle' fill='white' style='paint-order: stroke; fill: white; stroke: black; stroke-width: 2px; font-size: 5px'>0</text>
<rect y="170" x="100" height="10" width="10" fill="red" fill-opacity="0.4"/>
<text y="175" x="105" dominant-baseline='middle' text-anchor='middle' fill='white' style='paint-order: stroke; fill: white; stroke: black; stroke-width: 2px; font-size: 5px'>?-1</text>
<rect y="170" x="110" height="10" width="10" fill="red" fill-opacity="0.4"/>
<text y="175" x="115" dominant-baseline='middle' text-anchor='middle' fill='white' style='paint-order: stroke; fill: white; stroke: black; stroke-width: 2px; font-size: 5px'>?-1</text>
<rect y="170" x="150" height="20" width="20" fill="yellow" fill-opacity="0.4"/>
<text y="180" x="160" dominant-baseline='middle' text-anchor='middle' fill='white' style='paint-order: stroke; fill: white; stroke: black; stroke-width: 2px; font-size: 5px'>0</text>
<rect y="180" x="120" height="10" width="10" fill="red" fill-opacity="0.4"/>
<text y="185" x="125" dominant-baseline='middle' text-anchor='middle' fill='white' style='paint-order: stroke; fill: white; stroke: black; stroke-width: 2px; font-size: 5px'>?-1</text>
<rect y="180" x="130" height="10" width="10" fill="red" fill-opacity="0.4"/>
<text y="185" x="135" dominant-baseline='middle' text-anchor='middle' fill='white' style='paint-order: stroke; fill: white; stroke: black; stroke-width: 2px; font-size: 5px'>?-1</text>
<rect y="180" x="140" height="10" width="10" fill="red" fill-opacity="0.4"/>
<text y="185" x="145" dominant-baseline='middle' text-anchor='middle' fill='white' style='paint-order: stroke; fill: white; stroke: black; stroke-width: 2px; font-size: 5px'>?-1</text>
<rect y="260" x="50" height="30" width="30" fill="yellow" fill-opacity="0.4"/>
<text y="275" x="65" dominant-baseline='middle' text-anchor='middle' fill='white' style='paint-order: stroke; fill: white; stroke: black; stroke-width: 2px; font-size: 5px'>0</text>
<rect y="260" x="90" height="20" width="20" fill="yellow" fill-opacity="0.4"/>
<text y="270" x="100" dominant-baseline='middle' text-anchor='middle' fill='white' style='paint-order: stroke; fill: white; stroke: black; stroke-width: 2px; font-size: 5px'>0</text>
<rect y="260" x="120" height="10" width="10" fill="red" fill-opacity="0.4"/>
<text y="265" x="125" dominant-baseline='middle' text-anchor='middle' fill='white' style='paint-order: stroke; fill: white; stroke: black; stroke-width: 2px; font-size: 5px'>?-1</text>
<rect y="260" x="150" height="10" width="10" fill="red" fill-opacity="0.4"/>
<text y="265" x="155" dominant-baseline='middle' text-anchor='middle' fill='white' style='paint-order: stroke; fill: white; stroke: black; stroke-width: 2px; font-size: 5px'>?-1</text>
<rect y="260" x="160" height="10" width="10" fill="red" fill-opacity="0.4"/>
<text y="265" x="165" dominant-baseline='middle' text-anchor='middle' fill='white' style='paint-order: stroke; fill: white; stroke: black; stroke-width: 2px; font-size: 5px'>?-1</text>
<rect y="270" x="130" height="10" width="10" fill="red" fill-opacity="0.4"/>
<text y="275" x="135" dominant-baseline='middle' text-anchor='middle' fill='white' style='paint-order: stroke; fill: white; stroke: black; stroke-width: 2px; font-size: 5px'>?-1</text>
<rect y="270" x="170" height="10" width="10" fill="red" fill-opacity="0.4"/>
<text y="275" x="175" dominant-baseline='middle' text-anchor='middle' fill='white' style='paint-order: stroke; fill: white; stroke: black; stroke-width: 2px; font-size: 5px'>?-1</text>
<rect y="280" x="40" height="30" width="20" fill="yellow" fill-opacity="0.4"/>
<text y="295" x="50" dominant-baseline='middle' text-anchor='middle' fill='white' style='paint-order: stroke; fill: white; stroke: black; stroke-width: 2px; font-size: 5px'>0</text>
<rect y="280" x="170" height="10" width="10" fill="red" fill-opacity="0.4"/>
<text y="285" x="175" dominant-baseline='middle' text-anchor='middle' fill='white' style='paint-order: stroke; fill: white; stroke: black; stroke-width: 2px; font-size: 5px'>?-1</text>
<rect y="290" x="180" height="10" width="10" fill="red" fill-opacity="0.4"/>
<text y="295" x="185" dominant-baseline='middle' text-anchor='middle' fill='white' style='paint-order: stroke; fill: white; stroke: black; stroke-width: 2px; font-size: 5px'>?-1</text>
<rect y="300" x="30" height="30" width="20" fill="yellow" fill-opacity="0.4"/>
<text y="315" x="40" dominant-baseline='middle' text-anchor='middle' fill='white' style='paint-order: stroke; fill: white; stroke: black; stroke-width: 2px; font-size: 5px'>0</text>
<rect y="300" x="100" height="10" width="10" fill="red" fill-opacity="0.4"/>
<text y="305" x="105" dominant-baseline='middle' text-anchor='middle' fill='white' style='paint-order: stroke; fill: white; stroke: black; stroke-width: 2px; font-size: 5px'>?-1</text>
<rect y="300" x="120" height="10" width="10" fill="red" fill-opacity="0.4"/>
<text y="305" x="125" dominant-baseline='middle' text-anchor='middle' fill='white' style='paint-order: stroke; fill: white; stroke: black; stroke-width: 2px; font-size: 5px'>?-1</text>
<rect y="300" x="180" height="10" width="10" fill="red" fill-opacity="0.4"/>
<text y="305" x="185" dominant-baseline='middle' text-anchor='middle' fill='white' style='paint-order: stroke; fill: white; stroke: black; stroke-width: 2px; font-size: 5px'>?-1</text>
<rect y="310" x="100" height="10" width="10" fill="red" fill-opacity="0.4"/>
<text y="315" x="105" dominant-baseline='middle' text-anchor='middle' fill='white' style='paint-order: stroke; fill: white; stroke: black; stroke-width: 2px; font-size: 5px'>?-1</text>
<rect y="310" x="120" height="10" width="10" fill="red" fill-opacity="0.4"/>
<text y="315" x="125" dominant-baseline='middle' text-anchor='middle' fill='white' style='paint-order: stroke; fill: white; stroke: black; stroke-width: 2px; font-size: 5px'>?-1</text>
<rect y="310" x="190" height="10" width="10" fill="red" fill-opacity="0.4"/>
<text y="315" x="195" dominant-baseline='middle' text-anchor='middle' fill='white' style='paint-order: stroke; fill: white; stroke: black; stroke-width: 2px; font-size: 5px'>?-1</text>
<rect y="320" x="190" height="10" width="10" fill="red" fill-opacity="0.4"/>
<text y="325" x="195" dominant-baseline='middle' text-anchor='middle' fill='white' style='paint-order: stroke; fill: white; stroke: black; stroke-width: 2px; font-size: 5px'>?-1</text>
<rect y="330" x="30" height="10" width="10" fill="red" fill-opacity="0.4"/>
<text y="335" x="35" dominant-baseline='middle' text-anchor='middle' fill='white' style='paint-order: stroke; fill: white; stroke: black; stroke-width: 2px; font-size: 5px'>?-1</text>
<rect y="330" x="100" height="10" width="10" fill="red" fill-opacity="0.4"/>
<text y="335" x="105" dominant-baseline='middle' text-anchor='middle' fill='white' style='paint-order: stroke; fill: white; stroke: black; stroke-width: 2px; font-size: 5px'>?-1</text>
<rect y="330" x="110" height="10" width="10" fill="red" fill-opacity="0.4"/>
<text y="335" x="115" dominant-baseline='middle' text-anchor='middle' fill='white' style='paint-order: stroke; fill: white; stroke: black; stroke-width: 2px; font-size: 5px'>?-1</text>
<rect y="330" x="180" height="30" width="20" fill="yellow" fill-opacity="0.4"/>
<text y="345" x="190" dominant-baseline='middle' text-anchor='middle' fill='white' style='paint-order: stroke; fill: white; stroke: black; stroke-width: 2px; font-size: 5px'>0</text>
<rect y="340" x="40" height="10" width="10" fill="red" fill-opacity="0.4"/>
<text y="345" x="45" dominant-baseline='middle' text-anchor='middle' fill='white' style='paint-order: stroke; fill: white; stroke: black; stroke-width: 2px; font-size: 5px'>?-1</text>
<rect y="350" x="40" height="10" width="10" fill="red" fill-opacity="0.4"/>
<text y="355" x="45" dominant-baseline='middle' text-anchor='middle' fill='white' style='paint-order: stroke; fill: white; stroke: black; stroke-width: 2px; font-size: 5px'>?-1</text>
<rect y="350" x="100" height="10" width="10" fill="red" fill-opacity="0.4"/>
<text y="355" x="105" dominant-baseline='middle' text-anchor='middle' fill='white' style='paint-order: stroke; fill: white; stroke: black; stroke-width: 2px; font-size: 5px'>?-1</text>
<rect y="350" x="110" height="10" width="10" fill="red" fill-opacity="0.4"/>
<text y="355" x="115" dominant-baseline='middle' text-anchor='middle' fill='white' style='paint-order: stroke; fill: white; stroke: black; stroke-width: 2px; font-size: 5px'>?-1</text>
<rect y="350" x="170" height="30" width="20" fill="yellow" fill-opacity="0.4"/>
<text y="365" x="180" dominant-baseline='middle' text-anchor='middle' fill='white' style='paint-order: stroke; fill: white; stroke: black; stroke-width: 2px; font-size: 5px'>0</text>
<rect y="360" x="50" height="10" width="10" fill="red" fill-opacity="0.4"/>
<text y="365" x="55" dominant-baseline='middle' text-anchor='middle' fill='white' style='paint-order: stroke; fill: white; stroke: black; stroke-width: 2px; font-size: 5px'>?-1</text>
<rect y="370" x="50" height="10" width="10" fill="red" fill-opacity="0.4"/>
<text y="375" x="55" dominant-baseline='middle' text-anchor='middle' fill='white' style='paint-order: stroke; fill: white; stroke: black; stroke-width: 2px; font-size: 5px'>?-1</text>
<rect y="370" x="160" height="20" width="20" fill="yellow" fill-opacity="0.4"/>
<text y="380" x="170" dominant-baseline='middle' text-anchor='middle' fill='white' style='paint-order: stroke; fill: white; stroke: black; stroke-width: 2px; font-size: 5px'>0</text>
<rect y="380" x="60" height="10" width="10" fill="red" fill-opacity="0.4"/>
<text y="385" x="65" dominant-baseline='middle' text-anchor='middle' fill='white' style='paint-order: stroke; fill: white; stroke: black; stroke-width: 2px; font-size: 5px'>?-1</text>
<rect y="380" x="70" height="10" width="10" fill="red" fill-opacity="0.4"/>
<text y="385" x="75" dominant-baseline='middle' text-anchor='middle' fill='white' style='paint-order: stroke; fill: white; stroke: black; stroke-width: 2px; font-size: 5px'>?-1</text>
<rect y="380" x="140" height="20" width="20" fill="yellow" fill-opacity="0.4"/>
<text y="390" x="150" dominant-baseline='middle' text-anchor='middle' fill='white' style='paint-order: stroke; fill: white; stroke: black; stroke-width: 2px; font-size: 5px'>0</text>
<rect y="390" x="80" height="10" width="10" fill="red" fill-opacity="0.4"/>
<text y="395" x="85" dominant-baseline='middle' text-anchor='middle' fill='white' style='paint-order: stroke; fill: white; stroke: black; stroke-width: 2px; font-size: 5px'>?-1</text>
<rect y="390" x="90" height="10" width="10" fill="red" fill-opacity="0.4"/>
<text y="395" x="95" dominant-baseline='middle' text-anchor='middle' fill='white' style='paint-order: stroke; fill: white; stroke: black; stroke-width: 2px; font-size: 5px'>?-1</text>
<rect y="390" x="120" height="20" width="20" fill="yellow" fill-opacity="0.4"/>
<text y="400" x="130" dominant-baseline='middle' text-anchor='middle' fill='white' style='paint-order: stroke; fill: white; stroke: black; stroke-width: 2px; font-size: 5px'>0</text>
<rect y="400" x="100" height="10" width="10" fill="red" fill-opacity="0.4"/>
<text y="405" x="105" dominant-baseline='middle' text-anchor='middle' fill='white' style='paint-order: stroke; fill: white; stroke: black; stroke-width: 2px; font-size: 5px'>?-1</text>
<rect y="400" x="110" height="10" width="10" fill="red" fill-opacity="0.4"/>
<text y="405" x="115" dominant-baseline='middle' text-anchor='middle' fill='white' style='paint-order: stroke; fill: white; stroke: black; stroke-width: 2px; font-size: 5px'>?-1</text>
<rect y="460" x="20" height="10" width="10" fill="red" fill-opacity="0.4"/>
<text y="465" x="25" dominant-baseline='middle' text-anchor='middle' fill='white' style='paint-order: stroke; fill: white; stroke: black; stroke-width: 2px; font-size: 5px'>?-1</text>

</svg>
