<?xml version="1.0"?>
<svg xmlns="http://www.w3.org/2000/svg" height="490" width="240">
  <rect y="0" x="0" height="490" width="240" fill="black" />
  <rect y="0" x="0" height="10" width="10" fill="white"/>
    <rect y="0" x="10" height="10" width="10" fill="white"/>
    <rect y="0" x="20" height="10" width="10" fill="white"/>
    <rect y="0" x="30" height="10" width="10" fill="white"/>
    <rect y="0" x="40" height="10" width="10" fill="white"/>
    <rect y="0" x="50" height="10" width="10" fill="white"/>
    <rect y="0" x="60" height="10" width="10" fill="white"/>
    <rect y="0" x="70" height="10" width="10" fill="white"/>
    <rect y="0" x="80" height="10" width="10" fill="white"/>
    <rect y="0" x="90" height="10" width="10" fill="white"/>
    <rect y="0" x="100" height="10" width="10" fill="white"/>
    <rect y="0" x="110" height="10" width="10" fill="white"/>
    <rect y="0" x="120" height="10" width="10" fill="white"/>
    <rect y="0" x="130" height="10" width="10" fill="white"/>
    <rect y="0" x="140" height="10" width="10" fill="white"/>
    <rect y="0" x="150" height="10" width="10" fill="white"/>
    <rect y="0" x="160" height="10" width="10" fill="white"/>
    <rect y="0" x="170" height="10" width="10" fill="white"/>
    <rect y="0" x="180" height="10" width="10" fill="white"/>
    <rect y="0" x="190" height="10" width="10" fill="white"/>
    <rect y="0" x="200" height="10" width="10" fill="white"/>
    <rect y="0" x="210" height="10" width="10" fill="white"/>
    <rect y="0" x="220" height="10" width="10" fill="white"/>
    <rect y="0" x="230" height="10" width="10" fill="white"/>
    <rect y="10" x="0" height="10" width="10" fill="white"/>
    <rect y="10" x="230" height="10" width="10" fill="white"/>
    <rect y="20" x="0" height="10" width="10" fill="white"/>
    <rect y="20" x="30" height="10" width="10" fill="white"/>
    <rect y="20" x="230" height="10" width="10" fill="white"/>
    <rect y="30" x="0" height="10" width="10" fill="white"/>
    <rect y="30" x="20" height="10" width="10" fill="white"/>
    <rect y="30" x="230" height="10" width="10" fill="white"/>
    <rect y="40" x="0" height="10" width="10" fill="white"/>
    <rect y="40" x="230" height="10" width="10" fill="white"/>
    <rect y="50" x="0" height="10" width="10" fill="white"/>
    <rect y="50" x="230" height="10" width="10" fill="white"/>
    <rect y="60" x="0" height="10" width="10" fill="white"/>
    <rect y="60" x="30" height="10" width="10" fill="white"/>
    <rect y="60" x="60" height="10" width="10" fill="white"/>
    <rect y="60" x="230" height="10" width="10" fill="white"/>
    <rect y="70" x="0" height="10" width="10" fill="white"/>
    <rect y="70" x="20" height="10" width="10" fill="white"/>
    <rect y="70" x="30" height="10" width="10" fill="white"/>
    <rect y="70" x="60" height="10" width="10" fill="white"/>
    <rect y="70" x="230" height="10" width="10" fill="white"/>
    <rect y="80" x="0" height="10" width="10" fill="white"/>
    <rect y="80" x="230" height="10" width="10" fill="white"/>
    <rect y="90" x="0" height="10" width="10" fill="white"/>
    <rect y="90" x="230" height="10" width="10" fill="white"/>
    <rect y="100" x="0" height="10" width="10" fill="white"/>
    <rect y="100" x="30" height="10" width="10" fill="white"/>
    <rect y="100" x="40" height="10" width="10" fill="white"/>
    <rect y="100" x="70" height="10" width="10" fill="white"/>
    <rect y="100" x="90" height="10" width="10" fill="white"/>
    <rect y="100" x="230" height="10" width="10" fill="white"/>
    <rect y="110" x="0" height="10" width="10" fill="white"/>
    <rect y="110" x="20" height="10" width="10" fill="white"/>
    <rect y="110" x="40" height="10" width="10" fill="white"/>
    <rect y="110" x="70" height="10" width="10" fill="white"/>
    <rect y="110" x="90" height="10" width="10" fill="white"/>
    <rect y="110" x="230" height="10" width="10" fill="white"/>
    <rect y="120" x="0" height="10" width="10" fill="white"/>
    <rect y="120" x="20" height="10" width="10" fill="white"/>
    <rect y="120" x="230" height="10" width="10" fill="white"/>
    <rect y="130" x="0" height="10" width="10" fill="white"/>
    <rect y="130" x="230" height="10" width="10" fill="white"/>
    <rect y="140" x="0" height="10" width="10" fill="white"/>
    <rect y="140" x="230" height="10" width="10" fill="white"/>
    <rect y="150" x="0" height="10" width="10" fill="white"/>
    <rect y="150" x="30" height="10" width="10" fill="white"/>
    <rect y="150" x="40" height="10" width="10" fill="white"/>
    <rect y="150" x="70" height="10" width="10" fill="white"/>
    <rect y="150" x="90" height="10" width="10" fill="white"/>
    <rect y="150" x="110" height="10" width="10" fill="white"/>
    <rect y="150" x="230" height="10" width="10" fill="white"/>
    <rect y="160" x="0" height="10" width="10" fill="white"/>
    <rect y="160" x="20" height="10" width="10" fill="white"/>
    <rect y="160" x="30" height="10" width="10" fill="white"/>
    <rect y="160" x="40" height="10" width="10" fill="white"/>
    <rect y="160" x="70" height="10" width="10" fill="white"/>
    <rect y="160" x="90" height="10" width="10" fill="white"/>
    <rect y="160" x="110" height="10" width="10" fill="white"/>
    <rect y="160" x="230" height="10" width="10" fill="white"/>
    <rect y="170" x="0" height="10" width="10" fill="white"/>
    <rect y="170" x="20" height="10" width="10" fill="white"/>
    <rect y="170" x="230" height="10" width="10" fill="white"/>
    <rect y="180" x="0" height="10" width="10" fill="white"/>
    <rect y="180" x="230" height="10" width="10" fill="white"/>
    <rect y="190" x="0" height="10" width="10" fill="white"/>
    <rect y="190" x="230" height="10" width="10" fill="white"/>
    <rect y="200" x="0" height="10" width="10" fill="white"/>
    <rect y="200" x="30" height="10" width="10" fill="white"/>
    <rect y="200" x="40" height="10" width="10" fill="white"/>
    <rect y="200" x="70" height="10" width="10" fill="white"/>
    <rect y="200" x="90" height="10" width="10" fill="white"/>
    <rect y="200" x="110" height="10" width="10" fill="white"/>
    <rect y="200" x="130" height="10" width="10" fill="white"/>
    <rect y="200" x="230" height="10" width="10" fill="white"/>
    <rect y="210" x="0" height="10" width="10" fill="white"/>
    <rect y="210" x="20" height="10" width="10" fill="white"/>
    <rect y="210" x="70" height="10" width="10" fill="white"/>
    <rect y="210" x="90" height="10" width="10" fill="white"/>
    <rect y="210" x="110" height="10" width="10" fill="white"/>
    <rect y="210" x="130" height="10" width="10" fill="white"/>
    <rect y="210" x="230" height="10" width="10" fill="white"/>
    <rect y="220" x="0" height="10" width="10" fill="white"/>
    <rect y="220" x="20" height="10" width="10" fill="white"/>
    <rect y="220" x="30" height="10" width="10" fill="white"/>
    <rect y="220" x="230" height="10" width="10" fill="white"/>
    <rect y="230" x="0" height="10" width="10" fill="white"/>
    <rect y="230" x="230" height="10" width="10" fill="white"/>
    <rect y="240" x="0" height="10" width="10" fill="white"/>
    <rect y="240" x="230" height="10" width="10" fill="white"/>
    <rect y="250" x="0" height="10" width="10" fill="white"/>
    <rect y="250" x="30" height="10" width="10" fill="white"/>
    <rect y="250" x="40" height="10" width="10" fill="white"/>
    <rect y="250" x="70" height="10" width="10" fill="white"/>
    <rect y="250" x="90" height="10" width="10" fill="white"/>
    <rect y="250" x="110" height="10" width="10" fill="white"/>
    <rect y="250" x="130" height="10" width="10" fill="white"/>
    <rect y="250" x="150" height="10" width="10" fill="white"/>
    <rect y="250" x="230" height="10" width="10" fill="white"/>
    <rect y="260" x="0" height="10" width="10" fill="white"/>
    <rect y="260" x="20" height="10" width="10" fill="white"/>
    <rect y="260" x="30" height="10" width="10" fill="white"/>
    <rect y="260" x="70" height="10" width="10" fill="white"/>
    <rect y="260" x="90" height="10" width="10" fill="white"/>
    <rect y="260" x="110" height="10" width="10" fill="white"/>
    <rect y="260" x="130" height="10" width="10" fill="white"/>
    <rect y="260" x="150" height="10" width="10" fill="white"/>
    <rect y="260" x="230" height="10" width="10" fill="white"/>
    <rect y="270" x="0" height="10" width="10" fill="white"/>
    <rect y="270" x="20" height="10" width="10" fill="white"/>
    <rect y="270" x="30" height="10" width="10" fill="white"/>
    <rect y="270" x="230" height="10" width="10" fill="white"/>
    <rect y="280" x="0" height="10" width="10" fill="white"/>
    <rect y="280" x="230" height="10" width="10" fill="white"/>
    <rect y="290" x="0" height="10" width="10" fill="white"/>
    <rect y="290" x="230" height="10" width="10" fill="white"/>
    <rect y="300" x="0" height="10" width="10" fill="white"/>
    <rect y="300" x="30" height="10" width="10" fill="white"/>
    <rect y="300" x="40" height="10" width="10" fill="white"/>
    <rect y="300" x="70" height="10" width="10" fill="white"/>
    <rect y="300" x="90" height="10" width="10" fill="white"/>
    <rect y="300" x="110" height="10" width="10" fill="white"/>
    <rect y="300" x="130" height="10" width="10" fill="white"/>
    <rect y="300" x="150" height="10" width="10" fill="white"/>
    <rect y="300" x="170" height="10" width="10" fill="white"/>
    <rect y="300" x="230" height="10" width="10" fill="white"/>
    <rect y="310" x="0" height="10" width="10" fill="white"/>
    <rect y="310" x="20" height="10" width="10" fill="white"/>
    <rect y="310" x="40" height="10" width="10" fill="white"/>
    <rect y="310" x="70" height="10" width="10" fill="white"/>
    <rect y="310" x="90" height="10" width="10" fill="white"/>
    <rect y="310" x="110" height="10" width="10" fill="white"/>
    <rect y="310" x="130" height="10" width="10" fill="white"/>
    <rect y="310" x="150" height="10" width="10" fill="white"/>
    <rect y="310" x="170" height="10" width="10" fill="white"/>
    <rect y="310" x="230" height="10" width="10" fill="white"/>
    <rect y="320" x="0" height="10" width="10" fill="white"/>
    <rect y="320" x="20" height="10" width="10" fill="white"/>
    <rect y="320" x="30" height="10" width="10" fill="white"/>
    <rect y="320" x="230" height="10" width="10" fill="white"/>
    <rect y="330" x="0" height="10" width="10" fill="white"/>
    <rect y="330" x="230" height="10" width="10" fill="white"/>
    <rect y="340" x="0" height="10" width="10" fill="white"/>
    <rect y="340" x="230" height="10" width="10" fill="white"/>
    <rect y="350" x="0" height="10" width="10" fill="white"/>
    <rect y="350" x="30" height="10" width="10" fill="white"/>
    <rect y="350" x="40" height="10" width="10" fill="white"/>
    <rect y="350" x="70" height="10" width="10" fill="white"/>
    <rect y="350" x="90" height="10" width="10" fill="white"/>
    <rect y="350" x="110" height="10" width="10" fill="white"/>
    <rect y="350" x="130" height="10" width="10" fill="white"/>
    <rect y="350" x="150" height="10" width="10" fill="white"/>
    <rect y="350" x="170" height="10" width="10" fill="white"/>
    <rect y="350" x="190" height="10" width="10" fill="white"/>
    <rect y="350" x="230" height="10" width="10" fill="white"/>
    <rect y="360" x="0" height="10" width="10" fill="white"/>
    <rect y="360" x="20" height="10" width="10" fill="white"/>
    <rect y="360" x="30" height="10" width="10" fill="white"/>
    <rect y="360" x="40" height="10" width="10" fill="white"/>
    <rect y="360" x="70" height="10" width="10" fill="white"/>
    <rect y="360" x="90" height="10" width="10" fill="white"/>
    <rect y="360" x="110" height="10" width="10" fill="white"/>
    <rect y="360" x="130" height="10" width="10" fill="white"/>
    <rect y="360" x="150" height="10" width="10" fill="white"/>
    <rect y="360" x="170" height="10" width="10" fill="white"/>
    <rect y="360" x="190" height="10" width="10" fill="white"/>
    <rect y="360" x="230" height="10" width="10" fill="white"/>
    <rect y="370" x="0" height="10" width="10" fill="white"/>
    <rect y="370" x="20" height="10" width="10" fill="white"/>
    <rect y="370" x="30" height="10" width="10" fill="white"/>
    <rect y="370" x="230" height="10" width="10" fill="white"/>
    <rect y="380" x="0" height="10" width="10" fill="white"/>
    <rect y="380" x="230" height="10" width="10" fill="white"/>
    <rect y="390" x="0" height="10" width="10" fill="white"/>
    <rect y="390" x="230" height="10" width="10" fill="white"/>
    <rect y="400" x="0" height="10" width="10" fill="white"/>
    <rect y="400" x="30" height="10" width="10" fill="white"/>
    <rect y="400" x="40" height="10" width="10" fill="white"/>
    <rect y="400" x="70" height="10" width="10" fill="white"/>
    <rect y="400" x="90" height="10" width="10" fill="white"/>
    <rect y="400" x="110" height="10" width="10" fill="white"/>
    <rect y="400" x="130" height="10" width="10" fill="white"/>
    <rect y="400" x="150" height="10" width="10" fill="white"/>
    <rect y="400" x="170" height="10" width="10" fill="white"/>
    <rect y="400" x="190" height="10" width="10" fill="white"/>
    <rect y="400" x="210" height="10" width="10" fill="white"/>
    <rect y="400" x="230" height="10" width="10" fill="white"/>
    <rect y="410" x="0" height="10" width="10" fill="white"/>
    <rect y="410" x="20" height="10" width="10" fill="white"/>
    <rect y="410" x="70" height="10" width="10" fill="white"/>
    <rect y="410" x="90" height="10" width="10" fill="white"/>
    <rect y="410" x="110" height="10" width="10" fill="white"/>
    <rect y="410" x="130" height="10" width="10" fill="white"/>
    <rect y="410" x="150" height="10" width="10" fill="white"/>
    <rect y="410" x="170" height="10" width="10" fill="white"/>
    <rect y="410" x="190" height="10" width="10" fill="white"/>
    <rect y="410" x="210" height="10" width="10" fill="white"/>
    <rect y="410" x="230" height="10" width="10" fill="white"/>
    <rect y="420" x="0" height="10" width="10" fill="white"/>
    <rect y="420" x="20" height="10" width="10" fill="white"/>
    <rect y="420" x="40" height="10" width="10" fill="white"/>
    <rect y="420" x="230" height="10" width="10" fill="white"/>
    <rect y="430" x="0" height="10" width="10" fill="white"/>
    <rect y="430" x="230" height="10" width="10" fill="white"/>
    <rect y="440" x="0" height="10" width="10" fill="white"/>
    <rect y="440" x="230" height="10" width="10" fill="white"/>
    <rect y="450" x="0" height="10" width="10" fill="white"/>
    <rect y="450" x="230" height="10" width="10" fill="white"/>
    <rect y="460" x="0" height="10" width="10" fill="white"/>
    <rect y="460" x="20" height="10" width="10" fill="white"/>
    <rect y="460" x="40" height="10" width="10" fill="white"/>
    <rect y="460" x="60" height="10" width="10" fill="white"/>
    <rect y="460" x="80" height="10" width="10" fill="white"/>
    <rect y="460" x="230" height="10" width="10" fill="white"/>
    <rect y="470" x="0" height="10" width="10" fill="white"/>
    <rect y="470" x="230" height="10" width="10" fill="white"/>
    <rect y="480" x="0" height="10" width="10" fill="white"/>
    <rect y="480" x="10" height="10" width="10" fill="white"/>
    <rect y="480" x="20" height="10" width="10" fill="white"/>
    <rect y="480" x="30" height="10" width="10" fill="white"/>
    <rect y="480" x="40" height="10" width="10" fill="white"/>
    <rect y="480" x="50" height="10" width="10" fill="white"/>
    <rect y="480" x="60" height="10" width="10" fill="white"/>
    <rect y="480" x="70" height="10" width="10" fill="white"/>
    <rect y="480" x="80" height="10" width="10" fill="white"/>
    <rect y="480" x="90" height="10" width="10" fill="white"/>
    <rect y="480" x="100" height="10" width="10" fill="white"/>
    <rect y="480" x="110" height="10" width="10" fill="white"/>
    <rect y="480" x="120" height="10" width="10" fill="white"/>
    <rect y="480" x="130" height="10" width="10" fill="white"/>
    <rect y="480" x="140" height="10" width="10" fill="white"/>
    <rect y="480" x="150" height="10" width="10" fill="white"/>
    <rect y="480" x="160" height="10" width="10" fill="white"/>
    <rect y="480" x="170" height="10" width="10" fill="white"/>
    <rect y="480" x="180" height="10" width="10" fill="white"/>
    <rect y="480" x="190" height="10" width="10" fill="white"/>
    <rect y="480" x="200" height="10" width="10" fill="white"/>
    <rect y="480" x="210" height="10" width="10" fill="white"/>
    <rect y="480" x="220" height="10" width="10" fill="white"/>
    <rect y="480" x="230" height="10" width="10" fill="white"/>
    
  <rect y="20" x="20" height="20" width="20" fill="yellow" fill-opacity="0.4"/>
<text y="30" x="30" dominant-baseline='middle' text-anchor='middle' fill='white' style='paint-order: stroke; fill: white; stroke: black; stroke-width: 2px; font-size: 5px'>0</text>
<rect y="60" x="20" height="20" width="20" fill="yellow" fill-opacity="0.4"/>
<text y="70" x="30" dominant-baseline='middle' text-anchor='middle' fill='white' style='paint-order: stroke; fill: white; stroke: black; stroke-width: 2px; font-size: 5px'>1(H)</text>
<rect y="60" x="60" height="10" width="10" fill="red" fill-opacity="0.4"/>
<text y="65" x="65" dominant-baseline='middle' text-anchor='middle' fill='white' style='paint-order: stroke; fill: white; stroke: black; stroke-width: 2px; font-size: 5px'>?-1</text>
<rect y="70" x="60" height="10" width="10" fill="red" fill-opacity="0.4"/>
<text y="75" x="65" dominant-baseline='middle' text-anchor='middle' fill='white' style='paint-order: stroke; fill: white; stroke: black; stroke-width: 2px; font-size: 5px'>?-1</text>
<rect y="100" x="20" height="30" width="30" fill="yellow" fill-opacity="0.4"/>
<text y="115" x="35" dominant-baseline='middle' text-anchor='middle' fill='white' style='paint-order: stroke; fill: white; stroke: black; stroke-width: 2px; font-size: 5px'>2(He)</text>
<rect y="100" x="70" height="10" width="10" fill="red" fill-opacity="0.4"/>
<text y="105" x="75" dominant-baseline='middle' text-anchor='middle' fill='white' style='paint-order: stroke; fill: white; stroke: black; stroke-width: 2px; font-size: 5px'>?-1</text>
<rect y="100" x="90" height="10" width="10" fill="red" fill-opacity="0.4"/>
<text y="105" x="95" dominant-baseline='middle' text-anchor='middle' fill='white' style='paint-order: stroke; fill: white; stroke: black; stroke-width: 2px; font-size: 5px'>?-1</text>
<rect y="110" x="70" height="10" width="10" fill="red" fill-opacity="0.4"/>
<text y="115" x="75" dominant-baseline='middle' text-anchor='middle' fill='white' style='paint-order: stroke; fill: white; stroke: black; stroke-width: 2px; font-size: 5px'>?-1</text>
<rect y="110" x="90" height="10" width="10" fill="red" fill-opacity="0.4"/>
<text y="115" x="95" dominant-baseline='middle' text-anchor='middle' fill='white' style='paint-order: stroke; fill: white; stroke: black; stroke-width: 2px; font-size: 5px'>?-1</text>
<rect y="150" x="20" height="30" width="30" fill="yellow" fill-opacity="0.4"/>
<text y="165" x="35" dominant-baseline='middle' text-anchor='middle' fill='white' style='paint-order: stroke; fill: white; stroke: black; stroke-width: 2px; font-size: 5px'>3(Li)</text>
<rect y="150" x="70" height="10" width="10" fill="red" fill-opacity="0.4"/>
<text y="155" x="75" dominant-baseline='middle' text-anchor='middle' fill='white' style='paint-order: stroke; fill: white; stroke: black; stroke-width: 2px; font-size: 5px'>?-1</text>
<rect y="150" x="90" height="10" width="10" fill="red" fill-opacity="0.4"/>
<text y="155" x="95" dominant-baseline='middle' text-anchor='middle' fill='white' style='paint-order: stroke; fill: white; stroke: black; stroke-width: 2px; font-size: 5px'>?-1</text>
<rect y="150" x="110" height="10" width="10" fill="red" fill-opacity="0.4"/>
<text y="155" x="115" dominant-baseline='middle' text-anchor='middle' fill='white' style='paint-order: stroke; fill: white; stroke: black; stroke-width: 2px; font-size: 5px'>?-1</text>
<rect y="160" x="70" height="10" width="10" fill="red" fill-opacity="0.4"/>
<text y="165" x="75" dominant-baseline='middle' text-anchor='middle' fill='white' style='paint-order: stroke; fill: white; stroke: black; stroke-width: 2px; font-size: 5px'>?-1</text>
<rect y="160" x="90" height="10" width="10" fill="red" fill-opacity="0.4"/>
<text y="165" x="95" dominant-baseline='middle' text-anchor='middle' fill='white' style='paint-order: stroke; fill: white; stroke: black; stroke-width: 2px; font-size: 5px'>?-1</text>
<rect y="160" x="110" height="10" width="10" fill="red" fill-opacity="0.4"/>
<text y="165" x="115" dominant-baseline='middle' text-anchor='middle' fill='white' style='paint-order: stroke; fill: white; stroke: black; stroke-width: 2px; font-size: 5px'>?-1</text>
<rect y="200" x="20" height="30" width="30" fill="yellow" fill-opacity="0.4"/>
<text y="215" x="35" dominant-baseline='middle' text-anchor='middle' fill='white' style='paint-order: stroke; fill: white; stroke: black; stroke-width: 2px; font-size: 5px'>4(Be)</text>
<rect y="200" x="70" height="10" width="10" fill="red" fill-opacity="0.4"/>
<text y="205" x="75" dominant-baseline='middle' text-anchor='middle' fill='white' style='paint-order: stroke; fill: white; stroke: black; stroke-width: 2px; font-size: 5px'>?-1</text>
<rect y="200" x="90" height="10" width="10" fill="red" fill-opacity="0.4"/>
<text y="205" x="95" dominant-baseline='middle' text-anchor='middle' fill='white' style='paint-order: stroke; fill: white; stroke: black; stroke-width: 2px; font-size: 5px'>?-1</text>
<rect y="200" x="110" height="10" width="10" fill="red" fill-opacity="0.4"/>
<text y="205" x="115" dominant-baseline='middle' text-anchor='middle' fill='white' style='paint-order: stroke; fill: white; stroke: black; stroke-width: 2px; font-size: 5px'>?-1</text>
<rect y="200" x="130" height="10" width="10" fill="red" fill-opacity="0.4"/>
<text y="205" x="135" dominant-baseline='middle' text-anchor='middle' fill='white' style='paint-order: stroke; fill: white; stroke: black; stroke-width: 2px; font-size: 5px'>?-1</text>
<rect y="210" x="70" height="20" width="70" fill="black" fill-opacity="0.4"/>
<text y="220" x="105" dominant-baseline='middle' text-anchor='middle' fill='white' style='paint-order: stroke; fill: white; stroke: black; stroke-width: 2px; font-size: 5px'>...</text>
<rect y="250" x="20" height="30" width="30" fill="yellow" fill-opacity="0.4"/>
<text y="265" x="35" dominant-baseline='middle' text-anchor='middle' fill='white' style='paint-order: stroke; fill: white; stroke: black; stroke-width: 2px; font-size: 5px'>5(B)</text>
<rect y="250" x="70" height="10" width="10" fill="red" fill-opacity="0.4"/>
<text y="255" x="75" dominant-baseline='middle' text-anchor='middle' fill='white' style='paint-order: stroke; fill: white; stroke: black; stroke-width: 2px; font-size: 5px'>?-1</text>
<rect y="250" x="90" height="10" width="10" fill="red" fill-opacity="0.4"/>
<text y="255" x="95" dominant-baseline='middle' text-anchor='middle' fill='white' style='paint-order: stroke; fill: white; stroke: black; stroke-width: 2px; font-size: 5px'>?-1</text>
<rect y="250" x="110" height="10" width="10" fill="red" fill-opacity="0.4"/>
<text y="255" x="115" dominant-baseline='middle' text-anchor='middle' fill='white' style='paint-order: stroke; fill: white; stroke: black; stroke-width: 2px; font-size: 5px'>?-1</text>
<rect y="250" x="130" height="10" width="10" fill="red" fill-opacity="0.4"/>
<text y="255" x="135" dominant-baseline='middle' text-anchor='middle' fill='white' style='paint-order: stroke; fill: white; stroke: black; stroke-width: 2px; font-size: 5px'>?-1</text>
<rect y="250" x="150" height="10" width="10" fill="red" fill-opacity="0.4"/>
<text y="255" x="155" dominant-baseline='middle' text-anchor='middle' fill='white' style='paint-order: stroke; fill: white; stroke: black; stroke-width: 2px; font-size: 5px'>?-1</text>
<rect y="260" x="70" height="20" width="70" fill="black" fill-opacity="0.4"/>
<text y="270" x="105" dominant-baseline='middle' text-anchor='middle' fill='white' style='paint-order: stroke; fill: white; stroke: black; stroke-width: 2px; font-size: 5px'>...</text>
<rect y="260" x="150" height="10" width="10" fill="red" fill-opacity="0.4"/>
<text y="265" x="155" dominant-baseline='middle' text-anchor='middle' fill='white' style='paint-order: stroke; fill: white; stroke: black; stroke-width: 2px; font-size: 5px'>?-1</text>
<rect y="300" x="20" height="30" width="30" fill="yellow" fill-opacity="0.4"/>
<text y="315" x="35" dominant-baseline='middle' text-anchor='middle' fill='white' style='paint-order: stroke; fill: white; stroke: black; stroke-width: 2px; font-size: 5px'>6(C)</text>
<rect y="300" x="70" height="10" width="10" fill="red" fill-opacity="0.4"/>
<text y="305" x="75" dominant-baseline='middle' text-anchor='middle' fill='white' style='paint-order: stroke; fill: white; stroke: black; stroke-width: 2px; font-size: 5px'>?-1</text>
<rect y="300" x="90" height="10" width="10" fill="red" fill-opacity="0.4"/>
<text y="305" x="95" dominant-baseline='middle' text-anchor='middle' fill='white' style='paint-order: stroke; fill: white; stroke: black; stroke-width: 2px; font-size: 5px'>?-1</text>
<rect y="300" x="110" height="10" width="10" fill="red" fill-opacity="0.4"/>
<text y="305" x="115" dominant-baseline='middle' text-anchor='middle' fill='white' style='paint-order: stroke; fill: white; stroke: black; stroke-width: 2px; font-size: 5px'>?-1</text>
<rect y="300" x="130" height="10" width="10" fill="red" fill-opacity="0.4"/>
<text y="305" x="135" dominant-baseline='middle' text-anchor='middle' fill='white' style='paint-order: stroke; fill: white; stroke: black; stroke-width: 2px; font-size: 5px'>?-1</text>
<rect y="300" x="150" height="10" width="10" fill="red" fill-opacity="0.4"/>
<text y="305" x="155" dominant-baseline='middle' text-anchor='middle' fill='white' style='paint-order: stroke; fill: white; stroke: black; stroke-width: 2px; font-size: 5px'>?-1</text>
<rect y="300" x="170" height="10" width="10" fill="red" fill-opacity="0.4"/>
<text y="305" x="175" dominant-baseline='middle' text-anchor='middle' fill='white' style='paint-order: stroke; fill: white; stroke: black; stroke-width: 2px; font-size: 5px'>?-1</text>
<rect y="310" x="70" height="20" width="70" fill="black" fill-opacity="0.4"/>
<text y="320" x="105" dominant-baseline='middle' text-anchor='middle' fill='white' style='paint-order: stroke; fill: white; stroke: black; stroke-width: 2px; font-size: 5px'>...</text>
<rect y="310" x="150" height="10" width="10" fill="red" fill-opacity="0.4"/>
<text y="315" x="155" dominant-baseline='middle' text-anchor='middle' fill='white' style='paint-order: stroke; fill: white; stroke: black; stroke-width: 2px; font-size: 5px'>?-1</text>
<rect y="310" x="170" height="10" width="10" fill="red" fill-opacity="0.4"/>
<text y="315" x="175" dominant-baseline='middle' text-anchor='middle' fill='white' style='paint-order: stroke; fill: white; stroke: black; stroke-width: 2px; font-size: 5px'>?-1</text>
<rect y="350" x="20" height="30" width="30" fill="yellow" fill-opacity="0.4"/>
<text y="365" x="35" dominant-baseline='middle' text-anchor='middle' fill='white' style='paint-order: stroke; fill: white; stroke: black; stroke-width: 2px; font-size: 5px'>7(N)</text>
<rect y="350" x="70" height="10" width="10" fill="red" fill-opacity="0.4"/>
<text y="355" x="75" dominant-baseline='middle' text-anchor='middle' fill='white' style='paint-order: stroke; fill: white; stroke: black; stroke-width: 2px; font-size: 5px'>?-1</text>
<rect y="350" x="90" height="10" width="10" fill="red" fill-opacity="0.4"/>
<text y="355" x="95" dominant-baseline='middle' text-anchor='middle' fill='white' style='paint-order: stroke; fill: white; stroke: black; stroke-width: 2px; font-size: 5px'>?-1</text>
<rect y="350" x="110" height="10" width="10" fill="red" fill-opacity="0.4"/>
<text y="355" x="115" dominant-baseline='middle' text-anchor='middle' fill='white' style='paint-order: stroke; fill: white; stroke: black; stroke-width: 2px; font-size: 5px'>?-1</text>
<rect y="350" x="130" height="10" width="10" fill="red" fill-opacity="0.4"/>
<text y="355" x="135" dominant-baseline='middle' text-anchor='middle' fill='white' style='paint-order: stroke; fill: white; stroke: black; stroke-width: 2px; font-size: 5px'>?-1</text>
<rect y="350" x="150" height="10" width="10" fill="red" fill-opacity="0.4"/>
<text y="355" x="155" dominant-baseline='middle' text-anchor='middle' fill='white' style='paint-order: stroke; fill: white; stroke: black; stroke-width: 2px; font-size: 5px'>?-1</text>
<rect y="350" x="170" height="10" width="10" fill="red" fill-opacity="0.4"/>
<text y="355" x="175" dominant-baseline='middle' text-anchor='middle' fill='white' style='paint-order: stroke; fill: white; stroke: black; stroke-width: 2px; font-size: 5px'>?-1</text>
<rect y="350" x="190" height="10" width="10" fill="red" fill-opacity="0.4"/>
<text y="355" x="195" dominant-baseline='middle' text-anchor='middle' fill='white' style='paint-order: stroke; fill: white; stroke: black; stroke-width: 2px; font-size: 5px'>?-1</text>
<rect y="360" x="70" height="20" width="70" fill="black" fill-opacity="0.4"/>
<text y="370" x="105" dominant-baseline='middle' text-anchor='middle' fill='white' style='paint-order: stroke; fill: white; stroke: black; stroke-width: 2px; font-size: 5px'>...</text>
<rect y="360" x="150" height="10" width="10" fill="red" fill-opacity="0.4"/>
<text y="365" x="155" dominant-baseline='middle' text-anchor='middle' fill='white' style='paint-order: stroke; fill: white; stroke: black; stroke-width: 2px; font-size: 5px'>?-1</text>
<rect y="360" x="170" height="10" width="10" fill="red" fill-opacity="0.4"/>
<text y="365" x="175" dominant-baseline='middle' text-anchor='middle' fill='white' style='paint-order: stroke; fill: white; stroke: black; stroke-width: 2px; font-size: 5px'>?-1</text>
<rect y="360" x="190" height="10" width="10" fill="red" fill-opacity="0.4"/>
<text y="365" x="195" dominant-baseline='middle' text-anchor='middle' fill='white' style='paint-order: stroke; fill: white; stroke: black; stroke-width: 2px; font-size: 5px'>?-1</text>
<rect y="400" x="20" height="30" width="30" fill="yellow" fill-opacity="0.4"/>
<text y="415" x="35" dominant-baseline='middle' text-anchor='middle' fill='white' style='paint-order: stroke; fill: white; stroke: black; stroke-width: 2px; font-size: 5px'>8(O)</text>
<rect y="400" x="70" height="10" width="10" fill="red" fill-opacity="0.4"/>
<text y="405" x="75" dominant-baseline='middle' text-anchor='middle' fill='white' style='paint-order: stroke; fill: white; stroke: black; stroke-width: 2px; font-size: 5px'>?-1</text>
<rect y="400" x="90" height="10" width="10" fill="red" fill-opacity="0.4"/>
<text y="405" x="95" dominant-baseline='middle' text-anchor='middle' fill='white' style='paint-order: stroke; fill: white; stroke: black; stroke-width: 2px; font-size: 5px'>?-1</text>
<rect y="400" x="110" height="10" width="10" fill="red" fill-opacity="0.4"/>
<text y="405" x="115" dominant-baseline='middle' text-anchor='middle' fill='white' style='paint-order: stroke; fill: white; stroke: black; stroke-width: 2px; font-size: 5px'>?-1</text>
<rect y="400" x="130" height="10" width="10" fill="red" fill-opacity="0.4"/>
<text y="405" x="135" dominant-baseline='middle' text-anchor='middle' fill='white' style='paint-order: stroke; fill: white; stroke: black; stroke-width: 2px; font-size: 5px'>?-1</text>
<rect y="400" x="150" height="10" width="10" fill="red" fill-opacity="0.4"/>
<text y="405" x="155" dominant-baseline='middle' text-anchor='middle' fill='white' style='paint-order: stroke; fill: white; stroke: black; stroke-width: 2px; font-size: 5px'>?-1</text>
<rect y="400" x="170" height="10" width="10" fill="red" fill-opacity="0.4"/>
<text y="405" x="175" dominant-baseline='middle' text-anchor='middle' fill='white' style='paint-order: stroke; fill: white; stroke: black; stroke-width: 2px; font-size: 5px'>?-1</text>
<rect y="400" x="190" height="10" width="10" fill="red" fill-opacity="0.4"/>
<text y="405" x="195" dominant-baseline='middle' text-anchor='middle' fill='white' style='paint-order: stroke; fill: white; stroke: black; stroke-width: 2px; font-size: 5px'>?-1</text>
<rect y="400" x="210" height="10" width="10" fill="red" fill-opacity="0.4"/>
<text y="405" x="215" dominant-baseline='middle' text-anchor='middle' fill='white' style='paint-order: stroke; fill: white; stroke: black; stroke-width: 2px; font-size: 5px'>?-1</text>
<rect y="410" x="70" height="20" width="70" fill="black" fill-opacity="0.4"/>
<text y="420" x="105" dominant-baseline='middle' text-anchor='middle' fill='white' style='paint-order: stroke; fill: white; stroke: black; stroke-width: 2px; font-size: 5px'>...</text>
<rect y="410" x="150" height="20" width="70" fill="black" fill-opacity="0.4"/>
<text y="420" x="185" dominant-baseline='middle' text-anchor='middle' fill='white' style='paint-order: stroke; fill: white; stroke: black; stroke-width: 2px; font-size: 5px'>...</text>
<rect y="460" x="20" height="20" width="70" fill="black" fill-opacity="0.4"/>
<text y="470" x="55" dominant-baseline='middle' text-anchor='middle' fill='white' style='paint-order: stroke; fill: white; stroke: black; stroke-width: 2px; font-size: 5px'>...</text>

</svg>
