<?xml version="1.0"?>
<svg xmlns="http://www.w3.org/2000/svg" height="322" width="784">
  <rect y="0" x="0" height="322" width="784" fill="black" />
  <rect y="0" x="0" height="14" width="14" fill="#757575"/>
    <rect y="0" x="14" height="14" width="14" fill="#757575"/>
    <rect y="0" x="28" height="14" width="14" fill="#757575"/>
    <rect y="0" x="42" height="14" width="14" fill="#757575"/>
    <rect y="0" x="56" height="14" width="14" fill="#757575"/>
    <rect y="0" x="70" height="14" width="14" fill="#757575"/>
    <rect y="0" x="84" height="14" width="14" fill="#757575"/>
    <rect y="0" x="98" height="14" width="14" fill="#757575"/>
    <rect y="0" x="112" height="14" width="14" fill="#757575"/>
    <rect y="0" x="126" height="14" width="14" fill="#757575"/>
    <rect y="0" x="140" height="14" width="14" fill="#757575"/>
    <rect y="0" x="154" height="14" width="14" fill="#757575"/>
    <rect y="0" x="168" height="14" width="14" fill="#757575"/>
    <rect y="0" x="182" height="14" width="14" fill="#757575"/>
    <rect y="0" x="196" height="14" width="14" fill="#757575"/>
    <rect y="0" x="210" height="14" width="14" fill="#757575"/>
    <rect y="0" x="224" height="14" width="14" fill="#757575"/>
    <rect y="0" x="238" height="14" width="14" fill="#757575"/>
    <rect y="0" x="252" height="14" width="14" fill="#757575"/>
    <rect y="0" x="266" height="14" width="14" fill="#757575"/>
    <rect y="0" x="280" height="14" width="14" fill="#757575"/>
    <rect y="0" x="294" height="14" width="14" fill="#757575"/>
    <rect y="0" x="308" height="14" width="14" fill="#757575"/>
    <rect y="0" x="322" height="14" width="14" fill="#757575"/>
    <rect y="0" x="336" height="14" width="14" fill="#757575"/>
    <rect y="0" x="350" height="14" width="14" fill="#757575"/>
    <rect y="0" x="364" height="14" width="14" fill="#757575"/>
    <rect y="0" x="378" height="14" width="14" fill="#757575"/>
    <rect y="0" x="392" height="14" width="14" fill="#757575"/>
    <rect y="0" x="406" height="14" width="14" fill="#757575"/>
    <rect y="0" x="420" height="14" width="14" fill="#757575"/>
    <rect y="0" x="434" height="14" width="14" fill="#757575"/>
    <rect y="0" x="448" height="14" width="14" fill="#757575"/>
    <rect y="0" x="462" height="14" width="14" fill="#757575"/>
    <rect y="0" x="476" height="14" width="14" fill="#757575"/>
    <rect y="0" x="490" height="14" width="14" fill="#757575"/>
    <rect y="0" x="504" height="14" width="14" fill="#757575"/>
    <rect y="0" x="518" height="14" width="14" fill="#757575"/>
    <rect y="0" x="532" height="14" width="14" fill="#757575"/>
    <rect y="0" x="546" height="14" width="14" fill="#757575"/>
    <rect y="0" x="560" height="14" width="14" fill="#757575"/>
    <rect y="0" x="574" height="14" width="14" fill="#757575"/>
    <rect y="0" x="588" height="14" width="14" fill="#757575"/>
    <rect y="0" x="602" height="14" width="14" fill="#757575"/>
    <rect y="0" x="616" height="14" width="14" fill="#757575"/>
    <rect y="0" x="630" height="14" width="14" fill="#757575"/>
    <rect y="0" x="644" height="14" width="14" fill="#757575"/>
    <rect y="0" x="658" height="14" width="14" fill="#757575"/>
    <rect y="0" x="672" height="14" width="14" fill="#757575"/>
    <rect y="0" x="686" height="14" width="14" fill="#757575"/>
    <rect y="0" x="700" height="14" width="14" fill="#757575"/>
    <rect y="0" x="714" height="14" width="14" fill="#757575"/>
    <rect y="0" x="728" height="14" width="14" fill="#757575"/>
    <rect y="0" x="742" height="14" width="14" fill="#757575"/>
    <rect y="0" x="756" height="14" width="14" fill="#757575"/>
    <rect y="0" x="770" height="14" width="14" fill="#757575"/>
    <rect y="14" x="0" height="14" width="14" fill="#757575"/>
    <rect y="14" x="770" height="14" width="14" fill="#757575"/>
    <rect y="28" x="0" height="14" width="14" fill="#757575"/>
    <rect y="28" x="28" height="14" width="14" fill="#757575"/>
    <rect y="28" x="42" height="14" width="14" fill="#757575"/>
    <rect y="28" x="56" height="14" width="14" fill="#757575"/>
    <rect y="28" x="70" height="14" width="14" fill="#757575"/>
    <rect y="28" x="84" height="14" width="14" fill="#757575"/>
    <rect y="28" x="770" height="14" width="14" fill="#757575"/>
    <rect y="42" x="0" height="14" width="14" fill="#757575"/>
    <rect y="42" x="28" height="14" width="14" fill="#757575"/>
    <rect y="42" x="770" height="14" width="14" fill="#757575"/>
    <rect y="56" x="0" height="14" width="14" fill="#757575"/>
    <rect y="56" x="28" height="14" width="14" fill="#757575"/>
    <rect y="56" x="56" height="14" width="14" fill="#757575"/>
    <rect y="56" x="70" height="14" width="14" fill="#757575"/>
    <rect y="56" x="84" height="14" width="14" fill="#757575"/>
    <rect y="56" x="770" height="14" width="14" fill="#757575"/>
    <rect y="70" x="0" height="14" width="14" fill="#757575"/>
    <rect y="70" x="28" height="14" width="14" fill="#757575"/>
    <rect y="70" x="42" height="14" width="14" fill="#757575"/>
    <rect y="70" x="56" height="14" width="14" fill="#757575"/>
    <rect y="70" x="770" height="14" width="14" fill="#757575"/>
    <rect y="84" x="0" height="14" width="14" fill="#757575"/>
    <rect y="84" x="28" height="14" width="14" fill="#757575"/>
    <rect y="84" x="56" height="14" width="14" fill="#757575"/>
    <rect y="84" x="70" height="14" width="14" fill="#757575"/>
    <rect y="84" x="84" height="14" width="14" fill="#757575"/>
    <rect y="84" x="770" height="14" width="14" fill="#757575"/>
    <rect y="98" x="0" height="14" width="14" fill="#757575"/>
    <rect y="98" x="770" height="14" width="14" fill="#757575"/>
    <rect y="112" x="0" height="14" width="14" fill="#757575"/>
    <rect y="112" x="770" height="14" width="14" fill="#757575"/>
    <rect y="126" x="0" height="14" width="14" fill="#757575"/>
    <rect y="126" x="28" height="14" width="14" fill="#757575"/>
    <rect y="126" x="42" height="14" width="14" fill="#757575"/>
    <rect y="126" x="84" height="14" width="14" fill="#757575"/>
    <rect y="126" x="98" height="14" width="14" fill="#757575"/>
    <rect y="126" x="140" height="14" width="14" fill="#757575"/>
    <rect y="126" x="154" height="14" width="14" fill="#757575"/>
    <rect y="126" x="196" height="14" width="14" fill="#757575"/>
    <rect y="126" x="210" height="14" width="14" fill="#757575"/>
    <rect y="126" x="224" height="14" width="14" fill="#757575"/>
    <rect y="126" x="238" height="14" width="14" fill="#757575"/>
    <rect y="126" x="252" height="14" width="14" fill="#757575"/>
    <rect y="126" x="308" height="14" width="14" fill="#757575"/>
    <rect y="126" x="350" height="14" width="14" fill="#757575"/>
    <rect y="126" x="364" height="14" width="14" fill="#757575"/>
    <rect y="126" x="378" height="14" width="14" fill="#757575"/>
    <rect y="126" x="392" height="14" width="14" fill="#757575"/>
    <rect y="126" x="434" height="14" width="14" fill="#757575"/>
    <rect y="126" x="448" height="14" width="14" fill="#757575"/>
    <rect y="126" x="462" height="14" width="14" fill="#757575"/>
    <rect y="126" x="476" height="14" width="14" fill="#757575"/>
    <rect y="126" x="574" height="14" width="14" fill="#757575"/>
    <rect y="126" x="588" height="14" width="14" fill="#757575"/>
    <rect y="126" x="602" height="14" width="14" fill="#757575"/>
    <rect y="126" x="700" height="14" width="14" fill="#757575"/>
    <rect y="126" x="714" height="14" width="14" fill="#757575"/>
    <rect y="126" x="728" height="14" width="14" fill="#757575"/>
    <rect y="126" x="742" height="14" width="14" fill="#757575"/>
    <rect y="126" x="770" height="14" width="14" fill="#757575"/>
    <rect y="140" x="0" height="14" width="14" fill="#757575"/>
    <rect y="140" x="28" height="14" width="14" fill="#757575"/>
    <rect y="140" x="84" height="14" width="14" fill="#757575"/>
    <rect y="140" x="140" height="14" width="14" fill="#757575"/>
    <rect y="140" x="196" height="14" width="14" fill="#757575"/>
    <rect y="140" x="294" height="14" width="14" fill="#757575"/>
    <rect y="140" x="350" height="14" width="14" fill="#757575"/>
    <rect y="140" x="364" height="14" width="14" fill="#757575"/>
    <rect y="140" x="392" height="14" width="14" fill="#757575"/>
    <rect y="140" x="434" height="14" width="14" fill="#757575"/>
    <rect y="140" x="448" height="14" width="14" fill="#757575"/>
    <rect y="140" x="476" height="14" width="14" fill="#757575"/>
    <rect y="140" x="574" height="14" width="14" fill="#757575"/>
    <rect y="140" x="700" height="14" width="14" fill="#757575"/>
    <rect y="140" x="714" height="14" width="14" fill="#757575"/>
    <rect y="140" x="742" height="14" width="14" fill="#757575"/>
    <rect y="140" x="770" height="14" width="14" fill="#757575"/>
    <rect y="154" x="0" height="14" width="14" fill="#757575"/>
    <rect y="154" x="196" height="14" width="14" fill="#757575"/>
    <rect y="154" x="224" height="14" width="14" fill="#757575"/>
    <rect y="154" x="238" height="14" width="14" fill="#757575"/>
    <rect y="154" x="252" height="14" width="14" fill="#757575"/>
    <rect y="154" x="350" height="14" width="14" fill="#757575"/>
    <rect y="154" x="378" height="14" width="14" fill="#757575"/>
    <rect y="154" x="392" height="14" width="14" fill="#757575"/>
    <rect y="154" x="434" height="14" width="14" fill="#757575"/>
    <rect y="154" x="476" height="14" width="14" fill="#757575"/>
    <rect y="154" x="574" height="14" width="14" fill="#757575"/>
    <rect y="154" x="588" height="14" width="14" fill="#757575"/>
    <rect y="154" x="602" height="14" width="14" fill="#757575"/>
    <rect y="154" x="700" height="14" width="14" fill="#757575"/>
    <rect y="154" x="728" height="14" width="14" fill="#757575"/>
    <rect y="154" x="742" height="14" width="14" fill="#757575"/>
    <rect y="154" x="770" height="14" width="14" fill="#757575"/>
    <rect y="168" x="0" height="14" width="14" fill="#757575"/>
    <rect y="168" x="196" height="14" width="14" fill="#757575"/>
    <rect y="168" x="210" height="14" width="14" fill="#757575"/>
    <rect y="168" x="224" height="14" width="14" fill="#757575"/>
    <rect y="168" x="350" height="14" width="14" fill="#757575"/>
    <rect y="168" x="364" height="14" width="14" fill="#757575"/>
    <rect y="168" x="378" height="14" width="14" fill="#757575"/>
    <rect y="168" x="392" height="14" width="14" fill="#757575"/>
    <rect y="168" x="434" height="14" width="14" fill="#757575"/>
    <rect y="168" x="448" height="14" width="14" fill="#757575"/>
    <rect y="168" x="462" height="14" width="14" fill="#757575"/>
    <rect y="168" x="476" height="14" width="14" fill="#757575"/>
    <rect y="168" x="700" height="14" width="14" fill="#757575"/>
    <rect y="168" x="714" height="14" width="14" fill="#757575"/>
    <rect y="168" x="728" height="14" width="14" fill="#757575"/>
    <rect y="168" x="742" height="14" width="14" fill="#757575"/>
    <rect y="168" x="770" height="14" width="14" fill="#757575"/>
    <rect y="182" x="0" height="14" width="14" fill="#757575"/>
    <rect y="182" x="196" height="14" width="14" fill="#757575"/>
    <rect y="182" x="224" height="14" width="14" fill="#757575"/>
    <rect y="182" x="238" height="14" width="14" fill="#757575"/>
    <rect y="182" x="252" height="14" width="14" fill="#757575"/>
    <rect y="182" x="770" height="14" width="14" fill="#757575"/>
    <rect y="196" x="0" height="14" width="14" fill="#757575"/>
    <rect y="196" x="770" height="14" width="14" fill="#757575"/>
    <rect y="210" x="0" height="14" width="14" fill="#757575"/>
    <rect y="210" x="770" height="14" width="14" fill="#757575"/>
    <rect y="224" x="0" height="14" width="14" fill="#757575"/>
    <rect y="224" x="28" height="14" width="14" fill="#757575"/>
    <rect y="224" x="42" height="14" width="14" fill="#757575"/>
    <rect y="224" x="84" height="14" width="14" fill="#757575"/>
    <rect y="224" x="98" height="14" width="14" fill="#757575"/>
    <rect y="224" x="140" height="14" width="14" fill="#757575"/>
    <rect y="224" x="154" height="14" width="14" fill="#757575"/>
    <rect y="224" x="196" height="14" width="14" fill="#757575"/>
    <rect y="224" x="210" height="14" width="14" fill="#757575"/>
    <rect y="224" x="224" height="14" width="14" fill="#757575"/>
    <rect y="224" x="238" height="14" width="14" fill="#757575"/>
    <rect y="224" x="252" height="14" width="14" fill="#757575"/>
    <rect y="224" x="308" height="14" width="14" fill="#757575"/>
    <rect y="224" x="350" height="14" width="14" fill="#757575"/>
    <rect y="224" x="364" height="14" width="14" fill="#757575"/>
    <rect y="224" x="378" height="14" width="14" fill="#757575"/>
    <rect y="224" x="392" height="14" width="14" fill="#757575"/>
    <rect y="224" x="434" height="14" width="14" fill="#757575"/>
    <rect y="224" x="448" height="14" width="14" fill="#757575"/>
    <rect y="224" x="462" height="14" width="14" fill="#757575"/>
    <rect y="224" x="476" height="14" width="14" fill="#757575"/>
    <rect y="224" x="574" height="14" width="14" fill="#757575"/>
    <rect y="224" x="588" height="14" width="14" fill="#757575"/>
    <rect y="224" x="602" height="14" width="14" fill="#757575"/>
    <rect y="224" x="700" height="14" width="14" fill="#757575"/>
    <rect y="224" x="714" height="14" width="14" fill="#757575"/>
    <rect y="224" x="728" height="14" width="14" fill="#757575"/>
    <rect y="224" x="742" height="14" width="14" fill="#757575"/>
    <rect y="224" x="770" height="14" width="14" fill="#757575"/>
    <rect y="238" x="0" height="14" width="14" fill="#757575"/>
    <rect y="238" x="28" height="14" width="14" fill="#757575"/>
    <rect y="238" x="84" height="14" width="14" fill="#757575"/>
    <rect y="238" x="140" height="14" width="14" fill="#757575"/>
    <rect y="238" x="196" height="14" width="14" fill="#757575"/>
    <rect y="238" x="294" height="14" width="14" fill="#757575"/>
    <rect y="238" x="308" height="14" width="14" fill="#757575"/>
    <rect y="238" x="350" height="14" width="14" fill="#757575"/>
    <rect y="238" x="364" height="14" width="14" fill="#757575"/>
    <rect y="238" x="392" height="14" width="14" fill="#757575"/>
    <rect y="238" x="434" height="14" width="14" fill="#757575"/>
    <rect y="238" x="448" height="14" width="14" fill="#757575"/>
    <rect y="238" x="476" height="14" width="14" fill="#757575"/>
    <rect y="238" x="574" height="14" width="14" fill="#757575"/>
    <rect y="238" x="700" height="14" width="14" fill="#757575"/>
    <rect y="238" x="714" height="14" width="14" fill="#757575"/>
    <rect y="238" x="742" height="14" width="14" fill="#757575"/>
    <rect y="238" x="770" height="14" width="14" fill="#757575"/>
    <rect y="252" x="0" height="14" width="14" fill="#757575"/>
    <rect y="252" x="196" height="14" width="14" fill="#757575"/>
    <rect y="252" x="224" height="14" width="14" fill="#757575"/>
    <rect y="252" x="238" height="14" width="14" fill="#757575"/>
    <rect y="252" x="252" height="14" width="14" fill="#757575"/>
    <rect y="252" x="350" height="14" width="14" fill="#757575"/>
    <rect y="252" x="378" height="14" width="14" fill="#757575"/>
    <rect y="252" x="392" height="14" width="14" fill="#757575"/>
    <rect y="252" x="434" height="14" width="14" fill="#757575"/>
    <rect y="252" x="476" height="14" width="14" fill="#757575"/>
    <rect y="252" x="574" height="14" width="14" fill="#757575"/>
    <rect y="252" x="588" height="14" width="14" fill="#757575"/>
    <rect y="252" x="602" height="14" width="14" fill="#757575"/>
    <rect y="252" x="700" height="14" width="14" fill="#757575"/>
    <rect y="252" x="742" height="14" width="14" fill="#757575"/>
    <rect y="252" x="770" height="14" width="14" fill="#757575"/>
    <rect y="266" x="0" height="14" width="14" fill="#757575"/>
    <rect y="266" x="196" height="14" width="14" fill="#757575"/>
    <rect y="266" x="210" height="14" width="14" fill="#757575"/>
    <rect y="266" x="224" height="14" width="14" fill="#757575"/>
    <rect y="266" x="350" height="14" width="14" fill="#757575"/>
    <rect y="266" x="364" height="14" width="14" fill="#757575"/>
    <rect y="266" x="378" height="14" width="14" fill="#757575"/>
    <rect y="266" x="392" height="14" width="14" fill="#757575"/>
    <rect y="266" x="434" height="14" width="14" fill="#757575"/>
    <rect y="266" x="448" height="14" width="14" fill="#757575"/>
    <rect y="266" x="462" height="14" width="14" fill="#757575"/>
    <rect y="266" x="476" height="14" width="14" fill="#757575"/>
    <rect y="266" x="700" height="14" width="14" fill="#757575"/>
    <rect y="266" x="714" height="14" width="14" fill="#757575"/>
    <rect y="266" x="728" height="14" width="14" fill="#757575"/>
    <rect y="266" x="742" height="14" width="14" fill="#757575"/>
    <rect y="266" x="770" height="14" width="14" fill="#757575"/>
    <rect y="280" x="0" height="14" width="14" fill="#757575"/>
    <rect y="280" x="196" height="14" width="14" fill="#757575"/>
    <rect y="280" x="224" height="14" width="14" fill="#757575"/>
    <rect y="280" x="238" height="14" width="14" fill="#757575"/>
    <rect y="280" x="252" height="14" width="14" fill="#757575"/>
    <rect y="280" x="770" height="14" width="14" fill="#757575"/>
    <rect y="294" x="0" height="14" width="14" fill="#757575"/>
    <rect y="294" x="770" height="14" width="14" fill="#757575"/>
    <rect y="308" x="0" height="14" width="14" fill="#757575"/>
    <rect y="308" x="14" height="14" width="14" fill="#757575"/>
    <rect y="308" x="28" height="14" width="14" fill="#757575"/>
    <rect y="308" x="42" height="14" width="14" fill="#757575"/>
    <rect y="308" x="56" height="14" width="14" fill="#757575"/>
    <rect y="308" x="70" height="14" width="14" fill="#757575"/>
    <rect y="308" x="84" height="14" width="14" fill="#757575"/>
    <rect y="308" x="98" height="14" width="14" fill="#757575"/>
    <rect y="308" x="112" height="14" width="14" fill="#757575"/>
    <rect y="308" x="126" height="14" width="14" fill="#757575"/>
    <rect y="308" x="140" height="14" width="14" fill="#757575"/>
    <rect y="308" x="154" height="14" width="14" fill="#757575"/>
    <rect y="308" x="168" height="14" width="14" fill="#757575"/>
    <rect y="308" x="182" height="14" width="14" fill="#757575"/>
    <rect y="308" x="196" height="14" width="14" fill="#757575"/>
    <rect y="308" x="210" height="14" width="14" fill="#757575"/>
    <rect y="308" x="224" height="14" width="14" fill="#757575"/>
    <rect y="308" x="238" height="14" width="14" fill="#757575"/>
    <rect y="308" x="252" height="14" width="14" fill="#757575"/>
    <rect y="308" x="266" height="14" width="14" fill="#757575"/>
    <rect y="308" x="280" height="14" width="14" fill="#757575"/>
    <rect y="308" x="294" height="14" width="14" fill="#757575"/>
    <rect y="308" x="308" height="14" width="14" fill="#757575"/>
    <rect y="308" x="322" height="14" width="14" fill="#757575"/>
    <rect y="308" x="336" height="14" width="14" fill="#757575"/>
    <rect y="308" x="350" height="14" width="14" fill="#757575"/>
    <rect y="308" x="364" height="14" width="14" fill="#757575"/>
    <rect y="308" x="378" height="14" width="14" fill="#757575"/>
    <rect y="308" x="392" height="14" width="14" fill="#757575"/>
    <rect y="308" x="406" height="14" width="14" fill="#757575"/>
    <rect y="308" x="420" height="14" width="14" fill="#757575"/>
    <rect y="308" x="434" height="14" width="14" fill="#757575"/>
    <rect y="308" x="448" height="14" width="14" fill="#757575"/>
    <rect y="308" x="462" height="14" width="14" fill="#757575"/>
    <rect y="308" x="476" height="14" width="14" fill="#757575"/>
    <rect y="308" x="490" height="14" width="14" fill="#757575"/>
    <rect y="308" x="504" height="14" width="14" fill="#757575"/>
    <rect y="308" x="518" height="14" width="14" fill="#757575"/>
    <rect y="308" x="532" height="14" width="14" fill="#757575"/>
    <rect y="308" x="546" height="14" width="14" fill="#757575"/>
    <rect y="308" x="560" height="14" width="14" fill="#757575"/>
    <rect y="308" x="574" height="14" width="14" fill="#757575"/>
    <rect y="308" x="588" height="14" width="14" fill="#757575"/>
    <rect y="308" x="602" height="14" width="14" fill="#757575"/>
    <rect y="308" x="616" height="14" width="14" fill="#757575"/>
    <rect y="308" x="630" height="14" width="14" fill="#757575"/>
    <rect y="308" x="644" height="14" width="14" fill="#757575"/>
    <rect y="308" x="658" height="14" width="14" fill="#757575"/>
    <rect y="308" x="672" height="14" width="14" fill="#757575"/>
    <rect y="308" x="686" height="14" width="14" fill="#757575"/>
    <rect y="308" x="700" height="14" width="14" fill="#757575"/>
    <rect y="308" x="714" height="14" width="14" fill="#757575"/>
    <rect y="308" x="728" height="14" width="14" fill="#757575"/>
    <rect y="308" x="742" height="14" width="14" fill="#757575"/>
    <rect y="308" x="756" height="14" width="14" fill="#757575"/>
    <rect y="308" x="770" height="14" width="14" fill="#757575"/>
    
  <rect y="28" x="28" height="70" width="70" fill="#BF360C" fill-opacity="0.5"/>
<text y="63" x="63" dominant-baseline='middle' text-anchor='middle' fill='white' style='paint-order: stroke; fill: white; stroke: black; stroke-width: 1px; font-family="monospace"; font-size: 18px'><tspan x="63" dy="0em">58336?</tspan></text>
<rect y="126" x="28" height="28" width="28" fill="#827717" fill-opacity="0.5"/>
<text y="140" x="42" dominant-baseline='middle' text-anchor='middle' fill='white' style='paint-order: stroke; fill: white; stroke: black; stroke-width: 1px; font-family="monospace"; font-size: 18px'><tspan x="42" dy="0em">ap</tspan></text>
<rect y="126" x="84" height="28" width="28" fill="#827717" fill-opacity="0.5"/>
<text y="140" x="98" dominant-baseline='middle' text-anchor='middle' fill='white' style='paint-order: stroke; fill: white; stroke: black; stroke-width: 1px; font-family="monospace"; font-size: 18px'><tspan x="98" dy="0em">ap</tspan></text>
<rect y="126" x="140" height="28" width="28" fill="#827717" fill-opacity="0.5"/>
<text y="140" x="154" dominant-baseline='middle' text-anchor='middle' fill='white' style='paint-order: stroke; fill: white; stroke: black; stroke-width: 1px; font-family="monospace"; font-size: 18px'><tspan x="154" dy="0em">ap</tspan></text>
<rect y="126" x="196" height="70" width="70" fill="#BF360C" fill-opacity="0.5"/>
<text y="161" x="231" dominant-baseline='middle' text-anchor='middle' fill='white' style='paint-order: stroke; fill: white; stroke: black; stroke-width: 1px; font-family="monospace"; font-size: 18px'><tspan x="231" dy="0em">58336?</tspan></text>
<rect y="126" x="294" height="28" width="28" fill="#004D40" fill-opacity="0.5"/>
<text y="140" x="308" dominant-baseline='middle' text-anchor='middle' fill='white' style='paint-order: stroke; fill: white; stroke: black; stroke-width: 1px; font-family="monospace"; font-size: 18px'><tspan x="308" dy="0em">0</tspan></text>
<rect y="126" x="350" height="56" width="56" fill="#004D40" fill-opacity="0.5"/>
<text y="154" x="378" dominant-baseline='middle' text-anchor='middle' fill='white' style='paint-order: stroke; fill: white; stroke: black; stroke-width: 1px; font-family="monospace"; font-size: 18px'><tspan x="378" dy="0em">x0</tspan></text>
<rect y="126" x="434" height="56" width="56" fill="#004D40" fill-opacity="0.5"/>
<text y="154" x="462" dominant-baseline='middle' text-anchor='middle' fill='white' style='paint-order: stroke; fill: white; stroke: black; stroke-width: 1px; font-family="monospace"; font-size: 18px'><tspan x="462" dy="0em">x1</tspan></text>
<rect y="126" x="574" height="42" width="42" fill="#827717" fill-opacity="0.5"/>
<text y="147" x="595" dominant-baseline='middle' text-anchor='middle' fill='white' style='paint-order: stroke; fill: white; stroke: black; stroke-width: 1px; font-family="monospace"; font-size: 18px'><tspan x="595" dy="0em">is</tspan></text>
<rect y="126" x="700" height="56" width="56" fill="#004D40" fill-opacity="0.5"/>
<text y="154" x="728" dominant-baseline='middle' text-anchor='middle' fill='white' style='paint-order: stroke; fill: white; stroke: black; stroke-width: 1px; font-family="monospace"; font-size: 18px'><tspan x="728" dy="0em">x0</tspan></text>
<rect y="224" x="28" height="28" width="28" fill="#827717" fill-opacity="0.5"/>
<text y="238" x="42" dominant-baseline='middle' text-anchor='middle' fill='white' style='paint-order: stroke; fill: white; stroke: black; stroke-width: 1px; font-family="monospace"; font-size: 18px'><tspan x="42" dy="0em">ap</tspan></text>
<rect y="224" x="84" height="28" width="28" fill="#827717" fill-opacity="0.5"/>
<text y="238" x="98" dominant-baseline='middle' text-anchor='middle' fill='white' style='paint-order: stroke; fill: white; stroke: black; stroke-width: 1px; font-family="monospace"; font-size: 18px'><tspan x="98" dy="0em">ap</tspan></text>
<rect y="224" x="140" height="28" width="28" fill="#827717" fill-opacity="0.5"/>
<text y="238" x="154" dominant-baseline='middle' text-anchor='middle' fill='white' style='paint-order: stroke; fill: white; stroke: black; stroke-width: 1px; font-family="monospace"; font-size: 18px'><tspan x="154" dy="0em">ap</tspan></text>
<rect y="224" x="196" height="70" width="70" fill="#BF360C" fill-opacity="0.5"/>
<text y="259" x="231" dominant-baseline='middle' text-anchor='middle' fill='white' style='paint-order: stroke; fill: white; stroke: black; stroke-width: 1px; font-family="monospace"; font-size: 18px'><tspan x="231" dy="0em">58336?</tspan></text>
<rect y="224" x="294" height="28" width="28" fill="#004D40" fill-opacity="0.5"/>
<text y="238" x="308" dominant-baseline='middle' text-anchor='middle' fill='white' style='paint-order: stroke; fill: white; stroke: black; stroke-width: 1px; font-family="monospace"; font-size: 18px'><tspan x="308" dy="0em">1</tspan></text>
<rect y="224" x="350" height="56" width="56" fill="#004D40" fill-opacity="0.5"/>
<text y="252" x="378" dominant-baseline='middle' text-anchor='middle' fill='white' style='paint-order: stroke; fill: white; stroke: black; stroke-width: 1px; font-family="monospace"; font-size: 18px'><tspan x="378" dy="0em">x0</tspan></text>
<rect y="224" x="434" height="56" width="56" fill="#004D40" fill-opacity="0.5"/>
<text y="252" x="462" dominant-baseline='middle' text-anchor='middle' fill='white' style='paint-order: stroke; fill: white; stroke: black; stroke-width: 1px; font-family="monospace"; font-size: 18px'><tspan x="462" dy="0em">x1</tspan></text>
<rect y="224" x="574" height="42" width="42" fill="#827717" fill-opacity="0.5"/>
<text y="245" x="595" dominant-baseline='middle' text-anchor='middle' fill='white' style='paint-order: stroke; fill: white; stroke: black; stroke-width: 1px; font-family="monospace"; font-size: 18px'><tspan x="595" dy="0em">is</tspan></text>
<rect y="224" x="700" height="56" width="56" fill="#004D40" fill-opacity="0.5"/>
<text y="252" x="728" dominant-baseline='middle' text-anchor='middle' fill='white' style='paint-order: stroke; fill: white; stroke: black; stroke-width: 1px; font-family="monospace"; font-size: 18px'><tspan x="728" dy="0em">x1</tspan></text>

</svg>
