<?xml version="1.0"?>
<svg xmlns="http://www.w3.org/2000/svg" height="994" width="546">
  <rect y="0" x="0" height="994" width="546" fill="black" />
  <rect y="0" x="0" height="14" width="14" fill="#757575"/>
    <rect y="0" x="14" height="14" width="14" fill="#757575"/>
    <rect y="0" x="28" height="14" width="14" fill="#757575"/>
    <rect y="0" x="42" height="14" width="14" fill="#757575"/>
    <rect y="0" x="56" height="14" width="14" fill="#757575"/>
    <rect y="0" x="70" height="14" width="14" fill="#757575"/>
    <rect y="0" x="84" height="14" width="14" fill="#757575"/>
    <rect y="0" x="98" height="14" width="14" fill="#757575"/>
    <rect y="0" x="112" height="14" width="14" fill="#757575"/>
    <rect y="0" x="126" height="14" width="14" fill="#757575"/>
    <rect y="0" x="140" height="14" width="14" fill="#757575"/>
    <rect y="0" x="154" height="14" width="14" fill="#757575"/>
    <rect y="0" x="168" height="14" width="14" fill="#757575"/>
    <rect y="0" x="182" height="14" width="14" fill="#757575"/>
    <rect y="0" x="196" height="14" width="14" fill="#757575"/>
    <rect y="0" x="210" height="14" width="14" fill="#757575"/>
    <rect y="0" x="224" height="14" width="14" fill="#757575"/>
    <rect y="0" x="238" height="14" width="14" fill="#757575"/>
    <rect y="0" x="252" height="14" width="14" fill="#757575"/>
    <rect y="0" x="266" height="14" width="14" fill="#757575"/>
    <rect y="0" x="280" height="14" width="14" fill="#757575"/>
    <rect y="0" x="294" height="14" width="14" fill="#757575"/>
    <rect y="0" x="308" height="14" width="14" fill="#757575"/>
    <rect y="0" x="322" height="14" width="14" fill="#757575"/>
    <rect y="0" x="336" height="14" width="14" fill="#757575"/>
    <rect y="0" x="350" height="14" width="14" fill="#757575"/>
    <rect y="0" x="364" height="14" width="14" fill="#757575"/>
    <rect y="0" x="378" height="14" width="14" fill="#757575"/>
    <rect y="0" x="392" height="14" width="14" fill="#757575"/>
    <rect y="0" x="406" height="14" width="14" fill="#757575"/>
    <rect y="0" x="420" height="14" width="14" fill="#757575"/>
    <rect y="0" x="434" height="14" width="14" fill="#757575"/>
    <rect y="0" x="448" height="14" width="14" fill="#757575"/>
    <rect y="0" x="462" height="14" width="14" fill="#757575"/>
    <rect y="0" x="476" height="14" width="14" fill="#757575"/>
    <rect y="0" x="490" height="14" width="14" fill="#757575"/>
    <rect y="0" x="504" height="14" width="14" fill="#757575"/>
    <rect y="0" x="518" height="14" width="14" fill="#757575"/>
    <rect y="0" x="532" height="14" width="14" fill="#757575"/>
    <rect y="14" x="0" height="14" width="14" fill="#757575"/>
    <rect y="14" x="532" height="14" width="14" fill="#757575"/>
    <rect y="28" x="0" height="14" width="14" fill="#757575"/>
    <rect y="28" x="28" height="14" width="14" fill="#757575"/>
    <rect y="28" x="42" height="14" width="14" fill="#757575"/>
    <rect y="28" x="56" height="14" width="14" fill="#757575"/>
    <rect y="28" x="70" height="14" width="14" fill="#757575"/>
    <rect y="28" x="532" height="14" width="14" fill="#757575"/>
    <rect y="42" x="0" height="14" width="14" fill="#757575"/>
    <rect y="42" x="28" height="14" width="14" fill="#757575"/>
    <rect y="42" x="42" height="14" width="14" fill="#757575"/>
    <rect y="42" x="532" height="14" width="14" fill="#757575"/>
    <rect y="56" x="0" height="14" width="14" fill="#757575"/>
    <rect y="56" x="28" height="14" width="14" fill="#757575"/>
    <rect y="56" x="56" height="14" width="14" fill="#757575"/>
    <rect y="56" x="532" height="14" width="14" fill="#757575"/>
    <rect y="70" x="0" height="14" width="14" fill="#757575"/>
    <rect y="70" x="28" height="14" width="14" fill="#757575"/>
    <rect y="70" x="56" height="14" width="14" fill="#757575"/>
    <rect y="70" x="70" height="14" width="14" fill="#757575"/>
    <rect y="70" x="532" height="14" width="14" fill="#757575"/>
    <rect y="84" x="0" height="14" width="14" fill="#757575"/>
    <rect y="84" x="532" height="14" width="14" fill="#757575"/>
    <rect y="98" x="0" height="14" width="14" fill="#757575"/>
    <rect y="98" x="532" height="14" width="14" fill="#757575"/>
    <rect y="112" x="0" height="14" width="14" fill="#757575"/>
    <rect y="112" x="28" height="14" width="14" fill="#757575"/>
    <rect y="112" x="42" height="14" width="14" fill="#757575"/>
    <rect y="112" x="84" height="14" width="14" fill="#757575"/>
    <rect y="112" x="98" height="14" width="14" fill="#757575"/>
    <rect y="112" x="112" height="14" width="14" fill="#757575"/>
    <rect y="112" x="126" height="14" width="14" fill="#757575"/>
    <rect y="112" x="182" height="14" width="14" fill="#757575"/>
    <rect y="112" x="280" height="14" width="14" fill="#757575"/>
    <rect y="112" x="294" height="14" width="14" fill="#757575"/>
    <rect y="112" x="308" height="14" width="14" fill="#757575"/>
    <rect y="112" x="420" height="14" width="14" fill="#757575"/>
    <rect y="112" x="532" height="14" width="14" fill="#757575"/>
    <rect y="126" x="0" height="14" width="14" fill="#757575"/>
    <rect y="126" x="28" height="14" width="14" fill="#757575"/>
    <rect y="126" x="84" height="14" width="14" fill="#757575"/>
    <rect y="126" x="98" height="14" width="14" fill="#757575"/>
    <rect y="126" x="168" height="14" width="14" fill="#757575"/>
    <rect y="126" x="182" height="14" width="14" fill="#757575"/>
    <rect y="126" x="280" height="14" width="14" fill="#757575"/>
    <rect y="126" x="406" height="14" width="14" fill="#757575"/>
    <rect y="126" x="532" height="14" width="14" fill="#757575"/>
    <rect y="140" x="0" height="14" width="14" fill="#757575"/>
    <rect y="140" x="84" height="14" width="14" fill="#757575"/>
    <rect y="140" x="112" height="14" width="14" fill="#757575"/>
    <rect y="140" x="280" height="14" width="14" fill="#757575"/>
    <rect y="140" x="294" height="14" width="14" fill="#757575"/>
    <rect y="140" x="308" height="14" width="14" fill="#757575"/>
    <rect y="140" x="532" height="14" width="14" fill="#757575"/>
    <rect y="154" x="0" height="14" width="14" fill="#757575"/>
    <rect y="154" x="84" height="14" width="14" fill="#757575"/>
    <rect y="154" x="112" height="14" width="14" fill="#757575"/>
    <rect y="154" x="126" height="14" width="14" fill="#757575"/>
    <rect y="154" x="532" height="14" width="14" fill="#757575"/>
    <rect y="168" x="0" height="14" width="14" fill="#757575"/>
    <rect y="168" x="532" height="14" width="14" fill="#757575"/>
    <rect y="182" x="0" height="14" width="14" fill="#757575"/>
    <rect y="182" x="532" height="14" width="14" fill="#757575"/>
    <rect y="196" x="0" height="14" width="14" fill="#757575"/>
    <rect y="196" x="28" height="14" width="14" fill="#757575"/>
    <rect y="196" x="42" height="14" width="14" fill="#757575"/>
    <rect y="196" x="84" height="14" width="14" fill="#757575"/>
    <rect y="196" x="98" height="14" width="14" fill="#757575"/>
    <rect y="196" x="112" height="14" width="14" fill="#757575"/>
    <rect y="196" x="126" height="14" width="14" fill="#757575"/>
    <rect y="196" x="182" height="14" width="14" fill="#757575"/>
    <rect y="196" x="196" height="14" width="14" fill="#757575"/>
    <rect y="196" x="294" height="14" width="14" fill="#757575"/>
    <rect y="196" x="308" height="14" width="14" fill="#757575"/>
    <rect y="196" x="322" height="14" width="14" fill="#757575"/>
    <rect y="196" x="434" height="14" width="14" fill="#757575"/>
    <rect y="196" x="532" height="14" width="14" fill="#757575"/>
    <rect y="210" x="0" height="14" width="14" fill="#757575"/>
    <rect y="210" x="28" height="14" width="14" fill="#757575"/>
    <rect y="210" x="84" height="14" width="14" fill="#757575"/>
    <rect y="210" x="98" height="14" width="14" fill="#757575"/>
    <rect y="210" x="168" height="14" width="14" fill="#757575"/>
    <rect y="210" x="196" height="14" width="14" fill="#757575"/>
    <rect y="210" x="294" height="14" width="14" fill="#757575"/>
    <rect y="210" x="420" height="14" width="14" fill="#757575"/>
    <rect y="210" x="434" height="14" width="14" fill="#757575"/>
    <rect y="210" x="532" height="14" width="14" fill="#757575"/>
    <rect y="224" x="0" height="14" width="14" fill="#757575"/>
    <rect y="224" x="84" height="14" width="14" fill="#757575"/>
    <rect y="224" x="112" height="14" width="14" fill="#757575"/>
    <rect y="224" x="168" height="14" width="14" fill="#757575"/>
    <rect y="224" x="294" height="14" width="14" fill="#757575"/>
    <rect y="224" x="308" height="14" width="14" fill="#757575"/>
    <rect y="224" x="322" height="14" width="14" fill="#757575"/>
    <rect y="224" x="532" height="14" width="14" fill="#757575"/>
    <rect y="238" x="0" height="14" width="14" fill="#757575"/>
    <rect y="238" x="84" height="14" width="14" fill="#757575"/>
    <rect y="238" x="112" height="14" width="14" fill="#757575"/>
    <rect y="238" x="126" height="14" width="14" fill="#757575"/>
    <rect y="238" x="532" height="14" width="14" fill="#757575"/>
    <rect y="252" x="0" height="14" width="14" fill="#757575"/>
    <rect y="252" x="532" height="14" width="14" fill="#757575"/>
    <rect y="266" x="0" height="14" width="14" fill="#757575"/>
    <rect y="266" x="532" height="14" width="14" fill="#757575"/>
    <rect y="280" x="0" height="14" width="14" fill="#757575"/>
    <rect y="280" x="28" height="14" width="14" fill="#757575"/>
    <rect y="280" x="42" height="14" width="14" fill="#757575"/>
    <rect y="280" x="84" height="14" width="14" fill="#757575"/>
    <rect y="280" x="98" height="14" width="14" fill="#757575"/>
    <rect y="280" x="112" height="14" width="14" fill="#757575"/>
    <rect y="280" x="126" height="14" width="14" fill="#757575"/>
    <rect y="280" x="182" height="14" width="14" fill="#757575"/>
    <rect y="280" x="196" height="14" width="14" fill="#757575"/>
    <rect y="280" x="294" height="14" width="14" fill="#757575"/>
    <rect y="280" x="308" height="14" width="14" fill="#757575"/>
    <rect y="280" x="322" height="14" width="14" fill="#757575"/>
    <rect y="280" x="434" height="14" width="14" fill="#757575"/>
    <rect y="280" x="448" height="14" width="14" fill="#757575"/>
    <rect y="280" x="532" height="14" width="14" fill="#757575"/>
    <rect y="294" x="0" height="14" width="14" fill="#757575"/>
    <rect y="294" x="28" height="14" width="14" fill="#757575"/>
    <rect y="294" x="84" height="14" width="14" fill="#757575"/>
    <rect y="294" x="98" height="14" width="14" fill="#757575"/>
    <rect y="294" x="168" height="14" width="14" fill="#757575"/>
    <rect y="294" x="182" height="14" width="14" fill="#757575"/>
    <rect y="294" x="196" height="14" width="14" fill="#757575"/>
    <rect y="294" x="294" height="14" width="14" fill="#757575"/>
    <rect y="294" x="420" height="14" width="14" fill="#757575"/>
    <rect y="294" x="448" height="14" width="14" fill="#757575"/>
    <rect y="294" x="532" height="14" width="14" fill="#757575"/>
    <rect y="308" x="0" height="14" width="14" fill="#757575"/>
    <rect y="308" x="84" height="14" width="14" fill="#757575"/>
    <rect y="308" x="112" height="14" width="14" fill="#757575"/>
    <rect y="308" x="168" height="14" width="14" fill="#757575"/>
    <rect y="308" x="294" height="14" width="14" fill="#757575"/>
    <rect y="308" x="308" height="14" width="14" fill="#757575"/>
    <rect y="308" x="322" height="14" width="14" fill="#757575"/>
    <rect y="308" x="420" height="14" width="14" fill="#757575"/>
    <rect y="308" x="532" height="14" width="14" fill="#757575"/>
    <rect y="322" x="0" height="14" width="14" fill="#757575"/>
    <rect y="322" x="84" height="14" width="14" fill="#757575"/>
    <rect y="322" x="112" height="14" width="14" fill="#757575"/>
    <rect y="322" x="126" height="14" width="14" fill="#757575"/>
    <rect y="322" x="532" height="14" width="14" fill="#757575"/>
    <rect y="336" x="0" height="14" width="14" fill="#757575"/>
    <rect y="336" x="532" height="14" width="14" fill="#757575"/>
    <rect y="350" x="0" height="14" width="14" fill="#757575"/>
    <rect y="350" x="532" height="14" width="14" fill="#757575"/>
    <rect y="364" x="0" height="14" width="14" fill="#757575"/>
    <rect y="364" x="28" height="14" width="14" fill="#757575"/>
    <rect y="364" x="42" height="14" width="14" fill="#757575"/>
    <rect y="364" x="84" height="14" width="14" fill="#757575"/>
    <rect y="364" x="98" height="14" width="14" fill="#757575"/>
    <rect y="364" x="112" height="14" width="14" fill="#757575"/>
    <rect y="364" x="126" height="14" width="14" fill="#757575"/>
    <rect y="364" x="182" height="14" width="14" fill="#757575"/>
    <rect y="364" x="196" height="14" width="14" fill="#757575"/>
    <rect y="364" x="294" height="14" width="14" fill="#757575"/>
    <rect y="364" x="308" height="14" width="14" fill="#757575"/>
    <rect y="364" x="322" height="14" width="14" fill="#757575"/>
    <rect y="364" x="434" height="14" width="14" fill="#757575"/>
    <rect y="364" x="448" height="14" width="14" fill="#757575"/>
    <rect y="364" x="532" height="14" width="14" fill="#757575"/>
    <rect y="378" x="0" height="14" width="14" fill="#757575"/>
    <rect y="378" x="28" height="14" width="14" fill="#757575"/>
    <rect y="378" x="84" height="14" width="14" fill="#757575"/>
    <rect y="378" x="98" height="14" width="14" fill="#757575"/>
    <rect y="378" x="168" height="14" width="14" fill="#757575"/>
    <rect y="378" x="294" height="14" width="14" fill="#757575"/>
    <rect y="378" x="420" height="14" width="14" fill="#757575"/>
    <rect y="378" x="434" height="14" width="14" fill="#757575"/>
    <rect y="378" x="448" height="14" width="14" fill="#757575"/>
    <rect y="378" x="532" height="14" width="14" fill="#757575"/>
    <rect y="392" x="0" height="14" width="14" fill="#757575"/>
    <rect y="392" x="84" height="14" width="14" fill="#757575"/>
    <rect y="392" x="112" height="14" width="14" fill="#757575"/>
    <rect y="392" x="168" height="14" width="14" fill="#757575"/>
    <rect y="392" x="182" height="14" width="14" fill="#757575"/>
    <rect y="392" x="294" height="14" width="14" fill="#757575"/>
    <rect y="392" x="308" height="14" width="14" fill="#757575"/>
    <rect y="392" x="322" height="14" width="14" fill="#757575"/>
    <rect y="392" x="420" height="14" width="14" fill="#757575"/>
    <rect y="392" x="532" height="14" width="14" fill="#757575"/>
    <rect y="406" x="0" height="14" width="14" fill="#757575"/>
    <rect y="406" x="84" height="14" width="14" fill="#757575"/>
    <rect y="406" x="112" height="14" width="14" fill="#757575"/>
    <rect y="406" x="126" height="14" width="14" fill="#757575"/>
    <rect y="406" x="532" height="14" width="14" fill="#757575"/>
    <rect y="420" x="0" height="14" width="14" fill="#757575"/>
    <rect y="420" x="532" height="14" width="14" fill="#757575"/>
    <rect y="434" x="0" height="14" width="14" fill="#757575"/>
    <rect y="434" x="532" height="14" width="14" fill="#757575"/>
    <rect y="448" x="0" height="14" width="14" fill="#757575"/>
    <rect y="448" x="532" height="14" width="14" fill="#757575"/>
    <rect y="462" x="0" height="14" width="14" fill="#757575"/>
    <rect y="462" x="28" height="14" width="14" fill="#757575"/>
    <rect y="462" x="56" height="14" width="14" fill="#757575"/>
    <rect y="462" x="84" height="14" width="14" fill="#757575"/>
    <rect y="462" x="112" height="14" width="14" fill="#757575"/>
    <rect y="462" x="532" height="14" width="14" fill="#757575"/>
    <rect y="476" x="0" height="14" width="14" fill="#757575"/>
    <rect y="476" x="532" height="14" width="14" fill="#757575"/>
    <rect y="490" x="0" height="14" width="14" fill="#757575"/>
    <rect y="490" x="532" height="14" width="14" fill="#757575"/>
    <rect y="504" x="0" height="14" width="14" fill="#757575"/>
    <rect y="504" x="532" height="14" width="14" fill="#757575"/>
    <rect y="518" x="0" height="14" width="14" fill="#757575"/>
    <rect y="518" x="28" height="14" width="14" fill="#757575"/>
    <rect y="518" x="42" height="14" width="14" fill="#757575"/>
    <rect y="518" x="84" height="14" width="14" fill="#757575"/>
    <rect y="518" x="98" height="14" width="14" fill="#757575"/>
    <rect y="518" x="112" height="14" width="14" fill="#757575"/>
    <rect y="518" x="126" height="14" width="14" fill="#757575"/>
    <rect y="518" x="182" height="14" width="14" fill="#757575"/>
    <rect y="518" x="196" height="14" width="14" fill="#757575"/>
    <rect y="518" x="210" height="14" width="14" fill="#757575"/>
    <rect y="518" x="224" height="14" width="14" fill="#757575"/>
    <rect y="518" x="322" height="14" width="14" fill="#757575"/>
    <rect y="518" x="336" height="14" width="14" fill="#757575"/>
    <rect y="518" x="350" height="14" width="14" fill="#757575"/>
    <rect y="518" x="462" height="14" width="14" fill="#757575"/>
    <rect y="518" x="476" height="14" width="14" fill="#757575"/>
    <rect y="518" x="490" height="14" width="14" fill="#757575"/>
    <rect y="518" x="504" height="14" width="14" fill="#757575"/>
    <rect y="518" x="532" height="14" width="14" fill="#757575"/>
    <rect y="532" x="0" height="14" width="14" fill="#757575"/>
    <rect y="532" x="28" height="14" width="14" fill="#757575"/>
    <rect y="532" x="84" height="14" width="14" fill="#757575"/>
    <rect y="532" x="98" height="14" width="14" fill="#757575"/>
    <rect y="532" x="168" height="14" width="14" fill="#757575"/>
    <rect y="532" x="322" height="14" width="14" fill="#757575"/>
    <rect y="532" x="448" height="14" width="14" fill="#757575"/>
    <rect y="532" x="462" height="14" width="14" fill="#757575"/>
    <rect y="532" x="476" height="14" width="14" fill="#757575"/>
    <rect y="532" x="490" height="14" width="14" fill="#757575"/>
    <rect y="532" x="504" height="14" width="14" fill="#757575"/>
    <rect y="532" x="532" height="14" width="14" fill="#757575"/>
    <rect y="546" x="0" height="14" width="14" fill="#757575"/>
    <rect y="546" x="84" height="14" width="14" fill="#757575"/>
    <rect y="546" x="112" height="14" width="14" fill="#757575"/>
    <rect y="546" x="168" height="14" width="14" fill="#757575"/>
    <rect y="546" x="322" height="14" width="14" fill="#757575"/>
    <rect y="546" x="336" height="14" width="14" fill="#757575"/>
    <rect y="546" x="350" height="14" width="14" fill="#757575"/>
    <rect y="546" x="448" height="14" width="14" fill="#757575"/>
    <rect y="546" x="462" height="14" width="14" fill="#757575"/>
    <rect y="546" x="476" height="14" width="14" fill="#757575"/>
    <rect y="546" x="490" height="14" width="14" fill="#757575"/>
    <rect y="546" x="504" height="14" width="14" fill="#757575"/>
    <rect y="546" x="532" height="14" width="14" fill="#757575"/>
    <rect y="560" x="0" height="14" width="14" fill="#757575"/>
    <rect y="560" x="84" height="14" width="14" fill="#757575"/>
    <rect y="560" x="112" height="14" width="14" fill="#757575"/>
    <rect y="560" x="126" height="14" width="14" fill="#757575"/>
    <rect y="560" x="168" height="14" width="14" fill="#757575"/>
    <rect y="560" x="210" height="14" width="14" fill="#757575"/>
    <rect y="560" x="448" height="14" width="14" fill="#757575"/>
    <rect y="560" x="462" height="14" width="14" fill="#757575"/>
    <rect y="560" x="476" height="14" width="14" fill="#757575"/>
    <rect y="560" x="532" height="14" width="14" fill="#757575"/>
    <rect y="574" x="0" height="14" width="14" fill="#757575"/>
    <rect y="574" x="168" height="14" width="14" fill="#757575"/>
    <rect y="574" x="448" height="14" width="14" fill="#757575"/>
    <rect y="574" x="532" height="14" width="14" fill="#757575"/>
    <rect y="588" x="0" height="14" width="14" fill="#757575"/>
    <rect y="588" x="532" height="14" width="14" fill="#757575"/>
    <rect y="602" x="0" height="14" width="14" fill="#757575"/>
    <rect y="602" x="532" height="14" width="14" fill="#757575"/>
    <rect y="616" x="0" height="14" width="14" fill="#757575"/>
    <rect y="616" x="532" height="14" width="14" fill="#757575"/>
    <rect y="630" x="0" height="14" width="14" fill="#757575"/>
    <rect y="630" x="28" height="14" width="14" fill="#757575"/>
    <rect y="630" x="56" height="14" width="14" fill="#757575"/>
    <rect y="630" x="84" height="14" width="14" fill="#757575"/>
    <rect y="630" x="112" height="14" width="14" fill="#757575"/>
    <rect y="630" x="532" height="14" width="14" fill="#757575"/>
    <rect y="644" x="0" height="14" width="14" fill="#757575"/>
    <rect y="644" x="532" height="14" width="14" fill="#757575"/>
    <rect y="658" x="0" height="14" width="14" fill="#757575"/>
    <rect y="658" x="532" height="14" width="14" fill="#757575"/>
    <rect y="672" x="0" height="14" width="14" fill="#757575"/>
    <rect y="672" x="532" height="14" width="14" fill="#757575"/>
    <rect y="686" x="0" height="14" width="14" fill="#757575"/>
    <rect y="686" x="28" height="14" width="14" fill="#757575"/>
    <rect y="686" x="42" height="14" width="14" fill="#757575"/>
    <rect y="686" x="84" height="14" width="14" fill="#757575"/>
    <rect y="686" x="98" height="14" width="14" fill="#757575"/>
    <rect y="686" x="112" height="14" width="14" fill="#757575"/>
    <rect y="686" x="126" height="14" width="14" fill="#757575"/>
    <rect y="686" x="182" height="14" width="14" fill="#757575"/>
    <rect y="686" x="280" height="14" width="14" fill="#757575"/>
    <rect y="686" x="294" height="14" width="14" fill="#757575"/>
    <rect y="686" x="308" height="14" width="14" fill="#757575"/>
    <rect y="686" x="420" height="14" width="14" fill="#757575"/>
    <rect y="686" x="532" height="14" width="14" fill="#757575"/>
    <rect y="700" x="0" height="14" width="14" fill="#757575"/>
    <rect y="700" x="28" height="14" width="14" fill="#757575"/>
    <rect y="700" x="84" height="14" width="14" fill="#757575"/>
    <rect y="700" x="98" height="14" width="14" fill="#757575"/>
    <rect y="700" x="168" height="14" width="14" fill="#757575"/>
    <rect y="700" x="280" height="14" width="14" fill="#757575"/>
    <rect y="700" x="406" height="14" width="14" fill="#757575"/>
    <rect y="700" x="420" height="14" width="14" fill="#757575"/>
    <rect y="700" x="532" height="14" width="14" fill="#757575"/>
    <rect y="714" x="0" height="14" width="14" fill="#757575"/>
    <rect y="714" x="84" height="14" width="14" fill="#757575"/>
    <rect y="714" x="112" height="14" width="14" fill="#757575"/>
    <rect y="714" x="280" height="14" width="14" fill="#757575"/>
    <rect y="714" x="294" height="14" width="14" fill="#757575"/>
    <rect y="714" x="308" height="14" width="14" fill="#757575"/>
    <rect y="714" x="406" height="14" width="14" fill="#757575"/>
    <rect y="714" x="532" height="14" width="14" fill="#757575"/>
    <rect y="728" x="0" height="14" width="14" fill="#757575"/>
    <rect y="728" x="84" height="14" width="14" fill="#757575"/>
    <rect y="728" x="112" height="14" width="14" fill="#757575"/>
    <rect y="728" x="126" height="14" width="14" fill="#757575"/>
    <rect y="728" x="532" height="14" width="14" fill="#757575"/>
    <rect y="742" x="0" height="14" width="14" fill="#757575"/>
    <rect y="742" x="532" height="14" width="14" fill="#757575"/>
    <rect y="756" x="0" height="14" width="14" fill="#757575"/>
    <rect y="756" x="532" height="14" width="14" fill="#757575"/>
    <rect y="770" x="0" height="14" width="14" fill="#757575"/>
    <rect y="770" x="28" height="14" width="14" fill="#757575"/>
    <rect y="770" x="42" height="14" width="14" fill="#757575"/>
    <rect y="770" x="84" height="14" width="14" fill="#757575"/>
    <rect y="770" x="98" height="14" width="14" fill="#757575"/>
    <rect y="770" x="112" height="14" width="14" fill="#757575"/>
    <rect y="770" x="126" height="14" width="14" fill="#757575"/>
    <rect y="770" x="182" height="14" width="14" fill="#757575"/>
    <rect y="770" x="280" height="14" width="14" fill="#757575"/>
    <rect y="770" x="294" height="14" width="14" fill="#757575"/>
    <rect y="770" x="308" height="14" width="14" fill="#757575"/>
    <rect y="770" x="420" height="14" width="14" fill="#757575"/>
    <rect y="770" x="434" height="14" width="14" fill="#757575"/>
    <rect y="770" x="532" height="14" width="14" fill="#757575"/>
    <rect y="784" x="0" height="14" width="14" fill="#757575"/>
    <rect y="784" x="28" height="14" width="14" fill="#757575"/>
    <rect y="784" x="84" height="14" width="14" fill="#757575"/>
    <rect y="784" x="98" height="14" width="14" fill="#757575"/>
    <rect y="784" x="168" height="14" width="14" fill="#757575"/>
    <rect y="784" x="182" height="14" width="14" fill="#757575"/>
    <rect y="784" x="280" height="14" width="14" fill="#757575"/>
    <rect y="784" x="406" height="14" width="14" fill="#757575"/>
    <rect y="784" x="434" height="14" width="14" fill="#757575"/>
    <rect y="784" x="532" height="14" width="14" fill="#757575"/>
    <rect y="798" x="0" height="14" width="14" fill="#757575"/>
    <rect y="798" x="84" height="14" width="14" fill="#757575"/>
    <rect y="798" x="112" height="14" width="14" fill="#757575"/>
    <rect y="798" x="168" height="14" width="14" fill="#757575"/>
    <rect y="798" x="280" height="14" width="14" fill="#757575"/>
    <rect y="798" x="294" height="14" width="14" fill="#757575"/>
    <rect y="798" x="308" height="14" width="14" fill="#757575"/>
    <rect y="798" x="406" height="14" width="14" fill="#757575"/>
    <rect y="798" x="532" height="14" width="14" fill="#757575"/>
    <rect y="812" x="0" height="14" width="14" fill="#757575"/>
    <rect y="812" x="84" height="14" width="14" fill="#757575"/>
    <rect y="812" x="112" height="14" width="14" fill="#757575"/>
    <rect y="812" x="126" height="14" width="14" fill="#757575"/>
    <rect y="812" x="406" height="14" width="14" fill="#757575"/>
    <rect y="812" x="532" height="14" width="14" fill="#757575"/>
    <rect y="826" x="0" height="14" width="14" fill="#757575"/>
    <rect y="826" x="532" height="14" width="14" fill="#757575"/>
    <rect y="840" x="0" height="14" width="14" fill="#757575"/>
    <rect y="840" x="532" height="14" width="14" fill="#757575"/>
    <rect y="854" x="0" height="14" width="14" fill="#757575"/>
    <rect y="854" x="28" height="14" width="14" fill="#757575"/>
    <rect y="854" x="42" height="14" width="14" fill="#757575"/>
    <rect y="854" x="84" height="14" width="14" fill="#757575"/>
    <rect y="854" x="98" height="14" width="14" fill="#757575"/>
    <rect y="854" x="112" height="14" width="14" fill="#757575"/>
    <rect y="854" x="126" height="14" width="14" fill="#757575"/>
    <rect y="854" x="182" height="14" width="14" fill="#757575"/>
    <rect y="854" x="196" height="14" width="14" fill="#757575"/>
    <rect y="854" x="294" height="14" width="14" fill="#757575"/>
    <rect y="854" x="308" height="14" width="14" fill="#757575"/>
    <rect y="854" x="322" height="14" width="14" fill="#757575"/>
    <rect y="854" x="434" height="14" width="14" fill="#757575"/>
    <rect y="854" x="448" height="14" width="14" fill="#757575"/>
    <rect y="854" x="532" height="14" width="14" fill="#757575"/>
    <rect y="868" x="0" height="14" width="14" fill="#757575"/>
    <rect y="868" x="28" height="14" width="14" fill="#757575"/>
    <rect y="868" x="84" height="14" width="14" fill="#757575"/>
    <rect y="868" x="98" height="14" width="14" fill="#757575"/>
    <rect y="868" x="168" height="14" width="14" fill="#757575"/>
    <rect y="868" x="196" height="14" width="14" fill="#757575"/>
    <rect y="868" x="294" height="14" width="14" fill="#757575"/>
    <rect y="868" x="420" height="14" width="14" fill="#757575"/>
    <rect y="868" x="434" height="14" width="14" fill="#757575"/>
    <rect y="868" x="448" height="14" width="14" fill="#757575"/>
    <rect y="868" x="532" height="14" width="14" fill="#757575"/>
    <rect y="882" x="0" height="14" width="14" fill="#757575"/>
    <rect y="882" x="84" height="14" width="14" fill="#757575"/>
    <rect y="882" x="112" height="14" width="14" fill="#757575"/>
    <rect y="882" x="168" height="14" width="14" fill="#757575"/>
    <rect y="882" x="294" height="14" width="14" fill="#757575"/>
    <rect y="882" x="308" height="14" width="14" fill="#757575"/>
    <rect y="882" x="322" height="14" width="14" fill="#757575"/>
    <rect y="882" x="420" height="14" width="14" fill="#757575"/>
    <rect y="882" x="532" height="14" width="14" fill="#757575"/>
    <rect y="896" x="0" height="14" width="14" fill="#757575"/>
    <rect y="896" x="84" height="14" width="14" fill="#757575"/>
    <rect y="896" x="112" height="14" width="14" fill="#757575"/>
    <rect y="896" x="126" height="14" width="14" fill="#757575"/>
    <rect y="896" x="168" height="14" width="14" fill="#757575"/>
    <rect y="896" x="420" height="14" width="14" fill="#757575"/>
    <rect y="896" x="532" height="14" width="14" fill="#757575"/>
    <rect y="910" x="0" height="14" width="14" fill="#757575"/>
    <rect y="910" x="532" height="14" width="14" fill="#757575"/>
    <rect y="924" x="0" height="14" width="14" fill="#757575"/>
    <rect y="924" x="532" height="14" width="14" fill="#757575"/>
    <rect y="938" x="0" height="14" width="14" fill="#757575"/>
    <rect y="938" x="532" height="14" width="14" fill="#757575"/>
    <rect y="952" x="0" height="14" width="14" fill="#757575"/>
    <rect y="952" x="28" height="14" width="14" fill="#757575"/>
    <rect y="952" x="56" height="14" width="14" fill="#757575"/>
    <rect y="952" x="84" height="14" width="14" fill="#757575"/>
    <rect y="952" x="112" height="14" width="14" fill="#757575"/>
    <rect y="952" x="532" height="14" width="14" fill="#757575"/>
    <rect y="966" x="0" height="14" width="14" fill="#757575"/>
    <rect y="966" x="532" height="14" width="14" fill="#757575"/>
    <rect y="980" x="0" height="14" width="14" fill="#757575"/>
    <rect y="980" x="14" height="14" width="14" fill="#757575"/>
    <rect y="980" x="28" height="14" width="14" fill="#757575"/>
    <rect y="980" x="42" height="14" width="14" fill="#757575"/>
    <rect y="980" x="56" height="14" width="14" fill="#757575"/>
    <rect y="980" x="70" height="14" width="14" fill="#757575"/>
    <rect y="980" x="84" height="14" width="14" fill="#757575"/>
    <rect y="980" x="98" height="14" width="14" fill="#757575"/>
    <rect y="980" x="112" height="14" width="14" fill="#757575"/>
    <rect y="980" x="126" height="14" width="14" fill="#757575"/>
    <rect y="980" x="140" height="14" width="14" fill="#757575"/>
    <rect y="980" x="154" height="14" width="14" fill="#757575"/>
    <rect y="980" x="168" height="14" width="14" fill="#757575"/>
    <rect y="980" x="182" height="14" width="14" fill="#757575"/>
    <rect y="980" x="196" height="14" width="14" fill="#757575"/>
    <rect y="980" x="210" height="14" width="14" fill="#757575"/>
    <rect y="980" x="224" height="14" width="14" fill="#757575"/>
    <rect y="980" x="238" height="14" width="14" fill="#757575"/>
    <rect y="980" x="252" height="14" width="14" fill="#757575"/>
    <rect y="980" x="266" height="14" width="14" fill="#757575"/>
    <rect y="980" x="280" height="14" width="14" fill="#757575"/>
    <rect y="980" x="294" height="14" width="14" fill="#757575"/>
    <rect y="980" x="308" height="14" width="14" fill="#757575"/>
    <rect y="980" x="322" height="14" width="14" fill="#757575"/>
    <rect y="980" x="336" height="14" width="14" fill="#757575"/>
    <rect y="980" x="350" height="14" width="14" fill="#757575"/>
    <rect y="980" x="364" height="14" width="14" fill="#757575"/>
    <rect y="980" x="378" height="14" width="14" fill="#757575"/>
    <rect y="980" x="392" height="14" width="14" fill="#757575"/>
    <rect y="980" x="406" height="14" width="14" fill="#757575"/>
    <rect y="980" x="420" height="14" width="14" fill="#757575"/>
    <rect y="980" x="434" height="14" width="14" fill="#757575"/>
    <rect y="980" x="448" height="14" width="14" fill="#757575"/>
    <rect y="980" x="462" height="14" width="14" fill="#757575"/>
    <rect y="980" x="476" height="14" width="14" fill="#757575"/>
    <rect y="980" x="490" height="14" width="14" fill="#757575"/>
    <rect y="980" x="504" height="14" width="14" fill="#757575"/>
    <rect y="980" x="518" height="14" width="14" fill="#757575"/>
    <rect y="980" x="532" height="14" width="14" fill="#757575"/>
    
  <rect y="28" x="28" height="56" width="56" fill="#827717" fill-opacity="0.5"/>
<text y="56" x="56" dominant-baseline='middle' text-anchor='middle' fill='white' style='paint-order: stroke; fill: white; stroke: black; stroke-width: 1px; font-family="monospace"; font-size: 18px'><tspan x="56" dy="0em">Pred</tspan></text>
<rect y="112" x="28" height="28" width="28" fill="#827717" fill-opacity="0.5"/>
<text y="126" x="42" dominant-baseline='middle' text-anchor='middle' fill='white' style='paint-order: stroke; fill: white; stroke: black; stroke-width: 1px; font-family="monospace"; font-size: 18px'><tspan x="42" dy="0em">ap</tspan></text>
<rect y="112" x="84" height="56" width="56" fill="#827717" fill-opacity="0.5"/>
<text y="140" x="112" dominant-baseline='middle' text-anchor='middle' fill='white' style='paint-order: stroke; fill: white; stroke: black; stroke-width: 1px; font-family="monospace"; font-size: 18px'><tspan x="112" dy="0em">Pred</tspan></text>
<rect y="112" x="168" height="28" width="28" fill="#004D40" fill-opacity="0.5"/>
<text y="126" x="182" dominant-baseline='middle' text-anchor='middle' fill='white' style='paint-order: stroke; fill: white; stroke: black; stroke-width: 1px; font-family="monospace"; font-size: 18px'><tspan x="182" dy="-1em">1</tspan>
<tspan x="182" dy="1.1em">H</tspan></text>
<rect y="112" x="280" height="42" width="42" fill="#827717" fill-opacity="0.5"/>
<text y="133" x="301" dominant-baseline='middle' text-anchor='middle' fill='white' style='paint-order: stroke; fill: white; stroke: black; stroke-width: 1px; font-family="monospace"; font-size: 18px'><tspan x="301" dy="0em">is</tspan></text>
<rect y="112" x="406" height="28" width="28" fill="#004D40" fill-opacity="0.5"/>
<text y="126" x="420" dominant-baseline='middle' text-anchor='middle' fill='white' style='paint-order: stroke; fill: white; stroke: black; stroke-width: 1px; font-family="monospace"; font-size: 18px'><tspan x="420" dy="0em">0</tspan></text>
<rect y="196" x="28" height="28" width="28" fill="#827717" fill-opacity="0.5"/>
<text y="210" x="42" dominant-baseline='middle' text-anchor='middle' fill='white' style='paint-order: stroke; fill: white; stroke: black; stroke-width: 1px; font-family="monospace"; font-size: 18px'><tspan x="42" dy="0em">ap</tspan></text>
<rect y="196" x="84" height="56" width="56" fill="#827717" fill-opacity="0.5"/>
<text y="224" x="112" dominant-baseline='middle' text-anchor='middle' fill='white' style='paint-order: stroke; fill: white; stroke: black; stroke-width: 1px; font-family="monospace"; font-size: 18px'><tspan x="112" dy="0em">Pred</tspan></text>
<rect y="196" x="168" height="42" width="42" fill="#004D40" fill-opacity="0.5"/>
<text y="217" x="189" dominant-baseline='middle' text-anchor='middle' fill='white' style='paint-order: stroke; fill: white; stroke: black; stroke-width: 1px; font-family="monospace"; font-size: 18px'><tspan x="189" dy="-1em">2</tspan>
<tspan x="189" dy="1.1em">He</tspan></text>
<rect y="196" x="294" height="42" width="42" fill="#827717" fill-opacity="0.5"/>
<text y="217" x="315" dominant-baseline='middle' text-anchor='middle' fill='white' style='paint-order: stroke; fill: white; stroke: black; stroke-width: 1px; font-family="monospace"; font-size: 18px'><tspan x="315" dy="0em">is</tspan></text>
<rect y="196" x="420" height="28" width="28" fill="#004D40" fill-opacity="0.5"/>
<text y="210" x="434" dominant-baseline='middle' text-anchor='middle' fill='white' style='paint-order: stroke; fill: white; stroke: black; stroke-width: 1px; font-family="monospace"; font-size: 18px'><tspan x="434" dy="-1em">1</tspan>
<tspan x="434" dy="1.1em">H</tspan></text>
<rect y="280" x="28" height="28" width="28" fill="#827717" fill-opacity="0.5"/>
<text y="294" x="42" dominant-baseline='middle' text-anchor='middle' fill='white' style='paint-order: stroke; fill: white; stroke: black; stroke-width: 1px; font-family="monospace"; font-size: 18px'><tspan x="42" dy="0em">ap</tspan></text>
<rect y="280" x="84" height="56" width="56" fill="#827717" fill-opacity="0.5"/>
<text y="308" x="112" dominant-baseline='middle' text-anchor='middle' fill='white' style='paint-order: stroke; fill: white; stroke: black; stroke-width: 1px; font-family="monospace"; font-size: 18px'><tspan x="112" dy="0em">Pred</tspan></text>
<rect y="280" x="168" height="42" width="42" fill="#004D40" fill-opacity="0.5"/>
<text y="301" x="189" dominant-baseline='middle' text-anchor='middle' fill='white' style='paint-order: stroke; fill: white; stroke: black; stroke-width: 1px; font-family="monospace"; font-size: 18px'><tspan x="189" dy="-1em">3</tspan>
<tspan x="189" dy="1.1em">Li</tspan></text>
<rect y="280" x="294" height="42" width="42" fill="#827717" fill-opacity="0.5"/>
<text y="301" x="315" dominant-baseline='middle' text-anchor='middle' fill='white' style='paint-order: stroke; fill: white; stroke: black; stroke-width: 1px; font-family="monospace"; font-size: 18px'><tspan x="315" dy="0em">is</tspan></text>
<rect y="280" x="420" height="42" width="42" fill="#004D40" fill-opacity="0.5"/>
<text y="301" x="441" dominant-baseline='middle' text-anchor='middle' fill='white' style='paint-order: stroke; fill: white; stroke: black; stroke-width: 1px; font-family="monospace"; font-size: 18px'><tspan x="441" dy="-1em">2</tspan>
<tspan x="441" dy="1.1em">He</tspan></text>
<rect y="364" x="28" height="28" width="28" fill="#827717" fill-opacity="0.5"/>
<text y="378" x="42" dominant-baseline='middle' text-anchor='middle' fill='white' style='paint-order: stroke; fill: white; stroke: black; stroke-width: 1px; font-family="monospace"; font-size: 18px'><tspan x="42" dy="0em">ap</tspan></text>
<rect y="364" x="84" height="56" width="56" fill="#827717" fill-opacity="0.5"/>
<text y="392" x="112" dominant-baseline='middle' text-anchor='middle' fill='white' style='paint-order: stroke; fill: white; stroke: black; stroke-width: 1px; font-family="monospace"; font-size: 18px'><tspan x="112" dy="0em">Pred</tspan></text>
<rect y="364" x="168" height="42" width="42" fill="#004D40" fill-opacity="0.5"/>
<text y="385" x="189" dominant-baseline='middle' text-anchor='middle' fill='white' style='paint-order: stroke; fill: white; stroke: black; stroke-width: 1px; font-family="monospace"; font-size: 18px'><tspan x="189" dy="-1em">4</tspan>
<tspan x="189" dy="1.1em">Be</tspan></text>
<rect y="364" x="294" height="42" width="42" fill="#827717" fill-opacity="0.5"/>
<text y="385" x="315" dominant-baseline='middle' text-anchor='middle' fill='white' style='paint-order: stroke; fill: white; stroke: black; stroke-width: 1px; font-family="monospace"; font-size: 18px'><tspan x="315" dy="0em">is</tspan></text>
<rect y="364" x="420" height="42" width="42" fill="#004D40" fill-opacity="0.5"/>
<text y="385" x="441" dominant-baseline='middle' text-anchor='middle' fill='white' style='paint-order: stroke; fill: white; stroke: black; stroke-width: 1px; font-family="monospace"; font-size: 18px'><tspan x="441" dy="-1em">3</tspan>
<tspan x="441" dy="1.1em">Li</tspan></text>
<rect y="518" x="28" height="28" width="28" fill="#827717" fill-opacity="0.5"/>
<text y="532" x="42" dominant-baseline='middle' text-anchor='middle' fill='white' style='paint-order: stroke; fill: white; stroke: black; stroke-width: 1px; font-family="monospace"; font-size: 18px'><tspan x="42" dy="0em">ap</tspan></text>
<rect y="518" x="84" height="56" width="56" fill="#827717" fill-opacity="0.5"/>
<text y="546" x="112" dominant-baseline='middle' text-anchor='middle' fill='white' style='paint-order: stroke; fill: white; stroke: black; stroke-width: 1px; font-family="monospace"; font-size: 18px'><tspan x="112" dy="0em">Pred</tspan></text>
<rect y="518" x="168" height="70" width="70" fill="#004D40" fill-opacity="0.5"/>
<text y="553" x="203" dominant-baseline='middle' text-anchor='middle' fill='white' style='paint-order: stroke; fill: white; stroke: black; stroke-width: 1px; font-family="monospace"; font-size: 18px'><tspan x="203" dy="0em">1024</tspan></text>
<rect y="518" x="322" height="42" width="42" fill="#827717" fill-opacity="0.5"/>
<text y="539" x="343" dominant-baseline='middle' text-anchor='middle' fill='white' style='paint-order: stroke; fill: white; stroke: black; stroke-width: 1px; font-family="monospace"; font-size: 18px'><tspan x="343" dy="0em">is</tspan></text>
<rect y="518" x="448" height="70" width="70" fill="#004D40" fill-opacity="0.5"/>
<text y="553" x="483" dominant-baseline='middle' text-anchor='middle' fill='white' style='paint-order: stroke; fill: white; stroke: black; stroke-width: 1px; font-family="monospace"; font-size: 18px'><tspan x="483" dy="0em">1023</tspan></text>
<rect y="686" x="28" height="28" width="28" fill="#827717" fill-opacity="0.5"/>
<text y="700" x="42" dominant-baseline='middle' text-anchor='middle' fill='white' style='paint-order: stroke; fill: white; stroke: black; stroke-width: 1px; font-family="monospace"; font-size: 18px'><tspan x="42" dy="0em">ap</tspan></text>
<rect y="686" x="84" height="56" width="56" fill="#827717" fill-opacity="0.5"/>
<text y="714" x="112" dominant-baseline='middle' text-anchor='middle' fill='white' style='paint-order: stroke; fill: white; stroke: black; stroke-width: 1px; font-family="monospace"; font-size: 18px'><tspan x="112" dy="0em">Pred</tspan></text>
<rect y="686" x="168" height="28" width="28" fill="#004D40" fill-opacity="0.5"/>
<text y="700" x="182" dominant-baseline='middle' text-anchor='middle' fill='white' style='paint-order: stroke; fill: white; stroke: black; stroke-width: 1px; font-family="monospace"; font-size: 18px'><tspan x="182" dy="0em">0</tspan></text>
<rect y="686" x="280" height="42" width="42" fill="#827717" fill-opacity="0.5"/>
<text y="707" x="301" dominant-baseline='middle' text-anchor='middle' fill='white' style='paint-order: stroke; fill: white; stroke: black; stroke-width: 1px; font-family="monospace"; font-size: 18px'><tspan x="301" dy="0em">is</tspan></text>
<rect y="686" x="406" height="42" width="28" fill="#004D40" fill-opacity="0.5"/>
<text y="707" x="420" dominant-baseline='middle' text-anchor='middle' fill='white' style='paint-order: stroke; fill: white; stroke: black; stroke-width: 1px; font-family="monospace"; font-size: 18px'><tspan x="420" dy="0em">-1</tspan></text>
<rect y="770" x="28" height="28" width="28" fill="#827717" fill-opacity="0.5"/>
<text y="784" x="42" dominant-baseline='middle' text-anchor='middle' fill='white' style='paint-order: stroke; fill: white; stroke: black; stroke-width: 1px; font-family="monospace"; font-size: 18px'><tspan x="42" dy="0em">ap</tspan></text>
<rect y="770" x="84" height="56" width="56" fill="#827717" fill-opacity="0.5"/>
<text y="798" x="112" dominant-baseline='middle' text-anchor='middle' fill='white' style='paint-order: stroke; fill: white; stroke: black; stroke-width: 1px; font-family="monospace"; font-size: 18px'><tspan x="112" dy="0em">Pred</tspan></text>
<rect y="770" x="168" height="42" width="28" fill="#004D40" fill-opacity="0.5"/>
<text y="791" x="182" dominant-baseline='middle' text-anchor='middle' fill='white' style='paint-order: stroke; fill: white; stroke: black; stroke-width: 1px; font-family="monospace"; font-size: 18px'><tspan x="182" dy="0em">-1</tspan></text>
<rect y="770" x="280" height="42" width="42" fill="#827717" fill-opacity="0.5"/>
<text y="791" x="301" dominant-baseline='middle' text-anchor='middle' fill='white' style='paint-order: stroke; fill: white; stroke: black; stroke-width: 1px; font-family="monospace"; font-size: 18px'><tspan x="301" dy="0em">is</tspan></text>
<rect y="770" x="406" height="56" width="42" fill="#004D40" fill-opacity="0.5"/>
<text y="798" x="427" dominant-baseline='middle' text-anchor='middle' fill='white' style='paint-order: stroke; fill: white; stroke: black; stroke-width: 1px; font-family="monospace"; font-size: 18px'><tspan x="427" dy="0em">-2</tspan></text>
<rect y="854" x="28" height="28" width="28" fill="#827717" fill-opacity="0.5"/>
<text y="868" x="42" dominant-baseline='middle' text-anchor='middle' fill='white' style='paint-order: stroke; fill: white; stroke: black; stroke-width: 1px; font-family="monospace"; font-size: 18px'><tspan x="42" dy="0em">ap</tspan></text>
<rect y="854" x="84" height="56" width="56" fill="#827717" fill-opacity="0.5"/>
<text y="882" x="112" dominant-baseline='middle' text-anchor='middle' fill='white' style='paint-order: stroke; fill: white; stroke: black; stroke-width: 1px; font-family="monospace"; font-size: 18px'><tspan x="112" dy="0em">Pred</tspan></text>
<rect y="854" x="168" height="56" width="42" fill="#004D40" fill-opacity="0.5"/>
<text y="882" x="189" dominant-baseline='middle' text-anchor='middle' fill='white' style='paint-order: stroke; fill: white; stroke: black; stroke-width: 1px; font-family="monospace"; font-size: 18px'><tspan x="189" dy="0em">-2</tspan></text>
<rect y="854" x="294" height="42" width="42" fill="#827717" fill-opacity="0.5"/>
<text y="875" x="315" dominant-baseline='middle' text-anchor='middle' fill='white' style='paint-order: stroke; fill: white; stroke: black; stroke-width: 1px; font-family="monospace"; font-size: 18px'><tspan x="315" dy="0em">is</tspan></text>
<rect y="854" x="420" height="56" width="42" fill="#004D40" fill-opacity="0.5"/>
<text y="882" x="441" dominant-baseline='middle' text-anchor='middle' fill='white' style='paint-order: stroke; fill: white; stroke: black; stroke-width: 1px; font-family="monospace"; font-size: 18px'><tspan x="441" dy="0em">-3</tspan></text>

</svg>
