<?xml version="1.0"?>
<svg xmlns="http://www.w3.org/2000/svg" height="322" width="826">
  <rect y="0" x="0" height="322" width="826" fill="black" />
  <rect y="0" x="0" height="14" width="14" fill="#757575"/>
    <rect y="0" x="14" height="14" width="14" fill="#757575"/>
    <rect y="0" x="28" height="14" width="14" fill="#757575"/>
    <rect y="0" x="42" height="14" width="14" fill="#757575"/>
    <rect y="0" x="56" height="14" width="14" fill="#757575"/>
    <rect y="0" x="70" height="14" width="14" fill="#757575"/>
    <rect y="0" x="84" height="14" width="14" fill="#757575"/>
    <rect y="0" x="98" height="14" width="14" fill="#757575"/>
    <rect y="0" x="112" height="14" width="14" fill="#757575"/>
    <rect y="0" x="126" height="14" width="14" fill="#757575"/>
    <rect y="0" x="140" height="14" width="14" fill="#757575"/>
    <rect y="0" x="154" height="14" width="14" fill="#757575"/>
    <rect y="0" x="168" height="14" width="14" fill="#757575"/>
    <rect y="0" x="182" height="14" width="14" fill="#757575"/>
    <rect y="0" x="196" height="14" width="14" fill="#757575"/>
    <rect y="0" x="210" height="14" width="14" fill="#757575"/>
    <rect y="0" x="224" height="14" width="14" fill="#757575"/>
    <rect y="0" x="238" height="14" width="14" fill="#757575"/>
    <rect y="0" x="252" height="14" width="14" fill="#757575"/>
    <rect y="0" x="266" height="14" width="14" fill="#757575"/>
    <rect y="0" x="280" height="14" width="14" fill="#757575"/>
    <rect y="0" x="294" height="14" width="14" fill="#757575"/>
    <rect y="0" x="308" height="14" width="14" fill="#757575"/>
    <rect y="0" x="322" height="14" width="14" fill="#757575"/>
    <rect y="0" x="336" height="14" width="14" fill="#757575"/>
    <rect y="0" x="350" height="14" width="14" fill="#757575"/>
    <rect y="0" x="364" height="14" width="14" fill="#757575"/>
    <rect y="0" x="378" height="14" width="14" fill="#757575"/>
    <rect y="0" x="392" height="14" width="14" fill="#757575"/>
    <rect y="0" x="406" height="14" width="14" fill="#757575"/>
    <rect y="0" x="420" height="14" width="14" fill="#757575"/>
    <rect y="0" x="434" height="14" width="14" fill="#757575"/>
    <rect y="0" x="448" height="14" width="14" fill="#757575"/>
    <rect y="0" x="462" height="14" width="14" fill="#757575"/>
    <rect y="0" x="476" height="14" width="14" fill="#757575"/>
    <rect y="0" x="490" height="14" width="14" fill="#757575"/>
    <rect y="0" x="504" height="14" width="14" fill="#757575"/>
    <rect y="0" x="518" height="14" width="14" fill="#757575"/>
    <rect y="0" x="532" height="14" width="14" fill="#757575"/>
    <rect y="0" x="546" height="14" width="14" fill="#757575"/>
    <rect y="0" x="560" height="14" width="14" fill="#757575"/>
    <rect y="0" x="574" height="14" width="14" fill="#757575"/>
    <rect y="0" x="588" height="14" width="14" fill="#757575"/>
    <rect y="0" x="602" height="14" width="14" fill="#757575"/>
    <rect y="0" x="616" height="14" width="14" fill="#757575"/>
    <rect y="0" x="630" height="14" width="14" fill="#757575"/>
    <rect y="0" x="644" height="14" width="14" fill="#757575"/>
    <rect y="0" x="658" height="14" width="14" fill="#757575"/>
    <rect y="0" x="672" height="14" width="14" fill="#757575"/>
    <rect y="0" x="686" height="14" width="14" fill="#757575"/>
    <rect y="0" x="700" height="14" width="14" fill="#757575"/>
    <rect y="0" x="714" height="14" width="14" fill="#757575"/>
    <rect y="0" x="728" height="14" width="14" fill="#757575"/>
    <rect y="0" x="742" height="14" width="14" fill="#757575"/>
    <rect y="0" x="756" height="14" width="14" fill="#757575"/>
    <rect y="0" x="770" height="14" width="14" fill="#757575"/>
    <rect y="0" x="784" height="14" width="14" fill="#757575"/>
    <rect y="0" x="798" height="14" width="14" fill="#757575"/>
    <rect y="0" x="812" height="14" width="14" fill="#757575"/>
    <rect y="14" x="0" height="14" width="14" fill="#757575"/>
    <rect y="14" x="812" height="14" width="14" fill="#757575"/>
    <rect y="28" x="0" height="14" width="14" fill="#757575"/>
    <rect y="28" x="28" height="14" width="14" fill="#757575"/>
    <rect y="28" x="42" height="14" width="14" fill="#757575"/>
    <rect y="28" x="56" height="14" width="14" fill="#757575"/>
    <rect y="28" x="70" height="14" width="14" fill="#757575"/>
    <rect y="28" x="84" height="14" width="14" fill="#757575"/>
    <rect y="28" x="812" height="14" width="14" fill="#757575"/>
    <rect y="42" x="0" height="14" width="14" fill="#757575"/>
    <rect y="42" x="28" height="14" width="14" fill="#757575"/>
    <rect y="42" x="56" height="14" width="14" fill="#757575"/>
    <rect y="42" x="70" height="14" width="14" fill="#757575"/>
    <rect y="42" x="84" height="14" width="14" fill="#757575"/>
    <rect y="42" x="812" height="14" width="14" fill="#757575"/>
    <rect y="56" x="0" height="14" width="14" fill="#757575"/>
    <rect y="56" x="28" height="14" width="14" fill="#757575"/>
    <rect y="56" x="56" height="14" width="14" fill="#757575"/>
    <rect y="56" x="84" height="14" width="14" fill="#757575"/>
    <rect y="56" x="812" height="14" width="14" fill="#757575"/>
    <rect y="70" x="0" height="14" width="14" fill="#757575"/>
    <rect y="70" x="28" height="14" width="14" fill="#757575"/>
    <rect y="70" x="56" height="14" width="14" fill="#757575"/>
    <rect y="70" x="84" height="14" width="14" fill="#757575"/>
    <rect y="70" x="812" height="14" width="14" fill="#757575"/>
    <rect y="84" x="0" height="14" width="14" fill="#757575"/>
    <rect y="84" x="28" height="14" width="14" fill="#757575"/>
    <rect y="84" x="42" height="14" width="14" fill="#757575"/>
    <rect y="84" x="56" height="14" width="14" fill="#757575"/>
    <rect y="84" x="70" height="14" width="14" fill="#757575"/>
    <rect y="84" x="84" height="14" width="14" fill="#757575"/>
    <rect y="84" x="812" height="14" width="14" fill="#757575"/>
    <rect y="98" x="0" height="14" width="14" fill="#757575"/>
    <rect y="98" x="812" height="14" width="14" fill="#757575"/>
    <rect y="112" x="0" height="14" width="14" fill="#757575"/>
    <rect y="112" x="812" height="14" width="14" fill="#757575"/>
    <rect y="126" x="0" height="14" width="14" fill="#757575"/>
    <rect y="126" x="28" height="14" width="14" fill="#757575"/>
    <rect y="126" x="42" height="14" width="14" fill="#757575"/>
    <rect y="126" x="84" height="14" width="14" fill="#757575"/>
    <rect y="126" x="98" height="14" width="14" fill="#757575"/>
    <rect y="126" x="112" height="14" width="14" fill="#757575"/>
    <rect y="126" x="126" height="14" width="14" fill="#757575"/>
    <rect y="126" x="140" height="14" width="14" fill="#757575"/>
    <rect y="126" x="182" height="14" width="14" fill="#757575"/>
    <rect y="126" x="196" height="14" width="14" fill="#757575"/>
    <rect y="126" x="238" height="14" width="14" fill="#757575"/>
    <rect y="126" x="252" height="14" width="14" fill="#757575"/>
    <rect y="126" x="294" height="14" width="14" fill="#757575"/>
    <rect y="126" x="308" height="14" width="14" fill="#757575"/>
    <rect y="126" x="322" height="14" width="14" fill="#757575"/>
    <rect y="126" x="336" height="14" width="14" fill="#757575"/>
    <rect y="126" x="350" height="14" width="14" fill="#757575"/>
    <rect y="126" x="392" height="14" width="14" fill="#757575"/>
    <rect y="126" x="406" height="14" width="14" fill="#757575"/>
    <rect y="126" x="420" height="14" width="14" fill="#757575"/>
    <rect y="126" x="434" height="14" width="14" fill="#757575"/>
    <rect y="126" x="476" height="14" width="14" fill="#757575"/>
    <rect y="126" x="490" height="14" width="14" fill="#757575"/>
    <rect y="126" x="504" height="14" width="14" fill="#757575"/>
    <rect y="126" x="518" height="14" width="14" fill="#757575"/>
    <rect y="126" x="616" height="14" width="14" fill="#757575"/>
    <rect y="126" x="630" height="14" width="14" fill="#757575"/>
    <rect y="126" x="644" height="14" width="14" fill="#757575"/>
    <rect y="126" x="742" height="14" width="14" fill="#757575"/>
    <rect y="126" x="756" height="14" width="14" fill="#757575"/>
    <rect y="126" x="770" height="14" width="14" fill="#757575"/>
    <rect y="126" x="784" height="14" width="14" fill="#757575"/>
    <rect y="126" x="812" height="14" width="14" fill="#757575"/>
    <rect y="140" x="0" height="14" width="14" fill="#757575"/>
    <rect y="140" x="28" height="14" width="14" fill="#757575"/>
    <rect y="140" x="84" height="14" width="14" fill="#757575"/>
    <rect y="140" x="112" height="14" width="14" fill="#757575"/>
    <rect y="140" x="126" height="14" width="14" fill="#757575"/>
    <rect y="140" x="140" height="14" width="14" fill="#757575"/>
    <rect y="140" x="182" height="14" width="14" fill="#757575"/>
    <rect y="140" x="238" height="14" width="14" fill="#757575"/>
    <rect y="140" x="294" height="14" width="14" fill="#757575"/>
    <rect y="140" x="322" height="14" width="14" fill="#757575"/>
    <rect y="140" x="350" height="14" width="14" fill="#757575"/>
    <rect y="140" x="392" height="14" width="14" fill="#757575"/>
    <rect y="140" x="406" height="14" width="14" fill="#757575"/>
    <rect y="140" x="434" height="14" width="14" fill="#757575"/>
    <rect y="140" x="476" height="14" width="14" fill="#757575"/>
    <rect y="140" x="490" height="14" width="14" fill="#757575"/>
    <rect y="140" x="518" height="14" width="14" fill="#757575"/>
    <rect y="140" x="616" height="14" width="14" fill="#757575"/>
    <rect y="140" x="742" height="14" width="14" fill="#757575"/>
    <rect y="140" x="756" height="14" width="14" fill="#757575"/>
    <rect y="140" x="784" height="14" width="14" fill="#757575"/>
    <rect y="140" x="812" height="14" width="14" fill="#757575"/>
    <rect y="154" x="0" height="14" width="14" fill="#757575"/>
    <rect y="154" x="84" height="14" width="14" fill="#757575"/>
    <rect y="154" x="112" height="14" width="14" fill="#757575"/>
    <rect y="154" x="140" height="14" width="14" fill="#757575"/>
    <rect y="154" x="294" height="14" width="14" fill="#757575"/>
    <rect y="154" x="322" height="14" width="14" fill="#757575"/>
    <rect y="154" x="350" height="14" width="14" fill="#757575"/>
    <rect y="154" x="392" height="14" width="14" fill="#757575"/>
    <rect y="154" x="420" height="14" width="14" fill="#757575"/>
    <rect y="154" x="434" height="14" width="14" fill="#757575"/>
    <rect y="154" x="476" height="14" width="14" fill="#757575"/>
    <rect y="154" x="518" height="14" width="14" fill="#757575"/>
    <rect y="154" x="616" height="14" width="14" fill="#757575"/>
    <rect y="154" x="630" height="14" width="14" fill="#757575"/>
    <rect y="154" x="644" height="14" width="14" fill="#757575"/>
    <rect y="154" x="742" height="14" width="14" fill="#757575"/>
    <rect y="154" x="770" height="14" width="14" fill="#757575"/>
    <rect y="154" x="784" height="14" width="14" fill="#757575"/>
    <rect y="154" x="812" height="14" width="14" fill="#757575"/>
    <rect y="168" x="0" height="14" width="14" fill="#757575"/>
    <rect y="168" x="84" height="14" width="14" fill="#757575"/>
    <rect y="168" x="112" height="14" width="14" fill="#757575"/>
    <rect y="168" x="140" height="14" width="14" fill="#757575"/>
    <rect y="168" x="294" height="14" width="14" fill="#757575"/>
    <rect y="168" x="322" height="14" width="14" fill="#757575"/>
    <rect y="168" x="350" height="14" width="14" fill="#757575"/>
    <rect y="168" x="392" height="14" width="14" fill="#757575"/>
    <rect y="168" x="406" height="14" width="14" fill="#757575"/>
    <rect y="168" x="420" height="14" width="14" fill="#757575"/>
    <rect y="168" x="434" height="14" width="14" fill="#757575"/>
    <rect y="168" x="476" height="14" width="14" fill="#757575"/>
    <rect y="168" x="490" height="14" width="14" fill="#757575"/>
    <rect y="168" x="504" height="14" width="14" fill="#757575"/>
    <rect y="168" x="518" height="14" width="14" fill="#757575"/>
    <rect y="168" x="742" height="14" width="14" fill="#757575"/>
    <rect y="168" x="756" height="14" width="14" fill="#757575"/>
    <rect y="168" x="770" height="14" width="14" fill="#757575"/>
    <rect y="168" x="784" height="14" width="14" fill="#757575"/>
    <rect y="168" x="812" height="14" width="14" fill="#757575"/>
    <rect y="182" x="0" height="14" width="14" fill="#757575"/>
    <rect y="182" x="84" height="14" width="14" fill="#757575"/>
    <rect y="182" x="98" height="14" width="14" fill="#757575"/>
    <rect y="182" x="112" height="14" width="14" fill="#757575"/>
    <rect y="182" x="126" height="14" width="14" fill="#757575"/>
    <rect y="182" x="140" height="14" width="14" fill="#757575"/>
    <rect y="182" x="294" height="14" width="14" fill="#757575"/>
    <rect y="182" x="308" height="14" width="14" fill="#757575"/>
    <rect y="182" x="322" height="14" width="14" fill="#757575"/>
    <rect y="182" x="336" height="14" width="14" fill="#757575"/>
    <rect y="182" x="350" height="14" width="14" fill="#757575"/>
    <rect y="182" x="812" height="14" width="14" fill="#757575"/>
    <rect y="196" x="0" height="14" width="14" fill="#757575"/>
    <rect y="196" x="812" height="14" width="14" fill="#757575"/>
    <rect y="210" x="0" height="14" width="14" fill="#757575"/>
    <rect y="210" x="812" height="14" width="14" fill="#757575"/>
    <rect y="224" x="0" height="14" width="14" fill="#757575"/>
    <rect y="224" x="28" height="14" width="14" fill="#757575"/>
    <rect y="224" x="42" height="14" width="14" fill="#757575"/>
    <rect y="224" x="84" height="14" width="14" fill="#757575"/>
    <rect y="224" x="98" height="14" width="14" fill="#757575"/>
    <rect y="224" x="112" height="14" width="14" fill="#757575"/>
    <rect y="224" x="126" height="14" width="14" fill="#757575"/>
    <rect y="224" x="140" height="14" width="14" fill="#757575"/>
    <rect y="224" x="182" height="14" width="14" fill="#757575"/>
    <rect y="224" x="196" height="14" width="14" fill="#757575"/>
    <rect y="224" x="210" height="14" width="14" fill="#757575"/>
    <rect y="224" x="224" height="14" width="14" fill="#757575"/>
    <rect y="224" x="238" height="14" width="14" fill="#757575"/>
    <rect y="224" x="336" height="14" width="14" fill="#757575"/>
    <rect y="224" x="350" height="14" width="14" fill="#757575"/>
    <rect y="224" x="364" height="14" width="14" fill="#757575"/>
    <rect y="224" x="462" height="14" width="14" fill="#757575"/>
    <rect y="224" x="476" height="14" width="14" fill="#757575"/>
    <rect y="224" x="518" height="14" width="14" fill="#757575"/>
    <rect y="224" x="532" height="14" width="14" fill="#757575"/>
    <rect y="224" x="546" height="14" width="14" fill="#757575"/>
    <rect y="224" x="560" height="14" width="14" fill="#757575"/>
    <rect y="224" x="574" height="14" width="14" fill="#757575"/>
    <rect y="224" x="616" height="14" width="14" fill="#757575"/>
    <rect y="224" x="630" height="14" width="14" fill="#757575"/>
    <rect y="224" x="644" height="14" width="14" fill="#757575"/>
    <rect y="224" x="812" height="14" width="14" fill="#757575"/>
    <rect y="238" x="0" height="14" width="14" fill="#757575"/>
    <rect y="238" x="28" height="14" width="14" fill="#757575"/>
    <rect y="238" x="84" height="14" width="14" fill="#757575"/>
    <rect y="238" x="112" height="14" width="14" fill="#757575"/>
    <rect y="238" x="126" height="14" width="14" fill="#757575"/>
    <rect y="238" x="140" height="14" width="14" fill="#757575"/>
    <rect y="238" x="182" height="14" width="14" fill="#757575"/>
    <rect y="238" x="196" height="14" width="14" fill="#757575"/>
    <rect y="238" x="238" height="14" width="14" fill="#757575"/>
    <rect y="238" x="336" height="14" width="14" fill="#757575"/>
    <rect y="238" x="462" height="14" width="14" fill="#757575"/>
    <rect y="238" x="518" height="14" width="14" fill="#757575"/>
    <rect y="238" x="532" height="14" width="14" fill="#757575"/>
    <rect y="238" x="574" height="14" width="14" fill="#757575"/>
    <rect y="238" x="616" height="14" width="14" fill="#757575"/>
    <rect y="238" x="644" height="14" width="14" fill="#757575"/>
    <rect y="238" x="812" height="14" width="14" fill="#757575"/>
    <rect y="252" x="0" height="14" width="14" fill="#757575"/>
    <rect y="252" x="84" height="14" width="14" fill="#757575"/>
    <rect y="252" x="112" height="14" width="14" fill="#757575"/>
    <rect y="252" x="140" height="14" width="14" fill="#757575"/>
    <rect y="252" x="182" height="14" width="14" fill="#757575"/>
    <rect y="252" x="210" height="14" width="14" fill="#757575"/>
    <rect y="252" x="238" height="14" width="14" fill="#757575"/>
    <rect y="252" x="336" height="14" width="14" fill="#757575"/>
    <rect y="252" x="350" height="14" width="14" fill="#757575"/>
    <rect y="252" x="364" height="14" width="14" fill="#757575"/>
    <rect y="252" x="518" height="14" width="14" fill="#757575"/>
    <rect y="252" x="546" height="14" width="14" fill="#757575"/>
    <rect y="252" x="574" height="14" width="14" fill="#757575"/>
    <rect y="252" x="616" height="14" width="14" fill="#757575"/>
    <rect y="252" x="812" height="14" width="14" fill="#757575"/>
    <rect y="266" x="0" height="14" width="14" fill="#757575"/>
    <rect y="266" x="84" height="14" width="14" fill="#757575"/>
    <rect y="266" x="112" height="14" width="14" fill="#757575"/>
    <rect y="266" x="140" height="14" width="14" fill="#757575"/>
    <rect y="266" x="182" height="14" width="14" fill="#757575"/>
    <rect y="266" x="210" height="14" width="14" fill="#757575"/>
    <rect y="266" x="224" height="14" width="14" fill="#757575"/>
    <rect y="266" x="238" height="14" width="14" fill="#757575"/>
    <rect y="266" x="518" height="14" width="14" fill="#757575"/>
    <rect y="266" x="546" height="14" width="14" fill="#757575"/>
    <rect y="266" x="560" height="14" width="14" fill="#757575"/>
    <rect y="266" x="574" height="14" width="14" fill="#757575"/>
    <rect y="266" x="812" height="14" width="14" fill="#757575"/>
    <rect y="280" x="0" height="14" width="14" fill="#757575"/>
    <rect y="280" x="84" height="14" width="14" fill="#757575"/>
    <rect y="280" x="98" height="14" width="14" fill="#757575"/>
    <rect y="280" x="112" height="14" width="14" fill="#757575"/>
    <rect y="280" x="126" height="14" width="14" fill="#757575"/>
    <rect y="280" x="140" height="14" width="14" fill="#757575"/>
    <rect y="280" x="182" height="14" width="14" fill="#757575"/>
    <rect y="280" x="196" height="14" width="14" fill="#757575"/>
    <rect y="280" x="210" height="14" width="14" fill="#757575"/>
    <rect y="280" x="224" height="14" width="14" fill="#757575"/>
    <rect y="280" x="238" height="14" width="14" fill="#757575"/>
    <rect y="280" x="518" height="14" width="14" fill="#757575"/>
    <rect y="280" x="532" height="14" width="14" fill="#757575"/>
    <rect y="280" x="546" height="14" width="14" fill="#757575"/>
    <rect y="280" x="560" height="14" width="14" fill="#757575"/>
    <rect y="280" x="574" height="14" width="14" fill="#757575"/>
    <rect y="280" x="812" height="14" width="14" fill="#757575"/>
    <rect y="294" x="0" height="14" width="14" fill="#757575"/>
    <rect y="294" x="812" height="14" width="14" fill="#757575"/>
    <rect y="308" x="0" height="14" width="14" fill="#757575"/>
    <rect y="308" x="14" height="14" width="14" fill="#757575"/>
    <rect y="308" x="28" height="14" width="14" fill="#757575"/>
    <rect y="308" x="42" height="14" width="14" fill="#757575"/>
    <rect y="308" x="56" height="14" width="14" fill="#757575"/>
    <rect y="308" x="70" height="14" width="14" fill="#757575"/>
    <rect y="308" x="84" height="14" width="14" fill="#757575"/>
    <rect y="308" x="98" height="14" width="14" fill="#757575"/>
    <rect y="308" x="112" height="14" width="14" fill="#757575"/>
    <rect y="308" x="126" height="14" width="14" fill="#757575"/>
    <rect y="308" x="140" height="14" width="14" fill="#757575"/>
    <rect y="308" x="154" height="14" width="14" fill="#757575"/>
    <rect y="308" x="168" height="14" width="14" fill="#757575"/>
    <rect y="308" x="182" height="14" width="14" fill="#757575"/>
    <rect y="308" x="196" height="14" width="14" fill="#757575"/>
    <rect y="308" x="210" height="14" width="14" fill="#757575"/>
    <rect y="308" x="224" height="14" width="14" fill="#757575"/>
    <rect y="308" x="238" height="14" width="14" fill="#757575"/>
    <rect y="308" x="252" height="14" width="14" fill="#757575"/>
    <rect y="308" x="266" height="14" width="14" fill="#757575"/>
    <rect y="308" x="280" height="14" width="14" fill="#757575"/>
    <rect y="308" x="294" height="14" width="14" fill="#757575"/>
    <rect y="308" x="308" height="14" width="14" fill="#757575"/>
    <rect y="308" x="322" height="14" width="14" fill="#757575"/>
    <rect y="308" x="336" height="14" width="14" fill="#757575"/>
    <rect y="308" x="350" height="14" width="14" fill="#757575"/>
    <rect y="308" x="364" height="14" width="14" fill="#757575"/>
    <rect y="308" x="378" height="14" width="14" fill="#757575"/>
    <rect y="308" x="392" height="14" width="14" fill="#757575"/>
    <rect y="308" x="406" height="14" width="14" fill="#757575"/>
    <rect y="308" x="420" height="14" width="14" fill="#757575"/>
    <rect y="308" x="434" height="14" width="14" fill="#757575"/>
    <rect y="308" x="448" height="14" width="14" fill="#757575"/>
    <rect y="308" x="462" height="14" width="14" fill="#757575"/>
    <rect y="308" x="476" height="14" width="14" fill="#757575"/>
    <rect y="308" x="490" height="14" width="14" fill="#757575"/>
    <rect y="308" x="504" height="14" width="14" fill="#757575"/>
    <rect y="308" x="518" height="14" width="14" fill="#757575"/>
    <rect y="308" x="532" height="14" width="14" fill="#757575"/>
    <rect y="308" x="546" height="14" width="14" fill="#757575"/>
    <rect y="308" x="560" height="14" width="14" fill="#757575"/>
    <rect y="308" x="574" height="14" width="14" fill="#757575"/>
    <rect y="308" x="588" height="14" width="14" fill="#757575"/>
    <rect y="308" x="602" height="14" width="14" fill="#757575"/>
    <rect y="308" x="616" height="14" width="14" fill="#757575"/>
    <rect y="308" x="630" height="14" width="14" fill="#757575"/>
    <rect y="308" x="644" height="14" width="14" fill="#757575"/>
    <rect y="308" x="658" height="14" width="14" fill="#757575"/>
    <rect y="308" x="672" height="14" width="14" fill="#757575"/>
    <rect y="308" x="686" height="14" width="14" fill="#757575"/>
    <rect y="308" x="700" height="14" width="14" fill="#757575"/>
    <rect y="308" x="714" height="14" width="14" fill="#757575"/>
    <rect y="308" x="728" height="14" width="14" fill="#757575"/>
    <rect y="308" x="742" height="14" width="14" fill="#757575"/>
    <rect y="308" x="756" height="14" width="14" fill="#757575"/>
    <rect y="308" x="770" height="14" width="14" fill="#757575"/>
    <rect y="308" x="784" height="14" width="14" fill="#757575"/>
    <rect y="308" x="798" height="14" width="14" fill="#757575"/>
    <rect y="308" x="812" height="14" width="14" fill="#757575"/>
    
  <rect y="28" x="28" height="70" width="70" fill="#827717" fill-opacity="0.5"/>
<text y="63" x="63" dominant-baseline='middle' text-anchor='middle' fill='white' style='paint-order: stroke; fill: white; stroke: black; stroke-width: 1px; font-family="monospace"; font-size: 18px'><tspan x="63" dy="0em">car</tspan></text>
<rect y="126" x="28" height="28" width="28" fill="#827717" fill-opacity="0.5"/>
<text y="140" x="42" dominant-baseline='middle' text-anchor='middle' fill='white' style='paint-order: stroke; fill: white; stroke: black; stroke-width: 1px; font-family="monospace"; font-size: 18px'><tspan x="42" dy="0em">ap</tspan></text>
<rect y="126" x="84" height="70" width="70" fill="#827717" fill-opacity="0.5"/>
<text y="161" x="119" dominant-baseline='middle' text-anchor='middle' fill='white' style='paint-order: stroke; fill: white; stroke: black; stroke-width: 1px; font-family="monospace"; font-size: 18px'><tspan x="119" dy="0em">car</tspan></text>
<rect y="126" x="182" height="28" width="28" fill="#827717" fill-opacity="0.5"/>
<text y="140" x="196" dominant-baseline='middle' text-anchor='middle' fill='white' style='paint-order: stroke; fill: white; stroke: black; stroke-width: 1px; font-family="monospace"; font-size: 18px'><tspan x="196" dy="0em">ap</tspan></text>
<rect y="126" x="238" height="28" width="28" fill="#827717" fill-opacity="0.5"/>
<text y="140" x="252" dominant-baseline='middle' text-anchor='middle' fill='white' style='paint-order: stroke; fill: white; stroke: black; stroke-width: 1px; font-family="monospace"; font-size: 18px'><tspan x="252" dy="0em">ap</tspan></text>
<rect y="126" x="294" height="70" width="70" fill="#827717" fill-opacity="0.5"/>
<text y="161" x="329" dominant-baseline='middle' text-anchor='middle' fill='white' style='paint-order: stroke; fill: white; stroke: black; stroke-width: 1px; font-family="monospace"; font-size: 18px'><tspan x="329" dy="0em">cos</tspan></text>
<rect y="126" x="392" height="56" width="56" fill="#004D40" fill-opacity="0.5"/>
<text y="154" x="420" dominant-baseline='middle' text-anchor='middle' fill='white' style='paint-order: stroke; fill: white; stroke: black; stroke-width: 1px; font-family="monospace"; font-size: 18px'><tspan x="420" dy="0em">x0</tspan></text>
<rect y="126" x="476" height="56" width="56" fill="#004D40" fill-opacity="0.5"/>
<text y="154" x="504" dominant-baseline='middle' text-anchor='middle' fill='white' style='paint-order: stroke; fill: white; stroke: black; stroke-width: 1px; font-family="monospace"; font-size: 18px'><tspan x="504" dy="0em">x1</tspan></text>
<rect y="126" x="616" height="42" width="42" fill="#827717" fill-opacity="0.5"/>
<text y="147" x="637" dominant-baseline='middle' text-anchor='middle' fill='white' style='paint-order: stroke; fill: white; stroke: black; stroke-width: 1px; font-family="monospace"; font-size: 18px'><tspan x="637" dy="0em">is</tspan></text>
<rect y="126" x="742" height="56" width="56" fill="#004D40" fill-opacity="0.5"/>
<text y="154" x="770" dominant-baseline='middle' text-anchor='middle' fill='white' style='paint-order: stroke; fill: white; stroke: black; stroke-width: 1px; font-family="monospace"; font-size: 18px'><tspan x="770" dy="0em">x0</tspan></text>
<rect y="224" x="28" height="28" width="28" fill="#827717" fill-opacity="0.5"/>
<text y="238" x="42" dominant-baseline='middle' text-anchor='middle' fill='white' style='paint-order: stroke; fill: white; stroke: black; stroke-width: 1px; font-family="monospace"; font-size: 18px'><tspan x="42" dy="0em">ap</tspan></text>
<rect y="224" x="84" height="70" width="70" fill="#827717" fill-opacity="0.5"/>
<text y="259" x="119" dominant-baseline='middle' text-anchor='middle' fill='white' style='paint-order: stroke; fill: white; stroke: black; stroke-width: 1px; font-family="monospace"; font-size: 18px'><tspan x="119" dy="0em">car</tspan></text>
<rect y="224" x="182" height="70" width="70" fill="#004D40" fill-opacity="0.5"/>
<text y="259" x="217" dominant-baseline='middle' text-anchor='middle' fill='white' style='paint-order: stroke; fill: white; stroke: black; stroke-width: 1px; font-family="monospace"; font-size: 18px'><tspan x="217" dy="0em">x2</tspan></text>
<rect y="224" x="336" height="42" width="42" fill="#827717" fill-opacity="0.5"/>
<text y="245" x="357" dominant-baseline='middle' text-anchor='middle' fill='white' style='paint-order: stroke; fill: white; stroke: black; stroke-width: 1px; font-family="monospace"; font-size: 18px'><tspan x="357" dy="0em">is</tspan></text>
<rect y="224" x="462" height="28" width="28" fill="#827717" fill-opacity="0.5"/>
<text y="238" x="476" dominant-baseline='middle' text-anchor='middle' fill='white' style='paint-order: stroke; fill: white; stroke: black; stroke-width: 1px; font-family="monospace"; font-size: 18px'><tspan x="476" dy="0em">ap</tspan></text>
<rect y="224" x="518" height="70" width="70" fill="#004D40" fill-opacity="0.5"/>
<text y="259" x="553" dominant-baseline='middle' text-anchor='middle' fill='white' style='paint-order: stroke; fill: white; stroke: black; stroke-width: 1px; font-family="monospace"; font-size: 18px'><tspan x="553" dy="0em">x2</tspan></text>
<rect y="224" x="616" height="42" width="42" fill="#827717" fill-opacity="0.5"/>
<text y="245" x="637" dominant-baseline='middle' text-anchor='middle' fill='white' style='paint-order: stroke; fill: white; stroke: black; stroke-width: 1px; font-family="monospace"; font-size: 18px'><tspan x="637" dy="0em">True</tspan></text>

</svg>
