<?xml version="1.0"?>
<svg xmlns="http://www.w3.org/2000/svg" height="532" width="714">
  <rect y="0" x="0" height="532" width="714" fill="black" />
  <rect y="0" x="0" height="14" width="14" fill="#757575"/>
    <rect y="0" x="14" height="14" width="14" fill="#757575"/>
    <rect y="0" x="28" height="14" width="14" fill="#757575"/>
    <rect y="0" x="42" height="14" width="14" fill="#757575"/>
    <rect y="0" x="56" height="14" width="14" fill="#757575"/>
    <rect y="0" x="70" height="14" width="14" fill="#757575"/>
    <rect y="0" x="84" height="14" width="14" fill="#757575"/>
    <rect y="0" x="98" height="14" width="14" fill="#757575"/>
    <rect y="0" x="112" height="14" width="14" fill="#757575"/>
    <rect y="0" x="126" height="14" width="14" fill="#757575"/>
    <rect y="0" x="140" height="14" width="14" fill="#757575"/>
    <rect y="0" x="154" height="14" width="14" fill="#757575"/>
    <rect y="0" x="168" height="14" width="14" fill="#757575"/>
    <rect y="0" x="182" height="14" width="14" fill="#757575"/>
    <rect y="0" x="196" height="14" width="14" fill="#757575"/>
    <rect y="0" x="210" height="14" width="14" fill="#757575"/>
    <rect y="0" x="224" height="14" width="14" fill="#757575"/>
    <rect y="0" x="238" height="14" width="14" fill="#757575"/>
    <rect y="0" x="252" height="14" width="14" fill="#757575"/>
    <rect y="0" x="266" height="14" width="14" fill="#757575"/>
    <rect y="0" x="280" height="14" width="14" fill="#757575"/>
    <rect y="0" x="294" height="14" width="14" fill="#757575"/>
    <rect y="0" x="308" height="14" width="14" fill="#757575"/>
    <rect y="0" x="322" height="14" width="14" fill="#757575"/>
    <rect y="0" x="336" height="14" width="14" fill="#757575"/>
    <rect y="0" x="350" height="14" width="14" fill="#757575"/>
    <rect y="0" x="364" height="14" width="14" fill="#757575"/>
    <rect y="0" x="378" height="14" width="14" fill="#757575"/>
    <rect y="0" x="392" height="14" width="14" fill="#757575"/>
    <rect y="0" x="406" height="14" width="14" fill="#757575"/>
    <rect y="0" x="420" height="14" width="14" fill="#757575"/>
    <rect y="0" x="434" height="14" width="14" fill="#757575"/>
    <rect y="0" x="448" height="14" width="14" fill="#757575"/>
    <rect y="0" x="462" height="14" width="14" fill="#757575"/>
    <rect y="0" x="476" height="14" width="14" fill="#757575"/>
    <rect y="0" x="490" height="14" width="14" fill="#757575"/>
    <rect y="0" x="504" height="14" width="14" fill="#757575"/>
    <rect y="0" x="518" height="14" width="14" fill="#757575"/>
    <rect y="0" x="532" height="14" width="14" fill="#757575"/>
    <rect y="0" x="546" height="14" width="14" fill="#757575"/>
    <rect y="0" x="560" height="14" width="14" fill="#757575"/>
    <rect y="0" x="574" height="14" width="14" fill="#757575"/>
    <rect y="0" x="588" height="14" width="14" fill="#757575"/>
    <rect y="0" x="602" height="14" width="14" fill="#757575"/>
    <rect y="0" x="616" height="14" width="14" fill="#757575"/>
    <rect y="0" x="630" height="14" width="14" fill="#757575"/>
    <rect y="0" x="644" height="14" width="14" fill="#757575"/>
    <rect y="0" x="658" height="14" width="14" fill="#757575"/>
    <rect y="0" x="672" height="14" width="14" fill="#757575"/>
    <rect y="0" x="686" height="14" width="14" fill="#757575"/>
    <rect y="0" x="700" height="14" width="14" fill="#757575"/>
    <rect y="14" x="0" height="14" width="14" fill="#757575"/>
    <rect y="14" x="700" height="14" width="14" fill="#757575"/>
    <rect y="28" x="0" height="14" width="14" fill="#757575"/>
    <rect y="28" x="28" height="14" width="14" fill="#757575"/>
    <rect y="28" x="42" height="14" width="14" fill="#757575"/>
    <rect y="28" x="700" height="14" width="14" fill="#757575"/>
    <rect y="42" x="0" height="14" width="14" fill="#757575"/>
    <rect y="42" x="28" height="14" width="14" fill="#757575"/>
    <rect y="42" x="42" height="14" width="14" fill="#757575"/>
    <rect y="42" x="700" height="14" width="14" fill="#757575"/>
    <rect y="56" x="0" height="14" width="14" fill="#757575"/>
    <rect y="56" x="700" height="14" width="14" fill="#757575"/>
    <rect y="70" x="0" height="14" width="14" fill="#757575"/>
    <rect y="70" x="700" height="14" width="14" fill="#757575"/>
    <rect y="84" x="0" height="14" width="14" fill="#757575"/>
    <rect y="84" x="28" height="14" width="14" fill="#757575"/>
    <rect y="84" x="42" height="14" width="14" fill="#757575"/>
    <rect y="84" x="84" height="14" width="14" fill="#757575"/>
    <rect y="84" x="98" height="14" width="14" fill="#757575"/>
    <rect y="84" x="140" height="14" width="14" fill="#757575"/>
    <rect y="84" x="154" height="14" width="14" fill="#757575"/>
    <rect y="84" x="168" height="14" width="14" fill="#757575"/>
    <rect y="84" x="182" height="14" width="14" fill="#757575"/>
    <rect y="84" x="280" height="14" width="14" fill="#757575"/>
    <rect y="84" x="294" height="14" width="14" fill="#757575"/>
    <rect y="84" x="308" height="14" width="14" fill="#757575"/>
    <rect y="84" x="406" height="14" width="14" fill="#757575"/>
    <rect y="84" x="420" height="14" width="14" fill="#757575"/>
    <rect y="84" x="434" height="14" width="14" fill="#757575"/>
    <rect y="84" x="448" height="14" width="14" fill="#757575"/>
    <rect y="84" x="700" height="14" width="14" fill="#757575"/>
    <rect y="98" x="0" height="14" width="14" fill="#757575"/>
    <rect y="98" x="28" height="14" width="14" fill="#757575"/>
    <rect y="98" x="84" height="14" width="14" fill="#757575"/>
    <rect y="98" x="98" height="14" width="14" fill="#757575"/>
    <rect y="98" x="140" height="14" width="14" fill="#757575"/>
    <rect y="98" x="154" height="14" width="14" fill="#757575"/>
    <rect y="98" x="182" height="14" width="14" fill="#757575"/>
    <rect y="98" x="280" height="14" width="14" fill="#757575"/>
    <rect y="98" x="406" height="14" width="14" fill="#757575"/>
    <rect y="98" x="420" height="14" width="14" fill="#757575"/>
    <rect y="98" x="448" height="14" width="14" fill="#757575"/>
    <rect y="98" x="700" height="14" width="14" fill="#757575"/>
    <rect y="112" x="0" height="14" width="14" fill="#757575"/>
    <rect y="112" x="140" height="14" width="14" fill="#757575"/>
    <rect y="112" x="168" height="14" width="14" fill="#757575"/>
    <rect y="112" x="182" height="14" width="14" fill="#757575"/>
    <rect y="112" x="280" height="14" width="14" fill="#757575"/>
    <rect y="112" x="294" height="14" width="14" fill="#757575"/>
    <rect y="112" x="308" height="14" width="14" fill="#757575"/>
    <rect y="112" x="406" height="14" width="14" fill="#757575"/>
    <rect y="112" x="434" height="14" width="14" fill="#757575"/>
    <rect y="112" x="448" height="14" width="14" fill="#757575"/>
    <rect y="112" x="700" height="14" width="14" fill="#757575"/>
    <rect y="126" x="0" height="14" width="14" fill="#757575"/>
    <rect y="126" x="140" height="14" width="14" fill="#757575"/>
    <rect y="126" x="154" height="14" width="14" fill="#757575"/>
    <rect y="126" x="168" height="14" width="14" fill="#757575"/>
    <rect y="126" x="182" height="14" width="14" fill="#757575"/>
    <rect y="126" x="406" height="14" width="14" fill="#757575"/>
    <rect y="126" x="420" height="14" width="14" fill="#757575"/>
    <rect y="126" x="434" height="14" width="14" fill="#757575"/>
    <rect y="126" x="448" height="14" width="14" fill="#757575"/>
    <rect y="126" x="700" height="14" width="14" fill="#757575"/>
    <rect y="140" x="0" height="14" width="14" fill="#757575"/>
    <rect y="140" x="700" height="14" width="14" fill="#757575"/>
    <rect y="154" x="0" height="14" width="14" fill="#757575"/>
    <rect y="154" x="700" height="14" width="14" fill="#757575"/>
    <rect y="168" x="0" height="14" width="14" fill="#757575"/>
    <rect y="168" x="28" height="14" width="14" fill="#757575"/>
    <rect y="168" x="42" height="14" width="14" fill="#757575"/>
    <rect y="168" x="84" height="14" width="14" fill="#757575"/>
    <rect y="168" x="98" height="14" width="14" fill="#757575"/>
    <rect y="168" x="154" height="14" width="14" fill="#757575"/>
    <rect y="168" x="252" height="14" width="14" fill="#757575"/>
    <rect y="168" x="266" height="14" width="14" fill="#757575"/>
    <rect y="168" x="280" height="14" width="14" fill="#757575"/>
    <rect y="168" x="392" height="14" width="14" fill="#757575"/>
    <rect y="168" x="700" height="14" width="14" fill="#757575"/>
    <rect y="182" x="0" height="14" width="14" fill="#757575"/>
    <rect y="182" x="28" height="14" width="14" fill="#757575"/>
    <rect y="182" x="84" height="14" width="14" fill="#757575"/>
    <rect y="182" x="98" height="14" width="14" fill="#757575"/>
    <rect y="182" x="140" height="14" width="14" fill="#757575"/>
    <rect y="182" x="154" height="14" width="14" fill="#757575"/>
    <rect y="182" x="252" height="14" width="14" fill="#757575"/>
    <rect y="182" x="378" height="14" width="14" fill="#757575"/>
    <rect y="182" x="392" height="14" width="14" fill="#757575"/>
    <rect y="182" x="700" height="14" width="14" fill="#757575"/>
    <rect y="196" x="0" height="14" width="14" fill="#757575"/>
    <rect y="196" x="252" height="14" width="14" fill="#757575"/>
    <rect y="196" x="266" height="14" width="14" fill="#757575"/>
    <rect y="196" x="280" height="14" width="14" fill="#757575"/>
    <rect y="196" x="700" height="14" width="14" fill="#757575"/>
    <rect y="210" x="0" height="14" width="14" fill="#757575"/>
    <rect y="210" x="700" height="14" width="14" fill="#757575"/>
    <rect y="224" x="0" height="14" width="14" fill="#757575"/>
    <rect y="224" x="700" height="14" width="14" fill="#757575"/>
    <rect y="238" x="0" height="14" width="14" fill="#757575"/>
    <rect y="238" x="28" height="14" width="14" fill="#757575"/>
    <rect y="238" x="42" height="14" width="14" fill="#757575"/>
    <rect y="238" x="84" height="14" width="14" fill="#757575"/>
    <rect y="238" x="98" height="14" width="14" fill="#757575"/>
    <rect y="238" x="140" height="14" width="14" fill="#757575"/>
    <rect y="238" x="154" height="14" width="14" fill="#757575"/>
    <rect y="238" x="252" height="14" width="14" fill="#757575"/>
    <rect y="238" x="266" height="14" width="14" fill="#757575"/>
    <rect y="238" x="280" height="14" width="14" fill="#757575"/>
    <rect y="238" x="378" height="14" width="14" fill="#757575"/>
    <rect y="238" x="392" height="14" width="14" fill="#757575"/>
    <rect y="238" x="700" height="14" width="14" fill="#757575"/>
    <rect y="252" x="0" height="14" width="14" fill="#757575"/>
    <rect y="252" x="28" height="14" width="14" fill="#757575"/>
    <rect y="252" x="84" height="14" width="14" fill="#757575"/>
    <rect y="252" x="98" height="14" width="14" fill="#757575"/>
    <rect y="252" x="140" height="14" width="14" fill="#757575"/>
    <rect y="252" x="154" height="14" width="14" fill="#757575"/>
    <rect y="252" x="252" height="14" width="14" fill="#757575"/>
    <rect y="252" x="378" height="14" width="14" fill="#757575"/>
    <rect y="252" x="392" height="14" width="14" fill="#757575"/>
    <rect y="252" x="700" height="14" width="14" fill="#757575"/>
    <rect y="266" x="0" height="14" width="14" fill="#757575"/>
    <rect y="266" x="252" height="14" width="14" fill="#757575"/>
    <rect y="266" x="266" height="14" width="14" fill="#757575"/>
    <rect y="266" x="280" height="14" width="14" fill="#757575"/>
    <rect y="266" x="700" height="14" width="14" fill="#757575"/>
    <rect y="280" x="0" height="14" width="14" fill="#757575"/>
    <rect y="280" x="700" height="14" width="14" fill="#757575"/>
    <rect y="294" x="0" height="14" width="14" fill="#757575"/>
    <rect y="294" x="700" height="14" width="14" fill="#757575"/>
    <rect y="308" x="0" height="14" width="14" fill="#757575"/>
    <rect y="308" x="28" height="14" width="14" fill="#757575"/>
    <rect y="308" x="42" height="14" width="14" fill="#757575"/>
    <rect y="308" x="84" height="14" width="14" fill="#757575"/>
    <rect y="308" x="98" height="14" width="14" fill="#757575"/>
    <rect y="308" x="140" height="14" width="14" fill="#757575"/>
    <rect y="308" x="154" height="14" width="14" fill="#757575"/>
    <rect y="308" x="168" height="14" width="14" fill="#757575"/>
    <rect y="308" x="182" height="14" width="14" fill="#757575"/>
    <rect y="308" x="280" height="14" width="14" fill="#757575"/>
    <rect y="308" x="294" height="14" width="14" fill="#757575"/>
    <rect y="308" x="308" height="14" width="14" fill="#757575"/>
    <rect y="308" x="406" height="14" width="14" fill="#757575"/>
    <rect y="308" x="420" height="14" width="14" fill="#757575"/>
    <rect y="308" x="434" height="14" width="14" fill="#757575"/>
    <rect y="308" x="448" height="14" width="14" fill="#757575"/>
    <rect y="308" x="700" height="14" width="14" fill="#757575"/>
    <rect y="322" x="0" height="14" width="14" fill="#757575"/>
    <rect y="322" x="28" height="14" width="14" fill="#757575"/>
    <rect y="322" x="84" height="14" width="14" fill="#757575"/>
    <rect y="322" x="98" height="14" width="14" fill="#757575"/>
    <rect y="322" x="140" height="14" width="14" fill="#757575"/>
    <rect y="322" x="154" height="14" width="14" fill="#757575"/>
    <rect y="322" x="182" height="14" width="14" fill="#757575"/>
    <rect y="322" x="280" height="14" width="14" fill="#757575"/>
    <rect y="322" x="406" height="14" width="14" fill="#757575"/>
    <rect y="322" x="420" height="14" width="14" fill="#757575"/>
    <rect y="322" x="448" height="14" width="14" fill="#757575"/>
    <rect y="322" x="700" height="14" width="14" fill="#757575"/>
    <rect y="336" x="0" height="14" width="14" fill="#757575"/>
    <rect y="336" x="140" height="14" width="14" fill="#757575"/>
    <rect y="336" x="154" height="14" width="14" fill="#757575"/>
    <rect y="336" x="182" height="14" width="14" fill="#757575"/>
    <rect y="336" x="280" height="14" width="14" fill="#757575"/>
    <rect y="336" x="294" height="14" width="14" fill="#757575"/>
    <rect y="336" x="308" height="14" width="14" fill="#757575"/>
    <rect y="336" x="406" height="14" width="14" fill="#757575"/>
    <rect y="336" x="420" height="14" width="14" fill="#757575"/>
    <rect y="336" x="448" height="14" width="14" fill="#757575"/>
    <rect y="336" x="700" height="14" width="14" fill="#757575"/>
    <rect y="350" x="0" height="14" width="14" fill="#757575"/>
    <rect y="350" x="140" height="14" width="14" fill="#757575"/>
    <rect y="350" x="154" height="14" width="14" fill="#757575"/>
    <rect y="350" x="182" height="14" width="14" fill="#757575"/>
    <rect y="350" x="406" height="14" width="14" fill="#757575"/>
    <rect y="350" x="420" height="14" width="14" fill="#757575"/>
    <rect y="350" x="448" height="14" width="14" fill="#757575"/>
    <rect y="350" x="700" height="14" width="14" fill="#757575"/>
    <rect y="364" x="0" height="14" width="14" fill="#757575"/>
    <rect y="364" x="700" height="14" width="14" fill="#757575"/>
    <rect y="378" x="0" height="14" width="14" fill="#757575"/>
    <rect y="378" x="700" height="14" width="14" fill="#757575"/>
    <rect y="392" x="0" height="14" width="14" fill="#757575"/>
    <rect y="392" x="28" height="14" width="14" fill="#757575"/>
    <rect y="392" x="42" height="14" width="14" fill="#757575"/>
    <rect y="392" x="84" height="14" width="14" fill="#757575"/>
    <rect y="392" x="98" height="14" width="14" fill="#757575"/>
    <rect y="392" x="140" height="14" width="14" fill="#757575"/>
    <rect y="392" x="154" height="14" width="14" fill="#757575"/>
    <rect y="392" x="196" height="14" width="14" fill="#757575"/>
    <rect y="392" x="210" height="14" width="14" fill="#757575"/>
    <rect y="392" x="224" height="14" width="14" fill="#757575"/>
    <rect y="392" x="238" height="14" width="14" fill="#757575"/>
    <rect y="392" x="294" height="14" width="14" fill="#757575"/>
    <rect y="392" x="392" height="14" width="14" fill="#757575"/>
    <rect y="392" x="406" height="14" width="14" fill="#757575"/>
    <rect y="392" x="420" height="14" width="14" fill="#757575"/>
    <rect y="392" x="518" height="14" width="14" fill="#757575"/>
    <rect y="392" x="532" height="14" width="14" fill="#757575"/>
    <rect y="392" x="574" height="14" width="14" fill="#757575"/>
    <rect y="392" x="588" height="14" width="14" fill="#757575"/>
    <rect y="392" x="602" height="14" width="14" fill="#757575"/>
    <rect y="392" x="616" height="14" width="14" fill="#757575"/>
    <rect y="392" x="672" height="14" width="14" fill="#757575"/>
    <rect y="392" x="700" height="14" width="14" fill="#757575"/>
    <rect y="406" x="0" height="14" width="14" fill="#757575"/>
    <rect y="406" x="28" height="14" width="14" fill="#757575"/>
    <rect y="406" x="84" height="14" width="14" fill="#757575"/>
    <rect y="406" x="98" height="14" width="14" fill="#757575"/>
    <rect y="406" x="140" height="14" width="14" fill="#757575"/>
    <rect y="406" x="196" height="14" width="14" fill="#757575"/>
    <rect y="406" x="210" height="14" width="14" fill="#757575"/>
    <rect y="406" x="238" height="14" width="14" fill="#757575"/>
    <rect y="406" x="280" height="14" width="14" fill="#757575"/>
    <rect y="406" x="294" height="14" width="14" fill="#757575"/>
    <rect y="406" x="392" height="14" width="14" fill="#757575"/>
    <rect y="406" x="518" height="14" width="14" fill="#757575"/>
    <rect y="406" x="574" height="14" width="14" fill="#757575"/>
    <rect y="406" x="588" height="14" width="14" fill="#757575"/>
    <rect y="406" x="616" height="14" width="14" fill="#757575"/>
    <rect y="406" x="658" height="14" width="14" fill="#757575"/>
    <rect y="406" x="672" height="14" width="14" fill="#757575"/>
    <rect y="406" x="700" height="14" width="14" fill="#757575"/>
    <rect y="420" x="0" height="14" width="14" fill="#757575"/>
    <rect y="420" x="196" height="14" width="14" fill="#757575"/>
    <rect y="420" x="210" height="14" width="14" fill="#757575"/>
    <rect y="420" x="238" height="14" width="14" fill="#757575"/>
    <rect y="420" x="392" height="14" width="14" fill="#757575"/>
    <rect y="420" x="406" height="14" width="14" fill="#757575"/>
    <rect y="420" x="420" height="14" width="14" fill="#757575"/>
    <rect y="420" x="574" height="14" width="14" fill="#757575"/>
    <rect y="420" x="588" height="14" width="14" fill="#757575"/>
    <rect y="420" x="616" height="14" width="14" fill="#757575"/>
    <rect y="420" x="700" height="14" width="14" fill="#757575"/>
    <rect y="434" x="0" height="14" width="14" fill="#757575"/>
    <rect y="434" x="196" height="14" width="14" fill="#757575"/>
    <rect y="434" x="210" height="14" width="14" fill="#757575"/>
    <rect y="434" x="238" height="14" width="14" fill="#757575"/>
    <rect y="434" x="574" height="14" width="14" fill="#757575"/>
    <rect y="434" x="588" height="14" width="14" fill="#757575"/>
    <rect y="434" x="616" height="14" width="14" fill="#757575"/>
    <rect y="434" x="700" height="14" width="14" fill="#757575"/>
    <rect y="448" x="0" height="14" width="14" fill="#757575"/>
    <rect y="448" x="700" height="14" width="14" fill="#757575"/>
    <rect y="462" x="0" height="14" width="14" fill="#757575"/>
    <rect y="462" x="700" height="14" width="14" fill="#757575"/>
    <rect y="476" x="0" height="14" width="14" fill="#757575"/>
    <rect y="476" x="700" height="14" width="14" fill="#757575"/>
    <rect y="490" x="0" height="14" width="14" fill="#757575"/>
    <rect y="490" x="28" height="14" width="14" fill="#757575"/>
    <rect y="490" x="56" height="14" width="14" fill="#757575"/>
    <rect y="490" x="84" height="14" width="14" fill="#757575"/>
    <rect y="490" x="112" height="14" width="14" fill="#757575"/>
    <rect y="490" x="700" height="14" width="14" fill="#757575"/>
    <rect y="504" x="0" height="14" width="14" fill="#757575"/>
    <rect y="504" x="700" height="14" width="14" fill="#757575"/>
    <rect y="518" x="0" height="14" width="14" fill="#757575"/>
    <rect y="518" x="14" height="14" width="14" fill="#757575"/>
    <rect y="518" x="28" height="14" width="14" fill="#757575"/>
    <rect y="518" x="42" height="14" width="14" fill="#757575"/>
    <rect y="518" x="56" height="14" width="14" fill="#757575"/>
    <rect y="518" x="70" height="14" width="14" fill="#757575"/>
    <rect y="518" x="84" height="14" width="14" fill="#757575"/>
    <rect y="518" x="98" height="14" width="14" fill="#757575"/>
    <rect y="518" x="112" height="14" width="14" fill="#757575"/>
    <rect y="518" x="126" height="14" width="14" fill="#757575"/>
    <rect y="518" x="140" height="14" width="14" fill="#757575"/>
    <rect y="518" x="154" height="14" width="14" fill="#757575"/>
    <rect y="518" x="168" height="14" width="14" fill="#757575"/>
    <rect y="518" x="182" height="14" width="14" fill="#757575"/>
    <rect y="518" x="196" height="14" width="14" fill="#757575"/>
    <rect y="518" x="210" height="14" width="14" fill="#757575"/>
    <rect y="518" x="224" height="14" width="14" fill="#757575"/>
    <rect y="518" x="238" height="14" width="14" fill="#757575"/>
    <rect y="518" x="252" height="14" width="14" fill="#757575"/>
    <rect y="518" x="266" height="14" width="14" fill="#757575"/>
    <rect y="518" x="280" height="14" width="14" fill="#757575"/>
    <rect y="518" x="294" height="14" width="14" fill="#757575"/>
    <rect y="518" x="308" height="14" width="14" fill="#757575"/>
    <rect y="518" x="322" height="14" width="14" fill="#757575"/>
    <rect y="518" x="336" height="14" width="14" fill="#757575"/>
    <rect y="518" x="350" height="14" width="14" fill="#757575"/>
    <rect y="518" x="364" height="14" width="14" fill="#757575"/>
    <rect y="518" x="378" height="14" width="14" fill="#757575"/>
    <rect y="518" x="392" height="14" width="14" fill="#757575"/>
    <rect y="518" x="406" height="14" width="14" fill="#757575"/>
    <rect y="518" x="420" height="14" width="14" fill="#757575"/>
    <rect y="518" x="434" height="14" width="14" fill="#757575"/>
    <rect y="518" x="448" height="14" width="14" fill="#757575"/>
    <rect y="518" x="462" height="14" width="14" fill="#757575"/>
    <rect y="518" x="476" height="14" width="14" fill="#757575"/>
    <rect y="518" x="490" height="14" width="14" fill="#757575"/>
    <rect y="518" x="504" height="14" width="14" fill="#757575"/>
    <rect y="518" x="518" height="14" width="14" fill="#757575"/>
    <rect y="518" x="532" height="14" width="14" fill="#757575"/>
    <rect y="518" x="546" height="14" width="14" fill="#757575"/>
    <rect y="518" x="560" height="14" width="14" fill="#757575"/>
    <rect y="518" x="574" height="14" width="14" fill="#757575"/>
    <rect y="518" x="588" height="14" width="14" fill="#757575"/>
    <rect y="518" x="602" height="14" width="14" fill="#757575"/>
    <rect y="518" x="616" height="14" width="14" fill="#757575"/>
    <rect y="518" x="630" height="14" width="14" fill="#757575"/>
    <rect y="518" x="644" height="14" width="14" fill="#757575"/>
    <rect y="518" x="658" height="14" width="14" fill="#757575"/>
    <rect y="518" x="672" height="14" width="14" fill="#757575"/>
    <rect y="518" x="686" height="14" width="14" fill="#757575"/>
    <rect y="518" x="700" height="14" width="14" fill="#757575"/>
    
  <rect y="28" x="28" height="28" width="28" fill="#827717" fill-opacity="0.5"/>
<text y="42" x="42" dominant-baseline='middle' text-anchor='middle' fill='white' style='paint-order: stroke; fill: white; stroke: black; stroke-width: 1px; font-family="monospace"; font-size: 18px'><tspan x="42" dy="0em">\x -> x</tspan></text>
<rect y="84" x="28" height="28" width="28" fill="#827717" fill-opacity="0.5"/>
<text y="98" x="42" dominant-baseline='middle' text-anchor='middle' fill='white' style='paint-order: stroke; fill: white; stroke: black; stroke-width: 1px; font-family="monospace"; font-size: 18px'><tspan x="42" dy="0em">ap</tspan></text>
<rect y="84" x="84" height="28" width="28" fill="#827717" fill-opacity="0.5"/>
<text y="98" x="98" dominant-baseline='middle' text-anchor='middle' fill='white' style='paint-order: stroke; fill: white; stroke: black; stroke-width: 1px; font-family="monospace"; font-size: 18px'><tspan x="98" dy="0em">\x -> x</tspan></text>
<rect y="84" x="140" height="56" width="56" fill="#004D40" fill-opacity="0.5"/>
<text y="112" x="168" dominant-baseline='middle' text-anchor='middle' fill='white' style='paint-order: stroke; fill: white; stroke: black; stroke-width: 1px; font-family="monospace"; font-size: 18px'><tspan x="168" dy="0em">x0</tspan></text>
<rect y="84" x="280" height="42" width="42" fill="#827717" fill-opacity="0.5"/>
<text y="105" x="301" dominant-baseline='middle' text-anchor='middle' fill='white' style='paint-order: stroke; fill: white; stroke: black; stroke-width: 1px; font-family="monospace"; font-size: 18px'><tspan x="301" dy="0em">is</tspan></text>
<rect y="84" x="406" height="56" width="56" fill="#004D40" fill-opacity="0.5"/>
<text y="112" x="434" dominant-baseline='middle' text-anchor='middle' fill='white' style='paint-order: stroke; fill: white; stroke: black; stroke-width: 1px; font-family="monospace"; font-size: 18px'><tspan x="434" dy="0em">x0</tspan></text>
<rect y="168" x="28" height="28" width="28" fill="#827717" fill-opacity="0.5"/>
<text y="182" x="42" dominant-baseline='middle' text-anchor='middle' fill='white' style='paint-order: stroke; fill: white; stroke: black; stroke-width: 1px; font-family="monospace"; font-size: 18px'><tspan x="42" dy="0em">ap</tspan></text>
<rect y="168" x="84" height="28" width="28" fill="#827717" fill-opacity="0.5"/>
<text y="182" x="98" dominant-baseline='middle' text-anchor='middle' fill='white' style='paint-order: stroke; fill: white; stroke: black; stroke-width: 1px; font-family="monospace"; font-size: 18px'><tspan x="98" dy="0em">\x -> x</tspan></text>
<rect y="168" x="140" height="28" width="28" fill="#004D40" fill-opacity="0.5"/>
<text y="182" x="154" dominant-baseline='middle' text-anchor='middle' fill='white' style='paint-order: stroke; fill: white; stroke: black; stroke-width: 1px; font-family="monospace"; font-size: 18px'><tspan x="154" dy="0em">1</tspan></text>
<rect y="168" x="252" height="42" width="42" fill="#827717" fill-opacity="0.5"/>
<text y="189" x="273" dominant-baseline='middle' text-anchor='middle' fill='white' style='paint-order: stroke; fill: white; stroke: black; stroke-width: 1px; font-family="monospace"; font-size: 18px'><tspan x="273" dy="0em">is</tspan></text>
<rect y="168" x="378" height="28" width="28" fill="#004D40" fill-opacity="0.5"/>
<text y="182" x="392" dominant-baseline='middle' text-anchor='middle' fill='white' style='paint-order: stroke; fill: white; stroke: black; stroke-width: 1px; font-family="monospace"; font-size: 18px'><tspan x="392" dy="0em">1</tspan></text>
<rect y="238" x="28" height="28" width="28" fill="#827717" fill-opacity="0.5"/>
<text y="252" x="42" dominant-baseline='middle' text-anchor='middle' fill='white' style='paint-order: stroke; fill: white; stroke: black; stroke-width: 1px; font-family="monospace"; font-size: 18px'><tspan x="42" dy="0em">ap</tspan></text>
<rect y="238" x="84" height="28" width="28" fill="#827717" fill-opacity="0.5"/>
<text y="252" x="98" dominant-baseline='middle' text-anchor='middle' fill='white' style='paint-order: stroke; fill: white; stroke: black; stroke-width: 1px; font-family="monospace"; font-size: 18px'><tspan x="98" dy="0em">\x -> x</tspan></text>
<rect y="238" x="140" height="28" width="28" fill="#827717" fill-opacity="0.5"/>
<text y="252" x="154" dominant-baseline='middle' text-anchor='middle' fill='white' style='paint-order: stroke; fill: white; stroke: black; stroke-width: 1px; font-family="monospace"; font-size: 18px'><tspan x="154" dy="0em">\x -> x</tspan></text>
<rect y="238" x="252" height="42" width="42" fill="#827717" fill-opacity="0.5"/>
<text y="259" x="273" dominant-baseline='middle' text-anchor='middle' fill='white' style='paint-order: stroke; fill: white; stroke: black; stroke-width: 1px; font-family="monospace"; font-size: 18px'><tspan x="273" dy="0em">is</tspan></text>
<rect y="238" x="378" height="28" width="28" fill="#827717" fill-opacity="0.5"/>
<text y="252" x="392" dominant-baseline='middle' text-anchor='middle' fill='white' style='paint-order: stroke; fill: white; stroke: black; stroke-width: 1px; font-family="monospace"; font-size: 18px'><tspan x="392" dy="0em">\x -> x</tspan></text>
<rect y="308" x="28" height="28" width="28" fill="#827717" fill-opacity="0.5"/>
<text y="322" x="42" dominant-baseline='middle' text-anchor='middle' fill='white' style='paint-order: stroke; fill: white; stroke: black; stroke-width: 1px; font-family="monospace"; font-size: 18px'><tspan x="42" dy="0em">ap</tspan></text>
<rect y="308" x="84" height="28" width="28" fill="#827717" fill-opacity="0.5"/>
<text y="322" x="98" dominant-baseline='middle' text-anchor='middle' fill='white' style='paint-order: stroke; fill: white; stroke: black; stroke-width: 1px; font-family="monospace"; font-size: 18px'><tspan x="98" dy="0em">\x -> x</tspan></text>
<rect y="308" x="140" height="56" width="56" fill="#827717" fill-opacity="0.5"/>
<text y="336" x="168" dominant-baseline='middle' text-anchor='middle' fill='white' style='paint-order: stroke; fill: white; stroke: black; stroke-width: 1px; font-family="monospace"; font-size: 18px'><tspan x="168" dy="0em">Sum</tspan></text>
<rect y="308" x="280" height="42" width="42" fill="#827717" fill-opacity="0.5"/>
<text y="329" x="301" dominant-baseline='middle' text-anchor='middle' fill='white' style='paint-order: stroke; fill: white; stroke: black; stroke-width: 1px; font-family="monospace"; font-size: 18px'><tspan x="301" dy="0em">is</tspan></text>
<rect y="308" x="406" height="56" width="56" fill="#827717" fill-opacity="0.5"/>
<text y="336" x="434" dominant-baseline='middle' text-anchor='middle' fill='white' style='paint-order: stroke; fill: white; stroke: black; stroke-width: 1px; font-family="monospace"; font-size: 18px'><tspan x="434" dy="0em">Sum</tspan></text>
<rect y="392" x="28" height="28" width="28" fill="#827717" fill-opacity="0.5"/>
<text y="406" x="42" dominant-baseline='middle' text-anchor='middle' fill='white' style='paint-order: stroke; fill: white; stroke: black; stroke-width: 1px; font-family="monospace"; font-size: 18px'><tspan x="42" dy="0em">ap</tspan></text>
<rect y="392" x="84" height="28" width="28" fill="#827717" fill-opacity="0.5"/>
<text y="406" x="98" dominant-baseline='middle' text-anchor='middle' fill='white' style='paint-order: stroke; fill: white; stroke: black; stroke-width: 1px; font-family="monospace"; font-size: 18px'><tspan x="98" dy="0em">\x -> x</tspan></text>
<rect y="392" x="140" height="28" width="28" fill="#827717" fill-opacity="0.5"/>
<text y="406" x="154" dominant-baseline='middle' text-anchor='middle' fill='white' style='paint-order: stroke; fill: white; stroke: black; stroke-width: 1px; font-family="monospace"; font-size: 18px'><tspan x="154" dy="0em">ap</tspan></text>
<rect y="392" x="196" height="56" width="56" fill="#827717" fill-opacity="0.5"/>
<text y="420" x="224" dominant-baseline='middle' text-anchor='middle' fill='white' style='paint-order: stroke; fill: white; stroke: black; stroke-width: 1px; font-family="monospace"; font-size: 18px'><tspan x="224" dy="0em">Sum</tspan></text>
<rect y="392" x="280" height="28" width="28" fill="#004D40" fill-opacity="0.5"/>
<text y="406" x="294" dominant-baseline='middle' text-anchor='middle' fill='white' style='paint-order: stroke; fill: white; stroke: black; stroke-width: 1px; font-family="monospace"; font-size: 18px'><tspan x="294" dy="0em">1</tspan></text>
<rect y="392" x="392" height="42" width="42" fill="#827717" fill-opacity="0.5"/>
<text y="413" x="413" dominant-baseline='middle' text-anchor='middle' fill='white' style='paint-order: stroke; fill: white; stroke: black; stroke-width: 1px; font-family="monospace"; font-size: 18px'><tspan x="413" dy="0em">is</tspan></text>
<rect y="392" x="518" height="28" width="28" fill="#827717" fill-opacity="0.5"/>
<text y="406" x="532" dominant-baseline='middle' text-anchor='middle' fill='white' style='paint-order: stroke; fill: white; stroke: black; stroke-width: 1px; font-family="monospace"; font-size: 18px'><tspan x="532" dy="0em">ap</tspan></text>
<rect y="392" x="574" height="56" width="56" fill="#827717" fill-opacity="0.5"/>
<text y="420" x="602" dominant-baseline='middle' text-anchor='middle' fill='white' style='paint-order: stroke; fill: white; stroke: black; stroke-width: 1px; font-family="monospace"; font-size: 18px'><tspan x="602" dy="0em">Sum</tspan></text>
<rect y="392" x="658" height="28" width="28" fill="#004D40" fill-opacity="0.5"/>
<text y="406" x="672" dominant-baseline='middle' text-anchor='middle' fill='white' style='paint-order: stroke; fill: white; stroke: black; stroke-width: 1px; font-family="monospace"; font-size: 18px'><tspan x="672" dy="0em">1</tspan></text>

</svg>
