<?xml version="1.0"?>
<svg xmlns="http://www.w3.org/2000/svg" height="546" width="742">
  <rect y="0" x="0" height="546" width="742" fill="black" />
  <rect y="0" x="0" height="14" width="14" fill="#757575"/>
    <rect y="0" x="14" height="14" width="14" fill="#757575"/>
    <rect y="0" x="28" height="14" width="14" fill="#757575"/>
    <rect y="0" x="42" height="14" width="14" fill="#757575"/>
    <rect y="0" x="56" height="14" width="14" fill="#757575"/>
    <rect y="0" x="70" height="14" width="14" fill="#757575"/>
    <rect y="0" x="84" height="14" width="14" fill="#757575"/>
    <rect y="0" x="98" height="14" width="14" fill="#757575"/>
    <rect y="0" x="112" height="14" width="14" fill="#757575"/>
    <rect y="0" x="126" height="14" width="14" fill="#757575"/>
    <rect y="0" x="140" height="14" width="14" fill="#757575"/>
    <rect y="0" x="154" height="14" width="14" fill="#757575"/>
    <rect y="0" x="168" height="14" width="14" fill="#757575"/>
    <rect y="0" x="182" height="14" width="14" fill="#757575"/>
    <rect y="0" x="196" height="14" width="14" fill="#757575"/>
    <rect y="0" x="210" height="14" width="14" fill="#757575"/>
    <rect y="0" x="224" height="14" width="14" fill="#757575"/>
    <rect y="0" x="238" height="14" width="14" fill="#757575"/>
    <rect y="0" x="252" height="14" width="14" fill="#757575"/>
    <rect y="0" x="266" height="14" width="14" fill="#757575"/>
    <rect y="0" x="280" height="14" width="14" fill="#757575"/>
    <rect y="0" x="294" height="14" width="14" fill="#757575"/>
    <rect y="0" x="308" height="14" width="14" fill="#757575"/>
    <rect y="0" x="322" height="14" width="14" fill="#757575"/>
    <rect y="0" x="336" height="14" width="14" fill="#757575"/>
    <rect y="0" x="350" height="14" width="14" fill="#757575"/>
    <rect y="0" x="364" height="14" width="14" fill="#757575"/>
    <rect y="0" x="378" height="14" width="14" fill="#757575"/>
    <rect y="0" x="392" height="14" width="14" fill="#757575"/>
    <rect y="0" x="406" height="14" width="14" fill="#757575"/>
    <rect y="0" x="420" height="14" width="14" fill="#757575"/>
    <rect y="0" x="434" height="14" width="14" fill="#757575"/>
    <rect y="0" x="448" height="14" width="14" fill="#757575"/>
    <rect y="0" x="462" height="14" width="14" fill="#757575"/>
    <rect y="0" x="476" height="14" width="14" fill="#757575"/>
    <rect y="0" x="490" height="14" width="14" fill="#757575"/>
    <rect y="0" x="504" height="14" width="14" fill="#757575"/>
    <rect y="0" x="518" height="14" width="14" fill="#757575"/>
    <rect y="0" x="532" height="14" width="14" fill="#757575"/>
    <rect y="0" x="546" height="14" width="14" fill="#757575"/>
    <rect y="0" x="560" height="14" width="14" fill="#757575"/>
    <rect y="0" x="574" height="14" width="14" fill="#757575"/>
    <rect y="0" x="588" height="14" width="14" fill="#757575"/>
    <rect y="0" x="602" height="14" width="14" fill="#757575"/>
    <rect y="0" x="616" height="14" width="14" fill="#757575"/>
    <rect y="0" x="630" height="14" width="14" fill="#757575"/>
    <rect y="0" x="644" height="14" width="14" fill="#757575"/>
    <rect y="0" x="658" height="14" width="14" fill="#757575"/>
    <rect y="0" x="672" height="14" width="14" fill="#757575"/>
    <rect y="0" x="686" height="14" width="14" fill="#757575"/>
    <rect y="0" x="700" height="14" width="14" fill="#757575"/>
    <rect y="0" x="714" height="14" width="14" fill="#757575"/>
    <rect y="0" x="728" height="14" width="14" fill="#757575"/>
    <rect y="14" x="0" height="14" width="14" fill="#757575"/>
    <rect y="14" x="728" height="14" width="14" fill="#757575"/>
    <rect y="28" x="0" height="14" width="14" fill="#757575"/>
    <rect y="28" x="28" height="14" width="14" fill="#757575"/>
    <rect y="28" x="42" height="14" width="14" fill="#757575"/>
    <rect y="28" x="56" height="14" width="14" fill="#757575"/>
    <rect y="28" x="728" height="14" width="14" fill="#757575"/>
    <rect y="42" x="0" height="14" width="14" fill="#757575"/>
    <rect y="42" x="28" height="14" width="14" fill="#757575"/>
    <rect y="42" x="56" height="14" width="14" fill="#757575"/>
    <rect y="42" x="728" height="14" width="14" fill="#757575"/>
    <rect y="56" x="0" height="14" width="14" fill="#757575"/>
    <rect y="56" x="28" height="14" width="14" fill="#757575"/>
    <rect y="56" x="728" height="14" width="14" fill="#757575"/>
    <rect y="70" x="0" height="14" width="14" fill="#757575"/>
    <rect y="70" x="728" height="14" width="14" fill="#757575"/>
    <rect y="84" x="0" height="14" width="14" fill="#757575"/>
    <rect y="84" x="728" height="14" width="14" fill="#757575"/>
    <rect y="98" x="0" height="14" width="14" fill="#757575"/>
    <rect y="98" x="28" height="14" width="14" fill="#757575"/>
    <rect y="98" x="42" height="14" width="14" fill="#757575"/>
    <rect y="98" x="84" height="14" width="14" fill="#757575"/>
    <rect y="98" x="98" height="14" width="14" fill="#757575"/>
    <rect y="98" x="140" height="14" width="14" fill="#757575"/>
    <rect y="98" x="154" height="14" width="14" fill="#757575"/>
    <rect y="98" x="168" height="14" width="14" fill="#757575"/>
    <rect y="98" x="210" height="14" width="14" fill="#757575"/>
    <rect y="98" x="224" height="14" width="14" fill="#757575"/>
    <rect y="98" x="238" height="14" width="14" fill="#757575"/>
    <rect y="98" x="252" height="14" width="14" fill="#757575"/>
    <rect y="98" x="294" height="14" width="14" fill="#757575"/>
    <rect y="98" x="308" height="14" width="14" fill="#757575"/>
    <rect y="98" x="322" height="14" width="14" fill="#757575"/>
    <rect y="98" x="336" height="14" width="14" fill="#757575"/>
    <rect y="98" x="434" height="14" width="14" fill="#757575"/>
    <rect y="98" x="448" height="14" width="14" fill="#757575"/>
    <rect y="98" x="462" height="14" width="14" fill="#757575"/>
    <rect y="98" x="560" height="14" width="14" fill="#757575"/>
    <rect y="98" x="574" height="14" width="14" fill="#757575"/>
    <rect y="98" x="588" height="14" width="14" fill="#757575"/>
    <rect y="98" x="602" height="14" width="14" fill="#757575"/>
    <rect y="98" x="728" height="14" width="14" fill="#757575"/>
    <rect y="112" x="0" height="14" width="14" fill="#757575"/>
    <rect y="112" x="28" height="14" width="14" fill="#757575"/>
    <rect y="112" x="84" height="14" width="14" fill="#757575"/>
    <rect y="112" x="140" height="14" width="14" fill="#757575"/>
    <rect y="112" x="168" height="14" width="14" fill="#757575"/>
    <rect y="112" x="210" height="14" width="14" fill="#757575"/>
    <rect y="112" x="224" height="14" width="14" fill="#757575"/>
    <rect y="112" x="252" height="14" width="14" fill="#757575"/>
    <rect y="112" x="294" height="14" width="14" fill="#757575"/>
    <rect y="112" x="308" height="14" width="14" fill="#757575"/>
    <rect y="112" x="336" height="14" width="14" fill="#757575"/>
    <rect y="112" x="434" height="14" width="14" fill="#757575"/>
    <rect y="112" x="560" height="14" width="14" fill="#757575"/>
    <rect y="112" x="574" height="14" width="14" fill="#757575"/>
    <rect y="112" x="602" height="14" width="14" fill="#757575"/>
    <rect y="112" x="728" height="14" width="14" fill="#757575"/>
    <rect y="126" x="0" height="14" width="14" fill="#757575"/>
    <rect y="126" x="140" height="14" width="14" fill="#757575"/>
    <rect y="126" x="210" height="14" width="14" fill="#757575"/>
    <rect y="126" x="238" height="14" width="14" fill="#757575"/>
    <rect y="126" x="252" height="14" width="14" fill="#757575"/>
    <rect y="126" x="294" height="14" width="14" fill="#757575"/>
    <rect y="126" x="336" height="14" width="14" fill="#757575"/>
    <rect y="126" x="434" height="14" width="14" fill="#757575"/>
    <rect y="126" x="448" height="14" width="14" fill="#757575"/>
    <rect y="126" x="462" height="14" width="14" fill="#757575"/>
    <rect y="126" x="560" height="14" width="14" fill="#757575"/>
    <rect y="126" x="588" height="14" width="14" fill="#757575"/>
    <rect y="126" x="602" height="14" width="14" fill="#757575"/>
    <rect y="126" x="728" height="14" width="14" fill="#757575"/>
    <rect y="140" x="0" height="14" width="14" fill="#757575"/>
    <rect y="140" x="210" height="14" width="14" fill="#757575"/>
    <rect y="140" x="224" height="14" width="14" fill="#757575"/>
    <rect y="140" x="238" height="14" width="14" fill="#757575"/>
    <rect y="140" x="252" height="14" width="14" fill="#757575"/>
    <rect y="140" x="294" height="14" width="14" fill="#757575"/>
    <rect y="140" x="308" height="14" width="14" fill="#757575"/>
    <rect y="140" x="322" height="14" width="14" fill="#757575"/>
    <rect y="140" x="336" height="14" width="14" fill="#757575"/>
    <rect y="140" x="560" height="14" width="14" fill="#757575"/>
    <rect y="140" x="574" height="14" width="14" fill="#757575"/>
    <rect y="140" x="588" height="14" width="14" fill="#757575"/>
    <rect y="140" x="602" height="14" width="14" fill="#757575"/>
    <rect y="140" x="728" height="14" width="14" fill="#757575"/>
    <rect y="154" x="0" height="14" width="14" fill="#757575"/>
    <rect y="154" x="728" height="14" width="14" fill="#757575"/>
    <rect y="168" x="0" height="14" width="14" fill="#757575"/>
    <rect y="168" x="728" height="14" width="14" fill="#757575"/>
    <rect y="182" x="0" height="14" width="14" fill="#757575"/>
    <rect y="182" x="28" height="14" width="14" fill="#757575"/>
    <rect y="182" x="42" height="14" width="14" fill="#757575"/>
    <rect y="182" x="84" height="14" width="14" fill="#757575"/>
    <rect y="182" x="98" height="14" width="14" fill="#757575"/>
    <rect y="182" x="140" height="14" width="14" fill="#757575"/>
    <rect y="182" x="154" height="14" width="14" fill="#757575"/>
    <rect y="182" x="168" height="14" width="14" fill="#757575"/>
    <rect y="182" x="224" height="14" width="14" fill="#757575"/>
    <rect y="182" x="280" height="14" width="14" fill="#757575"/>
    <rect y="182" x="294" height="14" width="14" fill="#757575"/>
    <rect y="182" x="392" height="14" width="14" fill="#757575"/>
    <rect y="182" x="406" height="14" width="14" fill="#757575"/>
    <rect y="182" x="420" height="14" width="14" fill="#757575"/>
    <rect y="182" x="532" height="14" width="14" fill="#757575"/>
    <rect y="182" x="728" height="14" width="14" fill="#757575"/>
    <rect y="196" x="0" height="14" width="14" fill="#757575"/>
    <rect y="196" x="28" height="14" width="14" fill="#757575"/>
    <rect y="196" x="84" height="14" width="14" fill="#757575"/>
    <rect y="196" x="140" height="14" width="14" fill="#757575"/>
    <rect y="196" x="168" height="14" width="14" fill="#757575"/>
    <rect y="196" x="210" height="14" width="14" fill="#757575"/>
    <rect y="196" x="224" height="14" width="14" fill="#757575"/>
    <rect y="196" x="266" height="14" width="14" fill="#757575"/>
    <rect y="196" x="280" height="14" width="14" fill="#757575"/>
    <rect y="196" x="392" height="14" width="14" fill="#757575"/>
    <rect y="196" x="518" height="14" width="14" fill="#757575"/>
    <rect y="196" x="532" height="14" width="14" fill="#757575"/>
    <rect y="196" x="728" height="14" width="14" fill="#757575"/>
    <rect y="210" x="0" height="14" width="14" fill="#757575"/>
    <rect y="210" x="140" height="14" width="14" fill="#757575"/>
    <rect y="210" x="266" height="14" width="14" fill="#757575"/>
    <rect y="210" x="280" height="14" width="14" fill="#757575"/>
    <rect y="210" x="392" height="14" width="14" fill="#757575"/>
    <rect y="210" x="406" height="14" width="14" fill="#757575"/>
    <rect y="210" x="420" height="14" width="14" fill="#757575"/>
    <rect y="210" x="728" height="14" width="14" fill="#757575"/>
    <rect y="224" x="0" height="14" width="14" fill="#757575"/>
    <rect y="224" x="728" height="14" width="14" fill="#757575"/>
    <rect y="238" x="0" height="14" width="14" fill="#757575"/>
    <rect y="238" x="728" height="14" width="14" fill="#757575"/>
    <rect y="252" x="0" height="14" width="14" fill="#757575"/>
    <rect y="252" x="28" height="14" width="14" fill="#757575"/>
    <rect y="252" x="42" height="14" width="14" fill="#757575"/>
    <rect y="252" x="84" height="14" width="14" fill="#757575"/>
    <rect y="252" x="98" height="14" width="14" fill="#757575"/>
    <rect y="252" x="140" height="14" width="14" fill="#757575"/>
    <rect y="252" x="154" height="14" width="14" fill="#757575"/>
    <rect y="252" x="168" height="14" width="14" fill="#757575"/>
    <rect y="252" x="210" height="14" width="14" fill="#757575"/>
    <rect y="252" x="224" height="14" width="14" fill="#757575"/>
    <rect y="252" x="238" height="14" width="14" fill="#757575"/>
    <rect y="252" x="280" height="14" width="14" fill="#757575"/>
    <rect y="252" x="294" height="14" width="14" fill="#757575"/>
    <rect y="252" x="392" height="14" width="14" fill="#757575"/>
    <rect y="252" x="406" height="14" width="14" fill="#757575"/>
    <rect y="252" x="420" height="14" width="14" fill="#757575"/>
    <rect y="252" x="518" height="14" width="14" fill="#757575"/>
    <rect y="252" x="532" height="14" width="14" fill="#757575"/>
    <rect y="252" x="546" height="14" width="14" fill="#757575"/>
    <rect y="252" x="728" height="14" width="14" fill="#757575"/>
    <rect y="266" x="0" height="14" width="14" fill="#757575"/>
    <rect y="266" x="28" height="14" width="14" fill="#757575"/>
    <rect y="266" x="84" height="14" width="14" fill="#757575"/>
    <rect y="266" x="140" height="14" width="14" fill="#757575"/>
    <rect y="266" x="168" height="14" width="14" fill="#757575"/>
    <rect y="266" x="210" height="14" width="14" fill="#757575"/>
    <rect y="266" x="238" height="14" width="14" fill="#757575"/>
    <rect y="266" x="280" height="14" width="14" fill="#757575"/>
    <rect y="266" x="294" height="14" width="14" fill="#757575"/>
    <rect y="266" x="392" height="14" width="14" fill="#757575"/>
    <rect y="266" x="518" height="14" width="14" fill="#757575"/>
    <rect y="266" x="546" height="14" width="14" fill="#757575"/>
    <rect y="266" x="728" height="14" width="14" fill="#757575"/>
    <rect y="280" x="0" height="14" width="14" fill="#757575"/>
    <rect y="280" x="140" height="14" width="14" fill="#757575"/>
    <rect y="280" x="210" height="14" width="14" fill="#757575"/>
    <rect y="280" x="392" height="14" width="14" fill="#757575"/>
    <rect y="280" x="406" height="14" width="14" fill="#757575"/>
    <rect y="280" x="420" height="14" width="14" fill="#757575"/>
    <rect y="280" x="518" height="14" width="14" fill="#757575"/>
    <rect y="280" x="728" height="14" width="14" fill="#757575"/>
    <rect y="294" x="0" height="14" width="14" fill="#757575"/>
    <rect y="294" x="728" height="14" width="14" fill="#757575"/>
    <rect y="308" x="0" height="14" width="14" fill="#757575"/>
    <rect y="308" x="728" height="14" width="14" fill="#757575"/>
    <rect y="322" x="0" height="14" width="14" fill="#757575"/>
    <rect y="322" x="28" height="14" width="14" fill="#757575"/>
    <rect y="322" x="42" height="14" width="14" fill="#757575"/>
    <rect y="322" x="84" height="14" width="14" fill="#757575"/>
    <rect y="322" x="98" height="14" width="14" fill="#757575"/>
    <rect y="322" x="140" height="14" width="14" fill="#757575"/>
    <rect y="322" x="154" height="14" width="14" fill="#757575"/>
    <rect y="322" x="168" height="14" width="14" fill="#757575"/>
    <rect y="322" x="210" height="14" width="14" fill="#757575"/>
    <rect y="322" x="224" height="14" width="14" fill="#757575"/>
    <rect y="322" x="238" height="14" width="14" fill="#757575"/>
    <rect y="322" x="280" height="14" width="14" fill="#757575"/>
    <rect y="322" x="294" height="14" width="14" fill="#757575"/>
    <rect y="322" x="336" height="14" width="14" fill="#757575"/>
    <rect y="322" x="350" height="14" width="14" fill="#757575"/>
    <rect y="322" x="364" height="14" width="14" fill="#757575"/>
    <rect y="322" x="378" height="14" width="14" fill="#757575"/>
    <rect y="322" x="434" height="14" width="14" fill="#757575"/>
    <rect y="322" x="448" height="14" width="14" fill="#757575"/>
    <rect y="322" x="546" height="14" width="14" fill="#757575"/>
    <rect y="322" x="560" height="14" width="14" fill="#757575"/>
    <rect y="322" x="574" height="14" width="14" fill="#757575"/>
    <rect y="322" x="672" height="14" width="14" fill="#757575"/>
    <rect y="322" x="686" height="14" width="14" fill="#757575"/>
    <rect y="322" x="700" height="14" width="14" fill="#757575"/>
    <rect y="322" x="728" height="14" width="14" fill="#757575"/>
    <rect y="336" x="0" height="14" width="14" fill="#757575"/>
    <rect y="336" x="28" height="14" width="14" fill="#757575"/>
    <rect y="336" x="84" height="14" width="14" fill="#757575"/>
    <rect y="336" x="140" height="14" width="14" fill="#757575"/>
    <rect y="336" x="168" height="14" width="14" fill="#757575"/>
    <rect y="336" x="210" height="14" width="14" fill="#757575"/>
    <rect y="336" x="238" height="14" width="14" fill="#757575"/>
    <rect y="336" x="280" height="14" width="14" fill="#757575"/>
    <rect y="336" x="336" height="14" width="14" fill="#757575"/>
    <rect y="336" x="350" height="14" width="14" fill="#757575"/>
    <rect y="336" x="420" height="14" width="14" fill="#757575"/>
    <rect y="336" x="434" height="14" width="14" fill="#757575"/>
    <rect y="336" x="546" height="14" width="14" fill="#757575"/>
    <rect y="336" x="672" height="14" width="14" fill="#757575"/>
    <rect y="336" x="700" height="14" width="14" fill="#757575"/>
    <rect y="336" x="728" height="14" width="14" fill="#757575"/>
    <rect y="350" x="0" height="14" width="14" fill="#757575"/>
    <rect y="350" x="140" height="14" width="14" fill="#757575"/>
    <rect y="350" x="210" height="14" width="14" fill="#757575"/>
    <rect y="350" x="336" height="14" width="14" fill="#757575"/>
    <rect y="350" x="378" height="14" width="14" fill="#757575"/>
    <rect y="350" x="420" height="14" width="14" fill="#757575"/>
    <rect y="350" x="434" height="14" width="14" fill="#757575"/>
    <rect y="350" x="546" height="14" width="14" fill="#757575"/>
    <rect y="350" x="560" height="14" width="14" fill="#757575"/>
    <rect y="350" x="574" height="14" width="14" fill="#757575"/>
    <rect y="350" x="672" height="14" width="14" fill="#757575"/>
    <rect y="350" x="728" height="14" width="14" fill="#757575"/>
    <rect y="364" x="0" height="14" width="14" fill="#757575"/>
    <rect y="364" x="336" height="14" width="14" fill="#757575"/>
    <rect y="364" x="364" height="14" width="14" fill="#757575"/>
    <rect y="364" x="378" height="14" width="14" fill="#757575"/>
    <rect y="364" x="728" height="14" width="14" fill="#757575"/>
    <rect y="378" x="0" height="14" width="14" fill="#757575"/>
    <rect y="378" x="728" height="14" width="14" fill="#757575"/>
    <rect y="392" x="0" height="14" width="14" fill="#757575"/>
    <rect y="392" x="728" height="14" width="14" fill="#757575"/>
    <rect y="406" x="0" height="14" width="14" fill="#757575"/>
    <rect y="406" x="28" height="14" width="14" fill="#757575"/>
    <rect y="406" x="42" height="14" width="14" fill="#757575"/>
    <rect y="406" x="84" height="14" width="14" fill="#757575"/>
    <rect y="406" x="98" height="14" width="14" fill="#757575"/>
    <rect y="406" x="140" height="14" width="14" fill="#757575"/>
    <rect y="406" x="154" height="14" width="14" fill="#757575"/>
    <rect y="406" x="168" height="14" width="14" fill="#757575"/>
    <rect y="406" x="210" height="14" width="14" fill="#757575"/>
    <rect y="406" x="224" height="14" width="14" fill="#757575"/>
    <rect y="406" x="266" height="14" width="14" fill="#757575"/>
    <rect y="406" x="280" height="14" width="14" fill="#757575"/>
    <rect y="406" x="294" height="14" width="14" fill="#757575"/>
    <rect y="406" x="308" height="14" width="14" fill="#757575"/>
    <rect y="406" x="364" height="14" width="14" fill="#757575"/>
    <rect y="406" x="378" height="14" width="14" fill="#757575"/>
    <rect y="406" x="420" height="14" width="14" fill="#757575"/>
    <rect y="406" x="434" height="14" width="14" fill="#757575"/>
    <rect y="406" x="448" height="14" width="14" fill="#757575"/>
    <rect y="406" x="546" height="14" width="14" fill="#757575"/>
    <rect y="406" x="560" height="14" width="14" fill="#757575"/>
    <rect y="406" x="574" height="14" width="14" fill="#757575"/>
    <rect y="406" x="686" height="14" width="14" fill="#757575"/>
    <rect y="406" x="700" height="14" width="14" fill="#757575"/>
    <rect y="406" x="728" height="14" width="14" fill="#757575"/>
    <rect y="420" x="0" height="14" width="14" fill="#757575"/>
    <rect y="420" x="28" height="14" width="14" fill="#757575"/>
    <rect y="420" x="84" height="14" width="14" fill="#757575"/>
    <rect y="420" x="140" height="14" width="14" fill="#757575"/>
    <rect y="420" x="168" height="14" width="14" fill="#757575"/>
    <rect y="420" x="210" height="14" width="14" fill="#757575"/>
    <rect y="420" x="266" height="14" width="14" fill="#757575"/>
    <rect y="420" x="280" height="14" width="14" fill="#757575"/>
    <rect y="420" x="350" height="14" width="14" fill="#757575"/>
    <rect y="420" x="364" height="14" width="14" fill="#757575"/>
    <rect y="420" x="420" height="14" width="14" fill="#757575"/>
    <rect y="420" x="448" height="14" width="14" fill="#757575"/>
    <rect y="420" x="546" height="14" width="14" fill="#757575"/>
    <rect y="420" x="672" height="14" width="14" fill="#757575"/>
    <rect y="420" x="700" height="14" width="14" fill="#757575"/>
    <rect y="420" x="728" height="14" width="14" fill="#757575"/>
    <rect y="434" x="0" height="14" width="14" fill="#757575"/>
    <rect y="434" x="140" height="14" width="14" fill="#757575"/>
    <rect y="434" x="266" height="14" width="14" fill="#757575"/>
    <rect y="434" x="308" height="14" width="14" fill="#757575"/>
    <rect y="434" x="350" height="14" width="14" fill="#757575"/>
    <rect y="434" x="364" height="14" width="14" fill="#757575"/>
    <rect y="434" x="420" height="14" width="14" fill="#757575"/>
    <rect y="434" x="546" height="14" width="14" fill="#757575"/>
    <rect y="434" x="560" height="14" width="14" fill="#757575"/>
    <rect y="434" x="574" height="14" width="14" fill="#757575"/>
    <rect y="434" x="672" height="14" width="14" fill="#757575"/>
    <rect y="434" x="686" height="14" width="14" fill="#757575"/>
    <rect y="434" x="728" height="14" width="14" fill="#757575"/>
    <rect y="448" x="0" height="14" width="14" fill="#757575"/>
    <rect y="448" x="266" height="14" width="14" fill="#757575"/>
    <rect y="448" x="294" height="14" width="14" fill="#757575"/>
    <rect y="448" x="308" height="14" width="14" fill="#757575"/>
    <rect y="448" x="728" height="14" width="14" fill="#757575"/>
    <rect y="462" x="0" height="14" width="14" fill="#757575"/>
    <rect y="462" x="728" height="14" width="14" fill="#757575"/>
    <rect y="476" x="0" height="14" width="14" fill="#757575"/>
    <rect y="476" x="728" height="14" width="14" fill="#757575"/>
    <rect y="490" x="0" height="14" width="14" fill="#757575"/>
    <rect y="490" x="728" height="14" width="14" fill="#757575"/>
    <rect y="504" x="0" height="14" width="14" fill="#757575"/>
    <rect y="504" x="28" height="14" width="14" fill="#757575"/>
    <rect y="504" x="56" height="14" width="14" fill="#757575"/>
    <rect y="504" x="84" height="14" width="14" fill="#757575"/>
    <rect y="504" x="112" height="14" width="14" fill="#757575"/>
    <rect y="504" x="728" height="14" width="14" fill="#757575"/>
    <rect y="518" x="0" height="14" width="14" fill="#757575"/>
    <rect y="518" x="728" height="14" width="14" fill="#757575"/>
    <rect y="532" x="0" height="14" width="14" fill="#757575"/>
    <rect y="532" x="14" height="14" width="14" fill="#757575"/>
    <rect y="532" x="28" height="14" width="14" fill="#757575"/>
    <rect y="532" x="42" height="14" width="14" fill="#757575"/>
    <rect y="532" x="56" height="14" width="14" fill="#757575"/>
    <rect y="532" x="70" height="14" width="14" fill="#757575"/>
    <rect y="532" x="84" height="14" width="14" fill="#757575"/>
    <rect y="532" x="98" height="14" width="14" fill="#757575"/>
    <rect y="532" x="112" height="14" width="14" fill="#757575"/>
    <rect y="532" x="126" height="14" width="14" fill="#757575"/>
    <rect y="532" x="140" height="14" width="14" fill="#757575"/>
    <rect y="532" x="154" height="14" width="14" fill="#757575"/>
    <rect y="532" x="168" height="14" width="14" fill="#757575"/>
    <rect y="532" x="182" height="14" width="14" fill="#757575"/>
    <rect y="532" x="196" height="14" width="14" fill="#757575"/>
    <rect y="532" x="210" height="14" width="14" fill="#757575"/>
    <rect y="532" x="224" height="14" width="14" fill="#757575"/>
    <rect y="532" x="238" height="14" width="14" fill="#757575"/>
    <rect y="532" x="252" height="14" width="14" fill="#757575"/>
    <rect y="532" x="266" height="14" width="14" fill="#757575"/>
    <rect y="532" x="280" height="14" width="14" fill="#757575"/>
    <rect y="532" x="294" height="14" width="14" fill="#757575"/>
    <rect y="532" x="308" height="14" width="14" fill="#757575"/>
    <rect y="532" x="322" height="14" width="14" fill="#757575"/>
    <rect y="532" x="336" height="14" width="14" fill="#757575"/>
    <rect y="532" x="350" height="14" width="14" fill="#757575"/>
    <rect y="532" x="364" height="14" width="14" fill="#757575"/>
    <rect y="532" x="378" height="14" width="14" fill="#757575"/>
    <rect y="532" x="392" height="14" width="14" fill="#757575"/>
    <rect y="532" x="406" height="14" width="14" fill="#757575"/>
    <rect y="532" x="420" height="14" width="14" fill="#757575"/>
    <rect y="532" x="434" height="14" width="14" fill="#757575"/>
    <rect y="532" x="448" height="14" width="14" fill="#757575"/>
    <rect y="532" x="462" height="14" width="14" fill="#757575"/>
    <rect y="532" x="476" height="14" width="14" fill="#757575"/>
    <rect y="532" x="490" height="14" width="14" fill="#757575"/>
    <rect y="532" x="504" height="14" width="14" fill="#757575"/>
    <rect y="532" x="518" height="14" width="14" fill="#757575"/>
    <rect y="532" x="532" height="14" width="14" fill="#757575"/>
    <rect y="532" x="546" height="14" width="14" fill="#757575"/>
    <rect y="532" x="560" height="14" width="14" fill="#757575"/>
    <rect y="532" x="574" height="14" width="14" fill="#757575"/>
    <rect y="532" x="588" height="14" width="14" fill="#757575"/>
    <rect y="532" x="602" height="14" width="14" fill="#757575"/>
    <rect y="532" x="616" height="14" width="14" fill="#757575"/>
    <rect y="532" x="630" height="14" width="14" fill="#757575"/>
    <rect y="532" x="644" height="14" width="14" fill="#757575"/>
    <rect y="532" x="658" height="14" width="14" fill="#757575"/>
    <rect y="532" x="672" height="14" width="14" fill="#757575"/>
    <rect y="532" x="686" height="14" width="14" fill="#757575"/>
    <rect y="532" x="700" height="14" width="14" fill="#757575"/>
    <rect y="532" x="714" height="14" width="14" fill="#757575"/>
    <rect y="532" x="728" height="14" width="14" fill="#757575"/>
    
  <rect y="28" x="28" height="42" width="42" fill="#827717" fill-opacity="0.5"/>
<text y="49" x="49" dominant-baseline='middle' text-anchor='middle' fill='white' style='paint-order: stroke; fill: white; stroke: black; stroke-width: 1px; font-family="monospace"; font-size: 18px'><tspan x="49" dy="0em">True</tspan></text>
<rect y="98" x="28" height="28" width="28" fill="#827717" fill-opacity="0.5"/>
<text y="112" x="42" dominant-baseline='middle' text-anchor='middle' fill='white' style='paint-order: stroke; fill: white; stroke: black; stroke-width: 1px; font-family="monospace"; font-size: 18px'><tspan x="42" dy="0em">ap</tspan></text>
<rect y="98" x="84" height="28" width="28" fill="#827717" fill-opacity="0.5"/>
<text y="112" x="98" dominant-baseline='middle' text-anchor='middle' fill='white' style='paint-order: stroke; fill: white; stroke: black; stroke-width: 1px; font-family="monospace"; font-size: 18px'><tspan x="98" dy="0em">ap</tspan></text>
<rect y="98" x="140" height="42" width="42" fill="#827717" fill-opacity="0.5"/>
<text y="119" x="161" dominant-baseline='middle' text-anchor='middle' fill='white' style='paint-order: stroke; fill: white; stroke: black; stroke-width: 1px; font-family="monospace"; font-size: 18px'><tspan x="161" dy="0em">True</tspan></text>
<rect y="98" x="210" height="56" width="56" fill="#004D40" fill-opacity="0.5"/>
<text y="126" x="238" dominant-baseline='middle' text-anchor='middle' fill='white' style='paint-order: stroke; fill: white; stroke: black; stroke-width: 1px; font-family="monospace"; font-size: 18px'><tspan x="238" dy="0em">x0</tspan></text>
<rect y="98" x="294" height="56" width="56" fill="#004D40" fill-opacity="0.5"/>
<text y="126" x="322" dominant-baseline='middle' text-anchor='middle' fill='white' style='paint-order: stroke; fill: white; stroke: black; stroke-width: 1px; font-family="monospace"; font-size: 18px'><tspan x="322" dy="0em">x1</tspan></text>
<rect y="98" x="434" height="42" width="42" fill="#827717" fill-opacity="0.5"/>
<text y="119" x="455" dominant-baseline='middle' text-anchor='middle' fill='white' style='paint-order: stroke; fill: white; stroke: black; stroke-width: 1px; font-family="monospace"; font-size: 18px'><tspan x="455" dy="0em">is</tspan></text>
<rect y="98" x="560" height="56" width="56" fill="#004D40" fill-opacity="0.5"/>
<text y="126" x="588" dominant-baseline='middle' text-anchor='middle' fill='white' style='paint-order: stroke; fill: white; stroke: black; stroke-width: 1px; font-family="monospace"; font-size: 18px'><tspan x="588" dy="0em">x0</tspan></text>
<rect y="182" x="28" height="28" width="28" fill="#827717" fill-opacity="0.5"/>
<text y="196" x="42" dominant-baseline='middle' text-anchor='middle' fill='white' style='paint-order: stroke; fill: white; stroke: black; stroke-width: 1px; font-family="monospace"; font-size: 18px'><tspan x="42" dy="0em">ap</tspan></text>
<rect y="182" x="84" height="28" width="28" fill="#827717" fill-opacity="0.5"/>
<text y="196" x="98" dominant-baseline='middle' text-anchor='middle' fill='white' style='paint-order: stroke; fill: white; stroke: black; stroke-width: 1px; font-family="monospace"; font-size: 18px'><tspan x="98" dy="0em">ap</tspan></text>
<rect y="182" x="140" height="42" width="42" fill="#827717" fill-opacity="0.5"/>
<text y="203" x="161" dominant-baseline='middle' text-anchor='middle' fill='white' style='paint-order: stroke; fill: white; stroke: black; stroke-width: 1px; font-family="monospace"; font-size: 18px'><tspan x="161" dy="0em">True</tspan></text>
<rect y="182" x="210" height="28" width="28" fill="#004D40" fill-opacity="0.5"/>
<text y="196" x="224" dominant-baseline='middle' text-anchor='middle' fill='white' style='paint-order: stroke; fill: white; stroke: black; stroke-width: 1px; font-family="monospace"; font-size: 18px'><tspan x="224" dy="0em">1</tspan></text>
<rect y="182" x="266" height="42" width="42" fill="#004D40" fill-opacity="0.5"/>
<text y="203" x="287" dominant-baseline='middle' text-anchor='middle' fill='white' style='paint-order: stroke; fill: white; stroke: black; stroke-width: 1px; font-family="monospace"; font-size: 18px'><tspan x="287" dy="0em">5</tspan></text>
<rect y="182" x="392" height="42" width="42" fill="#827717" fill-opacity="0.5"/>
<text y="203" x="413" dominant-baseline='middle' text-anchor='middle' fill='white' style='paint-order: stroke; fill: white; stroke: black; stroke-width: 1px; font-family="monospace"; font-size: 18px'><tspan x="413" dy="0em">is</tspan></text>
<rect y="182" x="518" height="28" width="28" fill="#004D40" fill-opacity="0.5"/>
<text y="196" x="532" dominant-baseline='middle' text-anchor='middle' fill='white' style='paint-order: stroke; fill: white; stroke: black; stroke-width: 1px; font-family="monospace"; font-size: 18px'><tspan x="532" dy="0em">1</tspan></text>
<rect y="252" x="28" height="28" width="28" fill="#827717" fill-opacity="0.5"/>
<text y="266" x="42" dominant-baseline='middle' text-anchor='middle' fill='white' style='paint-order: stroke; fill: white; stroke: black; stroke-width: 1px; font-family="monospace"; font-size: 18px'><tspan x="42" dy="0em">ap</tspan></text>
<rect y="252" x="84" height="28" width="28" fill="#827717" fill-opacity="0.5"/>
<text y="266" x="98" dominant-baseline='middle' text-anchor='middle' fill='white' style='paint-order: stroke; fill: white; stroke: black; stroke-width: 1px; font-family="monospace"; font-size: 18px'><tspan x="98" dy="0em">ap</tspan></text>
<rect y="252" x="140" height="42" width="42" fill="#827717" fill-opacity="0.5"/>
<text y="273" x="161" dominant-baseline='middle' text-anchor='middle' fill='white' style='paint-order: stroke; fill: white; stroke: black; stroke-width: 1px; font-family="monospace"; font-size: 18px'><tspan x="161" dy="0em">True</tspan></text>
<rect y="252" x="210" height="42" width="42" fill="#827717" fill-opacity="0.5"/>
<text y="273" x="231" dominant-baseline='middle' text-anchor='middle' fill='white' style='paint-order: stroke; fill: white; stroke: black; stroke-width: 1px; font-family="monospace"; font-size: 18px'><tspan x="231" dy="0em">True</tspan></text>
<rect y="252" x="280" height="28" width="28" fill="#BF360C" fill-opacity="0.5"/>
<text y="266" x="294" dominant-baseline='middle' text-anchor='middle' fill='white' style='paint-order: stroke; fill: white; stroke: black; stroke-width: 1px; font-family="monospace"; font-size: 18px'><tspan x="294" dy="0em">1?</tspan></text>
<rect y="252" x="392" height="42" width="42" fill="#827717" fill-opacity="0.5"/>
<text y="273" x="413" dominant-baseline='middle' text-anchor='middle' fill='white' style='paint-order: stroke; fill: white; stroke: black; stroke-width: 1px; font-family="monospace"; font-size: 18px'><tspan x="413" dy="0em">is</tspan></text>
<rect y="252" x="518" height="42" width="42" fill="#827717" fill-opacity="0.5"/>
<text y="273" x="539" dominant-baseline='middle' text-anchor='middle' fill='white' style='paint-order: stroke; fill: white; stroke: black; stroke-width: 1px; font-family="monospace"; font-size: 18px'><tspan x="539" dy="0em">True</tspan></text>
<rect y="322" x="28" height="28" width="28" fill="#827717" fill-opacity="0.5"/>
<text y="336" x="42" dominant-baseline='middle' text-anchor='middle' fill='white' style='paint-order: stroke; fill: white; stroke: black; stroke-width: 1px; font-family="monospace"; font-size: 18px'><tspan x="42" dy="0em">ap</tspan></text>
<rect y="322" x="84" height="28" width="28" fill="#827717" fill-opacity="0.5"/>
<text y="336" x="98" dominant-baseline='middle' text-anchor='middle' fill='white' style='paint-order: stroke; fill: white; stroke: black; stroke-width: 1px; font-family="monospace"; font-size: 18px'><tspan x="98" dy="0em">ap</tspan></text>
<rect y="322" x="140" height="42" width="42" fill="#827717" fill-opacity="0.5"/>
<text y="343" x="161" dominant-baseline='middle' text-anchor='middle' fill='white' style='paint-order: stroke; fill: white; stroke: black; stroke-width: 1px; font-family="monospace"; font-size: 18px'><tspan x="161" dy="0em">True</tspan></text>
<rect y="322" x="210" height="42" width="42" fill="#827717" fill-opacity="0.5"/>
<text y="343" x="231" dominant-baseline='middle' text-anchor='middle' fill='white' style='paint-order: stroke; fill: white; stroke: black; stroke-width: 1px; font-family="monospace"; font-size: 18px'><tspan x="231" dy="0em">True</tspan></text>
<rect y="322" x="280" height="28" width="28" fill="#827717" fill-opacity="0.5"/>
<text y="336" x="294" dominant-baseline='middle' text-anchor='middle' fill='white' style='paint-order: stroke; fill: white; stroke: black; stroke-width: 1px; font-family="monospace"; font-size: 18px'><tspan x="294" dy="0em">ap</tspan></text>
<rect y="322" x="336" height="56" width="56" fill="#827717" fill-opacity="0.5"/>
<text y="350" x="364" dominant-baseline='middle' text-anchor='middle' fill='white' style='paint-order: stroke; fill: white; stroke: black; stroke-width: 1px; font-family="monospace"; font-size: 18px'><tspan x="364" dy="0em">Succ</tspan></text>
<rect y="322" x="420" height="42" width="42" fill="#004D40" fill-opacity="0.5"/>
<text y="343" x="441" dominant-baseline='middle' text-anchor='middle' fill='white' style='paint-order: stroke; fill: white; stroke: black; stroke-width: 1px; font-family="monospace"; font-size: 18px'><tspan x="441" dy="0em">5</tspan></text>
<rect y="322" x="546" height="42" width="42" fill="#827717" fill-opacity="0.5"/>
<text y="343" x="567" dominant-baseline='middle' text-anchor='middle' fill='white' style='paint-order: stroke; fill: white; stroke: black; stroke-width: 1px; font-family="monospace"; font-size: 18px'><tspan x="567" dy="0em">is</tspan></text>
<rect y="322" x="672" height="42" width="42" fill="#827717" fill-opacity="0.5"/>
<text y="343" x="693" dominant-baseline='middle' text-anchor='middle' fill='white' style='paint-order: stroke; fill: white; stroke: black; stroke-width: 1px; font-family="monospace"; font-size: 18px'><tspan x="693" dy="0em">True</tspan></text>
<rect y="406" x="28" height="28" width="28" fill="#827717" fill-opacity="0.5"/>
<text y="420" x="42" dominant-baseline='middle' text-anchor='middle' fill='white' style='paint-order: stroke; fill: white; stroke: black; stroke-width: 1px; font-family="monospace"; font-size: 18px'><tspan x="42" dy="0em">ap</tspan></text>
<rect y="406" x="84" height="28" width="28" fill="#827717" fill-opacity="0.5"/>
<text y="420" x="98" dominant-baseline='middle' text-anchor='middle' fill='white' style='paint-order: stroke; fill: white; stroke: black; stroke-width: 1px; font-family="monospace"; font-size: 18px'><tspan x="98" dy="0em">ap</tspan></text>
<rect y="406" x="140" height="42" width="42" fill="#827717" fill-opacity="0.5"/>
<text y="427" x="161" dominant-baseline='middle' text-anchor='middle' fill='white' style='paint-order: stroke; fill: white; stroke: black; stroke-width: 1px; font-family="monospace"; font-size: 18px'><tspan x="161" dy="0em">True</tspan></text>
<rect y="406" x="210" height="28" width="28" fill="#827717" fill-opacity="0.5"/>
<text y="420" x="224" dominant-baseline='middle' text-anchor='middle' fill='white' style='paint-order: stroke; fill: white; stroke: black; stroke-width: 1px; font-family="monospace"; font-size: 18px'><tspan x="224" dy="0em">ap</tspan></text>
<rect y="406" x="266" height="56" width="56" fill="#827717" fill-opacity="0.5"/>
<text y="434" x="294" dominant-baseline='middle' text-anchor='middle' fill='white' style='paint-order: stroke; fill: white; stroke: black; stroke-width: 1px; font-family="monospace"; font-size: 18px'><tspan x="294" dy="0em">Succ</tspan></text>
<rect y="406" x="350" height="42" width="42" fill="#004D40" fill-opacity="0.5"/>
<text y="427" x="371" dominant-baseline='middle' text-anchor='middle' fill='white' style='paint-order: stroke; fill: white; stroke: black; stroke-width: 1px; font-family="monospace"; font-size: 18px'><tspan x="371" dy="0em">5</tspan></text>
<rect y="406" x="420" height="42" width="42" fill="#827717" fill-opacity="0.5"/>
<text y="427" x="441" dominant-baseline='middle' text-anchor='middle' fill='white' style='paint-order: stroke; fill: white; stroke: black; stroke-width: 1px; font-family="monospace"; font-size: 18px'><tspan x="441" dy="0em">True</tspan></text>
<rect y="406" x="546" height="42" width="42" fill="#827717" fill-opacity="0.5"/>
<text y="427" x="567" dominant-baseline='middle' text-anchor='middle' fill='white' style='paint-order: stroke; fill: white; stroke: black; stroke-width: 1px; font-family="monospace"; font-size: 18px'><tspan x="567" dy="0em">is</tspan></text>
<rect y="406" x="672" height="42" width="42" fill="#004D40" fill-opacity="0.5"/>
<text y="427" x="693" dominant-baseline='middle' text-anchor='middle' fill='white' style='paint-order: stroke; fill: white; stroke: black; stroke-width: 1px; font-family="monospace"; font-size: 18px'><tspan x="693" dy="0em">6</tspan></text>

</svg>
