<?xml version="1.0"?>
<svg xmlns="http://www.w3.org/2000/svg" height="588" width="616">
  <rect y="0" x="0" height="588" width="616" fill="black" />
  <rect y="0" x="0" height="14" width="14" fill="#757575"/>
    <rect y="0" x="14" height="14" width="14" fill="#757575"/>
    <rect y="0" x="28" height="14" width="14" fill="#757575"/>
    <rect y="0" x="42" height="14" width="14" fill="#757575"/>
    <rect y="0" x="56" height="14" width="14" fill="#757575"/>
    <rect y="0" x="70" height="14" width="14" fill="#757575"/>
    <rect y="0" x="84" height="14" width="14" fill="#757575"/>
    <rect y="0" x="98" height="14" width="14" fill="#757575"/>
    <rect y="0" x="112" height="14" width="14" fill="#757575"/>
    <rect y="0" x="126" height="14" width="14" fill="#757575"/>
    <rect y="0" x="140" height="14" width="14" fill="#757575"/>
    <rect y="0" x="154" height="14" width="14" fill="#757575"/>
    <rect y="0" x="168" height="14" width="14" fill="#757575"/>
    <rect y="0" x="182" height="14" width="14" fill="#757575"/>
    <rect y="0" x="196" height="14" width="14" fill="#757575"/>
    <rect y="0" x="210" height="14" width="14" fill="#757575"/>
    <rect y="0" x="224" height="14" width="14" fill="#757575"/>
    <rect y="0" x="238" height="14" width="14" fill="#757575"/>
    <rect y="0" x="252" height="14" width="14" fill="#757575"/>
    <rect y="0" x="266" height="14" width="14" fill="#757575"/>
    <rect y="0" x="280" height="14" width="14" fill="#757575"/>
    <rect y="0" x="294" height="14" width="14" fill="#757575"/>
    <rect y="0" x="308" height="14" width="14" fill="#757575"/>
    <rect y="0" x="322" height="14" width="14" fill="#757575"/>
    <rect y="0" x="336" height="14" width="14" fill="#757575"/>
    <rect y="0" x="350" height="14" width="14" fill="#757575"/>
    <rect y="0" x="364" height="14" width="14" fill="#757575"/>
    <rect y="0" x="378" height="14" width="14" fill="#757575"/>
    <rect y="0" x="392" height="14" width="14" fill="#757575"/>
    <rect y="0" x="406" height="14" width="14" fill="#757575"/>
    <rect y="0" x="420" height="14" width="14" fill="#757575"/>
    <rect y="0" x="434" height="14" width="14" fill="#757575"/>
    <rect y="0" x="448" height="14" width="14" fill="#757575"/>
    <rect y="0" x="462" height="14" width="14" fill="#757575"/>
    <rect y="0" x="476" height="14" width="14" fill="#757575"/>
    <rect y="0" x="490" height="14" width="14" fill="#757575"/>
    <rect y="0" x="504" height="14" width="14" fill="#757575"/>
    <rect y="0" x="518" height="14" width="14" fill="#757575"/>
    <rect y="0" x="532" height="14" width="14" fill="#757575"/>
    <rect y="0" x="546" height="14" width="14" fill="#757575"/>
    <rect y="0" x="560" height="14" width="14" fill="#757575"/>
    <rect y="0" x="574" height="14" width="14" fill="#757575"/>
    <rect y="0" x="588" height="14" width="14" fill="#757575"/>
    <rect y="0" x="602" height="14" width="14" fill="#757575"/>
    <rect y="14" x="0" height="14" width="14" fill="#757575"/>
    <rect y="14" x="602" height="14" width="14" fill="#757575"/>
    <rect y="28" x="0" height="14" width="14" fill="#757575"/>
    <rect y="28" x="28" height="14" width="14" fill="#757575"/>
    <rect y="28" x="42" height="14" width="14" fill="#757575"/>
    <rect y="28" x="56" height="14" width="14" fill="#757575"/>
    <rect y="28" x="70" height="14" width="14" fill="#757575"/>
    <rect y="28" x="602" height="14" width="14" fill="#757575"/>
    <rect y="42" x="0" height="14" width="14" fill="#757575"/>
    <rect y="42" x="28" height="14" width="14" fill="#757575"/>
    <rect y="42" x="42" height="14" width="14" fill="#757575"/>
    <rect y="42" x="70" height="14" width="14" fill="#757575"/>
    <rect y="42" x="602" height="14" width="14" fill="#757575"/>
    <rect y="56" x="0" height="14" width="14" fill="#757575"/>
    <rect y="56" x="28" height="14" width="14" fill="#757575"/>
    <rect y="56" x="42" height="14" width="14" fill="#757575"/>
    <rect y="56" x="70" height="14" width="14" fill="#757575"/>
    <rect y="56" x="602" height="14" width="14" fill="#757575"/>
    <rect y="70" x="0" height="14" width="14" fill="#757575"/>
    <rect y="70" x="28" height="14" width="14" fill="#757575"/>
    <rect y="70" x="42" height="14" width="14" fill="#757575"/>
    <rect y="70" x="70" height="14" width="14" fill="#757575"/>
    <rect y="70" x="602" height="14" width="14" fill="#757575"/>
    <rect y="84" x="0" height="14" width="14" fill="#757575"/>
    <rect y="84" x="602" height="14" width="14" fill="#757575"/>
    <rect y="98" x="0" height="14" width="14" fill="#757575"/>
    <rect y="98" x="602" height="14" width="14" fill="#757575"/>
    <rect y="112" x="0" height="14" width="14" fill="#757575"/>
    <rect y="112" x="28" height="14" width="14" fill="#757575"/>
    <rect y="112" x="42" height="14" width="14" fill="#757575"/>
    <rect y="112" x="84" height="14" width="14" fill="#757575"/>
    <rect y="112" x="98" height="14" width="14" fill="#757575"/>
    <rect y="112" x="140" height="14" width="14" fill="#757575"/>
    <rect y="112" x="154" height="14" width="14" fill="#757575"/>
    <rect y="112" x="168" height="14" width="14" fill="#757575"/>
    <rect y="112" x="182" height="14" width="14" fill="#757575"/>
    <rect y="112" x="238" height="14" width="14" fill="#757575"/>
    <rect y="112" x="294" height="14" width="14" fill="#757575"/>
    <rect y="112" x="308" height="14" width="14" fill="#757575"/>
    <rect y="112" x="406" height="14" width="14" fill="#757575"/>
    <rect y="112" x="420" height="14" width="14" fill="#757575"/>
    <rect y="112" x="434" height="14" width="14" fill="#757575"/>
    <rect y="112" x="546" height="14" width="14" fill="#757575"/>
    <rect y="112" x="560" height="14" width="14" fill="#757575"/>
    <rect y="112" x="602" height="14" width="14" fill="#757575"/>
    <rect y="126" x="0" height="14" width="14" fill="#757575"/>
    <rect y="126" x="28" height="14" width="14" fill="#757575"/>
    <rect y="126" x="84" height="14" width="14" fill="#757575"/>
    <rect y="126" x="140" height="14" width="14" fill="#757575"/>
    <rect y="126" x="154" height="14" width="14" fill="#757575"/>
    <rect y="126" x="182" height="14" width="14" fill="#757575"/>
    <rect y="126" x="224" height="14" width="14" fill="#757575"/>
    <rect y="126" x="238" height="14" width="14" fill="#757575"/>
    <rect y="126" x="280" height="14" width="14" fill="#757575"/>
    <rect y="126" x="308" height="14" width="14" fill="#757575"/>
    <rect y="126" x="406" height="14" width="14" fill="#757575"/>
    <rect y="126" x="532" height="14" width="14" fill="#757575"/>
    <rect y="126" x="546" height="14" width="14" fill="#757575"/>
    <rect y="126" x="560" height="14" width="14" fill="#757575"/>
    <rect y="126" x="602" height="14" width="14" fill="#757575"/>
    <rect y="140" x="0" height="14" width="14" fill="#757575"/>
    <rect y="140" x="140" height="14" width="14" fill="#757575"/>
    <rect y="140" x="154" height="14" width="14" fill="#757575"/>
    <rect y="140" x="182" height="14" width="14" fill="#757575"/>
    <rect y="140" x="280" height="14" width="14" fill="#757575"/>
    <rect y="140" x="406" height="14" width="14" fill="#757575"/>
    <rect y="140" x="420" height="14" width="14" fill="#757575"/>
    <rect y="140" x="434" height="14" width="14" fill="#757575"/>
    <rect y="140" x="532" height="14" width="14" fill="#757575"/>
    <rect y="140" x="602" height="14" width="14" fill="#757575"/>
    <rect y="154" x="0" height="14" width="14" fill="#757575"/>
    <rect y="154" x="140" height="14" width="14" fill="#757575"/>
    <rect y="154" x="154" height="14" width="14" fill="#757575"/>
    <rect y="154" x="182" height="14" width="14" fill="#757575"/>
    <rect y="154" x="602" height="14" width="14" fill="#757575"/>
    <rect y="168" x="0" height="14" width="14" fill="#757575"/>
    <rect y="168" x="602" height="14" width="14" fill="#757575"/>
    <rect y="182" x="0" height="14" width="14" fill="#757575"/>
    <rect y="182" x="602" height="14" width="14" fill="#757575"/>
    <rect y="196" x="0" height="14" width="14" fill="#757575"/>
    <rect y="196" x="28" height="14" width="14" fill="#757575"/>
    <rect y="196" x="42" height="14" width="14" fill="#757575"/>
    <rect y="196" x="84" height="14" width="14" fill="#757575"/>
    <rect y="196" x="98" height="14" width="14" fill="#757575"/>
    <rect y="196" x="140" height="14" width="14" fill="#757575"/>
    <rect y="196" x="154" height="14" width="14" fill="#757575"/>
    <rect y="196" x="168" height="14" width="14" fill="#757575"/>
    <rect y="196" x="182" height="14" width="14" fill="#757575"/>
    <rect y="196" x="238" height="14" width="14" fill="#757575"/>
    <rect y="196" x="252" height="14" width="14" fill="#757575"/>
    <rect y="196" x="308" height="14" width="14" fill="#757575"/>
    <rect y="196" x="406" height="14" width="14" fill="#757575"/>
    <rect y="196" x="420" height="14" width="14" fill="#757575"/>
    <rect y="196" x="434" height="14" width="14" fill="#757575"/>
    <rect y="196" x="546" height="14" width="14" fill="#757575"/>
    <rect y="196" x="560" height="14" width="14" fill="#757575"/>
    <rect y="196" x="602" height="14" width="14" fill="#757575"/>
    <rect y="210" x="0" height="14" width="14" fill="#757575"/>
    <rect y="210" x="28" height="14" width="14" fill="#757575"/>
    <rect y="210" x="84" height="14" width="14" fill="#757575"/>
    <rect y="210" x="140" height="14" width="14" fill="#757575"/>
    <rect y="210" x="154" height="14" width="14" fill="#757575"/>
    <rect y="210" x="182" height="14" width="14" fill="#757575"/>
    <rect y="210" x="224" height="14" width="14" fill="#757575"/>
    <rect y="210" x="252" height="14" width="14" fill="#757575"/>
    <rect y="210" x="294" height="14" width="14" fill="#757575"/>
    <rect y="210" x="308" height="14" width="14" fill="#757575"/>
    <rect y="210" x="406" height="14" width="14" fill="#757575"/>
    <rect y="210" x="532" height="14" width="14" fill="#757575"/>
    <rect y="210" x="546" height="14" width="14" fill="#757575"/>
    <rect y="210" x="560" height="14" width="14" fill="#757575"/>
    <rect y="210" x="602" height="14" width="14" fill="#757575"/>
    <rect y="224" x="0" height="14" width="14" fill="#757575"/>
    <rect y="224" x="140" height="14" width="14" fill="#757575"/>
    <rect y="224" x="154" height="14" width="14" fill="#757575"/>
    <rect y="224" x="182" height="14" width="14" fill="#757575"/>
    <rect y="224" x="224" height="14" width="14" fill="#757575"/>
    <rect y="224" x="406" height="14" width="14" fill="#757575"/>
    <rect y="224" x="420" height="14" width="14" fill="#757575"/>
    <rect y="224" x="434" height="14" width="14" fill="#757575"/>
    <rect y="224" x="532" height="14" width="14" fill="#757575"/>
    <rect y="224" x="602" height="14" width="14" fill="#757575"/>
    <rect y="238" x="0" height="14" width="14" fill="#757575"/>
    <rect y="238" x="140" height="14" width="14" fill="#757575"/>
    <rect y="238" x="154" height="14" width="14" fill="#757575"/>
    <rect y="238" x="182" height="14" width="14" fill="#757575"/>
    <rect y="238" x="602" height="14" width="14" fill="#757575"/>
    <rect y="252" x="0" height="14" width="14" fill="#757575"/>
    <rect y="252" x="602" height="14" width="14" fill="#757575"/>
    <rect y="266" x="0" height="14" width="14" fill="#757575"/>
    <rect y="266" x="602" height="14" width="14" fill="#757575"/>
    <rect y="280" x="0" height="14" width="14" fill="#757575"/>
    <rect y="280" x="28" height="14" width="14" fill="#757575"/>
    <rect y="280" x="42" height="14" width="14" fill="#757575"/>
    <rect y="280" x="84" height="14" width="14" fill="#757575"/>
    <rect y="280" x="98" height="14" width="14" fill="#757575"/>
    <rect y="280" x="140" height="14" width="14" fill="#757575"/>
    <rect y="280" x="154" height="14" width="14" fill="#757575"/>
    <rect y="280" x="168" height="14" width="14" fill="#757575"/>
    <rect y="280" x="182" height="14" width="14" fill="#757575"/>
    <rect y="280" x="238" height="14" width="14" fill="#757575"/>
    <rect y="280" x="294" height="14" width="14" fill="#757575"/>
    <rect y="280" x="392" height="14" width="14" fill="#757575"/>
    <rect y="280" x="406" height="14" width="14" fill="#757575"/>
    <rect y="280" x="420" height="14" width="14" fill="#757575"/>
    <rect y="280" x="532" height="14" width="14" fill="#757575"/>
    <rect y="280" x="602" height="14" width="14" fill="#757575"/>
    <rect y="294" x="0" height="14" width="14" fill="#757575"/>
    <rect y="294" x="28" height="14" width="14" fill="#757575"/>
    <rect y="294" x="84" height="14" width="14" fill="#757575"/>
    <rect y="294" x="140" height="14" width="14" fill="#757575"/>
    <rect y="294" x="154" height="14" width="14" fill="#757575"/>
    <rect y="294" x="182" height="14" width="14" fill="#757575"/>
    <rect y="294" x="224" height="14" width="14" fill="#757575"/>
    <rect y="294" x="280" height="14" width="14" fill="#757575"/>
    <rect y="294" x="294" height="14" width="14" fill="#757575"/>
    <rect y="294" x="392" height="14" width="14" fill="#757575"/>
    <rect y="294" x="518" height="14" width="14" fill="#757575"/>
    <rect y="294" x="532" height="14" width="14" fill="#757575"/>
    <rect y="294" x="602" height="14" width="14" fill="#757575"/>
    <rect y="308" x="0" height="14" width="14" fill="#757575"/>
    <rect y="308" x="140" height="14" width="14" fill="#757575"/>
    <rect y="308" x="154" height="14" width="14" fill="#757575"/>
    <rect y="308" x="182" height="14" width="14" fill="#757575"/>
    <rect y="308" x="392" height="14" width="14" fill="#757575"/>
    <rect y="308" x="406" height="14" width="14" fill="#757575"/>
    <rect y="308" x="420" height="14" width="14" fill="#757575"/>
    <rect y="308" x="602" height="14" width="14" fill="#757575"/>
    <rect y="322" x="0" height="14" width="14" fill="#757575"/>
    <rect y="322" x="140" height="14" width="14" fill="#757575"/>
    <rect y="322" x="154" height="14" width="14" fill="#757575"/>
    <rect y="322" x="182" height="14" width="14" fill="#757575"/>
    <rect y="322" x="602" height="14" width="14" fill="#757575"/>
    <rect y="336" x="0" height="14" width="14" fill="#757575"/>
    <rect y="336" x="602" height="14" width="14" fill="#757575"/>
    <rect y="350" x="0" height="14" width="14" fill="#757575"/>
    <rect y="350" x="602" height="14" width="14" fill="#757575"/>
    <rect y="364" x="0" height="14" width="14" fill="#757575"/>
    <rect y="364" x="28" height="14" width="14" fill="#757575"/>
    <rect y="364" x="42" height="14" width="14" fill="#757575"/>
    <rect y="364" x="84" height="14" width="14" fill="#757575"/>
    <rect y="364" x="98" height="14" width="14" fill="#757575"/>
    <rect y="364" x="140" height="14" width="14" fill="#757575"/>
    <rect y="364" x="154" height="14" width="14" fill="#757575"/>
    <rect y="364" x="168" height="14" width="14" fill="#757575"/>
    <rect y="364" x="182" height="14" width="14" fill="#757575"/>
    <rect y="364" x="238" height="14" width="14" fill="#757575"/>
    <rect y="364" x="252" height="14" width="14" fill="#757575"/>
    <rect y="364" x="308" height="14" width="14" fill="#757575"/>
    <rect y="364" x="322" height="14" width="14" fill="#757575"/>
    <rect y="364" x="420" height="14" width="14" fill="#757575"/>
    <rect y="364" x="434" height="14" width="14" fill="#757575"/>
    <rect y="364" x="448" height="14" width="14" fill="#757575"/>
    <rect y="364" x="560" height="14" width="14" fill="#757575"/>
    <rect y="364" x="574" height="14" width="14" fill="#757575"/>
    <rect y="364" x="602" height="14" width="14" fill="#757575"/>
    <rect y="378" x="0" height="14" width="14" fill="#757575"/>
    <rect y="378" x="28" height="14" width="14" fill="#757575"/>
    <rect y="378" x="84" height="14" width="14" fill="#757575"/>
    <rect y="378" x="140" height="14" width="14" fill="#757575"/>
    <rect y="378" x="154" height="14" width="14" fill="#757575"/>
    <rect y="378" x="182" height="14" width="14" fill="#757575"/>
    <rect y="378" x="224" height="14" width="14" fill="#757575"/>
    <rect y="378" x="252" height="14" width="14" fill="#757575"/>
    <rect y="378" x="294" height="14" width="14" fill="#757575"/>
    <rect y="378" x="308" height="14" width="14" fill="#757575"/>
    <rect y="378" x="322" height="14" width="14" fill="#757575"/>
    <rect y="378" x="420" height="14" width="14" fill="#757575"/>
    <rect y="378" x="546" height="14" width="14" fill="#757575"/>
    <rect y="378" x="560" height="14" width="14" fill="#757575"/>
    <rect y="378" x="602" height="14" width="14" fill="#757575"/>
    <rect y="392" x="0" height="14" width="14" fill="#757575"/>
    <rect y="392" x="140" height="14" width="14" fill="#757575"/>
    <rect y="392" x="154" height="14" width="14" fill="#757575"/>
    <rect y="392" x="182" height="14" width="14" fill="#757575"/>
    <rect y="392" x="224" height="14" width="14" fill="#757575"/>
    <rect y="392" x="294" height="14" width="14" fill="#757575"/>
    <rect y="392" x="420" height="14" width="14" fill="#757575"/>
    <rect y="392" x="434" height="14" width="14" fill="#757575"/>
    <rect y="392" x="448" height="14" width="14" fill="#757575"/>
    <rect y="392" x="546" height="14" width="14" fill="#757575"/>
    <rect y="392" x="560" height="14" width="14" fill="#757575"/>
    <rect y="392" x="602" height="14" width="14" fill="#757575"/>
    <rect y="406" x="0" height="14" width="14" fill="#757575"/>
    <rect y="406" x="140" height="14" width="14" fill="#757575"/>
    <rect y="406" x="154" height="14" width="14" fill="#757575"/>
    <rect y="406" x="182" height="14" width="14" fill="#757575"/>
    <rect y="406" x="602" height="14" width="14" fill="#757575"/>
    <rect y="420" x="0" height="14" width="14" fill="#757575"/>
    <rect y="420" x="602" height="14" width="14" fill="#757575"/>
    <rect y="434" x="0" height="14" width="14" fill="#757575"/>
    <rect y="434" x="602" height="14" width="14" fill="#757575"/>
    <rect y="448" x="0" height="14" width="14" fill="#757575"/>
    <rect y="448" x="28" height="14" width="14" fill="#757575"/>
    <rect y="448" x="42" height="14" width="14" fill="#757575"/>
    <rect y="448" x="84" height="14" width="14" fill="#757575"/>
    <rect y="448" x="98" height="14" width="14" fill="#757575"/>
    <rect y="448" x="140" height="14" width="14" fill="#757575"/>
    <rect y="448" x="154" height="14" width="14" fill="#757575"/>
    <rect y="448" x="168" height="14" width="14" fill="#757575"/>
    <rect y="448" x="182" height="14" width="14" fill="#757575"/>
    <rect y="448" x="238" height="14" width="14" fill="#757575"/>
    <rect y="448" x="252" height="14" width="14" fill="#757575"/>
    <rect y="448" x="308" height="14" width="14" fill="#757575"/>
    <rect y="448" x="322" height="14" width="14" fill="#757575"/>
    <rect y="448" x="420" height="14" width="14" fill="#757575"/>
    <rect y="448" x="434" height="14" width="14" fill="#757575"/>
    <rect y="448" x="448" height="14" width="14" fill="#757575"/>
    <rect y="448" x="560" height="14" width="14" fill="#757575"/>
    <rect y="448" x="574" height="14" width="14" fill="#757575"/>
    <rect y="448" x="602" height="14" width="14" fill="#757575"/>
    <rect y="462" x="0" height="14" width="14" fill="#757575"/>
    <rect y="462" x="28" height="14" width="14" fill="#757575"/>
    <rect y="462" x="84" height="14" width="14" fill="#757575"/>
    <rect y="462" x="140" height="14" width="14" fill="#757575"/>
    <rect y="462" x="154" height="14" width="14" fill="#757575"/>
    <rect y="462" x="182" height="14" width="14" fill="#757575"/>
    <rect y="462" x="224" height="14" width="14" fill="#757575"/>
    <rect y="462" x="238" height="14" width="14" fill="#757575"/>
    <rect y="462" x="252" height="14" width="14" fill="#757575"/>
    <rect y="462" x="294" height="14" width="14" fill="#757575"/>
    <rect y="462" x="308" height="14" width="14" fill="#757575"/>
    <rect y="462" x="420" height="14" width="14" fill="#757575"/>
    <rect y="462" x="546" height="14" width="14" fill="#757575"/>
    <rect y="462" x="602" height="14" width="14" fill="#757575"/>
    <rect y="476" x="0" height="14" width="14" fill="#757575"/>
    <rect y="476" x="140" height="14" width="14" fill="#757575"/>
    <rect y="476" x="154" height="14" width="14" fill="#757575"/>
    <rect y="476" x="182" height="14" width="14" fill="#757575"/>
    <rect y="476" x="224" height="14" width="14" fill="#757575"/>
    <rect y="476" x="294" height="14" width="14" fill="#757575"/>
    <rect y="476" x="308" height="14" width="14" fill="#757575"/>
    <rect y="476" x="420" height="14" width="14" fill="#757575"/>
    <rect y="476" x="434" height="14" width="14" fill="#757575"/>
    <rect y="476" x="448" height="14" width="14" fill="#757575"/>
    <rect y="476" x="546" height="14" width="14" fill="#757575"/>
    <rect y="476" x="574" height="14" width="14" fill="#757575"/>
    <rect y="476" x="602" height="14" width="14" fill="#757575"/>
    <rect y="490" x="0" height="14" width="14" fill="#757575"/>
    <rect y="490" x="140" height="14" width="14" fill="#757575"/>
    <rect y="490" x="154" height="14" width="14" fill="#757575"/>
    <rect y="490" x="182" height="14" width="14" fill="#757575"/>
    <rect y="490" x="602" height="14" width="14" fill="#757575"/>
    <rect y="504" x="0" height="14" width="14" fill="#757575"/>
    <rect y="504" x="602" height="14" width="14" fill="#757575"/>
    <rect y="518" x="0" height="14" width="14" fill="#757575"/>
    <rect y="518" x="602" height="14" width="14" fill="#757575"/>
    <rect y="532" x="0" height="14" width="14" fill="#757575"/>
    <rect y="532" x="602" height="14" width="14" fill="#757575"/>
    <rect y="546" x="0" height="14" width="14" fill="#757575"/>
    <rect y="546" x="28" height="14" width="14" fill="#757575"/>
    <rect y="546" x="56" height="14" width="14" fill="#757575"/>
    <rect y="546" x="84" height="14" width="14" fill="#757575"/>
    <rect y="546" x="112" height="14" width="14" fill="#757575"/>
    <rect y="546" x="602" height="14" width="14" fill="#757575"/>
    <rect y="560" x="0" height="14" width="14" fill="#757575"/>
    <rect y="560" x="602" height="14" width="14" fill="#757575"/>
    <rect y="574" x="0" height="14" width="14" fill="#757575"/>
    <rect y="574" x="14" height="14" width="14" fill="#757575"/>
    <rect y="574" x="28" height="14" width="14" fill="#757575"/>
    <rect y="574" x="42" height="14" width="14" fill="#757575"/>
    <rect y="574" x="56" height="14" width="14" fill="#757575"/>
    <rect y="574" x="70" height="14" width="14" fill="#757575"/>
    <rect y="574" x="84" height="14" width="14" fill="#757575"/>
    <rect y="574" x="98" height="14" width="14" fill="#757575"/>
    <rect y="574" x="112" height="14" width="14" fill="#757575"/>
    <rect y="574" x="126" height="14" width="14" fill="#757575"/>
    <rect y="574" x="140" height="14" width="14" fill="#757575"/>
    <rect y="574" x="154" height="14" width="14" fill="#757575"/>
    <rect y="574" x="168" height="14" width="14" fill="#757575"/>
    <rect y="574" x="182" height="14" width="14" fill="#757575"/>
    <rect y="574" x="196" height="14" width="14" fill="#757575"/>
    <rect y="574" x="210" height="14" width="14" fill="#757575"/>
    <rect y="574" x="224" height="14" width="14" fill="#757575"/>
    <rect y="574" x="238" height="14" width="14" fill="#757575"/>
    <rect y="574" x="252" height="14" width="14" fill="#757575"/>
    <rect y="574" x="266" height="14" width="14" fill="#757575"/>
    <rect y="574" x="280" height="14" width="14" fill="#757575"/>
    <rect y="574" x="294" height="14" width="14" fill="#757575"/>
    <rect y="574" x="308" height="14" width="14" fill="#757575"/>
    <rect y="574" x="322" height="14" width="14" fill="#757575"/>
    <rect y="574" x="336" height="14" width="14" fill="#757575"/>
    <rect y="574" x="350" height="14" width="14" fill="#757575"/>
    <rect y="574" x="364" height="14" width="14" fill="#757575"/>
    <rect y="574" x="378" height="14" width="14" fill="#757575"/>
    <rect y="574" x="392" height="14" width="14" fill="#757575"/>
    <rect y="574" x="406" height="14" width="14" fill="#757575"/>
    <rect y="574" x="420" height="14" width="14" fill="#757575"/>
    <rect y="574" x="434" height="14" width="14" fill="#757575"/>
    <rect y="574" x="448" height="14" width="14" fill="#757575"/>
    <rect y="574" x="462" height="14" width="14" fill="#757575"/>
    <rect y="574" x="476" height="14" width="14" fill="#757575"/>
    <rect y="574" x="490" height="14" width="14" fill="#757575"/>
    <rect y="574" x="504" height="14" width="14" fill="#757575"/>
    <rect y="574" x="518" height="14" width="14" fill="#757575"/>
    <rect y="574" x="532" height="14" width="14" fill="#757575"/>
    <rect y="574" x="546" height="14" width="14" fill="#757575"/>
    <rect y="574" x="560" height="14" width="14" fill="#757575"/>
    <rect y="574" x="574" height="14" width="14" fill="#757575"/>
    <rect y="574" x="588" height="14" width="14" fill="#757575"/>
    <rect y="574" x="602" height="14" width="14" fill="#757575"/>
    
  <rect y="28" x="28" height="56" width="56" fill="#827717" fill-opacity="0.5"/>
<text y="56" x="56" dominant-baseline='middle' text-anchor='middle' fill='white' style='paint-order: stroke; fill: white; stroke: black; stroke-width: 1px; font-family="monospace"; font-size: 18px'><tspan x="56" dy="0em">Sum</tspan></text>
<rect y="112" x="28" height="28" width="28" fill="#827717" fill-opacity="0.5"/>
<text y="126" x="42" dominant-baseline='middle' text-anchor='middle' fill='white' style='paint-order: stroke; fill: white; stroke: black; stroke-width: 1px; font-family="monospace"; font-size: 18px'><tspan x="42" dy="0em">ap</tspan></text>
<rect y="112" x="84" height="28" width="28" fill="#827717" fill-opacity="0.5"/>
<text y="126" x="98" dominant-baseline='middle' text-anchor='middle' fill='white' style='paint-order: stroke; fill: white; stroke: black; stroke-width: 1px; font-family="monospace"; font-size: 18px'><tspan x="98" dy="0em">ap</tspan></text>
<rect y="112" x="140" height="56" width="56" fill="#827717" fill-opacity="0.5"/>
<text y="140" x="168" dominant-baseline='middle' text-anchor='middle' fill='white' style='paint-order: stroke; fill: white; stroke: black; stroke-width: 1px; font-family="monospace"; font-size: 18px'><tspan x="168" dy="0em">Sum</tspan></text>
<rect y="112" x="224" height="28" width="28" fill="#004D40" fill-opacity="0.5"/>
<text y="126" x="238" dominant-baseline='middle' text-anchor='middle' fill='white' style='paint-order: stroke; fill: white; stroke: black; stroke-width: 1px; font-family="monospace"; font-size: 18px'><tspan x="238" dy="0em">1</tspan></text>
<rect y="112" x="280" height="42" width="42" fill="#004D40" fill-opacity="0.5"/>
<text y="133" x="301" dominant-baseline='middle' text-anchor='middle' fill='white' style='paint-order: stroke; fill: white; stroke: black; stroke-width: 1px; font-family="monospace"; font-size: 18px'><tspan x="301" dy="0em">2</tspan></text>
<rect y="112" x="406" height="42" width="42" fill="#827717" fill-opacity="0.5"/>
<text y="133" x="427" dominant-baseline='middle' text-anchor='middle' fill='white' style='paint-order: stroke; fill: white; stroke: black; stroke-width: 1px; font-family="monospace"; font-size: 18px'><tspan x="427" dy="0em">is</tspan></text>
<rect y="112" x="532" height="42" width="42" fill="#004D40" fill-opacity="0.5"/>
<text y="133" x="553" dominant-baseline='middle' text-anchor='middle' fill='white' style='paint-order: stroke; fill: white; stroke: black; stroke-width: 1px; font-family="monospace"; font-size: 18px'><tspan x="553" dy="0em">3</tspan></text>
<rect y="196" x="28" height="28" width="28" fill="#827717" fill-opacity="0.5"/>
<text y="210" x="42" dominant-baseline='middle' text-anchor='middle' fill='white' style='paint-order: stroke; fill: white; stroke: black; stroke-width: 1px; font-family="monospace"; font-size: 18px'><tspan x="42" dy="0em">ap</tspan></text>
<rect y="196" x="84" height="28" width="28" fill="#827717" fill-opacity="0.5"/>
<text y="210" x="98" dominant-baseline='middle' text-anchor='middle' fill='white' style='paint-order: stroke; fill: white; stroke: black; stroke-width: 1px; font-family="monospace"; font-size: 18px'><tspan x="98" dy="0em">ap</tspan></text>
<rect y="196" x="140" height="56" width="56" fill="#827717" fill-opacity="0.5"/>
<text y="224" x="168" dominant-baseline='middle' text-anchor='middle' fill='white' style='paint-order: stroke; fill: white; stroke: black; stroke-width: 1px; font-family="monospace"; font-size: 18px'><tspan x="168" dy="0em">Sum</tspan></text>
<rect y="196" x="224" height="42" width="42" fill="#004D40" fill-opacity="0.5"/>
<text y="217" x="245" dominant-baseline='middle' text-anchor='middle' fill='white' style='paint-order: stroke; fill: white; stroke: black; stroke-width: 1px; font-family="monospace"; font-size: 18px'><tspan x="245" dy="0em">2</tspan></text>
<rect y="196" x="294" height="28" width="28" fill="#004D40" fill-opacity="0.5"/>
<text y="210" x="308" dominant-baseline='middle' text-anchor='middle' fill='white' style='paint-order: stroke; fill: white; stroke: black; stroke-width: 1px; font-family="monospace"; font-size: 18px'><tspan x="308" dy="0em">1</tspan></text>
<rect y="196" x="406" height="42" width="42" fill="#827717" fill-opacity="0.5"/>
<text y="217" x="427" dominant-baseline='middle' text-anchor='middle' fill='white' style='paint-order: stroke; fill: white; stroke: black; stroke-width: 1px; font-family="monospace"; font-size: 18px'><tspan x="427" dy="0em">is</tspan></text>
<rect y="196" x="532" height="42" width="42" fill="#004D40" fill-opacity="0.5"/>
<text y="217" x="553" dominant-baseline='middle' text-anchor='middle' fill='white' style='paint-order: stroke; fill: white; stroke: black; stroke-width: 1px; font-family="monospace"; font-size: 18px'><tspan x="553" dy="0em">3</tspan></text>
<rect y="280" x="28" height="28" width="28" fill="#827717" fill-opacity="0.5"/>
<text y="294" x="42" dominant-baseline='middle' text-anchor='middle' fill='white' style='paint-order: stroke; fill: white; stroke: black; stroke-width: 1px; font-family="monospace"; font-size: 18px'><tspan x="42" dy="0em">ap</tspan></text>
<rect y="280" x="84" height="28" width="28" fill="#827717" fill-opacity="0.5"/>
<text y="294" x="98" dominant-baseline='middle' text-anchor='middle' fill='white' style='paint-order: stroke; fill: white; stroke: black; stroke-width: 1px; font-family="monospace"; font-size: 18px'><tspan x="98" dy="0em">ap</tspan></text>
<rect y="280" x="140" height="56" width="56" fill="#827717" fill-opacity="0.5"/>
<text y="308" x="168" dominant-baseline='middle' text-anchor='middle' fill='white' style='paint-order: stroke; fill: white; stroke: black; stroke-width: 1px; font-family="monospace"; font-size: 18px'><tspan x="168" dy="0em">Sum</tspan></text>
<rect y="280" x="224" height="28" width="28" fill="#004D40" fill-opacity="0.5"/>
<text y="294" x="238" dominant-baseline='middle' text-anchor='middle' fill='white' style='paint-order: stroke; fill: white; stroke: black; stroke-width: 1px; font-family="monospace"; font-size: 18px'><tspan x="238" dy="0em">0</tspan></text>
<rect y="280" x="280" height="28" width="28" fill="#004D40" fill-opacity="0.5"/>
<text y="294" x="294" dominant-baseline='middle' text-anchor='middle' fill='white' style='paint-order: stroke; fill: white; stroke: black; stroke-width: 1px; font-family="monospace"; font-size: 18px'><tspan x="294" dy="0em">1</tspan></text>
<rect y="280" x="392" height="42" width="42" fill="#827717" fill-opacity="0.5"/>
<text y="301" x="413" dominant-baseline='middle' text-anchor='middle' fill='white' style='paint-order: stroke; fill: white; stroke: black; stroke-width: 1px; font-family="monospace"; font-size: 18px'><tspan x="413" dy="0em">is</tspan></text>
<rect y="280" x="518" height="28" width="28" fill="#004D40" fill-opacity="0.5"/>
<text y="294" x="532" dominant-baseline='middle' text-anchor='middle' fill='white' style='paint-order: stroke; fill: white; stroke: black; stroke-width: 1px; font-family="monospace"; font-size: 18px'><tspan x="532" dy="0em">1</tspan></text>
<rect y="364" x="28" height="28" width="28" fill="#827717" fill-opacity="0.5"/>
<text y="378" x="42" dominant-baseline='middle' text-anchor='middle' fill='white' style='paint-order: stroke; fill: white; stroke: black; stroke-width: 1px; font-family="monospace"; font-size: 18px'><tspan x="42" dy="0em">ap</tspan></text>
<rect y="364" x="84" height="28" width="28" fill="#827717" fill-opacity="0.5"/>
<text y="378" x="98" dominant-baseline='middle' text-anchor='middle' fill='white' style='paint-order: stroke; fill: white; stroke: black; stroke-width: 1px; font-family="monospace"; font-size: 18px'><tspan x="98" dy="0em">ap</tspan></text>
<rect y="364" x="140" height="56" width="56" fill="#827717" fill-opacity="0.5"/>
<text y="392" x="168" dominant-baseline='middle' text-anchor='middle' fill='white' style='paint-order: stroke; fill: white; stroke: black; stroke-width: 1px; font-family="monospace"; font-size: 18px'><tspan x="168" dy="0em">Sum</tspan></text>
<rect y="364" x="224" height="42" width="42" fill="#004D40" fill-opacity="0.5"/>
<text y="385" x="245" dominant-baseline='middle' text-anchor='middle' fill='white' style='paint-order: stroke; fill: white; stroke: black; stroke-width: 1px; font-family="monospace"; font-size: 18px'><tspan x="245" dy="0em">2</tspan></text>
<rect y="364" x="294" height="42" width="42" fill="#004D40" fill-opacity="0.5"/>
<text y="385" x="315" dominant-baseline='middle' text-anchor='middle' fill='white' style='paint-order: stroke; fill: white; stroke: black; stroke-width: 1px; font-family="monospace"; font-size: 18px'><tspan x="315" dy="0em">3</tspan></text>
<rect y="364" x="420" height="42" width="42" fill="#827717" fill-opacity="0.5"/>
<text y="385" x="441" dominant-baseline='middle' text-anchor='middle' fill='white' style='paint-order: stroke; fill: white; stroke: black; stroke-width: 1px; font-family="monospace"; font-size: 18px'><tspan x="441" dy="0em">is</tspan></text>
<rect y="364" x="546" height="42" width="42" fill="#004D40" fill-opacity="0.5"/>
<text y="385" x="567" dominant-baseline='middle' text-anchor='middle' fill='white' style='paint-order: stroke; fill: white; stroke: black; stroke-width: 1px; font-family="monospace"; font-size: 18px'><tspan x="567" dy="0em">5</tspan></text>
<rect y="448" x="28" height="28" width="28" fill="#827717" fill-opacity="0.5"/>
<text y="462" x="42" dominant-baseline='middle' text-anchor='middle' fill='white' style='paint-order: stroke; fill: white; stroke: black; stroke-width: 1px; font-family="monospace"; font-size: 18px'><tspan x="42" dy="0em">ap</tspan></text>
<rect y="448" x="84" height="28" width="28" fill="#827717" fill-opacity="0.5"/>
<text y="462" x="98" dominant-baseline='middle' text-anchor='middle' fill='white' style='paint-order: stroke; fill: white; stroke: black; stroke-width: 1px; font-family="monospace"; font-size: 18px'><tspan x="98" dy="0em">ap</tspan></text>
<rect y="448" x="140" height="56" width="56" fill="#827717" fill-opacity="0.5"/>
<text y="476" x="168" dominant-baseline='middle' text-anchor='middle' fill='white' style='paint-order: stroke; fill: white; stroke: black; stroke-width: 1px; font-family="monospace"; font-size: 18px'><tspan x="168" dy="0em">Sum</tspan></text>
<rect y="448" x="224" height="42" width="42" fill="#004D40" fill-opacity="0.5"/>
<text y="469" x="245" dominant-baseline='middle' text-anchor='middle' fill='white' style='paint-order: stroke; fill: white; stroke: black; stroke-width: 1px; font-family="monospace"; font-size: 18px'><tspan x="245" dy="0em">3</tspan></text>
<rect y="448" x="294" height="42" width="42" fill="#004D40" fill-opacity="0.5"/>
<text y="469" x="315" dominant-baseline='middle' text-anchor='middle' fill='white' style='paint-order: stroke; fill: white; stroke: black; stroke-width: 1px; font-family="monospace"; font-size: 18px'><tspan x="315" dy="0em">5</tspan></text>
<rect y="448" x="420" height="42" width="42" fill="#827717" fill-opacity="0.5"/>
<text y="469" x="441" dominant-baseline='middle' text-anchor='middle' fill='white' style='paint-order: stroke; fill: white; stroke: black; stroke-width: 1px; font-family="monospace"; font-size: 18px'><tspan x="441" dy="0em">is</tspan></text>
<rect y="448" x="546" height="42" width="42" fill="#004D40" fill-opacity="0.5"/>
<text y="469" x="567" dominant-baseline='middle' text-anchor='middle' fill='white' style='paint-order: stroke; fill: white; stroke: black; stroke-width: 1px; font-family="monospace"; font-size: 18px'><tspan x="567" dy="0em">8</tspan></text>

</svg>
