<?xml version="1.0"?>
<svg xmlns="http://www.w3.org/2000/svg" height="182" width="490">
  <rect y="0" x="0" height="182" width="490" fill="black" />
  <rect y="0" x="0" height="14" width="14" fill="#757575"/>
    <rect y="0" x="14" height="14" width="14" fill="#757575"/>
    <rect y="0" x="28" height="14" width="14" fill="#757575"/>
    <rect y="0" x="42" height="14" width="14" fill="#757575"/>
    <rect y="0" x="56" height="14" width="14" fill="#757575"/>
    <rect y="0" x="70" height="14" width="14" fill="#757575"/>
    <rect y="0" x="84" height="14" width="14" fill="#757575"/>
    <rect y="0" x="98" height="14" width="14" fill="#757575"/>
    <rect y="0" x="112" height="14" width="14" fill="#757575"/>
    <rect y="0" x="126" height="14" width="14" fill="#757575"/>
    <rect y="0" x="140" height="14" width="14" fill="#757575"/>
    <rect y="0" x="154" height="14" width="14" fill="#757575"/>
    <rect y="0" x="168" height="14" width="14" fill="#757575"/>
    <rect y="0" x="182" height="14" width="14" fill="#757575"/>
    <rect y="0" x="196" height="14" width="14" fill="#757575"/>
    <rect y="0" x="210" height="14" width="14" fill="#757575"/>
    <rect y="0" x="224" height="14" width="14" fill="#757575"/>
    <rect y="0" x="238" height="14" width="14" fill="#757575"/>
    <rect y="0" x="252" height="14" width="14" fill="#757575"/>
    <rect y="0" x="266" height="14" width="14" fill="#757575"/>
    <rect y="0" x="280" height="14" width="14" fill="#757575"/>
    <rect y="0" x="294" height="14" width="14" fill="#757575"/>
    <rect y="0" x="308" height="14" width="14" fill="#757575"/>
    <rect y="0" x="322" height="14" width="14" fill="#757575"/>
    <rect y="0" x="336" height="14" width="14" fill="#757575"/>
    <rect y="0" x="350" height="14" width="14" fill="#757575"/>
    <rect y="0" x="364" height="14" width="14" fill="#757575"/>
    <rect y="0" x="378" height="14" width="14" fill="#757575"/>
    <rect y="0" x="392" height="14" width="14" fill="#757575"/>
    <rect y="0" x="406" height="14" width="14" fill="#757575"/>
    <rect y="0" x="420" height="14" width="14" fill="#757575"/>
    <rect y="0" x="434" height="14" width="14" fill="#757575"/>
    <rect y="0" x="448" height="14" width="14" fill="#757575"/>
    <rect y="0" x="462" height="14" width="14" fill="#757575"/>
    <rect y="0" x="476" height="14" width="14" fill="#757575"/>
    <rect y="14" x="0" height="14" width="14" fill="#757575"/>
    <rect y="14" x="476" height="14" width="14" fill="#757575"/>
    <rect y="28" x="0" height="14" width="14" fill="#757575"/>
    <rect y="28" x="28" height="14" width="14" fill="#757575"/>
    <rect y="28" x="42" height="14" width="14" fill="#757575"/>
    <rect y="28" x="56" height="14" width="14" fill="#757575"/>
    <rect y="28" x="476" height="14" width="14" fill="#757575"/>
    <rect y="42" x="0" height="14" width="14" fill="#757575"/>
    <rect y="42" x="28" height="14" width="14" fill="#757575"/>
    <rect y="42" x="56" height="14" width="14" fill="#757575"/>
    <rect y="42" x="476" height="14" width="14" fill="#757575"/>
    <rect y="56" x="0" height="14" width="14" fill="#757575"/>
    <rect y="56" x="28" height="14" width="14" fill="#757575"/>
    <rect y="56" x="42" height="14" width="14" fill="#757575"/>
    <rect y="56" x="56" height="14" width="14" fill="#757575"/>
    <rect y="56" x="476" height="14" width="14" fill="#757575"/>
    <rect y="70" x="0" height="14" width="14" fill="#757575"/>
    <rect y="70" x="476" height="14" width="14" fill="#757575"/>
    <rect y="84" x="0" height="14" width="14" fill="#757575"/>
    <rect y="84" x="476" height="14" width="14" fill="#757575"/>
    <rect y="98" x="0" height="14" width="14" fill="#757575"/>
    <rect y="98" x="28" height="14" width="14" fill="#757575"/>
    <rect y="98" x="42" height="14" width="14" fill="#757575"/>
    <rect y="98" x="84" height="14" width="14" fill="#757575"/>
    <rect y="98" x="98" height="14" width="14" fill="#757575"/>
    <rect y="98" x="112" height="14" width="14" fill="#757575"/>
    <rect y="98" x="154" height="14" width="14" fill="#757575"/>
    <rect y="98" x="168" height="14" width="14" fill="#757575"/>
    <rect y="98" x="182" height="14" width="14" fill="#757575"/>
    <rect y="98" x="196" height="14" width="14" fill="#757575"/>
    <rect y="98" x="294" height="14" width="14" fill="#757575"/>
    <rect y="98" x="308" height="14" width="14" fill="#757575"/>
    <rect y="98" x="322" height="14" width="14" fill="#757575"/>
    <rect y="98" x="420" height="14" width="14" fill="#757575"/>
    <rect y="98" x="434" height="14" width="14" fill="#757575"/>
    <rect y="98" x="448" height="14" width="14" fill="#757575"/>
    <rect y="98" x="476" height="14" width="14" fill="#757575"/>
    <rect y="112" x="0" height="14" width="14" fill="#757575"/>
    <rect y="112" x="28" height="14" width="14" fill="#757575"/>
    <rect y="112" x="84" height="14" width="14" fill="#757575"/>
    <rect y="112" x="112" height="14" width="14" fill="#757575"/>
    <rect y="112" x="154" height="14" width="14" fill="#757575"/>
    <rect y="112" x="168" height="14" width="14" fill="#757575"/>
    <rect y="112" x="196" height="14" width="14" fill="#757575"/>
    <rect y="112" x="294" height="14" width="14" fill="#757575"/>
    <rect y="112" x="420" height="14" width="14" fill="#757575"/>
    <rect y="112" x="448" height="14" width="14" fill="#757575"/>
    <rect y="112" x="476" height="14" width="14" fill="#757575"/>
    <rect y="126" x="0" height="14" width="14" fill="#757575"/>
    <rect y="126" x="84" height="14" width="14" fill="#757575"/>
    <rect y="126" x="98" height="14" width="14" fill="#757575"/>
    <rect y="126" x="112" height="14" width="14" fill="#757575"/>
    <rect y="126" x="154" height="14" width="14" fill="#757575"/>
    <rect y="126" x="182" height="14" width="14" fill="#757575"/>
    <rect y="126" x="196" height="14" width="14" fill="#757575"/>
    <rect y="126" x="294" height="14" width="14" fill="#757575"/>
    <rect y="126" x="308" height="14" width="14" fill="#757575"/>
    <rect y="126" x="322" height="14" width="14" fill="#757575"/>
    <rect y="126" x="420" height="14" width="14" fill="#757575"/>
    <rect y="126" x="476" height="14" width="14" fill="#757575"/>
    <rect y="140" x="0" height="14" width="14" fill="#757575"/>
    <rect y="140" x="154" height="14" width="14" fill="#757575"/>
    <rect y="140" x="168" height="14" width="14" fill="#757575"/>
    <rect y="140" x="182" height="14" width="14" fill="#757575"/>
    <rect y="140" x="196" height="14" width="14" fill="#757575"/>
    <rect y="140" x="476" height="14" width="14" fill="#757575"/>
    <rect y="154" x="0" height="14" width="14" fill="#757575"/>
    <rect y="154" x="476" height="14" width="14" fill="#757575"/>
    <rect y="168" x="0" height="14" width="14" fill="#757575"/>
    <rect y="168" x="14" height="14" width="14" fill="#757575"/>
    <rect y="168" x="28" height="14" width="14" fill="#757575"/>
    <rect y="168" x="42" height="14" width="14" fill="#757575"/>
    <rect y="168" x="56" height="14" width="14" fill="#757575"/>
    <rect y="168" x="70" height="14" width="14" fill="#757575"/>
    <rect y="168" x="84" height="14" width="14" fill="#757575"/>
    <rect y="168" x="98" height="14" width="14" fill="#757575"/>
    <rect y="168" x="112" height="14" width="14" fill="#757575"/>
    <rect y="168" x="126" height="14" width="14" fill="#757575"/>
    <rect y="168" x="140" height="14" width="14" fill="#757575"/>
    <rect y="168" x="154" height="14" width="14" fill="#757575"/>
    <rect y="168" x="168" height="14" width="14" fill="#757575"/>
    <rect y="168" x="182" height="14" width="14" fill="#757575"/>
    <rect y="168" x="196" height="14" width="14" fill="#757575"/>
    <rect y="168" x="210" height="14" width="14" fill="#757575"/>
    <rect y="168" x="224" height="14" width="14" fill="#757575"/>
    <rect y="168" x="238" height="14" width="14" fill="#757575"/>
    <rect y="168" x="252" height="14" width="14" fill="#757575"/>
    <rect y="168" x="266" height="14" width="14" fill="#757575"/>
    <rect y="168" x="280" height="14" width="14" fill="#757575"/>
    <rect y="168" x="294" height="14" width="14" fill="#757575"/>
    <rect y="168" x="308" height="14" width="14" fill="#757575"/>
    <rect y="168" x="322" height="14" width="14" fill="#757575"/>
    <rect y="168" x="336" height="14" width="14" fill="#757575"/>
    <rect y="168" x="350" height="14" width="14" fill="#757575"/>
    <rect y="168" x="364" height="14" width="14" fill="#757575"/>
    <rect y="168" x="378" height="14" width="14" fill="#757575"/>
    <rect y="168" x="392" height="14" width="14" fill="#757575"/>
    <rect y="168" x="406" height="14" width="14" fill="#757575"/>
    <rect y="168" x="420" height="14" width="14" fill="#757575"/>
    <rect y="168" x="434" height="14" width="14" fill="#757575"/>
    <rect y="168" x="448" height="14" width="14" fill="#757575"/>
    <rect y="168" x="462" height="14" width="14" fill="#757575"/>
    <rect y="168" x="476" height="14" width="14" fill="#757575"/>
    
  <rect y="28" x="28" height="42" width="42" fill="#BF360C" fill-opacity="0.5"/>
<text y="49" x="49" dominant-baseline='middle' text-anchor='middle' fill='white' style='paint-order: stroke; fill: white; stroke: black; stroke-width: 1px; font-family="monospace"; font-size: 18px'><tspan x="49" dy="0em">14?</tspan></text>
<rect y="98" x="28" height="28" width="28" fill="#827717" fill-opacity="0.5"/>
<text y="112" x="42" dominant-baseline='middle' text-anchor='middle' fill='white' style='paint-order: stroke; fill: white; stroke: black; stroke-width: 1px; font-family="monospace"; font-size: 18px'><tspan x="42" dy="0em">ap</tspan></text>
<rect y="98" x="84" height="42" width="42" fill="#BF360C" fill-opacity="0.5"/>
<text y="119" x="105" dominant-baseline='middle' text-anchor='middle' fill='white' style='paint-order: stroke; fill: white; stroke: black; stroke-width: 1px; font-family="monospace"; font-size: 18px'><tspan x="105" dy="0em">14?</tspan></text>
<rect y="98" x="154" height="56" width="56" fill="#004D40" fill-opacity="0.5"/>
<text y="126" x="182" dominant-baseline='middle' text-anchor='middle' fill='white' style='paint-order: stroke; fill: white; stroke: black; stroke-width: 1px; font-family="monospace"; font-size: 18px'><tspan x="182" dy="0em">x0</tspan></text>
<rect y="98" x="294" height="42" width="42" fill="#827717" fill-opacity="0.5"/>
<text y="119" x="315" dominant-baseline='middle' text-anchor='middle' fill='white' style='paint-order: stroke; fill: white; stroke: black; stroke-width: 1px; font-family="monospace"; font-size: 18px'><tspan x="315" dy="0em">is</tspan></text>
<rect y="98" x="420" height="42" width="42" fill="#827717" fill-opacity="0.5"/>
<text y="119" x="441" dominant-baseline='middle' text-anchor='middle' fill='white' style='paint-order: stroke; fill: white; stroke: black; stroke-width: 1px; font-family="monospace"; font-size: 18px'><tspan x="441" dy="0em">True</tspan></text>

</svg>
