<?xml version="1.0"?>
<svg xmlns="http://www.w3.org/2000/svg" height="266" width="784">
  <rect y="0" x="0" height="266" width="784" fill="black" />
  <rect y="0" x="0" height="14" width="14" fill="#757575"/>
    <rect y="0" x="14" height="14" width="14" fill="#757575"/>
    <rect y="0" x="28" height="14" width="14" fill="#757575"/>
    <rect y="0" x="42" height="14" width="14" fill="#757575"/>
    <rect y="0" x="56" height="14" width="14" fill="#757575"/>
    <rect y="0" x="70" height="14" width="14" fill="#757575"/>
    <rect y="0" x="84" height="14" width="14" fill="#757575"/>
    <rect y="0" x="98" height="14" width="14" fill="#757575"/>
    <rect y="0" x="112" height="14" width="14" fill="#757575"/>
    <rect y="0" x="126" height="14" width="14" fill="#757575"/>
    <rect y="0" x="140" height="14" width="14" fill="#757575"/>
    <rect y="0" x="154" height="14" width="14" fill="#757575"/>
    <rect y="0" x="168" height="14" width="14" fill="#757575"/>
    <rect y="0" x="182" height="14" width="14" fill="#757575"/>
    <rect y="0" x="196" height="14" width="14" fill="#757575"/>
    <rect y="0" x="210" height="14" width="14" fill="#757575"/>
    <rect y="0" x="224" height="14" width="14" fill="#757575"/>
    <rect y="0" x="238" height="14" width="14" fill="#757575"/>
    <rect y="0" x="252" height="14" width="14" fill="#757575"/>
    <rect y="0" x="266" height="14" width="14" fill="#757575"/>
    <rect y="0" x="280" height="14" width="14" fill="#757575"/>
    <rect y="0" x="294" height="14" width="14" fill="#757575"/>
    <rect y="0" x="308" height="14" width="14" fill="#757575"/>
    <rect y="0" x="322" height="14" width="14" fill="#757575"/>
    <rect y="0" x="336" height="14" width="14" fill="#757575"/>
    <rect y="0" x="350" height="14" width="14" fill="#757575"/>
    <rect y="0" x="364" height="14" width="14" fill="#757575"/>
    <rect y="0" x="378" height="14" width="14" fill="#757575"/>
    <rect y="0" x="392" height="14" width="14" fill="#757575"/>
    <rect y="0" x="406" height="14" width="14" fill="#757575"/>
    <rect y="0" x="420" height="14" width="14" fill="#757575"/>
    <rect y="0" x="434" height="14" width="14" fill="#757575"/>
    <rect y="0" x="448" height="14" width="14" fill="#757575"/>
    <rect y="0" x="462" height="14" width="14" fill="#757575"/>
    <rect y="0" x="476" height="14" width="14" fill="#757575"/>
    <rect y="0" x="490" height="14" width="14" fill="#757575"/>
    <rect y="0" x="504" height="14" width="14" fill="#757575"/>
    <rect y="0" x="518" height="14" width="14" fill="#757575"/>
    <rect y="0" x="532" height="14" width="14" fill="#757575"/>
    <rect y="0" x="546" height="14" width="14" fill="#757575"/>
    <rect y="0" x="560" height="14" width="14" fill="#757575"/>
    <rect y="0" x="574" height="14" width="14" fill="#757575"/>
    <rect y="0" x="588" height="14" width="14" fill="#757575"/>
    <rect y="0" x="602" height="14" width="14" fill="#757575"/>
    <rect y="0" x="616" height="14" width="14" fill="#757575"/>
    <rect y="0" x="630" height="14" width="14" fill="#757575"/>
    <rect y="0" x="644" height="14" width="14" fill="#757575"/>
    <rect y="0" x="658" height="14" width="14" fill="#757575"/>
    <rect y="0" x="672" height="14" width="14" fill="#757575"/>
    <rect y="0" x="686" height="14" width="14" fill="#757575"/>
    <rect y="0" x="700" height="14" width="14" fill="#757575"/>
    <rect y="0" x="714" height="14" width="14" fill="#757575"/>
    <rect y="0" x="728" height="14" width="14" fill="#757575"/>
    <rect y="0" x="742" height="14" width="14" fill="#757575"/>
    <rect y="0" x="756" height="14" width="14" fill="#757575"/>
    <rect y="0" x="770" height="14" width="14" fill="#757575"/>
    <rect y="14" x="0" height="14" width="14" fill="#757575"/>
    <rect y="14" x="770" height="14" width="14" fill="#757575"/>
    <rect y="28" x="0" height="14" width="14" fill="#757575"/>
    <rect y="28" x="28" height="14" width="14" fill="#757575"/>
    <rect y="28" x="42" height="14" width="14" fill="#757575"/>
    <rect y="28" x="56" height="14" width="14" fill="#757575"/>
    <rect y="28" x="770" height="14" width="14" fill="#757575"/>
    <rect y="42" x="0" height="14" width="14" fill="#757575"/>
    <rect y="42" x="28" height="14" width="14" fill="#757575"/>
    <rect y="42" x="42" height="14" width="14" fill="#757575"/>
    <rect y="42" x="56" height="14" width="14" fill="#757575"/>
    <rect y="42" x="770" height="14" width="14" fill="#757575"/>
    <rect y="56" x="0" height="14" width="14" fill="#757575"/>
    <rect y="56" x="28" height="14" width="14" fill="#757575"/>
    <rect y="56" x="42" height="14" width="14" fill="#757575"/>
    <rect y="56" x="56" height="14" width="14" fill="#757575"/>
    <rect y="56" x="770" height="14" width="14" fill="#757575"/>
    <rect y="70" x="0" height="14" width="14" fill="#757575"/>
    <rect y="70" x="770" height="14" width="14" fill="#757575"/>
    <rect y="84" x="0" height="14" width="14" fill="#757575"/>
    <rect y="84" x="770" height="14" width="14" fill="#757575"/>
    <rect y="98" x="0" height="14" width="14" fill="#757575"/>
    <rect y="98" x="28" height="14" width="14" fill="#757575"/>
    <rect y="98" x="42" height="14" width="14" fill="#757575"/>
    <rect y="98" x="84" height="14" width="14" fill="#757575"/>
    <rect y="98" x="98" height="14" width="14" fill="#757575"/>
    <rect y="98" x="112" height="14" width="14" fill="#757575"/>
    <rect y="98" x="154" height="14" width="14" fill="#757575"/>
    <rect y="98" x="168" height="14" width="14" fill="#757575"/>
    <rect y="98" x="182" height="14" width="14" fill="#757575"/>
    <rect y="98" x="280" height="14" width="14" fill="#757575"/>
    <rect y="98" x="294" height="14" width="14" fill="#757575"/>
    <rect y="98" x="308" height="14" width="14" fill="#757575"/>
    <rect y="98" x="406" height="14" width="14" fill="#757575"/>
    <rect y="98" x="420" height="14" width="14" fill="#757575"/>
    <rect y="98" x="434" height="14" width="14" fill="#757575"/>
    <rect y="98" x="770" height="14" width="14" fill="#757575"/>
    <rect y="112" x="0" height="14" width="14" fill="#757575"/>
    <rect y="112" x="28" height="14" width="14" fill="#757575"/>
    <rect y="112" x="84" height="14" width="14" fill="#757575"/>
    <rect y="112" x="98" height="14" width="14" fill="#757575"/>
    <rect y="112" x="112" height="14" width="14" fill="#757575"/>
    <rect y="112" x="154" height="14" width="14" fill="#757575"/>
    <rect y="112" x="182" height="14" width="14" fill="#757575"/>
    <rect y="112" x="280" height="14" width="14" fill="#757575"/>
    <rect y="112" x="406" height="14" width="14" fill="#757575"/>
    <rect y="112" x="434" height="14" width="14" fill="#757575"/>
    <rect y="112" x="770" height="14" width="14" fill="#757575"/>
    <rect y="126" x="0" height="14" width="14" fill="#757575"/>
    <rect y="126" x="84" height="14" width="14" fill="#757575"/>
    <rect y="126" x="98" height="14" width="14" fill="#757575"/>
    <rect y="126" x="112" height="14" width="14" fill="#757575"/>
    <rect y="126" x="154" height="14" width="14" fill="#757575"/>
    <rect y="126" x="168" height="14" width="14" fill="#757575"/>
    <rect y="126" x="182" height="14" width="14" fill="#757575"/>
    <rect y="126" x="280" height="14" width="14" fill="#757575"/>
    <rect y="126" x="294" height="14" width="14" fill="#757575"/>
    <rect y="126" x="308" height="14" width="14" fill="#757575"/>
    <rect y="126" x="406" height="14" width="14" fill="#757575"/>
    <rect y="126" x="770" height="14" width="14" fill="#757575"/>
    <rect y="140" x="0" height="14" width="14" fill="#757575"/>
    <rect y="140" x="770" height="14" width="14" fill="#757575"/>
    <rect y="154" x="0" height="14" width="14" fill="#757575"/>
    <rect y="154" x="770" height="14" width="14" fill="#757575"/>
    <rect y="168" x="0" height="14" width="14" fill="#757575"/>
    <rect y="168" x="28" height="14" width="14" fill="#757575"/>
    <rect y="168" x="42" height="14" width="14" fill="#757575"/>
    <rect y="168" x="84" height="14" width="14" fill="#757575"/>
    <rect y="168" x="98" height="14" width="14" fill="#757575"/>
    <rect y="168" x="112" height="14" width="14" fill="#757575"/>
    <rect y="168" x="154" height="14" width="14" fill="#757575"/>
    <rect y="168" x="168" height="14" width="14" fill="#757575"/>
    <rect y="168" x="210" height="14" width="14" fill="#757575"/>
    <rect y="168" x="224" height="14" width="14" fill="#757575"/>
    <rect y="168" x="266" height="14" width="14" fill="#757575"/>
    <rect y="168" x="280" height="14" width="14" fill="#757575"/>
    <rect y="168" x="294" height="14" width="14" fill="#757575"/>
    <rect y="168" x="308" height="14" width="14" fill="#757575"/>
    <rect y="168" x="322" height="14" width="14" fill="#757575"/>
    <rect y="168" x="364" height="14" width="14" fill="#757575"/>
    <rect y="168" x="378" height="14" width="14" fill="#757575"/>
    <rect y="168" x="392" height="14" width="14" fill="#757575"/>
    <rect y="168" x="406" height="14" width="14" fill="#757575"/>
    <rect y="168" x="448" height="14" width="14" fill="#757575"/>
    <rect y="168" x="462" height="14" width="14" fill="#757575"/>
    <rect y="168" x="476" height="14" width="14" fill="#757575"/>
    <rect y="168" x="490" height="14" width="14" fill="#757575"/>
    <rect y="168" x="588" height="14" width="14" fill="#757575"/>
    <rect y="168" x="602" height="14" width="14" fill="#757575"/>
    <rect y="168" x="616" height="14" width="14" fill="#757575"/>
    <rect y="168" x="714" height="14" width="14" fill="#757575"/>
    <rect y="168" x="728" height="14" width="14" fill="#757575"/>
    <rect y="168" x="742" height="14" width="14" fill="#757575"/>
    <rect y="168" x="770" height="14" width="14" fill="#757575"/>
    <rect y="182" x="0" height="14" width="14" fill="#757575"/>
    <rect y="182" x="28" height="14" width="14" fill="#757575"/>
    <rect y="182" x="84" height="14" width="14" fill="#757575"/>
    <rect y="182" x="98" height="14" width="14" fill="#757575"/>
    <rect y="182" x="112" height="14" width="14" fill="#757575"/>
    <rect y="182" x="154" height="14" width="14" fill="#757575"/>
    <rect y="182" x="210" height="14" width="14" fill="#757575"/>
    <rect y="182" x="266" height="14" width="14" fill="#757575"/>
    <rect y="182" x="294" height="14" width="14" fill="#757575"/>
    <rect y="182" x="322" height="14" width="14" fill="#757575"/>
    <rect y="182" x="364" height="14" width="14" fill="#757575"/>
    <rect y="182" x="378" height="14" width="14" fill="#757575"/>
    <rect y="182" x="406" height="14" width="14" fill="#757575"/>
    <rect y="182" x="448" height="14" width="14" fill="#757575"/>
    <rect y="182" x="462" height="14" width="14" fill="#757575"/>
    <rect y="182" x="490" height="14" width="14" fill="#757575"/>
    <rect y="182" x="588" height="14" width="14" fill="#757575"/>
    <rect y="182" x="714" height="14" width="14" fill="#757575"/>
    <rect y="182" x="770" height="14" width="14" fill="#757575"/>
    <rect y="196" x="0" height="14" width="14" fill="#757575"/>
    <rect y="196" x="84" height="14" width="14" fill="#757575"/>
    <rect y="196" x="98" height="14" width="14" fill="#757575"/>
    <rect y="196" x="112" height="14" width="14" fill="#757575"/>
    <rect y="196" x="266" height="14" width="14" fill="#757575"/>
    <rect y="196" x="294" height="14" width="14" fill="#757575"/>
    <rect y="196" x="322" height="14" width="14" fill="#757575"/>
    <rect y="196" x="364" height="14" width="14" fill="#757575"/>
    <rect y="196" x="392" height="14" width="14" fill="#757575"/>
    <rect y="196" x="406" height="14" width="14" fill="#757575"/>
    <rect y="196" x="448" height="14" width="14" fill="#757575"/>
    <rect y="196" x="490" height="14" width="14" fill="#757575"/>
    <rect y="196" x="588" height="14" width="14" fill="#757575"/>
    <rect y="196" x="602" height="14" width="14" fill="#757575"/>
    <rect y="196" x="616" height="14" width="14" fill="#757575"/>
    <rect y="196" x="714" height="14" width="14" fill="#757575"/>
    <rect y="196" x="742" height="14" width="14" fill="#757575"/>
    <rect y="196" x="770" height="14" width="14" fill="#757575"/>
    <rect y="210" x="0" height="14" width="14" fill="#757575"/>
    <rect y="210" x="266" height="14" width="14" fill="#757575"/>
    <rect y="210" x="294" height="14" width="14" fill="#757575"/>
    <rect y="210" x="322" height="14" width="14" fill="#757575"/>
    <rect y="210" x="364" height="14" width="14" fill="#757575"/>
    <rect y="210" x="378" height="14" width="14" fill="#757575"/>
    <rect y="210" x="392" height="14" width="14" fill="#757575"/>
    <rect y="210" x="406" height="14" width="14" fill="#757575"/>
    <rect y="210" x="448" height="14" width="14" fill="#757575"/>
    <rect y="210" x="462" height="14" width="14" fill="#757575"/>
    <rect y="210" x="476" height="14" width="14" fill="#757575"/>
    <rect y="210" x="490" height="14" width="14" fill="#757575"/>
    <rect y="210" x="770" height="14" width="14" fill="#757575"/>
    <rect y="224" x="0" height="14" width="14" fill="#757575"/>
    <rect y="224" x="266" height="14" width="14" fill="#757575"/>
    <rect y="224" x="280" height="14" width="14" fill="#757575"/>
    <rect y="224" x="294" height="14" width="14" fill="#757575"/>
    <rect y="224" x="308" height="14" width="14" fill="#757575"/>
    <rect y="224" x="322" height="14" width="14" fill="#757575"/>
    <rect y="224" x="770" height="14" width="14" fill="#757575"/>
    <rect y="238" x="0" height="14" width="14" fill="#757575"/>
    <rect y="238" x="770" height="14" width="14" fill="#757575"/>
    <rect y="252" x="0" height="14" width="14" fill="#757575"/>
    <rect y="252" x="14" height="14" width="14" fill="#757575"/>
    <rect y="252" x="28" height="14" width="14" fill="#757575"/>
    <rect y="252" x="42" height="14" width="14" fill="#757575"/>
    <rect y="252" x="56" height="14" width="14" fill="#757575"/>
    <rect y="252" x="70" height="14" width="14" fill="#757575"/>
    <rect y="252" x="84" height="14" width="14" fill="#757575"/>
    <rect y="252" x="98" height="14" width="14" fill="#757575"/>
    <rect y="252" x="112" height="14" width="14" fill="#757575"/>
    <rect y="252" x="126" height="14" width="14" fill="#757575"/>
    <rect y="252" x="140" height="14" width="14" fill="#757575"/>
    <rect y="252" x="154" height="14" width="14" fill="#757575"/>
    <rect y="252" x="168" height="14" width="14" fill="#757575"/>
    <rect y="252" x="182" height="14" width="14" fill="#757575"/>
    <rect y="252" x="196" height="14" width="14" fill="#757575"/>
    <rect y="252" x="210" height="14" width="14" fill="#757575"/>
    <rect y="252" x="224" height="14" width="14" fill="#757575"/>
    <rect y="252" x="238" height="14" width="14" fill="#757575"/>
    <rect y="252" x="252" height="14" width="14" fill="#757575"/>
    <rect y="252" x="266" height="14" width="14" fill="#757575"/>
    <rect y="252" x="280" height="14" width="14" fill="#757575"/>
    <rect y="252" x="294" height="14" width="14" fill="#757575"/>
    <rect y="252" x="308" height="14" width="14" fill="#757575"/>
    <rect y="252" x="322" height="14" width="14" fill="#757575"/>
    <rect y="252" x="336" height="14" width="14" fill="#757575"/>
    <rect y="252" x="350" height="14" width="14" fill="#757575"/>
    <rect y="252" x="364" height="14" width="14" fill="#757575"/>
    <rect y="252" x="378" height="14" width="14" fill="#757575"/>
    <rect y="252" x="392" height="14" width="14" fill="#757575"/>
    <rect y="252" x="406" height="14" width="14" fill="#757575"/>
    <rect y="252" x="420" height="14" width="14" fill="#757575"/>
    <rect y="252" x="434" height="14" width="14" fill="#757575"/>
    <rect y="252" x="448" height="14" width="14" fill="#757575"/>
    <rect y="252" x="462" height="14" width="14" fill="#757575"/>
    <rect y="252" x="476" height="14" width="14" fill="#757575"/>
    <rect y="252" x="490" height="14" width="14" fill="#757575"/>
    <rect y="252" x="504" height="14" width="14" fill="#757575"/>
    <rect y="252" x="518" height="14" width="14" fill="#757575"/>
    <rect y="252" x="532" height="14" width="14" fill="#757575"/>
    <rect y="252" x="546" height="14" width="14" fill="#757575"/>
    <rect y="252" x="560" height="14" width="14" fill="#757575"/>
    <rect y="252" x="574" height="14" width="14" fill="#757575"/>
    <rect y="252" x="588" height="14" width="14" fill="#757575"/>
    <rect y="252" x="602" height="14" width="14" fill="#757575"/>
    <rect y="252" x="616" height="14" width="14" fill="#757575"/>
    <rect y="252" x="630" height="14" width="14" fill="#757575"/>
    <rect y="252" x="644" height="14" width="14" fill="#757575"/>
    <rect y="252" x="658" height="14" width="14" fill="#757575"/>
    <rect y="252" x="672" height="14" width="14" fill="#757575"/>
    <rect y="252" x="686" height="14" width="14" fill="#757575"/>
    <rect y="252" x="700" height="14" width="14" fill="#757575"/>
    <rect y="252" x="714" height="14" width="14" fill="#757575"/>
    <rect y="252" x="728" height="14" width="14" fill="#757575"/>
    <rect y="252" x="742" height="14" width="14" fill="#757575"/>
    <rect y="252" x="756" height="14" width="14" fill="#757575"/>
    <rect y="252" x="770" height="14" width="14" fill="#757575"/>
    
  <rect y="28" x="28" height="42" width="42" fill="#827717" fill-opacity="0.5"/>
<text y="49" x="49" dominant-baseline='middle' text-anchor='middle' fill='white' style='paint-order: stroke; fill: white; stroke: black; stroke-width: 1px; font-family="monospace"; font-size: 18px'><tspan x="49" dy="0em">isnil</tspan></text>
<rect y="98" x="28" height="28" width="28" fill="#827717" fill-opacity="0.5"/>
<text y="112" x="42" dominant-baseline='middle' text-anchor='middle' fill='white' style='paint-order: stroke; fill: white; stroke: black; stroke-width: 1px; font-family="monospace"; font-size: 18px'><tspan x="42" dy="0em">ap</tspan></text>
<rect y="98" x="84" height="42" width="42" fill="#827717" fill-opacity="0.5"/>
<text y="119" x="105" dominant-baseline='middle' text-anchor='middle' fill='white' style='paint-order: stroke; fill: white; stroke: black; stroke-width: 1px; font-family="monospace"; font-size: 18px'><tspan x="105" dy="0em">isnil</tspan></text>
<rect y="98" x="154" height="42" width="42" fill="#827717" fill-opacity="0.5"/>
<text y="119" x="175" dominant-baseline='middle' text-anchor='middle' fill='white' style='paint-order: stroke; fill: white; stroke: black; stroke-width: 1px; font-family="monospace"; font-size: 18px'><tspan x="175" dy="0em">nil</tspan></text>
<rect y="98" x="280" height="42" width="42" fill="#827717" fill-opacity="0.5"/>
<text y="119" x="301" dominant-baseline='middle' text-anchor='middle' fill='white' style='paint-order: stroke; fill: white; stroke: black; stroke-width: 1px; font-family="monospace"; font-size: 18px'><tspan x="301" dy="0em">is</tspan></text>
<rect y="98" x="406" height="42" width="42" fill="#827717" fill-opacity="0.5"/>
<text y="119" x="427" dominant-baseline='middle' text-anchor='middle' fill='white' style='paint-order: stroke; fill: white; stroke: black; stroke-width: 1px; font-family="monospace"; font-size: 18px'><tspan x="427" dy="0em">True</tspan></text>
<rect y="168" x="28" height="28" width="28" fill="#827717" fill-opacity="0.5"/>
<text y="182" x="42" dominant-baseline='middle' text-anchor='middle' fill='white' style='paint-order: stroke; fill: white; stroke: black; stroke-width: 1px; font-family="monospace"; font-size: 18px'><tspan x="42" dy="0em">ap</tspan></text>
<rect y="168" x="84" height="42" width="42" fill="#827717" fill-opacity="0.5"/>
<text y="189" x="105" dominant-baseline='middle' text-anchor='middle' fill='white' style='paint-order: stroke; fill: white; stroke: black; stroke-width: 1px; font-family="monospace"; font-size: 18px'><tspan x="105" dy="0em">isnil</tspan></text>
<rect y="168" x="154" height="28" width="28" fill="#827717" fill-opacity="0.5"/>
<text y="182" x="168" dominant-baseline='middle' text-anchor='middle' fill='white' style='paint-order: stroke; fill: white; stroke: black; stroke-width: 1px; font-family="monospace"; font-size: 18px'><tspan x="168" dy="0em">ap</tspan></text>
<rect y="168" x="210" height="28" width="28" fill="#827717" fill-opacity="0.5"/>
<text y="182" x="224" dominant-baseline='middle' text-anchor='middle' fill='white' style='paint-order: stroke; fill: white; stroke: black; stroke-width: 1px; font-family="monospace"; font-size: 18px'><tspan x="224" dy="0em">ap</tspan></text>
<rect y="168" x="266" height="70" width="70" fill="#827717" fill-opacity="0.5"/>
<text y="203" x="301" dominant-baseline='middle' text-anchor='middle' fill='white' style='paint-order: stroke; fill: white; stroke: black; stroke-width: 1px; font-family="monospace"; font-size: 18px'><tspan x="301" dy="0em">cos</tspan></text>
<rect y="168" x="364" height="56" width="56" fill="#004D40" fill-opacity="0.5"/>
<text y="196" x="392" dominant-baseline='middle' text-anchor='middle' fill='white' style='paint-order: stroke; fill: white; stroke: black; stroke-width: 1px; font-family="monospace"; font-size: 18px'><tspan x="392" dy="0em">x0</tspan></text>
<rect y="168" x="448" height="56" width="56" fill="#004D40" fill-opacity="0.5"/>
<text y="196" x="476" dominant-baseline='middle' text-anchor='middle' fill='white' style='paint-order: stroke; fill: white; stroke: black; stroke-width: 1px; font-family="monospace"; font-size: 18px'><tspan x="476" dy="0em">x1</tspan></text>
<rect y="168" x="588" height="42" width="42" fill="#827717" fill-opacity="0.5"/>
<text y="189" x="609" dominant-baseline='middle' text-anchor='middle' fill='white' style='paint-order: stroke; fill: white; stroke: black; stroke-width: 1px; font-family="monospace"; font-size: 18px'><tspan x="609" dy="0em">is</tspan></text>
<rect y="168" x="714" height="42" width="42" fill="#827717" fill-opacity="0.5"/>
<text y="189" x="735" dominant-baseline='middle' text-anchor='middle' fill='white' style='paint-order: stroke; fill: white; stroke: black; stroke-width: 1px; font-family="monospace"; font-size: 18px'><tspan x="735" dy="0em">False</tspan></text>

</svg>
