<?xml version="1.0"?>
<svg xmlns="http://www.w3.org/2000/svg" height="252" width="644">
  <rect y="0" x="0" height="252" width="644" fill="black" />
  <rect y="0" x="0" height="14" width="14" fill="#757575"/>
    <rect y="0" x="14" height="14" width="14" fill="#757575"/>
    <rect y="0" x="28" height="14" width="14" fill="#757575"/>
    <rect y="0" x="42" height="14" width="14" fill="#757575"/>
    <rect y="0" x="56" height="14" width="14" fill="#757575"/>
    <rect y="0" x="70" height="14" width="14" fill="#757575"/>
    <rect y="0" x="84" height="14" width="14" fill="#757575"/>
    <rect y="0" x="98" height="14" width="14" fill="#757575"/>
    <rect y="0" x="112" height="14" width="14" fill="#757575"/>
    <rect y="0" x="126" height="14" width="14" fill="#757575"/>
    <rect y="0" x="140" height="14" width="14" fill="#757575"/>
    <rect y="0" x="154" height="14" width="14" fill="#757575"/>
    <rect y="0" x="168" height="14" width="14" fill="#757575"/>
    <rect y="0" x="182" height="14" width="14" fill="#757575"/>
    <rect y="0" x="196" height="14" width="14" fill="#757575"/>
    <rect y="0" x="210" height="14" width="14" fill="#757575"/>
    <rect y="0" x="224" height="14" width="14" fill="#757575"/>
    <rect y="0" x="238" height="14" width="14" fill="#757575"/>
    <rect y="0" x="252" height="14" width="14" fill="#757575"/>
    <rect y="0" x="266" height="14" width="14" fill="#757575"/>
    <rect y="0" x="280" height="14" width="14" fill="#757575"/>
    <rect y="0" x="294" height="14" width="14" fill="#757575"/>
    <rect y="0" x="308" height="14" width="14" fill="#757575"/>
    <rect y="0" x="322" height="14" width="14" fill="#757575"/>
    <rect y="0" x="336" height="14" width="14" fill="#757575"/>
    <rect y="0" x="350" height="14" width="14" fill="#757575"/>
    <rect y="0" x="364" height="14" width="14" fill="#757575"/>
    <rect y="0" x="378" height="14" width="14" fill="#757575"/>
    <rect y="0" x="392" height="14" width="14" fill="#757575"/>
    <rect y="0" x="406" height="14" width="14" fill="#757575"/>
    <rect y="0" x="420" height="14" width="14" fill="#757575"/>
    <rect y="0" x="434" height="14" width="14" fill="#757575"/>
    <rect y="0" x="448" height="14" width="14" fill="#757575"/>
    <rect y="0" x="462" height="14" width="14" fill="#757575"/>
    <rect y="0" x="476" height="14" width="14" fill="#757575"/>
    <rect y="0" x="490" height="14" width="14" fill="#757575"/>
    <rect y="0" x="504" height="14" width="14" fill="#757575"/>
    <rect y="0" x="518" height="14" width="14" fill="#757575"/>
    <rect y="0" x="532" height="14" width="14" fill="#757575"/>
    <rect y="0" x="546" height="14" width="14" fill="#757575"/>
    <rect y="0" x="560" height="14" width="14" fill="#757575"/>
    <rect y="0" x="574" height="14" width="14" fill="#757575"/>
    <rect y="0" x="588" height="14" width="14" fill="#757575"/>
    <rect y="0" x="602" height="14" width="14" fill="#757575"/>
    <rect y="0" x="616" height="14" width="14" fill="#757575"/>
    <rect y="0" x="630" height="14" width="14" fill="#757575"/>
    <rect y="14" x="0" height="14" width="14" fill="#757575"/>
    <rect y="14" x="630" height="14" width="14" fill="#757575"/>
    <rect y="28" x="0" height="14" width="14" fill="#757575"/>
    <rect y="28" x="28" height="14" width="14" fill="#757575"/>
    <rect y="28" x="42" height="14" width="14" fill="#757575"/>
    <rect y="28" x="56" height="14" width="14" fill="#757575"/>
    <rect y="28" x="630" height="14" width="14" fill="#757575"/>
    <rect y="42" x="0" height="14" width="14" fill="#757575"/>
    <rect y="42" x="28" height="14" width="14" fill="#757575"/>
    <rect y="42" x="630" height="14" width="14" fill="#757575"/>
    <rect y="56" x="0" height="14" width="14" fill="#757575"/>
    <rect y="56" x="28" height="14" width="14" fill="#757575"/>
    <rect y="56" x="56" height="14" width="14" fill="#757575"/>
    <rect y="56" x="630" height="14" width="14" fill="#757575"/>
    <rect y="70" x="0" height="14" width="14" fill="#757575"/>
    <rect y="70" x="630" height="14" width="14" fill="#757575"/>
    <rect y="84" x="0" height="14" width="14" fill="#757575"/>
    <rect y="84" x="630" height="14" width="14" fill="#757575"/>
    <rect y="98" x="0" height="14" width="14" fill="#757575"/>
    <rect y="98" x="28" height="14" width="14" fill="#757575"/>
    <rect y="98" x="42" height="14" width="14" fill="#757575"/>
    <rect y="98" x="84" height="14" width="14" fill="#757575"/>
    <rect y="98" x="98" height="14" width="14" fill="#757575"/>
    <rect y="98" x="140" height="14" width="14" fill="#757575"/>
    <rect y="98" x="154" height="14" width="14" fill="#757575"/>
    <rect y="98" x="168" height="14" width="14" fill="#757575"/>
    <rect y="98" x="210" height="14" width="14" fill="#757575"/>
    <rect y="98" x="224" height="14" width="14" fill="#757575"/>
    <rect y="98" x="238" height="14" width="14" fill="#757575"/>
    <rect y="98" x="252" height="14" width="14" fill="#757575"/>
    <rect y="98" x="294" height="14" width="14" fill="#757575"/>
    <rect y="98" x="308" height="14" width="14" fill="#757575"/>
    <rect y="98" x="322" height="14" width="14" fill="#757575"/>
    <rect y="98" x="336" height="14" width="14" fill="#757575"/>
    <rect y="98" x="434" height="14" width="14" fill="#757575"/>
    <rect y="98" x="448" height="14" width="14" fill="#757575"/>
    <rect y="98" x="462" height="14" width="14" fill="#757575"/>
    <rect y="98" x="560" height="14" width="14" fill="#757575"/>
    <rect y="98" x="574" height="14" width="14" fill="#757575"/>
    <rect y="98" x="588" height="14" width="14" fill="#757575"/>
    <rect y="98" x="602" height="14" width="14" fill="#757575"/>
    <rect y="98" x="630" height="14" width="14" fill="#757575"/>
    <rect y="112" x="0" height="14" width="14" fill="#757575"/>
    <rect y="112" x="28" height="14" width="14" fill="#757575"/>
    <rect y="112" x="84" height="14" width="14" fill="#757575"/>
    <rect y="112" x="140" height="14" width="14" fill="#757575"/>
    <rect y="112" x="210" height="14" width="14" fill="#757575"/>
    <rect y="112" x="224" height="14" width="14" fill="#757575"/>
    <rect y="112" x="252" height="14" width="14" fill="#757575"/>
    <rect y="112" x="294" height="14" width="14" fill="#757575"/>
    <rect y="112" x="308" height="14" width="14" fill="#757575"/>
    <rect y="112" x="336" height="14" width="14" fill="#757575"/>
    <rect y="112" x="434" height="14" width="14" fill="#757575"/>
    <rect y="112" x="560" height="14" width="14" fill="#757575"/>
    <rect y="112" x="574" height="14" width="14" fill="#757575"/>
    <rect y="112" x="602" height="14" width="14" fill="#757575"/>
    <rect y="112" x="630" height="14" width="14" fill="#757575"/>
    <rect y="126" x="0" height="14" width="14" fill="#757575"/>
    <rect y="126" x="140" height="14" width="14" fill="#757575"/>
    <rect y="126" x="168" height="14" width="14" fill="#757575"/>
    <rect y="126" x="210" height="14" width="14" fill="#757575"/>
    <rect y="126" x="238" height="14" width="14" fill="#757575"/>
    <rect y="126" x="252" height="14" width="14" fill="#757575"/>
    <rect y="126" x="294" height="14" width="14" fill="#757575"/>
    <rect y="126" x="336" height="14" width="14" fill="#757575"/>
    <rect y="126" x="434" height="14" width="14" fill="#757575"/>
    <rect y="126" x="448" height="14" width="14" fill="#757575"/>
    <rect y="126" x="462" height="14" width="14" fill="#757575"/>
    <rect y="126" x="560" height="14" width="14" fill="#757575"/>
    <rect y="126" x="602" height="14" width="14" fill="#757575"/>
    <rect y="126" x="630" height="14" width="14" fill="#757575"/>
    <rect y="140" x="0" height="14" width="14" fill="#757575"/>
    <rect y="140" x="210" height="14" width="14" fill="#757575"/>
    <rect y="140" x="224" height="14" width="14" fill="#757575"/>
    <rect y="140" x="238" height="14" width="14" fill="#757575"/>
    <rect y="140" x="252" height="14" width="14" fill="#757575"/>
    <rect y="140" x="294" height="14" width="14" fill="#757575"/>
    <rect y="140" x="308" height="14" width="14" fill="#757575"/>
    <rect y="140" x="322" height="14" width="14" fill="#757575"/>
    <rect y="140" x="336" height="14" width="14" fill="#757575"/>
    <rect y="140" x="560" height="14" width="14" fill="#757575"/>
    <rect y="140" x="574" height="14" width="14" fill="#757575"/>
    <rect y="140" x="588" height="14" width="14" fill="#757575"/>
    <rect y="140" x="602" height="14" width="14" fill="#757575"/>
    <rect y="140" x="630" height="14" width="14" fill="#757575"/>
    <rect y="154" x="0" height="14" width="14" fill="#757575"/>
    <rect y="154" x="630" height="14" width="14" fill="#757575"/>
    <rect y="168" x="0" height="14" width="14" fill="#757575"/>
    <rect y="168" x="630" height="14" width="14" fill="#757575"/>
    <rect y="182" x="0" height="14" width="14" fill="#757575"/>
    <rect y="182" x="28" height="14" width="14" fill="#757575"/>
    <rect y="182" x="42" height="14" width="14" fill="#757575"/>
    <rect y="182" x="56" height="14" width="14" fill="#757575"/>
    <rect y="182" x="154" height="14" width="14" fill="#757575"/>
    <rect y="182" x="168" height="14" width="14" fill="#757575"/>
    <rect y="182" x="182" height="14" width="14" fill="#757575"/>
    <rect y="182" x="280" height="14" width="14" fill="#757575"/>
    <rect y="182" x="294" height="14" width="14" fill="#757575"/>
    <rect y="182" x="336" height="14" width="14" fill="#757575"/>
    <rect y="182" x="350" height="14" width="14" fill="#757575"/>
    <rect y="182" x="364" height="14" width="14" fill="#757575"/>
    <rect y="182" x="406" height="14" width="14" fill="#757575"/>
    <rect y="182" x="420" height="14" width="14" fill="#757575"/>
    <rect y="182" x="434" height="14" width="14" fill="#757575"/>
    <rect y="182" x="630" height="14" width="14" fill="#757575"/>
    <rect y="196" x="0" height="14" width="14" fill="#757575"/>
    <rect y="196" x="28" height="14" width="14" fill="#757575"/>
    <rect y="196" x="154" height="14" width="14" fill="#757575"/>
    <rect y="196" x="280" height="14" width="14" fill="#757575"/>
    <rect y="196" x="336" height="14" width="14" fill="#757575"/>
    <rect y="196" x="350" height="14" width="14" fill="#757575"/>
    <rect y="196" x="364" height="14" width="14" fill="#757575"/>
    <rect y="196" x="406" height="14" width="14" fill="#757575"/>
    <rect y="196" x="434" height="14" width="14" fill="#757575"/>
    <rect y="196" x="630" height="14" width="14" fill="#757575"/>
    <rect y="210" x="0" height="14" width="14" fill="#757575"/>
    <rect y="210" x="28" height="14" width="14" fill="#757575"/>
    <rect y="210" x="56" height="14" width="14" fill="#757575"/>
    <rect y="210" x="154" height="14" width="14" fill="#757575"/>
    <rect y="210" x="168" height="14" width="14" fill="#757575"/>
    <rect y="210" x="182" height="14" width="14" fill="#757575"/>
    <rect y="210" x="336" height="14" width="14" fill="#757575"/>
    <rect y="210" x="350" height="14" width="14" fill="#757575"/>
    <rect y="210" x="406" height="14" width="14" fill="#757575"/>
    <rect y="210" x="630" height="14" width="14" fill="#757575"/>
    <rect y="224" x="0" height="14" width="14" fill="#757575"/>
    <rect y="224" x="630" height="14" width="14" fill="#757575"/>
    <rect y="238" x="0" height="14" width="14" fill="#757575"/>
    <rect y="238" x="14" height="14" width="14" fill="#757575"/>
    <rect y="238" x="28" height="14" width="14" fill="#757575"/>
    <rect y="238" x="42" height="14" width="14" fill="#757575"/>
    <rect y="238" x="56" height="14" width="14" fill="#757575"/>
    <rect y="238" x="70" height="14" width="14" fill="#757575"/>
    <rect y="238" x="84" height="14" width="14" fill="#757575"/>
    <rect y="238" x="98" height="14" width="14" fill="#757575"/>
    <rect y="238" x="112" height="14" width="14" fill="#757575"/>
    <rect y="238" x="126" height="14" width="14" fill="#757575"/>
    <rect y="238" x="140" height="14" width="14" fill="#757575"/>
    <rect y="238" x="154" height="14" width="14" fill="#757575"/>
    <rect y="238" x="168" height="14" width="14" fill="#757575"/>
    <rect y="238" x="182" height="14" width="14" fill="#757575"/>
    <rect y="238" x="196" height="14" width="14" fill="#757575"/>
    <rect y="238" x="210" height="14" width="14" fill="#757575"/>
    <rect y="238" x="224" height="14" width="14" fill="#757575"/>
    <rect y="238" x="238" height="14" width="14" fill="#757575"/>
    <rect y="238" x="252" height="14" width="14" fill="#757575"/>
    <rect y="238" x="266" height="14" width="14" fill="#757575"/>
    <rect y="238" x="280" height="14" width="14" fill="#757575"/>
    <rect y="238" x="294" height="14" width="14" fill="#757575"/>
    <rect y="238" x="308" height="14" width="14" fill="#757575"/>
    <rect y="238" x="322" height="14" width="14" fill="#757575"/>
    <rect y="238" x="336" height="14" width="14" fill="#757575"/>
    <rect y="238" x="350" height="14" width="14" fill="#757575"/>
    <rect y="238" x="364" height="14" width="14" fill="#757575"/>
    <rect y="238" x="378" height="14" width="14" fill="#757575"/>
    <rect y="238" x="392" height="14" width="14" fill="#757575"/>
    <rect y="238" x="406" height="14" width="14" fill="#757575"/>
    <rect y="238" x="420" height="14" width="14" fill="#757575"/>
    <rect y="238" x="434" height="14" width="14" fill="#757575"/>
    <rect y="238" x="448" height="14" width="14" fill="#757575"/>
    <rect y="238" x="462" height="14" width="14" fill="#757575"/>
    <rect y="238" x="476" height="14" width="14" fill="#757575"/>
    <rect y="238" x="490" height="14" width="14" fill="#757575"/>
    <rect y="238" x="504" height="14" width="14" fill="#757575"/>
    <rect y="238" x="518" height="14" width="14" fill="#757575"/>
    <rect y="238" x="532" height="14" width="14" fill="#757575"/>
    <rect y="238" x="546" height="14" width="14" fill="#757575"/>
    <rect y="238" x="560" height="14" width="14" fill="#757575"/>
    <rect y="238" x="574" height="14" width="14" fill="#757575"/>
    <rect y="238" x="588" height="14" width="14" fill="#757575"/>
    <rect y="238" x="602" height="14" width="14" fill="#757575"/>
    <rect y="238" x="616" height="14" width="14" fill="#757575"/>
    <rect y="238" x="630" height="14" width="14" fill="#757575"/>
    
  <rect y="28" x="28" height="42" width="42" fill="#827717" fill-opacity="0.5"/>
<text y="49" x="49" dominant-baseline='middle' text-anchor='middle' fill='white' style='paint-order: stroke; fill: white; stroke: black; stroke-width: 1px; font-family="monospace"; font-size: 18px'><tspan x="49" dy="0em">False</tspan></text>
<rect y="98" x="28" height="28" width="28" fill="#827717" fill-opacity="0.5"/>
<text y="112" x="42" dominant-baseline='middle' text-anchor='middle' fill='white' style='paint-order: stroke; fill: white; stroke: black; stroke-width: 1px; font-family="monospace"; font-size: 18px'><tspan x="42" dy="0em">ap</tspan></text>
<rect y="98" x="84" height="28" width="28" fill="#827717" fill-opacity="0.5"/>
<text y="112" x="98" dominant-baseline='middle' text-anchor='middle' fill='white' style='paint-order: stroke; fill: white; stroke: black; stroke-width: 1px; font-family="monospace"; font-size: 18px'><tspan x="98" dy="0em">ap</tspan></text>
<rect y="98" x="140" height="42" width="42" fill="#827717" fill-opacity="0.5"/>
<text y="119" x="161" dominant-baseline='middle' text-anchor='middle' fill='white' style='paint-order: stroke; fill: white; stroke: black; stroke-width: 1px; font-family="monospace"; font-size: 18px'><tspan x="161" dy="0em">False</tspan></text>
<rect y="98" x="210" height="56" width="56" fill="#004D40" fill-opacity="0.5"/>
<text y="126" x="238" dominant-baseline='middle' text-anchor='middle' fill='white' style='paint-order: stroke; fill: white; stroke: black; stroke-width: 1px; font-family="monospace"; font-size: 18px'><tspan x="238" dy="0em">x0</tspan></text>
<rect y="98" x="294" height="56" width="56" fill="#004D40" fill-opacity="0.5"/>
<text y="126" x="322" dominant-baseline='middle' text-anchor='middle' fill='white' style='paint-order: stroke; fill: white; stroke: black; stroke-width: 1px; font-family="monospace"; font-size: 18px'><tspan x="322" dy="0em">x1</tspan></text>
<rect y="98" x="434" height="42" width="42" fill="#827717" fill-opacity="0.5"/>
<text y="119" x="455" dominant-baseline='middle' text-anchor='middle' fill='white' style='paint-order: stroke; fill: white; stroke: black; stroke-width: 1px; font-family="monospace"; font-size: 18px'><tspan x="455" dy="0em">is</tspan></text>
<rect y="98" x="560" height="56" width="56" fill="#004D40" fill-opacity="0.5"/>
<text y="126" x="588" dominant-baseline='middle' text-anchor='middle' fill='white' style='paint-order: stroke; fill: white; stroke: black; stroke-width: 1px; font-family="monospace"; font-size: 18px'><tspan x="588" dy="0em">x1</tspan></text>
<rect y="182" x="28" height="42" width="42" fill="#827717" fill-opacity="0.5"/>
<text y="203" x="49" dominant-baseline='middle' text-anchor='middle' fill='white' style='paint-order: stroke; fill: white; stroke: black; stroke-width: 1px; font-family="monospace"; font-size: 18px'><tspan x="49" dy="0em">False</tspan></text>
<rect y="182" x="154" height="42" width="42" fill="#827717" fill-opacity="0.5"/>
<text y="203" x="175" dominant-baseline='middle' text-anchor='middle' fill='white' style='paint-order: stroke; fill: white; stroke: black; stroke-width: 1px; font-family="monospace"; font-size: 18px'><tspan x="175" dy="0em">is</tspan></text>
<rect y="182" x="280" height="28" width="28" fill="#827717" fill-opacity="0.5"/>
<text y="196" x="294" dominant-baseline='middle' text-anchor='middle' fill='white' style='paint-order: stroke; fill: white; stroke: black; stroke-width: 1px; font-family="monospace"; font-size: 18px'><tspan x="294" dy="0em">ap</tspan></text>
<rect y="182" x="336" height="42" width="42" fill="#827717" fill-opacity="0.5"/>
<text y="203" x="357" dominant-baseline='middle' text-anchor='middle' fill='white' style='paint-order: stroke; fill: white; stroke: black; stroke-width: 1px; font-family="monospace"; font-size: 18px'><tspan x="357" dy="0em">\f g x -> (f x) (g x)</tspan></text>
<rect y="182" x="406" height="42" width="42" fill="#827717" fill-opacity="0.5"/>
<text y="203" x="427" dominant-baseline='middle' text-anchor='middle' fill='white' style='paint-order: stroke; fill: white; stroke: black; stroke-width: 1px; font-family="monospace"; font-size: 18px'><tspan x="427" dy="0em">True</tspan></text>

</svg>
