<?xml version="1.0"?>
<svg xmlns="http://www.w3.org/2000/svg" height="406" width="1498">
  <rect y="0" x="0" height="406" width="1498" fill="black" />
  <rect y="0" x="0" height="14" width="14" fill="#757575"/>
    <rect y="0" x="14" height="14" width="14" fill="#757575"/>
    <rect y="0" x="28" height="14" width="14" fill="#757575"/>
    <rect y="0" x="42" height="14" width="14" fill="#757575"/>
    <rect y="0" x="56" height="14" width="14" fill="#757575"/>
    <rect y="0" x="70" height="14" width="14" fill="#757575"/>
    <rect y="0" x="84" height="14" width="14" fill="#757575"/>
    <rect y="0" x="98" height="14" width="14" fill="#757575"/>
    <rect y="0" x="112" height="14" width="14" fill="#757575"/>
    <rect y="0" x="126" height="14" width="14" fill="#757575"/>
    <rect y="0" x="140" height="14" width="14" fill="#757575"/>
    <rect y="0" x="154" height="14" width="14" fill="#757575"/>
    <rect y="0" x="168" height="14" width="14" fill="#757575"/>
    <rect y="0" x="182" height="14" width="14" fill="#757575"/>
    <rect y="0" x="196" height="14" width="14" fill="#757575"/>
    <rect y="0" x="210" height="14" width="14" fill="#757575"/>
    <rect y="0" x="224" height="14" width="14" fill="#757575"/>
    <rect y="0" x="238" height="14" width="14" fill="#757575"/>
    <rect y="0" x="252" height="14" width="14" fill="#757575"/>
    <rect y="0" x="266" height="14" width="14" fill="#757575"/>
    <rect y="0" x="280" height="14" width="14" fill="#757575"/>
    <rect y="0" x="294" height="14" width="14" fill="#757575"/>
    <rect y="0" x="308" height="14" width="14" fill="#757575"/>
    <rect y="0" x="322" height="14" width="14" fill="#757575"/>
    <rect y="0" x="336" height="14" width="14" fill="#757575"/>
    <rect y="0" x="350" height="14" width="14" fill="#757575"/>
    <rect y="0" x="364" height="14" width="14" fill="#757575"/>
    <rect y="0" x="378" height="14" width="14" fill="#757575"/>
    <rect y="0" x="392" height="14" width="14" fill="#757575"/>
    <rect y="0" x="406" height="14" width="14" fill="#757575"/>
    <rect y="0" x="420" height="14" width="14" fill="#757575"/>
    <rect y="0" x="434" height="14" width="14" fill="#757575"/>
    <rect y="0" x="448" height="14" width="14" fill="#757575"/>
    <rect y="0" x="462" height="14" width="14" fill="#757575"/>
    <rect y="0" x="476" height="14" width="14" fill="#757575"/>
    <rect y="0" x="490" height="14" width="14" fill="#757575"/>
    <rect y="0" x="504" height="14" width="14" fill="#757575"/>
    <rect y="0" x="518" height="14" width="14" fill="#757575"/>
    <rect y="0" x="532" height="14" width="14" fill="#757575"/>
    <rect y="0" x="546" height="14" width="14" fill="#757575"/>
    <rect y="0" x="560" height="14" width="14" fill="#757575"/>
    <rect y="0" x="574" height="14" width="14" fill="#757575"/>
    <rect y="0" x="588" height="14" width="14" fill="#757575"/>
    <rect y="0" x="602" height="14" width="14" fill="#757575"/>
    <rect y="0" x="616" height="14" width="14" fill="#757575"/>
    <rect y="0" x="630" height="14" width="14" fill="#757575"/>
    <rect y="0" x="644" height="14" width="14" fill="#757575"/>
    <rect y="0" x="658" height="14" width="14" fill="#757575"/>
    <rect y="0" x="672" height="14" width="14" fill="#757575"/>
    <rect y="0" x="686" height="14" width="14" fill="#757575"/>
    <rect y="0" x="700" height="14" width="14" fill="#757575"/>
    <rect y="0" x="714" height="14" width="14" fill="#757575"/>
    <rect y="0" x="728" height="14" width="14" fill="#757575"/>
    <rect y="0" x="742" height="14" width="14" fill="#757575"/>
    <rect y="0" x="756" height="14" width="14" fill="#757575"/>
    <rect y="0" x="770" height="14" width="14" fill="#757575"/>
    <rect y="0" x="784" height="14" width="14" fill="#757575"/>
    <rect y="0" x="798" height="14" width="14" fill="#757575"/>
    <rect y="0" x="812" height="14" width="14" fill="#757575"/>
    <rect y="0" x="826" height="14" width="14" fill="#757575"/>
    <rect y="0" x="840" height="14" width="14" fill="#757575"/>
    <rect y="0" x="854" height="14" width="14" fill="#757575"/>
    <rect y="0" x="868" height="14" width="14" fill="#757575"/>
    <rect y="0" x="882" height="14" width="14" fill="#757575"/>
    <rect y="0" x="896" height="14" width="14" fill="#757575"/>
    <rect y="0" x="910" height="14" width="14" fill="#757575"/>
    <rect y="0" x="924" height="14" width="14" fill="#757575"/>
    <rect y="0" x="938" height="14" width="14" fill="#757575"/>
    <rect y="0" x="952" height="14" width="14" fill="#757575"/>
    <rect y="0" x="966" height="14" width="14" fill="#757575"/>
    <rect y="0" x="980" height="14" width="14" fill="#757575"/>
    <rect y="0" x="994" height="14" width="14" fill="#757575"/>
    <rect y="0" x="1008" height="14" width="14" fill="#757575"/>
    <rect y="0" x="1022" height="14" width="14" fill="#757575"/>
    <rect y="0" x="1036" height="14" width="14" fill="#757575"/>
    <rect y="0" x="1050" height="14" width="14" fill="#757575"/>
    <rect y="0" x="1064" height="14" width="14" fill="#757575"/>
    <rect y="0" x="1078" height="14" width="14" fill="#757575"/>
    <rect y="0" x="1092" height="14" width="14" fill="#757575"/>
    <rect y="0" x="1106" height="14" width="14" fill="#757575"/>
    <rect y="0" x="1120" height="14" width="14" fill="#757575"/>
    <rect y="0" x="1134" height="14" width="14" fill="#757575"/>
    <rect y="0" x="1148" height="14" width="14" fill="#757575"/>
    <rect y="0" x="1162" height="14" width="14" fill="#757575"/>
    <rect y="0" x="1176" height="14" width="14" fill="#757575"/>
    <rect y="0" x="1190" height="14" width="14" fill="#757575"/>
    <rect y="0" x="1204" height="14" width="14" fill="#757575"/>
    <rect y="0" x="1218" height="14" width="14" fill="#757575"/>
    <rect y="0" x="1232" height="14" width="14" fill="#757575"/>
    <rect y="0" x="1246" height="14" width="14" fill="#757575"/>
    <rect y="0" x="1260" height="14" width="14" fill="#757575"/>
    <rect y="0" x="1274" height="14" width="14" fill="#757575"/>
    <rect y="0" x="1288" height="14" width="14" fill="#757575"/>
    <rect y="0" x="1302" height="14" width="14" fill="#757575"/>
    <rect y="0" x="1316" height="14" width="14" fill="#757575"/>
    <rect y="0" x="1330" height="14" width="14" fill="#757575"/>
    <rect y="0" x="1344" height="14" width="14" fill="#757575"/>
    <rect y="0" x="1358" height="14" width="14" fill="#757575"/>
    <rect y="0" x="1372" height="14" width="14" fill="#757575"/>
    <rect y="0" x="1386" height="14" width="14" fill="#757575"/>
    <rect y="0" x="1400" height="14" width="14" fill="#757575"/>
    <rect y="0" x="1414" height="14" width="14" fill="#757575"/>
    <rect y="0" x="1428" height="14" width="14" fill="#757575"/>
    <rect y="0" x="1442" height="14" width="14" fill="#757575"/>
    <rect y="0" x="1456" height="14" width="14" fill="#757575"/>
    <rect y="0" x="1470" height="14" width="14" fill="#757575"/>
    <rect y="0" x="1484" height="14" width="14" fill="#757575"/>
    <rect y="14" x="0" height="14" width="14" fill="#757575"/>
    <rect y="14" x="1484" height="14" width="14" fill="#757575"/>
    <rect y="28" x="0" height="14" width="14" fill="#757575"/>
    <rect y="28" x="28" height="14" width="14" fill="#757575"/>
    <rect y="28" x="42" height="14" width="14" fill="#757575"/>
    <rect y="28" x="56" height="14" width="14" fill="#757575"/>
    <rect y="28" x="70" height="14" width="14" fill="#757575"/>
    <rect y="28" x="84" height="14" width="14" fill="#757575"/>
    <rect y="28" x="98" height="14" width="14" fill="#757575"/>
    <rect y="28" x="112" height="14" width="14" fill="#757575"/>
    <rect y="28" x="1484" height="14" width="14" fill="#757575"/>
    <rect y="42" x="0" height="14" width="14" fill="#757575"/>
    <rect y="42" x="28" height="14" width="14" fill="#757575"/>
    <rect y="42" x="70" height="14" width="14" fill="#757575"/>
    <rect y="42" x="112" height="14" width="14" fill="#757575"/>
    <rect y="42" x="1484" height="14" width="14" fill="#757575"/>
    <rect y="56" x="0" height="14" width="14" fill="#757575"/>
    <rect y="56" x="28" height="14" width="14" fill="#757575"/>
    <rect y="56" x="70" height="14" width="14" fill="#757575"/>
    <rect y="56" x="112" height="14" width="14" fill="#757575"/>
    <rect y="56" x="1484" height="14" width="14" fill="#757575"/>
    <rect y="70" x="0" height="14" width="14" fill="#757575"/>
    <rect y="70" x="28" height="14" width="14" fill="#757575"/>
    <rect y="70" x="42" height="14" width="14" fill="#757575"/>
    <rect y="70" x="56" height="14" width="14" fill="#757575"/>
    <rect y="70" x="70" height="14" width="14" fill="#757575"/>
    <rect y="70" x="84" height="14" width="14" fill="#757575"/>
    <rect y="70" x="98" height="14" width="14" fill="#757575"/>
    <rect y="70" x="112" height="14" width="14" fill="#757575"/>
    <rect y="70" x="1484" height="14" width="14" fill="#757575"/>
    <rect y="84" x="0" height="14" width="14" fill="#757575"/>
    <rect y="84" x="28" height="14" width="14" fill="#757575"/>
    <rect y="84" x="70" height="14" width="14" fill="#757575"/>
    <rect y="84" x="112" height="14" width="14" fill="#757575"/>
    <rect y="84" x="1484" height="14" width="14" fill="#757575"/>
    <rect y="98" x="0" height="14" width="14" fill="#757575"/>
    <rect y="98" x="28" height="14" width="14" fill="#757575"/>
    <rect y="98" x="70" height="14" width="14" fill="#757575"/>
    <rect y="98" x="112" height="14" width="14" fill="#757575"/>
    <rect y="98" x="1484" height="14" width="14" fill="#757575"/>
    <rect y="112" x="0" height="14" width="14" fill="#757575"/>
    <rect y="112" x="28" height="14" width="14" fill="#757575"/>
    <rect y="112" x="42" height="14" width="14" fill="#757575"/>
    <rect y="112" x="56" height="14" width="14" fill="#757575"/>
    <rect y="112" x="70" height="14" width="14" fill="#757575"/>
    <rect y="112" x="84" height="14" width="14" fill="#757575"/>
    <rect y="112" x="98" height="14" width="14" fill="#757575"/>
    <rect y="112" x="112" height="14" width="14" fill="#757575"/>
    <rect y="112" x="1484" height="14" width="14" fill="#757575"/>
    <rect y="126" x="0" height="14" width="14" fill="#757575"/>
    <rect y="126" x="1484" height="14" width="14" fill="#757575"/>
    <rect y="140" x="0" height="14" width="14" fill="#757575"/>
    <rect y="140" x="1484" height="14" width="14" fill="#757575"/>
    <rect y="154" x="0" height="14" width="14" fill="#757575"/>
    <rect y="154" x="28" height="14" width="14" fill="#757575"/>
    <rect y="154" x="42" height="14" width="14" fill="#757575"/>
    <rect y="154" x="84" height="14" width="14" fill="#757575"/>
    <rect y="154" x="98" height="14" width="14" fill="#757575"/>
    <rect y="154" x="112" height="14" width="14" fill="#757575"/>
    <rect y="154" x="126" height="14" width="14" fill="#757575"/>
    <rect y="154" x="140" height="14" width="14" fill="#757575"/>
    <rect y="154" x="154" height="14" width="14" fill="#757575"/>
    <rect y="154" x="168" height="14" width="14" fill="#757575"/>
    <rect y="154" x="210" height="14" width="14" fill="#757575"/>
    <rect y="154" x="224" height="14" width="14" fill="#757575"/>
    <rect y="154" x="238" height="14" width="14" fill="#757575"/>
    <rect y="154" x="336" height="14" width="14" fill="#757575"/>
    <rect y="154" x="350" height="14" width="14" fill="#757575"/>
    <rect y="154" x="364" height="14" width="14" fill="#757575"/>
    <rect y="154" x="462" height="14" width="14" fill="#757575"/>
    <rect y="154" x="476" height="14" width="14" fill="#757575"/>
    <rect y="154" x="490" height="14" width="14" fill="#757575"/>
    <rect y="154" x="1484" height="14" width="14" fill="#757575"/>
    <rect y="168" x="0" height="14" width="14" fill="#757575"/>
    <rect y="168" x="28" height="14" width="14" fill="#757575"/>
    <rect y="168" x="84" height="14" width="14" fill="#757575"/>
    <rect y="168" x="126" height="14" width="14" fill="#757575"/>
    <rect y="168" x="168" height="14" width="14" fill="#757575"/>
    <rect y="168" x="210" height="14" width="14" fill="#757575"/>
    <rect y="168" x="238" height="14" width="14" fill="#757575"/>
    <rect y="168" x="336" height="14" width="14" fill="#757575"/>
    <rect y="168" x="462" height="14" width="14" fill="#757575"/>
    <rect y="168" x="490" height="14" width="14" fill="#757575"/>
    <rect y="168" x="1484" height="14" width="14" fill="#757575"/>
    <rect y="182" x="0" height="14" width="14" fill="#757575"/>
    <rect y="182" x="84" height="14" width="14" fill="#757575"/>
    <rect y="182" x="126" height="14" width="14" fill="#757575"/>
    <rect y="182" x="168" height="14" width="14" fill="#757575"/>
    <rect y="182" x="210" height="14" width="14" fill="#757575"/>
    <rect y="182" x="224" height="14" width="14" fill="#757575"/>
    <rect y="182" x="238" height="14" width="14" fill="#757575"/>
    <rect y="182" x="336" height="14" width="14" fill="#757575"/>
    <rect y="182" x="350" height="14" width="14" fill="#757575"/>
    <rect y="182" x="364" height="14" width="14" fill="#757575"/>
    <rect y="182" x="462" height="14" width="14" fill="#757575"/>
    <rect y="182" x="476" height="14" width="14" fill="#757575"/>
    <rect y="182" x="490" height="14" width="14" fill="#757575"/>
    <rect y="182" x="1484" height="14" width="14" fill="#757575"/>
    <rect y="196" x="0" height="14" width="14" fill="#757575"/>
    <rect y="196" x="84" height="14" width="14" fill="#757575"/>
    <rect y="196" x="98" height="14" width="14" fill="#757575"/>
    <rect y="196" x="112" height="14" width="14" fill="#757575"/>
    <rect y="196" x="126" height="14" width="14" fill="#757575"/>
    <rect y="196" x="140" height="14" width="14" fill="#757575"/>
    <rect y="196" x="154" height="14" width="14" fill="#757575"/>
    <rect y="196" x="168" height="14" width="14" fill="#757575"/>
    <rect y="196" x="1484" height="14" width="14" fill="#757575"/>
    <rect y="210" x="0" height="14" width="14" fill="#757575"/>
    <rect y="210" x="84" height="14" width="14" fill="#757575"/>
    <rect y="210" x="126" height="14" width="14" fill="#757575"/>
    <rect y="210" x="168" height="14" width="14" fill="#757575"/>
    <rect y="210" x="1484" height="14" width="14" fill="#757575"/>
    <rect y="224" x="0" height="14" width="14" fill="#757575"/>
    <rect y="224" x="84" height="14" width="14" fill="#757575"/>
    <rect y="224" x="126" height="14" width="14" fill="#757575"/>
    <rect y="224" x="168" height="14" width="14" fill="#757575"/>
    <rect y="224" x="1484" height="14" width="14" fill="#757575"/>
    <rect y="238" x="0" height="14" width="14" fill="#757575"/>
    <rect y="238" x="84" height="14" width="14" fill="#757575"/>
    <rect y="238" x="98" height="14" width="14" fill="#757575"/>
    <rect y="238" x="112" height="14" width="14" fill="#757575"/>
    <rect y="238" x="126" height="14" width="14" fill="#757575"/>
    <rect y="238" x="140" height="14" width="14" fill="#757575"/>
    <rect y="238" x="154" height="14" width="14" fill="#757575"/>
    <rect y="238" x="168" height="14" width="14" fill="#757575"/>
    <rect y="238" x="1484" height="14" width="14" fill="#757575"/>
    <rect y="252" x="0" height="14" width="14" fill="#757575"/>
    <rect y="252" x="1484" height="14" width="14" fill="#757575"/>
    <rect y="266" x="0" height="14" width="14" fill="#757575"/>
    <rect y="266" x="1484" height="14" width="14" fill="#757575"/>
    <rect y="280" x="0" height="14" width="14" fill="#757575"/>
    <rect y="280" x="28" height="14" width="14" fill="#757575"/>
    <rect y="280" x="42" height="14" width="14" fill="#757575"/>
    <rect y="280" x="84" height="14" width="14" fill="#757575"/>
    <rect y="280" x="98" height="14" width="14" fill="#757575"/>
    <rect y="280" x="112" height="14" width="14" fill="#757575"/>
    <rect y="280" x="126" height="14" width="14" fill="#757575"/>
    <rect y="280" x="140" height="14" width="14" fill="#757575"/>
    <rect y="280" x="154" height="14" width="14" fill="#757575"/>
    <rect y="280" x="168" height="14" width="14" fill="#757575"/>
    <rect y="280" x="210" height="14" width="14" fill="#757575"/>
    <rect y="280" x="224" height="14" width="14" fill="#757575"/>
    <rect y="280" x="266" height="14" width="14" fill="#757575"/>
    <rect y="280" x="280" height="14" width="14" fill="#757575"/>
    <rect y="280" x="322" height="14" width="14" fill="#757575"/>
    <rect y="280" x="336" height="14" width="14" fill="#757575"/>
    <rect y="280" x="350" height="14" width="14" fill="#757575"/>
    <rect y="280" x="364" height="14" width="14" fill="#757575"/>
    <rect y="280" x="378" height="14" width="14" fill="#757575"/>
    <rect y="280" x="420" height="14" width="14" fill="#757575"/>
    <rect y="280" x="434" height="14" width="14" fill="#757575"/>
    <rect y="280" x="448" height="14" width="14" fill="#757575"/>
    <rect y="280" x="462" height="14" width="14" fill="#757575"/>
    <rect y="280" x="504" height="14" width="14" fill="#757575"/>
    <rect y="280" x="518" height="14" width="14" fill="#757575"/>
    <rect y="280" x="532" height="14" width="14" fill="#757575"/>
    <rect y="280" x="546" height="14" width="14" fill="#757575"/>
    <rect y="280" x="644" height="14" width="14" fill="#757575"/>
    <rect y="280" x="658" height="14" width="14" fill="#757575"/>
    <rect y="280" x="672" height="14" width="14" fill="#757575"/>
    <rect y="280" x="770" height="14" width="14" fill="#757575"/>
    <rect y="280" x="784" height="14" width="14" fill="#757575"/>
    <rect y="280" x="826" height="14" width="14" fill="#757575"/>
    <rect y="280" x="840" height="14" width="14" fill="#757575"/>
    <rect y="280" x="882" height="14" width="14" fill="#757575"/>
    <rect y="280" x="896" height="14" width="14" fill="#757575"/>
    <rect y="280" x="910" height="14" width="14" fill="#757575"/>
    <rect y="280" x="924" height="14" width="14" fill="#757575"/>
    <rect y="280" x="938" height="14" width="14" fill="#757575"/>
    <rect y="280" x="980" height="14" width="14" fill="#757575"/>
    <rect y="280" x="994" height="14" width="14" fill="#757575"/>
    <rect y="280" x="1036" height="14" width="14" fill="#757575"/>
    <rect y="280" x="1050" height="14" width="14" fill="#757575"/>
    <rect y="280" x="1064" height="14" width="14" fill="#757575"/>
    <rect y="280" x="1078" height="14" width="14" fill="#757575"/>
    <rect y="280" x="1092" height="14" width="14" fill="#757575"/>
    <rect y="280" x="1106" height="14" width="14" fill="#757575"/>
    <rect y="280" x="1148" height="14" width="14" fill="#757575"/>
    <rect y="280" x="1162" height="14" width="14" fill="#757575"/>
    <rect y="280" x="1176" height="14" width="14" fill="#757575"/>
    <rect y="280" x="1190" height="14" width="14" fill="#757575"/>
    <rect y="280" x="1232" height="14" width="14" fill="#757575"/>
    <rect y="280" x="1246" height="14" width="14" fill="#757575"/>
    <rect y="280" x="1288" height="14" width="14" fill="#757575"/>
    <rect y="280" x="1302" height="14" width="14" fill="#757575"/>
    <rect y="280" x="1316" height="14" width="14" fill="#757575"/>
    <rect y="280" x="1330" height="14" width="14" fill="#757575"/>
    <rect y="280" x="1344" height="14" width="14" fill="#757575"/>
    <rect y="280" x="1358" height="14" width="14" fill="#757575"/>
    <rect y="280" x="1372" height="14" width="14" fill="#757575"/>
    <rect y="280" x="1414" height="14" width="14" fill="#757575"/>
    <rect y="280" x="1428" height="14" width="14" fill="#757575"/>
    <rect y="280" x="1442" height="14" width="14" fill="#757575"/>
    <rect y="280" x="1456" height="14" width="14" fill="#757575"/>
    <rect y="280" x="1484" height="14" width="14" fill="#757575"/>
    <rect y="294" x="0" height="14" width="14" fill="#757575"/>
    <rect y="294" x="28" height="14" width="14" fill="#757575"/>
    <rect y="294" x="84" height="14" width="14" fill="#757575"/>
    <rect y="294" x="126" height="14" width="14" fill="#757575"/>
    <rect y="294" x="168" height="14" width="14" fill="#757575"/>
    <rect y="294" x="210" height="14" width="14" fill="#757575"/>
    <rect y="294" x="266" height="14" width="14" fill="#757575"/>
    <rect y="294" x="322" height="14" width="14" fill="#757575"/>
    <rect y="294" x="350" height="14" width="14" fill="#757575"/>
    <rect y="294" x="378" height="14" width="14" fill="#757575"/>
    <rect y="294" x="420" height="14" width="14" fill="#757575"/>
    <rect y="294" x="434" height="14" width="14" fill="#757575"/>
    <rect y="294" x="462" height="14" width="14" fill="#757575"/>
    <rect y="294" x="504" height="14" width="14" fill="#757575"/>
    <rect y="294" x="518" height="14" width="14" fill="#757575"/>
    <rect y="294" x="546" height="14" width="14" fill="#757575"/>
    <rect y="294" x="644" height="14" width="14" fill="#757575"/>
    <rect y="294" x="770" height="14" width="14" fill="#757575"/>
    <rect y="294" x="826" height="14" width="14" fill="#757575"/>
    <rect y="294" x="882" height="14" width="14" fill="#757575"/>
    <rect y="294" x="910" height="14" width="14" fill="#757575"/>
    <rect y="294" x="938" height="14" width="14" fill="#757575"/>
    <rect y="294" x="980" height="14" width="14" fill="#757575"/>
    <rect y="294" x="1036" height="14" width="14" fill="#757575"/>
    <rect y="294" x="1106" height="14" width="14" fill="#757575"/>
    <rect y="294" x="1148" height="14" width="14" fill="#757575"/>
    <rect y="294" x="1162" height="14" width="14" fill="#757575"/>
    <rect y="294" x="1190" height="14" width="14" fill="#757575"/>
    <rect y="294" x="1232" height="14" width="14" fill="#757575"/>
    <rect y="294" x="1288" height="14" width="14" fill="#757575"/>
    <rect y="294" x="1330" height="14" width="14" fill="#757575"/>
    <rect y="294" x="1372" height="14" width="14" fill="#757575"/>
    <rect y="294" x="1414" height="14" width="14" fill="#757575"/>
    <rect y="294" x="1428" height="14" width="14" fill="#757575"/>
    <rect y="294" x="1456" height="14" width="14" fill="#757575"/>
    <rect y="294" x="1484" height="14" width="14" fill="#757575"/>
    <rect y="308" x="0" height="14" width="14" fill="#757575"/>
    <rect y="308" x="84" height="14" width="14" fill="#757575"/>
    <rect y="308" x="126" height="14" width="14" fill="#757575"/>
    <rect y="308" x="168" height="14" width="14" fill="#757575"/>
    <rect y="308" x="322" height="14" width="14" fill="#757575"/>
    <rect y="308" x="350" height="14" width="14" fill="#757575"/>
    <rect y="308" x="378" height="14" width="14" fill="#757575"/>
    <rect y="308" x="420" height="14" width="14" fill="#757575"/>
    <rect y="308" x="448" height="14" width="14" fill="#757575"/>
    <rect y="308" x="462" height="14" width="14" fill="#757575"/>
    <rect y="308" x="504" height="14" width="14" fill="#757575"/>
    <rect y="308" x="546" height="14" width="14" fill="#757575"/>
    <rect y="308" x="644" height="14" width="14" fill="#757575"/>
    <rect y="308" x="658" height="14" width="14" fill="#757575"/>
    <rect y="308" x="672" height="14" width="14" fill="#757575"/>
    <rect y="308" x="882" height="14" width="14" fill="#757575"/>
    <rect y="308" x="910" height="14" width="14" fill="#757575"/>
    <rect y="308" x="938" height="14" width="14" fill="#757575"/>
    <rect y="308" x="1036" height="14" width="14" fill="#757575"/>
    <rect y="308" x="1106" height="14" width="14" fill="#757575"/>
    <rect y="308" x="1148" height="14" width="14" fill="#757575"/>
    <rect y="308" x="1176" height="14" width="14" fill="#757575"/>
    <rect y="308" x="1190" height="14" width="14" fill="#757575"/>
    <rect y="308" x="1288" height="14" width="14" fill="#757575"/>
    <rect y="308" x="1330" height="14" width="14" fill="#757575"/>
    <rect y="308" x="1372" height="14" width="14" fill="#757575"/>
    <rect y="308" x="1414" height="14" width="14" fill="#757575"/>
    <rect y="308" x="1456" height="14" width="14" fill="#757575"/>
    <rect y="308" x="1484" height="14" width="14" fill="#757575"/>
    <rect y="322" x="0" height="14" width="14" fill="#757575"/>
    <rect y="322" x="84" height="14" width="14" fill="#757575"/>
    <rect y="322" x="98" height="14" width="14" fill="#757575"/>
    <rect y="322" x="112" height="14" width="14" fill="#757575"/>
    <rect y="322" x="126" height="14" width="14" fill="#757575"/>
    <rect y="322" x="140" height="14" width="14" fill="#757575"/>
    <rect y="322" x="154" height="14" width="14" fill="#757575"/>
    <rect y="322" x="168" height="14" width="14" fill="#757575"/>
    <rect y="322" x="322" height="14" width="14" fill="#757575"/>
    <rect y="322" x="350" height="14" width="14" fill="#757575"/>
    <rect y="322" x="378" height="14" width="14" fill="#757575"/>
    <rect y="322" x="420" height="14" width="14" fill="#757575"/>
    <rect y="322" x="434" height="14" width="14" fill="#757575"/>
    <rect y="322" x="448" height="14" width="14" fill="#757575"/>
    <rect y="322" x="462" height="14" width="14" fill="#757575"/>
    <rect y="322" x="504" height="14" width="14" fill="#757575"/>
    <rect y="322" x="518" height="14" width="14" fill="#757575"/>
    <rect y="322" x="532" height="14" width="14" fill="#757575"/>
    <rect y="322" x="546" height="14" width="14" fill="#757575"/>
    <rect y="322" x="882" height="14" width="14" fill="#757575"/>
    <rect y="322" x="910" height="14" width="14" fill="#757575"/>
    <rect y="322" x="938" height="14" width="14" fill="#757575"/>
    <rect y="322" x="1036" height="14" width="14" fill="#757575"/>
    <rect y="322" x="1106" height="14" width="14" fill="#757575"/>
    <rect y="322" x="1148" height="14" width="14" fill="#757575"/>
    <rect y="322" x="1162" height="14" width="14" fill="#757575"/>
    <rect y="322" x="1176" height="14" width="14" fill="#757575"/>
    <rect y="322" x="1190" height="14" width="14" fill="#757575"/>
    <rect y="322" x="1288" height="14" width="14" fill="#757575"/>
    <rect y="322" x="1302" height="14" width="14" fill="#757575"/>
    <rect y="322" x="1316" height="14" width="14" fill="#757575"/>
    <rect y="322" x="1330" height="14" width="14" fill="#757575"/>
    <rect y="322" x="1344" height="14" width="14" fill="#757575"/>
    <rect y="322" x="1358" height="14" width="14" fill="#757575"/>
    <rect y="322" x="1372" height="14" width="14" fill="#757575"/>
    <rect y="322" x="1414" height="14" width="14" fill="#757575"/>
    <rect y="322" x="1428" height="14" width="14" fill="#757575"/>
    <rect y="322" x="1442" height="14" width="14" fill="#757575"/>
    <rect y="322" x="1456" height="14" width="14" fill="#757575"/>
    <rect y="322" x="1484" height="14" width="14" fill="#757575"/>
    <rect y="336" x="0" height="14" width="14" fill="#757575"/>
    <rect y="336" x="84" height="14" width="14" fill="#757575"/>
    <rect y="336" x="126" height="14" width="14" fill="#757575"/>
    <rect y="336" x="168" height="14" width="14" fill="#757575"/>
    <rect y="336" x="322" height="14" width="14" fill="#757575"/>
    <rect y="336" x="336" height="14" width="14" fill="#757575"/>
    <rect y="336" x="350" height="14" width="14" fill="#757575"/>
    <rect y="336" x="364" height="14" width="14" fill="#757575"/>
    <rect y="336" x="378" height="14" width="14" fill="#757575"/>
    <rect y="336" x="882" height="14" width="14" fill="#757575"/>
    <rect y="336" x="896" height="14" width="14" fill="#757575"/>
    <rect y="336" x="910" height="14" width="14" fill="#757575"/>
    <rect y="336" x="924" height="14" width="14" fill="#757575"/>
    <rect y="336" x="938" height="14" width="14" fill="#757575"/>
    <rect y="336" x="1036" height="14" width="14" fill="#757575"/>
    <rect y="336" x="1106" height="14" width="14" fill="#757575"/>
    <rect y="336" x="1288" height="14" width="14" fill="#757575"/>
    <rect y="336" x="1330" height="14" width="14" fill="#757575"/>
    <rect y="336" x="1372" height="14" width="14" fill="#757575"/>
    <rect y="336" x="1484" height="14" width="14" fill="#757575"/>
    <rect y="350" x="0" height="14" width="14" fill="#757575"/>
    <rect y="350" x="84" height="14" width="14" fill="#757575"/>
    <rect y="350" x="126" height="14" width="14" fill="#757575"/>
    <rect y="350" x="168" height="14" width="14" fill="#757575"/>
    <rect y="350" x="1036" height="14" width="14" fill="#757575"/>
    <rect y="350" x="1050" height="14" width="14" fill="#757575"/>
    <rect y="350" x="1064" height="14" width="14" fill="#757575"/>
    <rect y="350" x="1078" height="14" width="14" fill="#757575"/>
    <rect y="350" x="1092" height="14" width="14" fill="#757575"/>
    <rect y="350" x="1106" height="14" width="14" fill="#757575"/>
    <rect y="350" x="1288" height="14" width="14" fill="#757575"/>
    <rect y="350" x="1330" height="14" width="14" fill="#757575"/>
    <rect y="350" x="1372" height="14" width="14" fill="#757575"/>
    <rect y="350" x="1484" height="14" width="14" fill="#757575"/>
    <rect y="364" x="0" height="14" width="14" fill="#757575"/>
    <rect y="364" x="84" height="14" width="14" fill="#757575"/>
    <rect y="364" x="98" height="14" width="14" fill="#757575"/>
    <rect y="364" x="112" height="14" width="14" fill="#757575"/>
    <rect y="364" x="126" height="14" width="14" fill="#757575"/>
    <rect y="364" x="140" height="14" width="14" fill="#757575"/>
    <rect y="364" x="154" height="14" width="14" fill="#757575"/>
    <rect y="364" x="168" height="14" width="14" fill="#757575"/>
    <rect y="364" x="1288" height="14" width="14" fill="#757575"/>
    <rect y="364" x="1302" height="14" width="14" fill="#757575"/>
    <rect y="364" x="1316" height="14" width="14" fill="#757575"/>
    <rect y="364" x="1330" height="14" width="14" fill="#757575"/>
    <rect y="364" x="1344" height="14" width="14" fill="#757575"/>
    <rect y="364" x="1358" height="14" width="14" fill="#757575"/>
    <rect y="364" x="1372" height="14" width="14" fill="#757575"/>
    <rect y="364" x="1484" height="14" width="14" fill="#757575"/>
    <rect y="378" x="0" height="14" width="14" fill="#757575"/>
    <rect y="378" x="1484" height="14" width="14" fill="#757575"/>
    <rect y="392" x="0" height="14" width="14" fill="#757575"/>
    <rect y="392" x="14" height="14" width="14" fill="#757575"/>
    <rect y="392" x="28" height="14" width="14" fill="#757575"/>
    <rect y="392" x="42" height="14" width="14" fill="#757575"/>
    <rect y="392" x="56" height="14" width="14" fill="#757575"/>
    <rect y="392" x="70" height="14" width="14" fill="#757575"/>
    <rect y="392" x="84" height="14" width="14" fill="#757575"/>
    <rect y="392" x="98" height="14" width="14" fill="#757575"/>
    <rect y="392" x="112" height="14" width="14" fill="#757575"/>
    <rect y="392" x="126" height="14" width="14" fill="#757575"/>
    <rect y="392" x="140" height="14" width="14" fill="#757575"/>
    <rect y="392" x="154" height="14" width="14" fill="#757575"/>
    <rect y="392" x="168" height="14" width="14" fill="#757575"/>
    <rect y="392" x="182" height="14" width="14" fill="#757575"/>
    <rect y="392" x="196" height="14" width="14" fill="#757575"/>
    <rect y="392" x="210" height="14" width="14" fill="#757575"/>
    <rect y="392" x="224" height="14" width="14" fill="#757575"/>
    <rect y="392" x="238" height="14" width="14" fill="#757575"/>
    <rect y="392" x="252" height="14" width="14" fill="#757575"/>
    <rect y="392" x="266" height="14" width="14" fill="#757575"/>
    <rect y="392" x="280" height="14" width="14" fill="#757575"/>
    <rect y="392" x="294" height="14" width="14" fill="#757575"/>
    <rect y="392" x="308" height="14" width="14" fill="#757575"/>
    <rect y="392" x="322" height="14" width="14" fill="#757575"/>
    <rect y="392" x="336" height="14" width="14" fill="#757575"/>
    <rect y="392" x="350" height="14" width="14" fill="#757575"/>
    <rect y="392" x="364" height="14" width="14" fill="#757575"/>
    <rect y="392" x="378" height="14" width="14" fill="#757575"/>
    <rect y="392" x="392" height="14" width="14" fill="#757575"/>
    <rect y="392" x="406" height="14" width="14" fill="#757575"/>
    <rect y="392" x="420" height="14" width="14" fill="#757575"/>
    <rect y="392" x="434" height="14" width="14" fill="#757575"/>
    <rect y="392" x="448" height="14" width="14" fill="#757575"/>
    <rect y="392" x="462" height="14" width="14" fill="#757575"/>
    <rect y="392" x="476" height="14" width="14" fill="#757575"/>
    <rect y="392" x="490" height="14" width="14" fill="#757575"/>
    <rect y="392" x="504" height="14" width="14" fill="#757575"/>
    <rect y="392" x="518" height="14" width="14" fill="#757575"/>
    <rect y="392" x="532" height="14" width="14" fill="#757575"/>
    <rect y="392" x="546" height="14" width="14" fill="#757575"/>
    <rect y="392" x="560" height="14" width="14" fill="#757575"/>
    <rect y="392" x="574" height="14" width="14" fill="#757575"/>
    <rect y="392" x="588" height="14" width="14" fill="#757575"/>
    <rect y="392" x="602" height="14" width="14" fill="#757575"/>
    <rect y="392" x="616" height="14" width="14" fill="#757575"/>
    <rect y="392" x="630" height="14" width="14" fill="#757575"/>
    <rect y="392" x="644" height="14" width="14" fill="#757575"/>
    <rect y="392" x="658" height="14" width="14" fill="#757575"/>
    <rect y="392" x="672" height="14" width="14" fill="#757575"/>
    <rect y="392" x="686" height="14" width="14" fill="#757575"/>
    <rect y="392" x="700" height="14" width="14" fill="#757575"/>
    <rect y="392" x="714" height="14" width="14" fill="#757575"/>
    <rect y="392" x="728" height="14" width="14" fill="#757575"/>
    <rect y="392" x="742" height="14" width="14" fill="#757575"/>
    <rect y="392" x="756" height="14" width="14" fill="#757575"/>
    <rect y="392" x="770" height="14" width="14" fill="#757575"/>
    <rect y="392" x="784" height="14" width="14" fill="#757575"/>
    <rect y="392" x="798" height="14" width="14" fill="#757575"/>
    <rect y="392" x="812" height="14" width="14" fill="#757575"/>
    <rect y="392" x="826" height="14" width="14" fill="#757575"/>
    <rect y="392" x="840" height="14" width="14" fill="#757575"/>
    <rect y="392" x="854" height="14" width="14" fill="#757575"/>
    <rect y="392" x="868" height="14" width="14" fill="#757575"/>
    <rect y="392" x="882" height="14" width="14" fill="#757575"/>
    <rect y="392" x="896" height="14" width="14" fill="#757575"/>
    <rect y="392" x="910" height="14" width="14" fill="#757575"/>
    <rect y="392" x="924" height="14" width="14" fill="#757575"/>
    <rect y="392" x="938" height="14" width="14" fill="#757575"/>
    <rect y="392" x="952" height="14" width="14" fill="#757575"/>
    <rect y="392" x="966" height="14" width="14" fill="#757575"/>
    <rect y="392" x="980" height="14" width="14" fill="#757575"/>
    <rect y="392" x="994" height="14" width="14" fill="#757575"/>
    <rect y="392" x="1008" height="14" width="14" fill="#757575"/>
    <rect y="392" x="1022" height="14" width="14" fill="#757575"/>
    <rect y="392" x="1036" height="14" width="14" fill="#757575"/>
    <rect y="392" x="1050" height="14" width="14" fill="#757575"/>
    <rect y="392" x="1064" height="14" width="14" fill="#757575"/>
    <rect y="392" x="1078" height="14" width="14" fill="#757575"/>
    <rect y="392" x="1092" height="14" width="14" fill="#757575"/>
    <rect y="392" x="1106" height="14" width="14" fill="#757575"/>
    <rect y="392" x="1120" height="14" width="14" fill="#757575"/>
    <rect y="392" x="1134" height="14" width="14" fill="#757575"/>
    <rect y="392" x="1148" height="14" width="14" fill="#757575"/>
    <rect y="392" x="1162" height="14" width="14" fill="#757575"/>
    <rect y="392" x="1176" height="14" width="14" fill="#757575"/>
    <rect y="392" x="1190" height="14" width="14" fill="#757575"/>
    <rect y="392" x="1204" height="14" width="14" fill="#757575"/>
    <rect y="392" x="1218" height="14" width="14" fill="#757575"/>
    <rect y="392" x="1232" height="14" width="14" fill="#757575"/>
    <rect y="392" x="1246" height="14" width="14" fill="#757575"/>
    <rect y="392" x="1260" height="14" width="14" fill="#757575"/>
    <rect y="392" x="1274" height="14" width="14" fill="#757575"/>
    <rect y="392" x="1288" height="14" width="14" fill="#757575"/>
    <rect y="392" x="1302" height="14" width="14" fill="#757575"/>
    <rect y="392" x="1316" height="14" width="14" fill="#757575"/>
    <rect y="392" x="1330" height="14" width="14" fill="#757575"/>
    <rect y="392" x="1344" height="14" width="14" fill="#757575"/>
    <rect y="392" x="1358" height="14" width="14" fill="#757575"/>
    <rect y="392" x="1372" height="14" width="14" fill="#757575"/>
    <rect y="392" x="1386" height="14" width="14" fill="#757575"/>
    <rect y="392" x="1400" height="14" width="14" fill="#757575"/>
    <rect y="392" x="1414" height="14" width="14" fill="#757575"/>
    <rect y="392" x="1428" height="14" width="14" fill="#757575"/>
    <rect y="392" x="1442" height="14" width="14" fill="#757575"/>
    <rect y="392" x="1456" height="14" width="14" fill="#757575"/>
    <rect y="392" x="1470" height="14" width="14" fill="#757575"/>
    <rect y="392" x="1484" height="14" width="14" fill="#757575"/>
    
  <rect y="28" x="28" height="98" width="98" fill="#BF360C" fill-opacity="0.5"/>
<text y="77" x="77" dominant-baseline='middle' text-anchor='middle' fill='white' style='paint-order: stroke; fill: white; stroke: black; stroke-width: 1px; font-family="monospace"; font-size: 18px'><tspan x="77" dy="0em">68259412260?</tspan></text>
<rect y="154" x="28" height="28" width="28" fill="#827717" fill-opacity="0.5"/>
<text y="168" x="42" dominant-baseline='middle' text-anchor='middle' fill='white' style='paint-order: stroke; fill: white; stroke: black; stroke-width: 1px; font-family="monospace"; font-size: 18px'><tspan x="42" dy="0em">ap</tspan></text>
<rect y="154" x="84" height="98" width="98" fill="#BF360C" fill-opacity="0.5"/>
<text y="203" x="133" dominant-baseline='middle' text-anchor='middle' fill='white' style='paint-order: stroke; fill: white; stroke: black; stroke-width: 1px; font-family="monospace"; font-size: 18px'><tspan x="133" dy="0em">68259412260?</tspan></text>
<rect y="154" x="210" height="42" width="42" fill="#827717" fill-opacity="0.5"/>
<text y="175" x="231" dominant-baseline='middle' text-anchor='middle' fill='white' style='paint-order: stroke; fill: white; stroke: black; stroke-width: 1px; font-family="monospace"; font-size: 18px'><tspan x="231" dy="0em">nil</tspan></text>
<rect y="154" x="336" height="42" width="42" fill="#827717" fill-opacity="0.5"/>
<text y="175" x="357" dominant-baseline='middle' text-anchor='middle' fill='white' style='paint-order: stroke; fill: white; stroke: black; stroke-width: 1px; font-family="monospace"; font-size: 18px'><tspan x="357" dy="0em">is</tspan></text>
<rect y="154" x="462" height="42" width="42" fill="#827717" fill-opacity="0.5"/>
<text y="175" x="483" dominant-baseline='middle' text-anchor='middle' fill='white' style='paint-order: stroke; fill: white; stroke: black; stroke-width: 1px; font-family="monospace"; font-size: 18px'><tspan x="483" dy="0em">nil</tspan></text>
<rect y="280" x="28" height="28" width="28" fill="#827717" fill-opacity="0.5"/>
<text y="294" x="42" dominant-baseline='middle' text-anchor='middle' fill='white' style='paint-order: stroke; fill: white; stroke: black; stroke-width: 1px; font-family="monospace"; font-size: 18px'><tspan x="42" dy="0em">ap</tspan></text>
<rect y="280" x="84" height="98" width="98" fill="#BF360C" fill-opacity="0.5"/>
<text y="329" x="133" dominant-baseline='middle' text-anchor='middle' fill='white' style='paint-order: stroke; fill: white; stroke: black; stroke-width: 1px; font-family="monospace"; font-size: 18px'><tspan x="133" dy="0em">68259412260?</tspan></text>
<rect y="280" x="210" height="28" width="28" fill="#827717" fill-opacity="0.5"/>
<text y="294" x="224" dominant-baseline='middle' text-anchor='middle' fill='white' style='paint-order: stroke; fill: white; stroke: black; stroke-width: 1px; font-family="monospace"; font-size: 18px'><tspan x="224" dy="0em">ap</tspan></text>
<rect y="280" x="266" height="28" width="28" fill="#827717" fill-opacity="0.5"/>
<text y="294" x="280" dominant-baseline='middle' text-anchor='middle' fill='white' style='paint-order: stroke; fill: white; stroke: black; stroke-width: 1px; font-family="monospace"; font-size: 18px'><tspan x="280" dy="0em">ap</tspan></text>
<rect y="280" x="322" height="70" width="70" fill="#827717" fill-opacity="0.5"/>
<text y="315" x="357" dominant-baseline='middle' text-anchor='middle' fill='white' style='paint-order: stroke; fill: white; stroke: black; stroke-width: 1px; font-family="monospace"; font-size: 18px'><tspan x="357" dy="0em">cos</tspan></text>
<rect y="280" x="420" height="56" width="56" fill="#004D40" fill-opacity="0.5"/>
<text y="308" x="448" dominant-baseline='middle' text-anchor='middle' fill='white' style='paint-order: stroke; fill: white; stroke: black; stroke-width: 1px; font-family="monospace"; font-size: 18px'><tspan x="448" dy="0em">x0</tspan></text>
<rect y="280" x="504" height="56" width="56" fill="#004D40" fill-opacity="0.5"/>
<text y="308" x="532" dominant-baseline='middle' text-anchor='middle' fill='white' style='paint-order: stroke; fill: white; stroke: black; stroke-width: 1px; font-family="monospace"; font-size: 18px'><tspan x="532" dy="0em">x1</tspan></text>
<rect y="280" x="644" height="42" width="42" fill="#827717" fill-opacity="0.5"/>
<text y="301" x="665" dominant-baseline='middle' text-anchor='middle' fill='white' style='paint-order: stroke; fill: white; stroke: black; stroke-width: 1px; font-family="monospace"; font-size: 18px'><tspan x="665" dy="0em">is</tspan></text>
<rect y="280" x="770" height="28" width="28" fill="#827717" fill-opacity="0.5"/>
<text y="294" x="784" dominant-baseline='middle' text-anchor='middle' fill='white' style='paint-order: stroke; fill: white; stroke: black; stroke-width: 1px; font-family="monospace"; font-size: 18px'><tspan x="784" dy="0em">ap</tspan></text>
<rect y="280" x="826" height="28" width="28" fill="#827717" fill-opacity="0.5"/>
<text y="294" x="840" dominant-baseline='middle' text-anchor='middle' fill='white' style='paint-order: stroke; fill: white; stroke: black; stroke-width: 1px; font-family="monospace"; font-size: 18px'><tspan x="840" dy="0em">ap</tspan></text>
<rect y="280" x="882" height="70" width="70" fill="#827717" fill-opacity="0.5"/>
<text y="315" x="917" dominant-baseline='middle' text-anchor='middle' fill='white' style='paint-order: stroke; fill: white; stroke: black; stroke-width: 1px; font-family="monospace"; font-size: 18px'><tspan x="917" dy="0em">cos</tspan></text>
<rect y="280" x="980" height="28" width="28" fill="#827717" fill-opacity="0.5"/>
<text y="294" x="994" dominant-baseline='middle' text-anchor='middle' fill='white' style='paint-order: stroke; fill: white; stroke: black; stroke-width: 1px; font-family="monospace"; font-size: 18px'><tspan x="994" dy="0em">ap</tspan></text>
<rect y="280" x="1036" height="84" width="84" fill="#827717" fill-opacity="0.5"/>
<text y="322" x="1078" dominant-baseline='middle' text-anchor='middle' fill='white' style='paint-order: stroke; fill: white; stroke: black; stroke-width: 1px; font-family="monospace"; font-size: 18px'><tspan x="1078" dy="0em">set_pixel</tspan></text>
<rect y="280" x="1148" height="56" width="56" fill="#004D40" fill-opacity="0.5"/>
<text y="308" x="1176" dominant-baseline='middle' text-anchor='middle' fill='white' style='paint-order: stroke; fill: white; stroke: black; stroke-width: 1px; font-family="monospace"; font-size: 18px'><tspan x="1176" dy="0em">x0</tspan></text>
<rect y="280" x="1232" height="28" width="28" fill="#827717" fill-opacity="0.5"/>
<text y="294" x="1246" dominant-baseline='middle' text-anchor='middle' fill='white' style='paint-order: stroke; fill: white; stroke: black; stroke-width: 1px; font-family="monospace"; font-size: 18px'><tspan x="1246" dy="0em">ap</tspan></text>
<rect y="280" x="1288" height="98" width="98" fill="#BF360C" fill-opacity="0.5"/>
<text y="329" x="1337" dominant-baseline='middle' text-anchor='middle' fill='white' style='paint-order: stroke; fill: white; stroke: black; stroke-width: 1px; font-family="monospace"; font-size: 18px'><tspan x="1337" dy="0em">68259412260?</tspan></text>
<rect y="280" x="1414" height="56" width="56" fill="#004D40" fill-opacity="0.5"/>
<text y="308" x="1442" dominant-baseline='middle' text-anchor='middle' fill='white' style='paint-order: stroke; fill: white; stroke: black; stroke-width: 1px; font-family="monospace"; font-size: 18px'><tspan x="1442" dy="0em">x1</tspan></text>

</svg>
