<?xml version="1.0"?>
<svg xmlns="http://www.w3.org/2000/svg" height="154" width="686">
  <rect y="0" x="0" height="154" width="686" fill="black" />
  <rect y="0" x="0" height="14" width="14" fill="#757575"/>
    <rect y="0" x="14" height="14" width="14" fill="#757575"/>
    <rect y="0" x="28" height="14" width="14" fill="#757575"/>
    <rect y="0" x="42" height="14" width="14" fill="#757575"/>
    <rect y="0" x="56" height="14" width="14" fill="#757575"/>
    <rect y="0" x="70" height="14" width="14" fill="#757575"/>
    <rect y="0" x="84" height="14" width="14" fill="#757575"/>
    <rect y="0" x="98" height="14" width="14" fill="#757575"/>
    <rect y="0" x="112" height="14" width="14" fill="#757575"/>
    <rect y="0" x="126" height="14" width="14" fill="#757575"/>
    <rect y="0" x="140" height="14" width="14" fill="#757575"/>
    <rect y="0" x="154" height="14" width="14" fill="#757575"/>
    <rect y="0" x="168" height="14" width="14" fill="#757575"/>
    <rect y="0" x="182" height="14" width="14" fill="#757575"/>
    <rect y="0" x="196" height="14" width="14" fill="#757575"/>
    <rect y="0" x="210" height="14" width="14" fill="#757575"/>
    <rect y="0" x="224" height="14" width="14" fill="#757575"/>
    <rect y="0" x="238" height="14" width="14" fill="#757575"/>
    <rect y="0" x="252" height="14" width="14" fill="#757575"/>
    <rect y="0" x="266" height="14" width="14" fill="#757575"/>
    <rect y="0" x="280" height="14" width="14" fill="#757575"/>
    <rect y="0" x="294" height="14" width="14" fill="#757575"/>
    <rect y="0" x="308" height="14" width="14" fill="#757575"/>
    <rect y="0" x="322" height="14" width="14" fill="#757575"/>
    <rect y="0" x="336" height="14" width="14" fill="#757575"/>
    <rect y="0" x="350" height="14" width="14" fill="#757575"/>
    <rect y="0" x="364" height="14" width="14" fill="#757575"/>
    <rect y="0" x="378" height="14" width="14" fill="#757575"/>
    <rect y="0" x="392" height="14" width="14" fill="#757575"/>
    <rect y="0" x="406" height="14" width="14" fill="#757575"/>
    <rect y="0" x="420" height="14" width="14" fill="#757575"/>
    <rect y="0" x="434" height="14" width="14" fill="#757575"/>
    <rect y="0" x="448" height="14" width="14" fill="#757575"/>
    <rect y="0" x="462" height="14" width="14" fill="#757575"/>
    <rect y="0" x="476" height="14" width="14" fill="#757575"/>
    <rect y="0" x="490" height="14" width="14" fill="#757575"/>
    <rect y="0" x="504" height="14" width="14" fill="#757575"/>
    <rect y="0" x="518" height="14" width="14" fill="#757575"/>
    <rect y="0" x="532" height="14" width="14" fill="#757575"/>
    <rect y="0" x="546" height="14" width="14" fill="#757575"/>
    <rect y="0" x="560" height="14" width="14" fill="#757575"/>
    <rect y="0" x="574" height="14" width="14" fill="#757575"/>
    <rect y="0" x="588" height="14" width="14" fill="#757575"/>
    <rect y="0" x="602" height="14" width="14" fill="#757575"/>
    <rect y="0" x="616" height="14" width="14" fill="#757575"/>
    <rect y="0" x="630" height="14" width="14" fill="#757575"/>
    <rect y="0" x="644" height="14" width="14" fill="#757575"/>
    <rect y="0" x="658" height="14" width="14" fill="#757575"/>
    <rect y="0" x="672" height="14" width="14" fill="#757575"/>
    <rect y="14" x="0" height="14" width="14" fill="#757575"/>
    <rect y="14" x="672" height="14" width="14" fill="#757575"/>
    <rect y="28" x="0" height="14" width="14" fill="#757575"/>
    <rect y="28" x="28" height="14" width="14" fill="#757575"/>
    <rect y="28" x="42" height="14" width="14" fill="#757575"/>
    <rect y="28" x="84" height="14" width="14" fill="#757575"/>
    <rect y="28" x="98" height="14" width="14" fill="#757575"/>
    <rect y="28" x="112" height="14" width="14" fill="#757575"/>
    <rect y="28" x="126" height="14" width="14" fill="#757575"/>
    <rect y="28" x="140" height="14" width="14" fill="#757575"/>
    <rect y="28" x="154" height="14" width="14" fill="#757575"/>
    <rect y="28" x="224" height="14" width="14" fill="#757575"/>
    <rect y="28" x="238" height="14" width="14" fill="#757575"/>
    <rect y="28" x="252" height="14" width="14" fill="#757575"/>
    <rect y="28" x="378" height="14" width="14" fill="#757575"/>
    <rect y="28" x="392" height="14" width="14" fill="#757575"/>
    <rect y="28" x="406" height="14" width="14" fill="#757575"/>
    <rect y="28" x="672" height="14" width="14" fill="#757575"/>
    <rect y="42" x="0" height="14" width="14" fill="#757575"/>
    <rect y="42" x="28" height="14" width="14" fill="#757575"/>
    <rect y="42" x="84" height="14" width="14" fill="#757575"/>
    <rect y="42" x="154" height="14" width="14" fill="#757575"/>
    <rect y="42" x="266" height="14" width="14" fill="#757575"/>
    <rect y="42" x="378" height="14" width="14" fill="#757575"/>
    <rect y="42" x="560" height="14" width="14" fill="#757575"/>
    <rect y="42" x="588" height="14" width="14" fill="#757575"/>
    <rect y="42" x="616" height="14" width="14" fill="#757575"/>
    <rect y="42" x="644" height="14" width="14" fill="#757575"/>
    <rect y="42" x="672" height="14" width="14" fill="#757575"/>
    <rect y="56" x="0" height="14" width="14" fill="#757575"/>
    <rect y="56" x="84" height="14" width="14" fill="#757575"/>
    <rect y="56" x="112" height="14" width="14" fill="#757575"/>
    <rect y="56" x="126" height="14" width="14" fill="#757575"/>
    <rect y="56" x="154" height="14" width="14" fill="#757575"/>
    <rect y="56" x="210" height="14" width="14" fill="#757575"/>
    <rect y="56" x="224" height="14" width="14" fill="#757575"/>
    <rect y="56" x="238" height="14" width="14" fill="#757575"/>
    <rect y="56" x="280" height="14" width="14" fill="#757575"/>
    <rect y="56" x="378" height="14" width="14" fill="#757575"/>
    <rect y="56" x="392" height="14" width="14" fill="#757575"/>
    <rect y="56" x="406" height="14" width="14" fill="#757575"/>
    <rect y="56" x="672" height="14" width="14" fill="#757575"/>
    <rect y="70" x="0" height="14" width="14" fill="#757575"/>
    <rect y="70" x="84" height="14" width="14" fill="#757575"/>
    <rect y="70" x="112" height="14" width="14" fill="#757575"/>
    <rect y="70" x="126" height="14" width="14" fill="#757575"/>
    <rect y="70" x="154" height="14" width="14" fill="#757575"/>
    <rect y="70" x="196" height="14" width="14" fill="#757575"/>
    <rect y="70" x="224" height="14" width="14" fill="#757575"/>
    <rect y="70" x="252" height="14" width="14" fill="#757575"/>
    <rect y="70" x="280" height="14" width="14" fill="#757575"/>
    <rect y="70" x="672" height="14" width="14" fill="#757575"/>
    <rect y="84" x="0" height="14" width="14" fill="#757575"/>
    <rect y="84" x="84" height="14" width="14" fill="#757575"/>
    <rect y="84" x="154" height="14" width="14" fill="#757575"/>
    <rect y="84" x="196" height="14" width="14" fill="#757575"/>
    <rect y="84" x="238" height="14" width="14" fill="#757575"/>
    <rect y="84" x="252" height="14" width="14" fill="#757575"/>
    <rect y="84" x="266" height="14" width="14" fill="#757575"/>
    <rect y="84" x="672" height="14" width="14" fill="#757575"/>
    <rect y="98" x="0" height="14" width="14" fill="#757575"/>
    <rect y="98" x="84" height="14" width="14" fill="#757575"/>
    <rect y="98" x="98" height="14" width="14" fill="#757575"/>
    <rect y="98" x="112" height="14" width="14" fill="#757575"/>
    <rect y="98" x="126" height="14" width="14" fill="#757575"/>
    <rect y="98" x="140" height="14" width="14" fill="#757575"/>
    <rect y="98" x="154" height="14" width="14" fill="#757575"/>
    <rect y="98" x="210" height="14" width="14" fill="#757575"/>
    <rect y="98" x="672" height="14" width="14" fill="#757575"/>
    <rect y="112" x="0" height="14" width="14" fill="#757575"/>
    <rect y="112" x="224" height="14" width="14" fill="#757575"/>
    <rect y="112" x="238" height="14" width="14" fill="#757575"/>
    <rect y="112" x="252" height="14" width="14" fill="#757575"/>
    <rect y="112" x="672" height="14" width="14" fill="#757575"/>
    <rect y="126" x="0" height="14" width="14" fill="#757575"/>
    <rect y="126" x="672" height="14" width="14" fill="#757575"/>
    <rect y="140" x="0" height="14" width="14" fill="#757575"/>
    <rect y="140" x="14" height="14" width="14" fill="#757575"/>
    <rect y="140" x="28" height="14" width="14" fill="#757575"/>
    <rect y="140" x="42" height="14" width="14" fill="#757575"/>
    <rect y="140" x="56" height="14" width="14" fill="#757575"/>
    <rect y="140" x="70" height="14" width="14" fill="#757575"/>
    <rect y="140" x="84" height="14" width="14" fill="#757575"/>
    <rect y="140" x="98" height="14" width="14" fill="#757575"/>
    <rect y="140" x="112" height="14" width="14" fill="#757575"/>
    <rect y="140" x="126" height="14" width="14" fill="#757575"/>
    <rect y="140" x="140" height="14" width="14" fill="#757575"/>
    <rect y="140" x="154" height="14" width="14" fill="#757575"/>
    <rect y="140" x="168" height="14" width="14" fill="#757575"/>
    <rect y="140" x="182" height="14" width="14" fill="#757575"/>
    <rect y="140" x="196" height="14" width="14" fill="#757575"/>
    <rect y="140" x="210" height="14" width="14" fill="#757575"/>
    <rect y="140" x="224" height="14" width="14" fill="#757575"/>
    <rect y="140" x="238" height="14" width="14" fill="#757575"/>
    <rect y="140" x="252" height="14" width="14" fill="#757575"/>
    <rect y="140" x="266" height="14" width="14" fill="#757575"/>
    <rect y="140" x="280" height="14" width="14" fill="#757575"/>
    <rect y="140" x="294" height="14" width="14" fill="#757575"/>
    <rect y="140" x="308" height="14" width="14" fill="#757575"/>
    <rect y="140" x="322" height="14" width="14" fill="#757575"/>
    <rect y="140" x="336" height="14" width="14" fill="#757575"/>
    <rect y="140" x="350" height="14" width="14" fill="#757575"/>
    <rect y="140" x="364" height="14" width="14" fill="#757575"/>
    <rect y="140" x="378" height="14" width="14" fill="#757575"/>
    <rect y="140" x="392" height="14" width="14" fill="#757575"/>
    <rect y="140" x="406" height="14" width="14" fill="#757575"/>
    <rect y="140" x="420" height="14" width="14" fill="#757575"/>
    <rect y="140" x="434" height="14" width="14" fill="#757575"/>
    <rect y="140" x="448" height="14" width="14" fill="#757575"/>
    <rect y="140" x="462" height="14" width="14" fill="#757575"/>
    <rect y="140" x="476" height="14" width="14" fill="#757575"/>
    <rect y="140" x="490" height="14" width="14" fill="#757575"/>
    <rect y="140" x="504" height="14" width="14" fill="#757575"/>
    <rect y="140" x="518" height="14" width="14" fill="#757575"/>
    <rect y="140" x="532" height="14" width="14" fill="#757575"/>
    <rect y="140" x="546" height="14" width="14" fill="#757575"/>
    <rect y="140" x="560" height="14" width="14" fill="#757575"/>
    <rect y="140" x="574" height="14" width="14" fill="#757575"/>
    <rect y="140" x="588" height="14" width="14" fill="#757575"/>
    <rect y="140" x="602" height="14" width="14" fill="#757575"/>
    <rect y="140" x="616" height="14" width="14" fill="#757575"/>
    <rect y="140" x="630" height="14" width="14" fill="#757575"/>
    <rect y="140" x="644" height="14" width="14" fill="#757575"/>
    <rect y="140" x="658" height="14" width="14" fill="#757575"/>
    <rect y="140" x="672" height="14" width="14" fill="#757575"/>
    
  <rect y="28" x="28" height="28" width="28" fill="#827717" fill-opacity="0.5"/>
<text y="42" x="42" dominant-baseline='middle' text-anchor='middle' fill='white' style='paint-order: stroke; fill: white; stroke: black; stroke-width: 1px; font-family="monospace"; font-size: 18px'><tspan x="42" dy="0em">ap</tspan></text>
<rect y="28" x="378" height="42" width="42" fill="#827717" fill-opacity="0.5"/>
<text y="49" x="399" dominant-baseline='middle' text-anchor='middle' fill='white' style='paint-order: stroke; fill: white; stroke: black; stroke-width: 1px; font-family="monospace"; font-size: 18px'><tspan x="399" dy="0em">is</tspan></text>
<rect y="56" x="112" height="28" width="28" fill="#BF360C" fill-opacity="0.5"/>
<text y="70" x="126" dominant-baseline='middle' text-anchor='middle' fill='white' style='paint-order: stroke; fill: white; stroke: black; stroke-width: 1px; font-family="monospace"; font-size: 18px'><tspan x="126" dy="0em">1?</tspan></text>

</svg>
