<?xml version="1.0"?>
<svg xmlns="http://www.w3.org/2000/svg" height="252" width="910">
  <rect y="0" x="0" height="252" width="910" fill="black" />
  <rect y="0" x="0" height="14" width="14" fill="#757575"/>
    <rect y="0" x="14" height="14" width="14" fill="#757575"/>
    <rect y="0" x="28" height="14" width="14" fill="#757575"/>
    <rect y="0" x="42" height="14" width="14" fill="#757575"/>
    <rect y="0" x="56" height="14" width="14" fill="#757575"/>
    <rect y="0" x="70" height="14" width="14" fill="#757575"/>
    <rect y="0" x="84" height="14" width="14" fill="#757575"/>
    <rect y="0" x="98" height="14" width="14" fill="#757575"/>
    <rect y="0" x="112" height="14" width="14" fill="#757575"/>
    <rect y="0" x="126" height="14" width="14" fill="#757575"/>
    <rect y="0" x="140" height="14" width="14" fill="#757575"/>
    <rect y="0" x="154" height="14" width="14" fill="#757575"/>
    <rect y="0" x="168" height="14" width="14" fill="#757575"/>
    <rect y="0" x="182" height="14" width="14" fill="#757575"/>
    <rect y="0" x="196" height="14" width="14" fill="#757575"/>
    <rect y="0" x="210" height="14" width="14" fill="#757575"/>
    <rect y="0" x="224" height="14" width="14" fill="#757575"/>
    <rect y="0" x="238" height="14" width="14" fill="#757575"/>
    <rect y="0" x="252" height="14" width="14" fill="#757575"/>
    <rect y="0" x="266" height="14" width="14" fill="#757575"/>
    <rect y="0" x="280" height="14" width="14" fill="#757575"/>
    <rect y="0" x="294" height="14" width="14" fill="#757575"/>
    <rect y="0" x="308" height="14" width="14" fill="#757575"/>
    <rect y="0" x="322" height="14" width="14" fill="#757575"/>
    <rect y="0" x="336" height="14" width="14" fill="#757575"/>
    <rect y="0" x="350" height="14" width="14" fill="#757575"/>
    <rect y="0" x="364" height="14" width="14" fill="#757575"/>
    <rect y="0" x="378" height="14" width="14" fill="#757575"/>
    <rect y="0" x="392" height="14" width="14" fill="#757575"/>
    <rect y="0" x="406" height="14" width="14" fill="#757575"/>
    <rect y="0" x="420" height="14" width="14" fill="#757575"/>
    <rect y="0" x="434" height="14" width="14" fill="#757575"/>
    <rect y="0" x="448" height="14" width="14" fill="#757575"/>
    <rect y="0" x="462" height="14" width="14" fill="#757575"/>
    <rect y="0" x="476" height="14" width="14" fill="#757575"/>
    <rect y="0" x="490" height="14" width="14" fill="#757575"/>
    <rect y="0" x="504" height="14" width="14" fill="#757575"/>
    <rect y="0" x="518" height="14" width="14" fill="#757575"/>
    <rect y="0" x="532" height="14" width="14" fill="#757575"/>
    <rect y="0" x="546" height="14" width="14" fill="#757575"/>
    <rect y="0" x="560" height="14" width="14" fill="#757575"/>
    <rect y="0" x="574" height="14" width="14" fill="#757575"/>
    <rect y="0" x="588" height="14" width="14" fill="#757575"/>
    <rect y="0" x="602" height="14" width="14" fill="#757575"/>
    <rect y="0" x="616" height="14" width="14" fill="#757575"/>
    <rect y="0" x="630" height="14" width="14" fill="#757575"/>
    <rect y="0" x="644" height="14" width="14" fill="#757575"/>
    <rect y="0" x="658" height="14" width="14" fill="#757575"/>
    <rect y="0" x="672" height="14" width="14" fill="#757575"/>
    <rect y="0" x="686" height="14" width="14" fill="#757575"/>
    <rect y="0" x="700" height="14" width="14" fill="#757575"/>
    <rect y="0" x="714" height="14" width="14" fill="#757575"/>
    <rect y="0" x="728" height="14" width="14" fill="#757575"/>
    <rect y="0" x="742" height="14" width="14" fill="#757575"/>
    <rect y="0" x="756" height="14" width="14" fill="#757575"/>
    <rect y="0" x="770" height="14" width="14" fill="#757575"/>
    <rect y="0" x="784" height="14" width="14" fill="#757575"/>
    <rect y="0" x="798" height="14" width="14" fill="#757575"/>
    <rect y="0" x="812" height="14" width="14" fill="#757575"/>
    <rect y="0" x="826" height="14" width="14" fill="#757575"/>
    <rect y="0" x="840" height="14" width="14" fill="#757575"/>
    <rect y="0" x="854" height="14" width="14" fill="#757575"/>
    <rect y="0" x="868" height="14" width="14" fill="#757575"/>
    <rect y="0" x="882" height="14" width="14" fill="#757575"/>
    <rect y="0" x="896" height="14" width="14" fill="#757575"/>
    <rect y="14" x="0" height="14" width="14" fill="#757575"/>
    <rect y="14" x="896" height="14" width="14" fill="#757575"/>
    <rect y="28" x="0" height="14" width="14" fill="#757575"/>
    <rect y="28" x="28" height="14" width="14" fill="#757575"/>
    <rect y="28" x="42" height="14" width="14" fill="#757575"/>
    <rect y="28" x="56" height="14" width="14" fill="#757575"/>
    <rect y="28" x="70" height="14" width="14" fill="#757575"/>
    <rect y="28" x="84" height="14" width="14" fill="#757575"/>
    <rect y="28" x="98" height="14" width="14" fill="#757575"/>
    <rect y="28" x="896" height="14" width="14" fill="#757575"/>
    <rect y="42" x="0" height="14" width="14" fill="#757575"/>
    <rect y="42" x="28" height="14" width="14" fill="#757575"/>
    <rect y="42" x="42" height="14" width="14" fill="#757575"/>
    <rect y="42" x="56" height="14" width="14" fill="#757575"/>
    <rect y="42" x="70" height="14" width="14" fill="#757575"/>
    <rect y="42" x="84" height="14" width="14" fill="#757575"/>
    <rect y="42" x="98" height="14" width="14" fill="#757575"/>
    <rect y="42" x="896" height="14" width="14" fill="#757575"/>
    <rect y="56" x="0" height="14" width="14" fill="#757575"/>
    <rect y="56" x="28" height="14" width="14" fill="#757575"/>
    <rect y="56" x="42" height="14" width="14" fill="#757575"/>
    <rect y="56" x="56" height="14" width="14" fill="#757575"/>
    <rect y="56" x="70" height="14" width="14" fill="#757575"/>
    <rect y="56" x="84" height="14" width="14" fill="#757575"/>
    <rect y="56" x="896" height="14" width="14" fill="#757575"/>
    <rect y="70" x="0" height="14" width="14" fill="#757575"/>
    <rect y="70" x="28" height="14" width="14" fill="#757575"/>
    <rect y="70" x="42" height="14" width="14" fill="#757575"/>
    <rect y="70" x="56" height="14" width="14" fill="#757575"/>
    <rect y="70" x="70" height="14" width="14" fill="#757575"/>
    <rect y="70" x="896" height="14" width="14" fill="#757575"/>
    <rect y="84" x="0" height="14" width="14" fill="#757575"/>
    <rect y="84" x="28" height="14" width="14" fill="#757575"/>
    <rect y="84" x="42" height="14" width="14" fill="#757575"/>
    <rect y="84" x="56" height="14" width="14" fill="#757575"/>
    <rect y="84" x="98" height="14" width="14" fill="#757575"/>
    <rect y="84" x="896" height="14" width="14" fill="#757575"/>
    <rect y="98" x="0" height="14" width="14" fill="#757575"/>
    <rect y="98" x="28" height="14" width="14" fill="#757575"/>
    <rect y="98" x="42" height="14" width="14" fill="#757575"/>
    <rect y="98" x="896" height="14" width="14" fill="#757575"/>
    <rect y="112" x="0" height="14" width="14" fill="#757575"/>
    <rect y="112" x="896" height="14" width="14" fill="#757575"/>
    <rect y="126" x="0" height="14" width="14" fill="#757575"/>
    <rect y="126" x="896" height="14" width="14" fill="#757575"/>
    <rect y="140" x="0" height="14" width="14" fill="#757575"/>
    <rect y="140" x="28" height="14" width="14" fill="#757575"/>
    <rect y="140" x="42" height="14" width="14" fill="#757575"/>
    <rect y="140" x="84" height="14" width="14" fill="#757575"/>
    <rect y="140" x="98" height="14" width="14" fill="#757575"/>
    <rect y="140" x="112" height="14" width="14" fill="#757575"/>
    <rect y="140" x="126" height="14" width="14" fill="#757575"/>
    <rect y="140" x="196" height="14" width="14" fill="#757575"/>
    <rect y="140" x="252" height="14" width="14" fill="#757575"/>
    <rect y="140" x="294" height="14" width="14" fill="#757575"/>
    <rect y="140" x="420" height="14" width="14" fill="#757575"/>
    <rect y="140" x="434" height="14" width="14" fill="#757575"/>
    <rect y="140" x="448" height="14" width="14" fill="#757575"/>
    <rect y="140" x="574" height="14" width="14" fill="#757575"/>
    <rect y="140" x="630" height="14" width="14" fill="#757575"/>
    <rect y="140" x="672" height="14" width="14" fill="#757575"/>
    <rect y="140" x="686" height="14" width="14" fill="#757575"/>
    <rect y="140" x="728" height="14" width="14" fill="#757575"/>
    <rect y="140" x="742" height="14" width="14" fill="#757575"/>
    <rect y="140" x="756" height="14" width="14" fill="#757575"/>
    <rect y="140" x="770" height="14" width="14" fill="#757575"/>
    <rect y="140" x="784" height="14" width="14" fill="#757575"/>
    <rect y="140" x="798" height="14" width="14" fill="#757575"/>
    <rect y="140" x="840" height="14" width="14" fill="#757575"/>
    <rect y="140" x="896" height="14" width="14" fill="#757575"/>
    <rect y="154" x="0" height="14" width="14" fill="#757575"/>
    <rect y="154" x="28" height="14" width="14" fill="#757575"/>
    <rect y="154" x="84" height="14" width="14" fill="#757575"/>
    <rect y="154" x="112" height="14" width="14" fill="#757575"/>
    <rect y="154" x="126" height="14" width="14" fill="#757575"/>
    <rect y="154" x="182" height="14" width="14" fill="#757575"/>
    <rect y="154" x="196" height="14" width="14" fill="#757575"/>
    <rect y="154" x="238" height="14" width="14" fill="#757575"/>
    <rect y="154" x="294" height="14" width="14" fill="#757575"/>
    <rect y="154" x="308" height="14" width="14" fill="#757575"/>
    <rect y="154" x="420" height="14" width="14" fill="#757575"/>
    <rect y="154" x="560" height="14" width="14" fill="#757575"/>
    <rect y="154" x="574" height="14" width="14" fill="#757575"/>
    <rect y="154" x="616" height="14" width="14" fill="#757575"/>
    <rect y="154" x="630" height="14" width="14" fill="#757575"/>
    <rect y="154" x="672" height="14" width="14" fill="#757575"/>
    <rect y="154" x="686" height="14" width="14" fill="#757575"/>
    <rect y="154" x="728" height="14" width="14" fill="#757575"/>
    <rect y="154" x="742" height="14" width="14" fill="#757575"/>
    <rect y="154" x="756" height="14" width="14" fill="#757575"/>
    <rect y="154" x="770" height="14" width="14" fill="#757575"/>
    <rect y="154" x="784" height="14" width="14" fill="#757575"/>
    <rect y="154" x="798" height="14" width="14" fill="#757575"/>
    <rect y="154" x="840" height="14" width="14" fill="#757575"/>
    <rect y="154" x="854" height="14" width="14" fill="#757575"/>
    <rect y="154" x="896" height="14" width="14" fill="#757575"/>
    <rect y="168" x="0" height="14" width="14" fill="#757575"/>
    <rect y="168" x="84" height="14" width="14" fill="#757575"/>
    <rect y="168" x="98" height="14" width="14" fill="#757575"/>
    <rect y="168" x="126" height="14" width="14" fill="#757575"/>
    <rect y="168" x="168" height="14" width="14" fill="#757575"/>
    <rect y="168" x="182" height="14" width="14" fill="#757575"/>
    <rect y="168" x="196" height="14" width="14" fill="#757575"/>
    <rect y="168" x="294" height="14" width="14" fill="#757575"/>
    <rect y="168" x="308" height="14" width="14" fill="#757575"/>
    <rect y="168" x="322" height="14" width="14" fill="#757575"/>
    <rect y="168" x="420" height="14" width="14" fill="#757575"/>
    <rect y="168" x="434" height="14" width="14" fill="#757575"/>
    <rect y="168" x="448" height="14" width="14" fill="#757575"/>
    <rect y="168" x="546" height="14" width="14" fill="#757575"/>
    <rect y="168" x="560" height="14" width="14" fill="#757575"/>
    <rect y="168" x="574" height="14" width="14" fill="#757575"/>
    <rect y="168" x="672" height="14" width="14" fill="#757575"/>
    <rect y="168" x="686" height="14" width="14" fill="#757575"/>
    <rect y="168" x="728" height="14" width="14" fill="#757575"/>
    <rect y="168" x="742" height="14" width="14" fill="#757575"/>
    <rect y="168" x="756" height="14" width="14" fill="#757575"/>
    <rect y="168" x="770" height="14" width="14" fill="#757575"/>
    <rect y="168" x="784" height="14" width="14" fill="#757575"/>
    <rect y="168" x="840" height="14" width="14" fill="#757575"/>
    <rect y="168" x="854" height="14" width="14" fill="#757575"/>
    <rect y="168" x="868" height="14" width="14" fill="#757575"/>
    <rect y="168" x="896" height="14" width="14" fill="#757575"/>
    <rect y="182" x="0" height="14" width="14" fill="#757575"/>
    <rect y="182" x="84" height="14" width="14" fill="#757575"/>
    <rect y="182" x="112" height="14" width="14" fill="#757575"/>
    <rect y="182" x="182" height="14" width="14" fill="#757575"/>
    <rect y="182" x="196" height="14" width="14" fill="#757575"/>
    <rect y="182" x="294" height="14" width="14" fill="#757575"/>
    <rect y="182" x="308" height="14" width="14" fill="#757575"/>
    <rect y="182" x="560" height="14" width="14" fill="#757575"/>
    <rect y="182" x="574" height="14" width="14" fill="#757575"/>
    <rect y="182" x="672" height="14" width="14" fill="#757575"/>
    <rect y="182" x="686" height="14" width="14" fill="#757575"/>
    <rect y="182" x="728" height="14" width="14" fill="#757575"/>
    <rect y="182" x="742" height="14" width="14" fill="#757575"/>
    <rect y="182" x="756" height="14" width="14" fill="#757575"/>
    <rect y="182" x="770" height="14" width="14" fill="#757575"/>
    <rect y="182" x="840" height="14" width="14" fill="#757575"/>
    <rect y="182" x="854" height="14" width="14" fill="#757575"/>
    <rect y="182" x="896" height="14" width="14" fill="#757575"/>
    <rect y="196" x="0" height="14" width="14" fill="#757575"/>
    <rect y="196" x="196" height="14" width="14" fill="#757575"/>
    <rect y="196" x="294" height="14" width="14" fill="#757575"/>
    <rect y="196" x="574" height="14" width="14" fill="#757575"/>
    <rect y="196" x="672" height="14" width="14" fill="#757575"/>
    <rect y="196" x="686" height="14" width="14" fill="#757575"/>
    <rect y="196" x="728" height="14" width="14" fill="#757575"/>
    <rect y="196" x="742" height="14" width="14" fill="#757575"/>
    <rect y="196" x="756" height="14" width="14" fill="#757575"/>
    <rect y="196" x="798" height="14" width="14" fill="#757575"/>
    <rect y="196" x="840" height="14" width="14" fill="#757575"/>
    <rect y="196" x="896" height="14" width="14" fill="#757575"/>
    <rect y="210" x="0" height="14" width="14" fill="#757575"/>
    <rect y="210" x="728" height="14" width="14" fill="#757575"/>
    <rect y="210" x="742" height="14" width="14" fill="#757575"/>
    <rect y="210" x="896" height="14" width="14" fill="#757575"/>
    <rect y="224" x="0" height="14" width="14" fill="#757575"/>
    <rect y="224" x="896" height="14" width="14" fill="#757575"/>
    <rect y="238" x="0" height="14" width="14" fill="#757575"/>
    <rect y="238" x="14" height="14" width="14" fill="#757575"/>
    <rect y="238" x="28" height="14" width="14" fill="#757575"/>
    <rect y="238" x="42" height="14" width="14" fill="#757575"/>
    <rect y="238" x="56" height="14" width="14" fill="#757575"/>
    <rect y="238" x="70" height="14" width="14" fill="#757575"/>
    <rect y="238" x="84" height="14" width="14" fill="#757575"/>
    <rect y="238" x="98" height="14" width="14" fill="#757575"/>
    <rect y="238" x="112" height="14" width="14" fill="#757575"/>
    <rect y="238" x="126" height="14" width="14" fill="#757575"/>
    <rect y="238" x="140" height="14" width="14" fill="#757575"/>
    <rect y="238" x="154" height="14" width="14" fill="#757575"/>
    <rect y="238" x="168" height="14" width="14" fill="#757575"/>
    <rect y="238" x="182" height="14" width="14" fill="#757575"/>
    <rect y="238" x="196" height="14" width="14" fill="#757575"/>
    <rect y="238" x="210" height="14" width="14" fill="#757575"/>
    <rect y="238" x="224" height="14" width="14" fill="#757575"/>
    <rect y="238" x="238" height="14" width="14" fill="#757575"/>
    <rect y="238" x="252" height="14" width="14" fill="#757575"/>
    <rect y="238" x="266" height="14" width="14" fill="#757575"/>
    <rect y="238" x="280" height="14" width="14" fill="#757575"/>
    <rect y="238" x="294" height="14" width="14" fill="#757575"/>
    <rect y="238" x="308" height="14" width="14" fill="#757575"/>
    <rect y="238" x="322" height="14" width="14" fill="#757575"/>
    <rect y="238" x="336" height="14" width="14" fill="#757575"/>
    <rect y="238" x="350" height="14" width="14" fill="#757575"/>
    <rect y="238" x="364" height="14" width="14" fill="#757575"/>
    <rect y="238" x="378" height="14" width="14" fill="#757575"/>
    <rect y="238" x="392" height="14" width="14" fill="#757575"/>
    <rect y="238" x="406" height="14" width="14" fill="#757575"/>
    <rect y="238" x="420" height="14" width="14" fill="#757575"/>
    <rect y="238" x="434" height="14" width="14" fill="#757575"/>
    <rect y="238" x="448" height="14" width="14" fill="#757575"/>
    <rect y="238" x="462" height="14" width="14" fill="#757575"/>
    <rect y="238" x="476" height="14" width="14" fill="#757575"/>
    <rect y="238" x="490" height="14" width="14" fill="#757575"/>
    <rect y="238" x="504" height="14" width="14" fill="#757575"/>
    <rect y="238" x="518" height="14" width="14" fill="#757575"/>
    <rect y="238" x="532" height="14" width="14" fill="#757575"/>
    <rect y="238" x="546" height="14" width="14" fill="#757575"/>
    <rect y="238" x="560" height="14" width="14" fill="#757575"/>
    <rect y="238" x="574" height="14" width="14" fill="#757575"/>
    <rect y="238" x="588" height="14" width="14" fill="#757575"/>
    <rect y="238" x="602" height="14" width="14" fill="#757575"/>
    <rect y="238" x="616" height="14" width="14" fill="#757575"/>
    <rect y="238" x="630" height="14" width="14" fill="#757575"/>
    <rect y="238" x="644" height="14" width="14" fill="#757575"/>
    <rect y="238" x="658" height="14" width="14" fill="#757575"/>
    <rect y="238" x="672" height="14" width="14" fill="#757575"/>
    <rect y="238" x="686" height="14" width="14" fill="#757575"/>
    <rect y="238" x="700" height="14" width="14" fill="#757575"/>
    <rect y="238" x="714" height="14" width="14" fill="#757575"/>
    <rect y="238" x="728" height="14" width="14" fill="#757575"/>
    <rect y="238" x="742" height="14" width="14" fill="#757575"/>
    <rect y="238" x="756" height="14" width="14" fill="#757575"/>
    <rect y="238" x="770" height="14" width="14" fill="#757575"/>
    <rect y="238" x="784" height="14" width="14" fill="#757575"/>
    <rect y="238" x="798" height="14" width="14" fill="#757575"/>
    <rect y="238" x="812" height="14" width="14" fill="#757575"/>
    <rect y="238" x="826" height="14" width="14" fill="#757575"/>
    <rect y="238" x="840" height="14" width="14" fill="#757575"/>
    <rect y="238" x="854" height="14" width="14" fill="#757575"/>
    <rect y="238" x="868" height="14" width="14" fill="#757575"/>
    <rect y="238" x="882" height="14" width="14" fill="#757575"/>
    <rect y="238" x="896" height="14" width="14" fill="#757575"/>
    
  <rect y="28" x="28" height="84" width="84" fill="#BF360C" fill-opacity="0.5"/>
<text y="70" x="70" dominant-baseline='middle' text-anchor='middle' fill='white' style='paint-order: stroke; fill: white; stroke: black; stroke-width: 1px; font-family="monospace"; font-size: 18px'><tspan x="70" dy="0em">1678847?</tspan></text>
<rect y="140" x="28" height="28" width="28" fill="#827717" fill-opacity="0.5"/>
<text y="154" x="42" dominant-baseline='middle' text-anchor='middle' fill='white' style='paint-order: stroke; fill: white; stroke: black; stroke-width: 1px; font-family="monospace"; font-size: 18px'><tspan x="42" dy="0em">ap</tspan></text>
<rect y="140" x="84" height="56" width="56" fill="#BF360C" fill-opacity="0.5"/>
<text y="168" x="112" dominant-baseline='middle' text-anchor='middle' fill='white' style='paint-order: stroke; fill: white; stroke: black; stroke-width: 1px; font-family="monospace"; font-size: 18px'><tspan x="112" dy="0em">op15?</tspan></text>
<rect y="140" x="168" height="70" width="42" fill="#827717" fill-opacity="0.5"/>
<text y="175" x="189" dominant-baseline='middle' text-anchor='middle' fill='white' style='paint-order: stroke; fill: white; stroke: black; stroke-width: 1px; font-family="monospace"; font-size: 18px'><tspan x="189" dy="0em">[</tspan></text>
<rect y="140" x="238" height="28" width="28" fill="#004D40" fill-opacity="0.5"/>
<text y="154" x="252" dominant-baseline='middle' text-anchor='middle' fill='white' style='paint-order: stroke; fill: white; stroke: black; stroke-width: 1px; font-family="monospace"; font-size: 18px'><tspan x="252" dy="0em">0</tspan></text>
<rect y="140" x="294" height="70" width="42" fill="#827717" fill-opacity="0.5"/>
<text y="175" x="315" dominant-baseline='middle' text-anchor='middle' fill='white' style='paint-order: stroke; fill: white; stroke: black; stroke-width: 1px; font-family="monospace"; font-size: 18px'><tspan x="315" dy="0em">]</tspan></text>
<rect y="140" x="420" height="42" width="42" fill="#827717" fill-opacity="0.5"/>
<text y="161" x="441" dominant-baseline='middle' text-anchor='middle' fill='white' style='paint-order: stroke; fill: white; stroke: black; stroke-width: 1px; font-family="monospace"; font-size: 18px'><tspan x="441" dy="0em">is</tspan></text>
<rect y="140" x="546" height="70" width="42" fill="#827717" fill-opacity="0.5"/>
<text y="175" x="567" dominant-baseline='middle' text-anchor='middle' fill='white' style='paint-order: stroke; fill: white; stroke: black; stroke-width: 1px; font-family="monospace"; font-size: 18px'><tspan x="567" dy="0em">[</tspan></text>
<rect y="140" x="616" height="28" width="28" fill="#004D40" fill-opacity="0.5"/>
<text y="154" x="630" dominant-baseline='middle' text-anchor='middle' fill='white' style='paint-order: stroke; fill: white; stroke: black; stroke-width: 1px; font-family="monospace"; font-size: 18px'><tspan x="630" dy="0em">1</tspan></text>
<rect y="140" x="672" height="70" width="28" fill="#827717" fill-opacity="0.5"/>
<text y="175" x="686" dominant-baseline='middle' text-anchor='middle' fill='white' style='paint-order: stroke; fill: white; stroke: black; stroke-width: 1px; font-family="monospace"; font-size: 18px'><tspan x="686" dy="0em">;</tspan></text>
<rect y="140" x="728" height="84" width="84" fill="#BF360C" fill-opacity="0.5"/>
<text y="182" x="770" dominant-baseline='middle' text-anchor='middle' fill='white' style='paint-order: stroke; fill: white; stroke: black; stroke-width: 1px; font-family="monospace"; font-size: 18px'><tspan x="770" dy="0em">1678847?</tspan></text>
<rect y="140" x="840" height="70" width="42" fill="#827717" fill-opacity="0.5"/>
<text y="175" x="861" dominant-baseline='middle' text-anchor='middle' fill='white' style='paint-order: stroke; fill: white; stroke: black; stroke-width: 1px; font-family="monospace"; font-size: 18px'><tspan x="861" dy="0em">]</tspan></text>

</svg>
