<?xml version="1.0"?>
<svg xmlns="http://www.w3.org/2000/svg" height="224" width="1120">
  <rect y="0" x="0" height="224" width="1120" fill="black" />
  <rect y="0" x="0" height="14" width="14" fill="#757575"/>
    <rect y="0" x="14" height="14" width="14" fill="#757575"/>
    <rect y="0" x="28" height="14" width="14" fill="#757575"/>
    <rect y="0" x="42" height="14" width="14" fill="#757575"/>
    <rect y="0" x="56" height="14" width="14" fill="#757575"/>
    <rect y="0" x="70" height="14" width="14" fill="#757575"/>
    <rect y="0" x="84" height="14" width="14" fill="#757575"/>
    <rect y="0" x="98" height="14" width="14" fill="#757575"/>
    <rect y="0" x="112" height="14" width="14" fill="#757575"/>
    <rect y="0" x="126" height="14" width="14" fill="#757575"/>
    <rect y="0" x="140" height="14" width="14" fill="#757575"/>
    <rect y="0" x="154" height="14" width="14" fill="#757575"/>
    <rect y="0" x="168" height="14" width="14" fill="#757575"/>
    <rect y="0" x="182" height="14" width="14" fill="#757575"/>
    <rect y="0" x="196" height="14" width="14" fill="#757575"/>
    <rect y="0" x="210" height="14" width="14" fill="#757575"/>
    <rect y="0" x="224" height="14" width="14" fill="#757575"/>
    <rect y="0" x="238" height="14" width="14" fill="#757575"/>
    <rect y="0" x="252" height="14" width="14" fill="#757575"/>
    <rect y="0" x="266" height="14" width="14" fill="#757575"/>
    <rect y="0" x="280" height="14" width="14" fill="#757575"/>
    <rect y="0" x="294" height="14" width="14" fill="#757575"/>
    <rect y="0" x="308" height="14" width="14" fill="#757575"/>
    <rect y="0" x="322" height="14" width="14" fill="#757575"/>
    <rect y="0" x="336" height="14" width="14" fill="#757575"/>
    <rect y="0" x="350" height="14" width="14" fill="#757575"/>
    <rect y="0" x="364" height="14" width="14" fill="#757575"/>
    <rect y="0" x="378" height="14" width="14" fill="#757575"/>
    <rect y="0" x="392" height="14" width="14" fill="#757575"/>
    <rect y="0" x="406" height="14" width="14" fill="#757575"/>
    <rect y="0" x="420" height="14" width="14" fill="#757575"/>
    <rect y="0" x="434" height="14" width="14" fill="#757575"/>
    <rect y="0" x="448" height="14" width="14" fill="#757575"/>
    <rect y="0" x="462" height="14" width="14" fill="#757575"/>
    <rect y="0" x="476" height="14" width="14" fill="#757575"/>
    <rect y="0" x="490" height="14" width="14" fill="#757575"/>
    <rect y="0" x="504" height="14" width="14" fill="#757575"/>
    <rect y="0" x="518" height="14" width="14" fill="#757575"/>
    <rect y="0" x="532" height="14" width="14" fill="#757575"/>
    <rect y="0" x="546" height="14" width="14" fill="#757575"/>
    <rect y="0" x="560" height="14" width="14" fill="#757575"/>
    <rect y="0" x="574" height="14" width="14" fill="#757575"/>
    <rect y="0" x="588" height="14" width="14" fill="#757575"/>
    <rect y="0" x="602" height="14" width="14" fill="#757575"/>
    <rect y="0" x="616" height="14" width="14" fill="#757575"/>
    <rect y="0" x="630" height="14" width="14" fill="#757575"/>
    <rect y="0" x="644" height="14" width="14" fill="#757575"/>
    <rect y="0" x="658" height="14" width="14" fill="#757575"/>
    <rect y="0" x="672" height="14" width="14" fill="#757575"/>
    <rect y="0" x="686" height="14" width="14" fill="#757575"/>
    <rect y="0" x="700" height="14" width="14" fill="#757575"/>
    <rect y="0" x="714" height="14" width="14" fill="#757575"/>
    <rect y="0" x="728" height="14" width="14" fill="#757575"/>
    <rect y="0" x="742" height="14" width="14" fill="#757575"/>
    <rect y="0" x="756" height="14" width="14" fill="#757575"/>
    <rect y="0" x="770" height="14" width="14" fill="#757575"/>
    <rect y="0" x="784" height="14" width="14" fill="#757575"/>
    <rect y="0" x="798" height="14" width="14" fill="#757575"/>
    <rect y="0" x="812" height="14" width="14" fill="#757575"/>
    <rect y="0" x="826" height="14" width="14" fill="#757575"/>
    <rect y="0" x="840" height="14" width="14" fill="#757575"/>
    <rect y="0" x="854" height="14" width="14" fill="#757575"/>
    <rect y="0" x="868" height="14" width="14" fill="#757575"/>
    <rect y="0" x="882" height="14" width="14" fill="#757575"/>
    <rect y="0" x="896" height="14" width="14" fill="#757575"/>
    <rect y="0" x="910" height="14" width="14" fill="#757575"/>
    <rect y="0" x="924" height="14" width="14" fill="#757575"/>
    <rect y="0" x="938" height="14" width="14" fill="#757575"/>
    <rect y="0" x="952" height="14" width="14" fill="#757575"/>
    <rect y="0" x="966" height="14" width="14" fill="#757575"/>
    <rect y="0" x="980" height="14" width="14" fill="#757575"/>
    <rect y="0" x="994" height="14" width="14" fill="#757575"/>
    <rect y="0" x="1008" height="14" width="14" fill="#757575"/>
    <rect y="0" x="1022" height="14" width="14" fill="#757575"/>
    <rect y="0" x="1036" height="14" width="14" fill="#757575"/>
    <rect y="0" x="1050" height="14" width="14" fill="#757575"/>
    <rect y="0" x="1064" height="14" width="14" fill="#757575"/>
    <rect y="0" x="1078" height="14" width="14" fill="#757575"/>
    <rect y="0" x="1092" height="14" width="14" fill="#757575"/>
    <rect y="0" x="1106" height="14" width="14" fill="#757575"/>
    <rect y="14" x="0" height="14" width="14" fill="#757575"/>
    <rect y="14" x="1106" height="14" width="14" fill="#757575"/>
    <rect y="28" x="0" height="14" width="14" fill="#757575"/>
    <rect y="28" x="28" height="14" width="14" fill="#757575"/>
    <rect y="28" x="42" height="14" width="14" fill="#757575"/>
    <rect y="28" x="56" height="14" width="14" fill="#757575"/>
    <rect y="28" x="70" height="14" width="14" fill="#757575"/>
    <rect y="28" x="84" height="14" width="14" fill="#757575"/>
    <rect y="28" x="1106" height="14" width="14" fill="#757575"/>
    <rect y="42" x="0" height="14" width="14" fill="#757575"/>
    <rect y="42" x="28" height="14" width="14" fill="#757575"/>
    <rect y="42" x="56" height="14" width="14" fill="#757575"/>
    <rect y="42" x="84" height="14" width="14" fill="#757575"/>
    <rect y="42" x="1106" height="14" width="14" fill="#757575"/>
    <rect y="56" x="0" height="14" width="14" fill="#757575"/>
    <rect y="56" x="28" height="14" width="14" fill="#757575"/>
    <rect y="56" x="56" height="14" width="14" fill="#757575"/>
    <rect y="56" x="84" height="14" width="14" fill="#757575"/>
    <rect y="56" x="1106" height="14" width="14" fill="#757575"/>
    <rect y="70" x="0" height="14" width="14" fill="#757575"/>
    <rect y="70" x="28" height="14" width="14" fill="#757575"/>
    <rect y="70" x="56" height="14" width="14" fill="#757575"/>
    <rect y="70" x="84" height="14" width="14" fill="#757575"/>
    <rect y="70" x="1106" height="14" width="14" fill="#757575"/>
    <rect y="84" x="0" height="14" width="14" fill="#757575"/>
    <rect y="84" x="28" height="14" width="14" fill="#757575"/>
    <rect y="84" x="42" height="14" width="14" fill="#757575"/>
    <rect y="84" x="56" height="14" width="14" fill="#757575"/>
    <rect y="84" x="70" height="14" width="14" fill="#757575"/>
    <rect y="84" x="84" height="14" width="14" fill="#757575"/>
    <rect y="84" x="1106" height="14" width="14" fill="#757575"/>
    <rect y="98" x="0" height="14" width="14" fill="#757575"/>
    <rect y="98" x="1106" height="14" width="14" fill="#757575"/>
    <rect y="112" x="0" height="14" width="14" fill="#757575"/>
    <rect y="112" x="1106" height="14" width="14" fill="#757575"/>
    <rect y="126" x="0" height="14" width="14" fill="#757575"/>
    <rect y="126" x="28" height="14" width="14" fill="#757575"/>
    <rect y="126" x="42" height="14" width="14" fill="#757575"/>
    <rect y="126" x="84" height="14" width="14" fill="#757575"/>
    <rect y="126" x="98" height="14" width="14" fill="#757575"/>
    <rect y="126" x="140" height="14" width="14" fill="#757575"/>
    <rect y="126" x="154" height="14" width="14" fill="#757575"/>
    <rect y="126" x="196" height="14" width="14" fill="#757575"/>
    <rect y="126" x="210" height="14" width="14" fill="#757575"/>
    <rect y="126" x="224" height="14" width="14" fill="#757575"/>
    <rect y="126" x="238" height="14" width="14" fill="#757575"/>
    <rect y="126" x="252" height="14" width="14" fill="#757575"/>
    <rect y="126" x="294" height="14" width="14" fill="#757575"/>
    <rect y="126" x="308" height="14" width="14" fill="#757575"/>
    <rect y="126" x="322" height="14" width="14" fill="#757575"/>
    <rect y="126" x="336" height="14" width="14" fill="#757575"/>
    <rect y="126" x="378" height="14" width="14" fill="#757575"/>
    <rect y="126" x="392" height="14" width="14" fill="#757575"/>
    <rect y="126" x="406" height="14" width="14" fill="#757575"/>
    <rect y="126" x="420" height="14" width="14" fill="#757575"/>
    <rect y="126" x="462" height="14" width="14" fill="#757575"/>
    <rect y="126" x="476" height="14" width="14" fill="#757575"/>
    <rect y="126" x="490" height="14" width="14" fill="#757575"/>
    <rect y="126" x="504" height="14" width="14" fill="#757575"/>
    <rect y="126" x="518" height="14" width="14" fill="#757575"/>
    <rect y="126" x="616" height="14" width="14" fill="#757575"/>
    <rect y="126" x="630" height="14" width="14" fill="#757575"/>
    <rect y="126" x="644" height="14" width="14" fill="#757575"/>
    <rect y="126" x="742" height="14" width="14" fill="#757575"/>
    <rect y="126" x="756" height="14" width="14" fill="#757575"/>
    <rect y="126" x="798" height="14" width="14" fill="#757575"/>
    <rect y="126" x="812" height="14" width="14" fill="#757575"/>
    <rect y="126" x="854" height="14" width="14" fill="#757575"/>
    <rect y="126" x="868" height="14" width="14" fill="#757575"/>
    <rect y="126" x="882" height="14" width="14" fill="#757575"/>
    <rect y="126" x="896" height="14" width="14" fill="#757575"/>
    <rect y="126" x="910" height="14" width="14" fill="#757575"/>
    <rect y="126" x="952" height="14" width="14" fill="#757575"/>
    <rect y="126" x="966" height="14" width="14" fill="#757575"/>
    <rect y="126" x="980" height="14" width="14" fill="#757575"/>
    <rect y="126" x="994" height="14" width="14" fill="#757575"/>
    <rect y="126" x="1036" height="14" width="14" fill="#757575"/>
    <rect y="126" x="1050" height="14" width="14" fill="#757575"/>
    <rect y="126" x="1064" height="14" width="14" fill="#757575"/>
    <rect y="126" x="1078" height="14" width="14" fill="#757575"/>
    <rect y="126" x="1106" height="14" width="14" fill="#757575"/>
    <rect y="140" x="0" height="14" width="14" fill="#757575"/>
    <rect y="140" x="28" height="14" width="14" fill="#757575"/>
    <rect y="140" x="84" height="14" width="14" fill="#757575"/>
    <rect y="140" x="140" height="14" width="14" fill="#757575"/>
    <rect y="140" x="196" height="14" width="14" fill="#757575"/>
    <rect y="140" x="224" height="14" width="14" fill="#757575"/>
    <rect y="140" x="252" height="14" width="14" fill="#757575"/>
    <rect y="140" x="294" height="14" width="14" fill="#757575"/>
    <rect y="140" x="308" height="14" width="14" fill="#757575"/>
    <rect y="140" x="336" height="14" width="14" fill="#757575"/>
    <rect y="140" x="378" height="14" width="14" fill="#757575"/>
    <rect y="140" x="392" height="14" width="14" fill="#757575"/>
    <rect y="140" x="420" height="14" width="14" fill="#757575"/>
    <rect y="140" x="462" height="14" width="14" fill="#757575"/>
    <rect y="140" x="476" height="14" width="14" fill="#757575"/>
    <rect y="140" x="518" height="14" width="14" fill="#757575"/>
    <rect y="140" x="616" height="14" width="14" fill="#757575"/>
    <rect y="140" x="742" height="14" width="14" fill="#757575"/>
    <rect y="140" x="798" height="14" width="14" fill="#757575"/>
    <rect y="140" x="854" height="14" width="14" fill="#757575"/>
    <rect y="140" x="868" height="14" width="14" fill="#757575"/>
    <rect y="140" x="910" height="14" width="14" fill="#757575"/>
    <rect y="140" x="952" height="14" width="14" fill="#757575"/>
    <rect y="140" x="966" height="14" width="14" fill="#757575"/>
    <rect y="140" x="994" height="14" width="14" fill="#757575"/>
    <rect y="140" x="1036" height="14" width="14" fill="#757575"/>
    <rect y="140" x="1050" height="14" width="14" fill="#757575"/>
    <rect y="140" x="1078" height="14" width="14" fill="#757575"/>
    <rect y="140" x="1106" height="14" width="14" fill="#757575"/>
    <rect y="154" x="0" height="14" width="14" fill="#757575"/>
    <rect y="154" x="196" height="14" width="14" fill="#757575"/>
    <rect y="154" x="224" height="14" width="14" fill="#757575"/>
    <rect y="154" x="252" height="14" width="14" fill="#757575"/>
    <rect y="154" x="294" height="14" width="14" fill="#757575"/>
    <rect y="154" x="322" height="14" width="14" fill="#757575"/>
    <rect y="154" x="336" height="14" width="14" fill="#757575"/>
    <rect y="154" x="378" height="14" width="14" fill="#757575"/>
    <rect y="154" x="420" height="14" width="14" fill="#757575"/>
    <rect y="154" x="462" height="14" width="14" fill="#757575"/>
    <rect y="154" x="490" height="14" width="14" fill="#757575"/>
    <rect y="154" x="518" height="14" width="14" fill="#757575"/>
    <rect y="154" x="616" height="14" width="14" fill="#757575"/>
    <rect y="154" x="630" height="14" width="14" fill="#757575"/>
    <rect y="154" x="644" height="14" width="14" fill="#757575"/>
    <rect y="154" x="854" height="14" width="14" fill="#757575"/>
    <rect y="154" x="882" height="14" width="14" fill="#757575"/>
    <rect y="154" x="910" height="14" width="14" fill="#757575"/>
    <rect y="154" x="952" height="14" width="14" fill="#757575"/>
    <rect y="154" x="980" height="14" width="14" fill="#757575"/>
    <rect y="154" x="994" height="14" width="14" fill="#757575"/>
    <rect y="154" x="1036" height="14" width="14" fill="#757575"/>
    <rect y="154" x="1078" height="14" width="14" fill="#757575"/>
    <rect y="154" x="1106" height="14" width="14" fill="#757575"/>
    <rect y="168" x="0" height="14" width="14" fill="#757575"/>
    <rect y="168" x="196" height="14" width="14" fill="#757575"/>
    <rect y="168" x="224" height="14" width="14" fill="#757575"/>
    <rect y="168" x="252" height="14" width="14" fill="#757575"/>
    <rect y="168" x="294" height="14" width="14" fill="#757575"/>
    <rect y="168" x="308" height="14" width="14" fill="#757575"/>
    <rect y="168" x="322" height="14" width="14" fill="#757575"/>
    <rect y="168" x="336" height="14" width="14" fill="#757575"/>
    <rect y="168" x="378" height="14" width="14" fill="#757575"/>
    <rect y="168" x="392" height="14" width="14" fill="#757575"/>
    <rect y="168" x="406" height="14" width="14" fill="#757575"/>
    <rect y="168" x="420" height="14" width="14" fill="#757575"/>
    <rect y="168" x="462" height="14" width="14" fill="#757575"/>
    <rect y="168" x="490" height="14" width="14" fill="#757575"/>
    <rect y="168" x="504" height="14" width="14" fill="#757575"/>
    <rect y="168" x="518" height="14" width="14" fill="#757575"/>
    <rect y="168" x="854" height="14" width="14" fill="#757575"/>
    <rect y="168" x="882" height="14" width="14" fill="#757575"/>
    <rect y="168" x="896" height="14" width="14" fill="#757575"/>
    <rect y="168" x="910" height="14" width="14" fill="#757575"/>
    <rect y="168" x="952" height="14" width="14" fill="#757575"/>
    <rect y="168" x="966" height="14" width="14" fill="#757575"/>
    <rect y="168" x="980" height="14" width="14" fill="#757575"/>
    <rect y="168" x="994" height="14" width="14" fill="#757575"/>
    <rect y="168" x="1036" height="14" width="14" fill="#757575"/>
    <rect y="168" x="1050" height="14" width="14" fill="#757575"/>
    <rect y="168" x="1064" height="14" width="14" fill="#757575"/>
    <rect y="168" x="1078" height="14" width="14" fill="#757575"/>
    <rect y="168" x="1106" height="14" width="14" fill="#757575"/>
    <rect y="182" x="0" height="14" width="14" fill="#757575"/>
    <rect y="182" x="196" height="14" width="14" fill="#757575"/>
    <rect y="182" x="210" height="14" width="14" fill="#757575"/>
    <rect y="182" x="224" height="14" width="14" fill="#757575"/>
    <rect y="182" x="238" height="14" width="14" fill="#757575"/>
    <rect y="182" x="252" height="14" width="14" fill="#757575"/>
    <rect y="182" x="462" height="14" width="14" fill="#757575"/>
    <rect y="182" x="476" height="14" width="14" fill="#757575"/>
    <rect y="182" x="490" height="14" width="14" fill="#757575"/>
    <rect y="182" x="504" height="14" width="14" fill="#757575"/>
    <rect y="182" x="518" height="14" width="14" fill="#757575"/>
    <rect y="182" x="854" height="14" width="14" fill="#757575"/>
    <rect y="182" x="868" height="14" width="14" fill="#757575"/>
    <rect y="182" x="882" height="14" width="14" fill="#757575"/>
    <rect y="182" x="896" height="14" width="14" fill="#757575"/>
    <rect y="182" x="910" height="14" width="14" fill="#757575"/>
    <rect y="182" x="1106" height="14" width="14" fill="#757575"/>
    <rect y="196" x="0" height="14" width="14" fill="#757575"/>
    <rect y="196" x="1106" height="14" width="14" fill="#757575"/>
    <rect y="210" x="0" height="14" width="14" fill="#757575"/>
    <rect y="210" x="14" height="14" width="14" fill="#757575"/>
    <rect y="210" x="28" height="14" width="14" fill="#757575"/>
    <rect y="210" x="42" height="14" width="14" fill="#757575"/>
    <rect y="210" x="56" height="14" width="14" fill="#757575"/>
    <rect y="210" x="70" height="14" width="14" fill="#757575"/>
    <rect y="210" x="84" height="14" width="14" fill="#757575"/>
    <rect y="210" x="98" height="14" width="14" fill="#757575"/>
    <rect y="210" x="112" height="14" width="14" fill="#757575"/>
    <rect y="210" x="126" height="14" width="14" fill="#757575"/>
    <rect y="210" x="140" height="14" width="14" fill="#757575"/>
    <rect y="210" x="154" height="14" width="14" fill="#757575"/>
    <rect y="210" x="168" height="14" width="14" fill="#757575"/>
    <rect y="210" x="182" height="14" width="14" fill="#757575"/>
    <rect y="210" x="196" height="14" width="14" fill="#757575"/>
    <rect y="210" x="210" height="14" width="14" fill="#757575"/>
    <rect y="210" x="224" height="14" width="14" fill="#757575"/>
    <rect y="210" x="238" height="14" width="14" fill="#757575"/>
    <rect y="210" x="252" height="14" width="14" fill="#757575"/>
    <rect y="210" x="266" height="14" width="14" fill="#757575"/>
    <rect y="210" x="280" height="14" width="14" fill="#757575"/>
    <rect y="210" x="294" height="14" width="14" fill="#757575"/>
    <rect y="210" x="308" height="14" width="14" fill="#757575"/>
    <rect y="210" x="322" height="14" width="14" fill="#757575"/>
    <rect y="210" x="336" height="14" width="14" fill="#757575"/>
    <rect y="210" x="350" height="14" width="14" fill="#757575"/>
    <rect y="210" x="364" height="14" width="14" fill="#757575"/>
    <rect y="210" x="378" height="14" width="14" fill="#757575"/>
    <rect y="210" x="392" height="14" width="14" fill="#757575"/>
    <rect y="210" x="406" height="14" width="14" fill="#757575"/>
    <rect y="210" x="420" height="14" width="14" fill="#757575"/>
    <rect y="210" x="434" height="14" width="14" fill="#757575"/>
    <rect y="210" x="448" height="14" width="14" fill="#757575"/>
    <rect y="210" x="462" height="14" width="14" fill="#757575"/>
    <rect y="210" x="476" height="14" width="14" fill="#757575"/>
    <rect y="210" x="490" height="14" width="14" fill="#757575"/>
    <rect y="210" x="504" height="14" width="14" fill="#757575"/>
    <rect y="210" x="518" height="14" width="14" fill="#757575"/>
    <rect y="210" x="532" height="14" width="14" fill="#757575"/>
    <rect y="210" x="546" height="14" width="14" fill="#757575"/>
    <rect y="210" x="560" height="14" width="14" fill="#757575"/>
    <rect y="210" x="574" height="14" width="14" fill="#757575"/>
    <rect y="210" x="588" height="14" width="14" fill="#757575"/>
    <rect y="210" x="602" height="14" width="14" fill="#757575"/>
    <rect y="210" x="616" height="14" width="14" fill="#757575"/>
    <rect y="210" x="630" height="14" width="14" fill="#757575"/>
    <rect y="210" x="644" height="14" width="14" fill="#757575"/>
    <rect y="210" x="658" height="14" width="14" fill="#757575"/>
    <rect y="210" x="672" height="14" width="14" fill="#757575"/>
    <rect y="210" x="686" height="14" width="14" fill="#757575"/>
    <rect y="210" x="700" height="14" width="14" fill="#757575"/>
    <rect y="210" x="714" height="14" width="14" fill="#757575"/>
    <rect y="210" x="728" height="14" width="14" fill="#757575"/>
    <rect y="210" x="742" height="14" width="14" fill="#757575"/>
    <rect y="210" x="756" height="14" width="14" fill="#757575"/>
    <rect y="210" x="770" height="14" width="14" fill="#757575"/>
    <rect y="210" x="784" height="14" width="14" fill="#757575"/>
    <rect y="210" x="798" height="14" width="14" fill="#757575"/>
    <rect y="210" x="812" height="14" width="14" fill="#757575"/>
    <rect y="210" x="826" height="14" width="14" fill="#757575"/>
    <rect y="210" x="840" height="14" width="14" fill="#757575"/>
    <rect y="210" x="854" height="14" width="14" fill="#757575"/>
    <rect y="210" x="868" height="14" width="14" fill="#757575"/>
    <rect y="210" x="882" height="14" width="14" fill="#757575"/>
    <rect y="210" x="896" height="14" width="14" fill="#757575"/>
    <rect y="210" x="910" height="14" width="14" fill="#757575"/>
    <rect y="210" x="924" height="14" width="14" fill="#757575"/>
    <rect y="210" x="938" height="14" width="14" fill="#757575"/>
    <rect y="210" x="952" height="14" width="14" fill="#757575"/>
    <rect y="210" x="966" height="14" width="14" fill="#757575"/>
    <rect y="210" x="980" height="14" width="14" fill="#757575"/>
    <rect y="210" x="994" height="14" width="14" fill="#757575"/>
    <rect y="210" x="1008" height="14" width="14" fill="#757575"/>
    <rect y="210" x="1022" height="14" width="14" fill="#757575"/>
    <rect y="210" x="1036" height="14" width="14" fill="#757575"/>
    <rect y="210" x="1050" height="14" width="14" fill="#757575"/>
    <rect y="210" x="1064" height="14" width="14" fill="#757575"/>
    <rect y="210" x="1078" height="14" width="14" fill="#757575"/>
    <rect y="210" x="1092" height="14" width="14" fill="#757575"/>
    <rect y="210" x="1106" height="14" width="14" fill="#757575"/>
    
  <rect y="126" x="28" height="28" width="28" fill="#827717" fill-opacity="0.5"/>
<text y="140" x="42" dominant-baseline='middle' text-anchor='middle' fill='white' style='paint-order: stroke; fill: white; stroke: black; stroke-width: 1px; font-family="monospace"; font-size: 18px'><tspan x="42" dy="0em">ap</tspan></text>
<rect y="126" x="84" height="28" width="28" fill="#827717" fill-opacity="0.5"/>
<text y="140" x="98" dominant-baseline='middle' text-anchor='middle' fill='white' style='paint-order: stroke; fill: white; stroke: black; stroke-width: 1px; font-family="monospace"; font-size: 18px'><tspan x="98" dy="0em">ap</tspan></text>
<rect y="126" x="140" height="28" width="28" fill="#827717" fill-opacity="0.5"/>
<text y="140" x="154" dominant-baseline='middle' text-anchor='middle' fill='white' style='paint-order: stroke; fill: white; stroke: black; stroke-width: 1px; font-family="monospace"; font-size: 18px'><tspan x="154" dy="0em">ap</tspan></text>
<rect y="126" x="294" height="56" width="56" fill="#004D40" fill-opacity="0.5"/>
<text y="154" x="322" dominant-baseline='middle' text-anchor='middle' fill='white' style='paint-order: stroke; fill: white; stroke: black; stroke-width: 1px; font-family="monospace"; font-size: 18px'><tspan x="322" dy="0em">x0</tspan></text>
<rect y="126" x="378" height="56" width="56" fill="#004D40" fill-opacity="0.5"/>
<text y="154" x="406" dominant-baseline='middle' text-anchor='middle' fill='white' style='paint-order: stroke; fill: white; stroke: black; stroke-width: 1px; font-family="monospace"; font-size: 18px'><tspan x="406" dy="0em">x1</tspan></text>
<rect y="126" x="462" height="70" width="70" fill="#004D40" fill-opacity="0.5"/>
<text y="161" x="497" dominant-baseline='middle' text-anchor='middle' fill='white' style='paint-order: stroke; fill: white; stroke: black; stroke-width: 1px; font-family="monospace"; font-size: 18px'><tspan x="497" dy="0em">x2</tspan></text>
<rect y="126" x="616" height="42" width="42" fill="#827717" fill-opacity="0.5"/>
<text y="147" x="637" dominant-baseline='middle' text-anchor='middle' fill='white' style='paint-order: stroke; fill: white; stroke: black; stroke-width: 1px; font-family="monospace"; font-size: 18px'><tspan x="637" dy="0em">is</tspan></text>
<rect y="126" x="742" height="28" width="28" fill="#827717" fill-opacity="0.5"/>
<text y="140" x="756" dominant-baseline='middle' text-anchor='middle' fill='white' style='paint-order: stroke; fill: white; stroke: black; stroke-width: 1px; font-family="monospace"; font-size: 18px'><tspan x="756" dy="0em">ap</tspan></text>
<rect y="126" x="798" height="28" width="28" fill="#827717" fill-opacity="0.5"/>
<text y="140" x="812" dominant-baseline='middle' text-anchor='middle' fill='white' style='paint-order: stroke; fill: white; stroke: black; stroke-width: 1px; font-family="monospace"; font-size: 18px'><tspan x="812" dy="0em">ap</tspan></text>
<rect y="126" x="854" height="70" width="70" fill="#004D40" fill-opacity="0.5"/>
<text y="161" x="889" dominant-baseline='middle' text-anchor='middle' fill='white' style='paint-order: stroke; fill: white; stroke: black; stroke-width: 1px; font-family="monospace"; font-size: 18px'><tspan x="889" dy="0em">x2</tspan></text>
<rect y="126" x="952" height="56" width="56" fill="#004D40" fill-opacity="0.5"/>
<text y="154" x="980" dominant-baseline='middle' text-anchor='middle' fill='white' style='paint-order: stroke; fill: white; stroke: black; stroke-width: 1px; font-family="monospace"; font-size: 18px'><tspan x="980" dy="0em">x0</tspan></text>
<rect y="126" x="1036" height="56" width="56" fill="#004D40" fill-opacity="0.5"/>
<text y="154" x="1064" dominant-baseline='middle' text-anchor='middle' fill='white' style='paint-order: stroke; fill: white; stroke: black; stroke-width: 1px; font-family="monospace"; font-size: 18px'><tspan x="1064" dy="0em">x1</tspan></text>

</svg>
