<?xml version="1.0"?>
<svg xmlns="http://www.w3.org/2000/svg" height="336" width="1092">
  <rect y="0" x="0" height="336" width="1092" fill="black" />
  <rect y="0" x="0" height="14" width="14" fill="#757575"/>
    <rect y="0" x="14" height="14" width="14" fill="#757575"/>
    <rect y="0" x="28" height="14" width="14" fill="#757575"/>
    <rect y="0" x="42" height="14" width="14" fill="#757575"/>
    <rect y="0" x="56" height="14" width="14" fill="#757575"/>
    <rect y="0" x="70" height="14" width="14" fill="#757575"/>
    <rect y="0" x="84" height="14" width="14" fill="#757575"/>
    <rect y="0" x="98" height="14" width="14" fill="#757575"/>
    <rect y="0" x="112" height="14" width="14" fill="#757575"/>
    <rect y="0" x="126" height="14" width="14" fill="#757575"/>
    <rect y="0" x="140" height="14" width="14" fill="#757575"/>
    <rect y="0" x="154" height="14" width="14" fill="#757575"/>
    <rect y="0" x="168" height="14" width="14" fill="#757575"/>
    <rect y="0" x="182" height="14" width="14" fill="#757575"/>
    <rect y="0" x="196" height="14" width="14" fill="#757575"/>
    <rect y="0" x="210" height="14" width="14" fill="#757575"/>
    <rect y="0" x="224" height="14" width="14" fill="#757575"/>
    <rect y="0" x="238" height="14" width="14" fill="#757575"/>
    <rect y="0" x="252" height="14" width="14" fill="#757575"/>
    <rect y="0" x="266" height="14" width="14" fill="#757575"/>
    <rect y="0" x="280" height="14" width="14" fill="#757575"/>
    <rect y="0" x="294" height="14" width="14" fill="#757575"/>
    <rect y="0" x="308" height="14" width="14" fill="#757575"/>
    <rect y="0" x="322" height="14" width="14" fill="#757575"/>
    <rect y="0" x="336" height="14" width="14" fill="#757575"/>
    <rect y="0" x="350" height="14" width="14" fill="#757575"/>
    <rect y="0" x="364" height="14" width="14" fill="#757575"/>
    <rect y="0" x="378" height="14" width="14" fill="#757575"/>
    <rect y="0" x="392" height="14" width="14" fill="#757575"/>
    <rect y="0" x="406" height="14" width="14" fill="#757575"/>
    <rect y="0" x="420" height="14" width="14" fill="#757575"/>
    <rect y="0" x="434" height="14" width="14" fill="#757575"/>
    <rect y="0" x="448" height="14" width="14" fill="#757575"/>
    <rect y="0" x="462" height="14" width="14" fill="#757575"/>
    <rect y="0" x="476" height="14" width="14" fill="#757575"/>
    <rect y="0" x="490" height="14" width="14" fill="#757575"/>
    <rect y="0" x="504" height="14" width="14" fill="#757575"/>
    <rect y="0" x="518" height="14" width="14" fill="#757575"/>
    <rect y="0" x="532" height="14" width="14" fill="#757575"/>
    <rect y="0" x="546" height="14" width="14" fill="#757575"/>
    <rect y="0" x="560" height="14" width="14" fill="#757575"/>
    <rect y="0" x="574" height="14" width="14" fill="#757575"/>
    <rect y="0" x="588" height="14" width="14" fill="#757575"/>
    <rect y="0" x="602" height="14" width="14" fill="#757575"/>
    <rect y="0" x="616" height="14" width="14" fill="#757575"/>
    <rect y="0" x="630" height="14" width="14" fill="#757575"/>
    <rect y="0" x="644" height="14" width="14" fill="#757575"/>
    <rect y="0" x="658" height="14" width="14" fill="#757575"/>
    <rect y="0" x="672" height="14" width="14" fill="#757575"/>
    <rect y="0" x="686" height="14" width="14" fill="#757575"/>
    <rect y="0" x="700" height="14" width="14" fill="#757575"/>
    <rect y="0" x="714" height="14" width="14" fill="#757575"/>
    <rect y="0" x="728" height="14" width="14" fill="#757575"/>
    <rect y="0" x="742" height="14" width="14" fill="#757575"/>
    <rect y="0" x="756" height="14" width="14" fill="#757575"/>
    <rect y="0" x="770" height="14" width="14" fill="#757575"/>
    <rect y="0" x="784" height="14" width="14" fill="#757575"/>
    <rect y="0" x="798" height="14" width="14" fill="#757575"/>
    <rect y="0" x="812" height="14" width="14" fill="#757575"/>
    <rect y="0" x="826" height="14" width="14" fill="#757575"/>
    <rect y="0" x="840" height="14" width="14" fill="#757575"/>
    <rect y="0" x="854" height="14" width="14" fill="#757575"/>
    <rect y="0" x="868" height="14" width="14" fill="#757575"/>
    <rect y="0" x="882" height="14" width="14" fill="#757575"/>
    <rect y="0" x="896" height="14" width="14" fill="#757575"/>
    <rect y="0" x="910" height="14" width="14" fill="#757575"/>
    <rect y="0" x="924" height="14" width="14" fill="#757575"/>
    <rect y="0" x="938" height="14" width="14" fill="#757575"/>
    <rect y="0" x="952" height="14" width="14" fill="#757575"/>
    <rect y="0" x="966" height="14" width="14" fill="#757575"/>
    <rect y="0" x="980" height="14" width="14" fill="#757575"/>
    <rect y="0" x="994" height="14" width="14" fill="#757575"/>
    <rect y="0" x="1008" height="14" width="14" fill="#757575"/>
    <rect y="0" x="1022" height="14" width="14" fill="#757575"/>
    <rect y="0" x="1036" height="14" width="14" fill="#757575"/>
    <rect y="0" x="1050" height="14" width="14" fill="#757575"/>
    <rect y="0" x="1064" height="14" width="14" fill="#757575"/>
    <rect y="0" x="1078" height="14" width="14" fill="#757575"/>
    <rect y="14" x="0" height="14" width="14" fill="#757575"/>
    <rect y="14" x="1078" height="14" width="14" fill="#757575"/>
    <rect y="28" x="0" height="14" width="14" fill="#757575"/>
    <rect y="28" x="28" height="14" width="14" fill="#757575"/>
    <rect y="28" x="42" height="14" width="14" fill="#757575"/>
    <rect y="28" x="56" height="14" width="14" fill="#757575"/>
    <rect y="28" x="1078" height="14" width="14" fill="#757575"/>
    <rect y="42" x="0" height="14" width="14" fill="#757575"/>
    <rect y="42" x="28" height="14" width="14" fill="#757575"/>
    <rect y="42" x="56" height="14" width="14" fill="#757575"/>
    <rect y="42" x="1078" height="14" width="14" fill="#757575"/>
    <rect y="56" x="0" height="14" width="14" fill="#757575"/>
    <rect y="56" x="28" height="14" width="14" fill="#757575"/>
    <rect y="56" x="42" height="14" width="14" fill="#757575"/>
    <rect y="56" x="1078" height="14" width="14" fill="#757575"/>
    <rect y="70" x="0" height="14" width="14" fill="#757575"/>
    <rect y="70" x="1078" height="14" width="14" fill="#757575"/>
    <rect y="84" x="0" height="14" width="14" fill="#757575"/>
    <rect y="84" x="1078" height="14" width="14" fill="#757575"/>
    <rect y="98" x="0" height="14" width="14" fill="#757575"/>
    <rect y="98" x="28" height="14" width="14" fill="#757575"/>
    <rect y="98" x="42" height="14" width="14" fill="#757575"/>
    <rect y="98" x="84" height="14" width="14" fill="#757575"/>
    <rect y="98" x="98" height="14" width="14" fill="#757575"/>
    <rect y="98" x="140" height="14" width="14" fill="#757575"/>
    <rect y="98" x="154" height="14" width="14" fill="#757575"/>
    <rect y="98" x="196" height="14" width="14" fill="#757575"/>
    <rect y="98" x="210" height="14" width="14" fill="#757575"/>
    <rect y="98" x="224" height="14" width="14" fill="#757575"/>
    <rect y="98" x="266" height="14" width="14" fill="#757575"/>
    <rect y="98" x="280" height="14" width="14" fill="#757575"/>
    <rect y="98" x="294" height="14" width="14" fill="#757575"/>
    <rect y="98" x="308" height="14" width="14" fill="#757575"/>
    <rect y="98" x="350" height="14" width="14" fill="#757575"/>
    <rect y="98" x="364" height="14" width="14" fill="#757575"/>
    <rect y="98" x="378" height="14" width="14" fill="#757575"/>
    <rect y="98" x="392" height="14" width="14" fill="#757575"/>
    <rect y="98" x="434" height="14" width="14" fill="#757575"/>
    <rect y="98" x="448" height="14" width="14" fill="#757575"/>
    <rect y="98" x="462" height="14" width="14" fill="#757575"/>
    <rect y="98" x="476" height="14" width="14" fill="#757575"/>
    <rect y="98" x="490" height="14" width="14" fill="#757575"/>
    <rect y="98" x="588" height="14" width="14" fill="#757575"/>
    <rect y="98" x="602" height="14" width="14" fill="#757575"/>
    <rect y="98" x="616" height="14" width="14" fill="#757575"/>
    <rect y="98" x="714" height="14" width="14" fill="#757575"/>
    <rect y="98" x="728" height="14" width="14" fill="#757575"/>
    <rect y="98" x="770" height="14" width="14" fill="#757575"/>
    <rect y="98" x="784" height="14" width="14" fill="#757575"/>
    <rect y="98" x="826" height="14" width="14" fill="#757575"/>
    <rect y="98" x="840" height="14" width="14" fill="#757575"/>
    <rect y="98" x="854" height="14" width="14" fill="#757575"/>
    <rect y="98" x="868" height="14" width="14" fill="#757575"/>
    <rect y="98" x="910" height="14" width="14" fill="#757575"/>
    <rect y="98" x="924" height="14" width="14" fill="#757575"/>
    <rect y="98" x="938" height="14" width="14" fill="#757575"/>
    <rect y="98" x="952" height="14" width="14" fill="#757575"/>
    <rect y="98" x="966" height="14" width="14" fill="#757575"/>
    <rect y="98" x="1008" height="14" width="14" fill="#757575"/>
    <rect y="98" x="1022" height="14" width="14" fill="#757575"/>
    <rect y="98" x="1036" height="14" width="14" fill="#757575"/>
    <rect y="98" x="1050" height="14" width="14" fill="#757575"/>
    <rect y="98" x="1078" height="14" width="14" fill="#757575"/>
    <rect y="112" x="0" height="14" width="14" fill="#757575"/>
    <rect y="112" x="28" height="14" width="14" fill="#757575"/>
    <rect y="112" x="84" height="14" width="14" fill="#757575"/>
    <rect y="112" x="140" height="14" width="14" fill="#757575"/>
    <rect y="112" x="196" height="14" width="14" fill="#757575"/>
    <rect y="112" x="224" height="14" width="14" fill="#757575"/>
    <rect y="112" x="266" height="14" width="14" fill="#757575"/>
    <rect y="112" x="280" height="14" width="14" fill="#757575"/>
    <rect y="112" x="308" height="14" width="14" fill="#757575"/>
    <rect y="112" x="350" height="14" width="14" fill="#757575"/>
    <rect y="112" x="364" height="14" width="14" fill="#757575"/>
    <rect y="112" x="392" height="14" width="14" fill="#757575"/>
    <rect y="112" x="434" height="14" width="14" fill="#757575"/>
    <rect y="112" x="448" height="14" width="14" fill="#757575"/>
    <rect y="112" x="490" height="14" width="14" fill="#757575"/>
    <rect y="112" x="588" height="14" width="14" fill="#757575"/>
    <rect y="112" x="714" height="14" width="14" fill="#757575"/>
    <rect y="112" x="770" height="14" width="14" fill="#757575"/>
    <rect y="112" x="826" height="14" width="14" fill="#757575"/>
    <rect y="112" x="840" height="14" width="14" fill="#757575"/>
    <rect y="112" x="868" height="14" width="14" fill="#757575"/>
    <rect y="112" x="910" height="14" width="14" fill="#757575"/>
    <rect y="112" x="924" height="14" width="14" fill="#757575"/>
    <rect y="112" x="966" height="14" width="14" fill="#757575"/>
    <rect y="112" x="1008" height="14" width="14" fill="#757575"/>
    <rect y="112" x="1022" height="14" width="14" fill="#757575"/>
    <rect y="112" x="1050" height="14" width="14" fill="#757575"/>
    <rect y="112" x="1078" height="14" width="14" fill="#757575"/>
    <rect y="126" x="0" height="14" width="14" fill="#757575"/>
    <rect y="126" x="196" height="14" width="14" fill="#757575"/>
    <rect y="126" x="210" height="14" width="14" fill="#757575"/>
    <rect y="126" x="266" height="14" width="14" fill="#757575"/>
    <rect y="126" x="294" height="14" width="14" fill="#757575"/>
    <rect y="126" x="308" height="14" width="14" fill="#757575"/>
    <rect y="126" x="350" height="14" width="14" fill="#757575"/>
    <rect y="126" x="392" height="14" width="14" fill="#757575"/>
    <rect y="126" x="434" height="14" width="14" fill="#757575"/>
    <rect y="126" x="462" height="14" width="14" fill="#757575"/>
    <rect y="126" x="490" height="14" width="14" fill="#757575"/>
    <rect y="126" x="588" height="14" width="14" fill="#757575"/>
    <rect y="126" x="602" height="14" width="14" fill="#757575"/>
    <rect y="126" x="616" height="14" width="14" fill="#757575"/>
    <rect y="126" x="826" height="14" width="14" fill="#757575"/>
    <rect y="126" x="854" height="14" width="14" fill="#757575"/>
    <rect y="126" x="868" height="14" width="14" fill="#757575"/>
    <rect y="126" x="910" height="14" width="14" fill="#757575"/>
    <rect y="126" x="938" height="14" width="14" fill="#757575"/>
    <rect y="126" x="966" height="14" width="14" fill="#757575"/>
    <rect y="126" x="1008" height="14" width="14" fill="#757575"/>
    <rect y="126" x="1050" height="14" width="14" fill="#757575"/>
    <rect y="126" x="1078" height="14" width="14" fill="#757575"/>
    <rect y="140" x="0" height="14" width="14" fill="#757575"/>
    <rect y="140" x="266" height="14" width="14" fill="#757575"/>
    <rect y="140" x="280" height="14" width="14" fill="#757575"/>
    <rect y="140" x="294" height="14" width="14" fill="#757575"/>
    <rect y="140" x="308" height="14" width="14" fill="#757575"/>
    <rect y="140" x="350" height="14" width="14" fill="#757575"/>
    <rect y="140" x="364" height="14" width="14" fill="#757575"/>
    <rect y="140" x="378" height="14" width="14" fill="#757575"/>
    <rect y="140" x="392" height="14" width="14" fill="#757575"/>
    <rect y="140" x="434" height="14" width="14" fill="#757575"/>
    <rect y="140" x="462" height="14" width="14" fill="#757575"/>
    <rect y="140" x="476" height="14" width="14" fill="#757575"/>
    <rect y="140" x="490" height="14" width="14" fill="#757575"/>
    <rect y="140" x="826" height="14" width="14" fill="#757575"/>
    <rect y="140" x="840" height="14" width="14" fill="#757575"/>
    <rect y="140" x="854" height="14" width="14" fill="#757575"/>
    <rect y="140" x="868" height="14" width="14" fill="#757575"/>
    <rect y="140" x="910" height="14" width="14" fill="#757575"/>
    <rect y="140" x="938" height="14" width="14" fill="#757575"/>
    <rect y="140" x="952" height="14" width="14" fill="#757575"/>
    <rect y="140" x="966" height="14" width="14" fill="#757575"/>
    <rect y="140" x="1008" height="14" width="14" fill="#757575"/>
    <rect y="140" x="1022" height="14" width="14" fill="#757575"/>
    <rect y="140" x="1036" height="14" width="14" fill="#757575"/>
    <rect y="140" x="1050" height="14" width="14" fill="#757575"/>
    <rect y="140" x="1078" height="14" width="14" fill="#757575"/>
    <rect y="154" x="0" height="14" width="14" fill="#757575"/>
    <rect y="154" x="434" height="14" width="14" fill="#757575"/>
    <rect y="154" x="448" height="14" width="14" fill="#757575"/>
    <rect y="154" x="462" height="14" width="14" fill="#757575"/>
    <rect y="154" x="476" height="14" width="14" fill="#757575"/>
    <rect y="154" x="490" height="14" width="14" fill="#757575"/>
    <rect y="154" x="910" height="14" width="14" fill="#757575"/>
    <rect y="154" x="924" height="14" width="14" fill="#757575"/>
    <rect y="154" x="938" height="14" width="14" fill="#757575"/>
    <rect y="154" x="952" height="14" width="14" fill="#757575"/>
    <rect y="154" x="966" height="14" width="14" fill="#757575"/>
    <rect y="154" x="1078" height="14" width="14" fill="#757575"/>
    <rect y="168" x="0" height="14" width="14" fill="#757575"/>
    <rect y="168" x="1078" height="14" width="14" fill="#757575"/>
    <rect y="182" x="0" height="14" width="14" fill="#757575"/>
    <rect y="182" x="1078" height="14" width="14" fill="#757575"/>
    <rect y="196" x="0" height="14" width="14" fill="#757575"/>
    <rect y="196" x="28" height="14" width="14" fill="#757575"/>
    <rect y="196" x="42" height="14" width="14" fill="#757575"/>
    <rect y="196" x="84" height="14" width="14" fill="#757575"/>
    <rect y="196" x="98" height="14" width="14" fill="#757575"/>
    <rect y="196" x="140" height="14" width="14" fill="#757575"/>
    <rect y="196" x="154" height="14" width="14" fill="#757575"/>
    <rect y="196" x="196" height="14" width="14" fill="#757575"/>
    <rect y="196" x="210" height="14" width="14" fill="#757575"/>
    <rect y="196" x="224" height="14" width="14" fill="#757575"/>
    <rect y="196" x="266" height="14" width="14" fill="#757575"/>
    <rect y="196" x="280" height="14" width="14" fill="#757575"/>
    <rect y="196" x="294" height="14" width="14" fill="#757575"/>
    <rect y="196" x="308" height="14" width="14" fill="#757575"/>
    <rect y="196" x="364" height="14" width="14" fill="#757575"/>
    <rect y="196" x="420" height="14" width="14" fill="#757575"/>
    <rect y="196" x="434" height="14" width="14" fill="#757575"/>
    <rect y="196" x="532" height="14" width="14" fill="#757575"/>
    <rect y="196" x="546" height="14" width="14" fill="#757575"/>
    <rect y="196" x="560" height="14" width="14" fill="#757575"/>
    <rect y="196" x="672" height="14" width="14" fill="#757575"/>
    <rect y="196" x="686" height="14" width="14" fill="#757575"/>
    <rect y="196" x="1078" height="14" width="14" fill="#757575"/>
    <rect y="210" x="0" height="14" width="14" fill="#757575"/>
    <rect y="210" x="28" height="14" width="14" fill="#757575"/>
    <rect y="210" x="84" height="14" width="14" fill="#757575"/>
    <rect y="210" x="140" height="14" width="14" fill="#757575"/>
    <rect y="210" x="196" height="14" width="14" fill="#757575"/>
    <rect y="210" x="224" height="14" width="14" fill="#757575"/>
    <rect y="210" x="266" height="14" width="14" fill="#757575"/>
    <rect y="210" x="280" height="14" width="14" fill="#757575"/>
    <rect y="210" x="308" height="14" width="14" fill="#757575"/>
    <rect y="210" x="350" height="14" width="14" fill="#757575"/>
    <rect y="210" x="364" height="14" width="14" fill="#757575"/>
    <rect y="210" x="406" height="14" width="14" fill="#757575"/>
    <rect y="210" x="434" height="14" width="14" fill="#757575"/>
    <rect y="210" x="532" height="14" width="14" fill="#757575"/>
    <rect y="210" x="658" height="14" width="14" fill="#757575"/>
    <rect y="210" x="672" height="14" width="14" fill="#757575"/>
    <rect y="210" x="686" height="14" width="14" fill="#757575"/>
    <rect y="210" x="1078" height="14" width="14" fill="#757575"/>
    <rect y="224" x="0" height="14" width="14" fill="#757575"/>
    <rect y="224" x="196" height="14" width="14" fill="#757575"/>
    <rect y="224" x="210" height="14" width="14" fill="#757575"/>
    <rect y="224" x="266" height="14" width="14" fill="#757575"/>
    <rect y="224" x="280" height="14" width="14" fill="#757575"/>
    <rect y="224" x="308" height="14" width="14" fill="#757575"/>
    <rect y="224" x="406" height="14" width="14" fill="#757575"/>
    <rect y="224" x="532" height="14" width="14" fill="#757575"/>
    <rect y="224" x="546" height="14" width="14" fill="#757575"/>
    <rect y="224" x="560" height="14" width="14" fill="#757575"/>
    <rect y="224" x="658" height="14" width="14" fill="#757575"/>
    <rect y="224" x="1078" height="14" width="14" fill="#757575"/>
    <rect y="238" x="0" height="14" width="14" fill="#757575"/>
    <rect y="238" x="266" height="14" width="14" fill="#757575"/>
    <rect y="238" x="280" height="14" width="14" fill="#757575"/>
    <rect y="238" x="308" height="14" width="14" fill="#757575"/>
    <rect y="238" x="1078" height="14" width="14" fill="#757575"/>
    <rect y="252" x="0" height="14" width="14" fill="#757575"/>
    <rect y="252" x="1078" height="14" width="14" fill="#757575"/>
    <rect y="266" x="0" height="14" width="14" fill="#757575"/>
    <rect y="266" x="1078" height="14" width="14" fill="#757575"/>
    <rect y="280" x="0" height="14" width="14" fill="#757575"/>
    <rect y="280" x="1078" height="14" width="14" fill="#757575"/>
    <rect y="294" x="0" height="14" width="14" fill="#757575"/>
    <rect y="294" x="28" height="14" width="14" fill="#757575"/>
    <rect y="294" x="56" height="14" width="14" fill="#757575"/>
    <rect y="294" x="84" height="14" width="14" fill="#757575"/>
    <rect y="294" x="112" height="14" width="14" fill="#757575"/>
    <rect y="294" x="1078" height="14" width="14" fill="#757575"/>
    <rect y="308" x="0" height="14" width="14" fill="#757575"/>
    <rect y="308" x="1078" height="14" width="14" fill="#757575"/>
    <rect y="322" x="0" height="14" width="14" fill="#757575"/>
    <rect y="322" x="14" height="14" width="14" fill="#757575"/>
    <rect y="322" x="28" height="14" width="14" fill="#757575"/>
    <rect y="322" x="42" height="14" width="14" fill="#757575"/>
    <rect y="322" x="56" height="14" width="14" fill="#757575"/>
    <rect y="322" x="70" height="14" width="14" fill="#757575"/>
    <rect y="322" x="84" height="14" width="14" fill="#757575"/>
    <rect y="322" x="98" height="14" width="14" fill="#757575"/>
    <rect y="322" x="112" height="14" width="14" fill="#757575"/>
    <rect y="322" x="126" height="14" width="14" fill="#757575"/>
    <rect y="322" x="140" height="14" width="14" fill="#757575"/>
    <rect y="322" x="154" height="14" width="14" fill="#757575"/>
    <rect y="322" x="168" height="14" width="14" fill="#757575"/>
    <rect y="322" x="182" height="14" width="14" fill="#757575"/>
    <rect y="322" x="196" height="14" width="14" fill="#757575"/>
    <rect y="322" x="210" height="14" width="14" fill="#757575"/>
    <rect y="322" x="224" height="14" width="14" fill="#757575"/>
    <rect y="322" x="238" height="14" width="14" fill="#757575"/>
    <rect y="322" x="252" height="14" width="14" fill="#757575"/>
    <rect y="322" x="266" height="14" width="14" fill="#757575"/>
    <rect y="322" x="280" height="14" width="14" fill="#757575"/>
    <rect y="322" x="294" height="14" width="14" fill="#757575"/>
    <rect y="322" x="308" height="14" width="14" fill="#757575"/>
    <rect y="322" x="322" height="14" width="14" fill="#757575"/>
    <rect y="322" x="336" height="14" width="14" fill="#757575"/>
    <rect y="322" x="350" height="14" width="14" fill="#757575"/>
    <rect y="322" x="364" height="14" width="14" fill="#757575"/>
    <rect y="322" x="378" height="14" width="14" fill="#757575"/>
    <rect y="322" x="392" height="14" width="14" fill="#757575"/>
    <rect y="322" x="406" height="14" width="14" fill="#757575"/>
    <rect y="322" x="420" height="14" width="14" fill="#757575"/>
    <rect y="322" x="434" height="14" width="14" fill="#757575"/>
    <rect y="322" x="448" height="14" width="14" fill="#757575"/>
    <rect y="322" x="462" height="14" width="14" fill="#757575"/>
    <rect y="322" x="476" height="14" width="14" fill="#757575"/>
    <rect y="322" x="490" height="14" width="14" fill="#757575"/>
    <rect y="322" x="504" height="14" width="14" fill="#757575"/>
    <rect y="322" x="518" height="14" width="14" fill="#757575"/>
    <rect y="322" x="532" height="14" width="14" fill="#757575"/>
    <rect y="322" x="546" height="14" width="14" fill="#757575"/>
    <rect y="322" x="560" height="14" width="14" fill="#757575"/>
    <rect y="322" x="574" height="14" width="14" fill="#757575"/>
    <rect y="322" x="588" height="14" width="14" fill="#757575"/>
    <rect y="322" x="602" height="14" width="14" fill="#757575"/>
    <rect y="322" x="616" height="14" width="14" fill="#757575"/>
    <rect y="322" x="630" height="14" width="14" fill="#757575"/>
    <rect y="322" x="644" height="14" width="14" fill="#757575"/>
    <rect y="322" x="658" height="14" width="14" fill="#757575"/>
    <rect y="322" x="672" height="14" width="14" fill="#757575"/>
    <rect y="322" x="686" height="14" width="14" fill="#757575"/>
    <rect y="322" x="700" height="14" width="14" fill="#757575"/>
    <rect y="322" x="714" height="14" width="14" fill="#757575"/>
    <rect y="322" x="728" height="14" width="14" fill="#757575"/>
    <rect y="322" x="742" height="14" width="14" fill="#757575"/>
    <rect y="322" x="756" height="14" width="14" fill="#757575"/>
    <rect y="322" x="770" height="14" width="14" fill="#757575"/>
    <rect y="322" x="784" height="14" width="14" fill="#757575"/>
    <rect y="322" x="798" height="14" width="14" fill="#757575"/>
    <rect y="322" x="812" height="14" width="14" fill="#757575"/>
    <rect y="322" x="826" height="14" width="14" fill="#757575"/>
    <rect y="322" x="840" height="14" width="14" fill="#757575"/>
    <rect y="322" x="854" height="14" width="14" fill="#757575"/>
    <rect y="322" x="868" height="14" width="14" fill="#757575"/>
    <rect y="322" x="882" height="14" width="14" fill="#757575"/>
    <rect y="322" x="896" height="14" width="14" fill="#757575"/>
    <rect y="322" x="910" height="14" width="14" fill="#757575"/>
    <rect y="322" x="924" height="14" width="14" fill="#757575"/>
    <rect y="322" x="938" height="14" width="14" fill="#757575"/>
    <rect y="322" x="952" height="14" width="14" fill="#757575"/>
    <rect y="322" x="966" height="14" width="14" fill="#757575"/>
    <rect y="322" x="980" height="14" width="14" fill="#757575"/>
    <rect y="322" x="994" height="14" width="14" fill="#757575"/>
    <rect y="322" x="1008" height="14" width="14" fill="#757575"/>
    <rect y="322" x="1022" height="14" width="14" fill="#757575"/>
    <rect y="322" x="1036" height="14" width="14" fill="#757575"/>
    <rect y="322" x="1050" height="14" width="14" fill="#757575"/>
    <rect y="322" x="1064" height="14" width="14" fill="#757575"/>
    <rect y="322" x="1078" height="14" width="14" fill="#757575"/>
    
  <rect y="28" x="28" height="42" width="42" fill="#827717" fill-opacity="0.5"/>
<text y="49" x="49" dominant-baseline='middle' text-anchor='middle' fill='white' style='paint-order: stroke; fill: white; stroke: black; stroke-width: 1px; font-family="monospace"; font-size: 18px'><tspan x="49" dy="0em">C</tspan></text>
<rect y="98" x="28" height="28" width="28" fill="#827717" fill-opacity="0.5"/>
<text y="112" x="42" dominant-baseline='middle' text-anchor='middle' fill='white' style='paint-order: stroke; fill: white; stroke: black; stroke-width: 1px; font-family="monospace"; font-size: 18px'><tspan x="42" dy="0em">ap</tspan></text>
<rect y="98" x="84" height="28" width="28" fill="#827717" fill-opacity="0.5"/>
<text y="112" x="98" dominant-baseline='middle' text-anchor='middle' fill='white' style='paint-order: stroke; fill: white; stroke: black; stroke-width: 1px; font-family="monospace"; font-size: 18px'><tspan x="98" dy="0em">ap</tspan></text>
<rect y="98" x="140" height="28" width="28" fill="#827717" fill-opacity="0.5"/>
<text y="112" x="154" dominant-baseline='middle' text-anchor='middle' fill='white' style='paint-order: stroke; fill: white; stroke: black; stroke-width: 1px; font-family="monospace"; font-size: 18px'><tspan x="154" dy="0em">ap</tspan></text>
<rect y="98" x="196" height="42" width="42" fill="#827717" fill-opacity="0.5"/>
<text y="119" x="217" dominant-baseline='middle' text-anchor='middle' fill='white' style='paint-order: stroke; fill: white; stroke: black; stroke-width: 1px; font-family="monospace"; font-size: 18px'><tspan x="217" dy="0em">C</tspan></text>
<rect y="98" x="266" height="56" width="56" fill="#004D40" fill-opacity="0.5"/>
<text y="126" x="294" dominant-baseline='middle' text-anchor='middle' fill='white' style='paint-order: stroke; fill: white; stroke: black; stroke-width: 1px; font-family="monospace"; font-size: 18px'><tspan x="294" dy="0em">x0</tspan></text>
<rect y="98" x="350" height="56" width="56" fill="#004D40" fill-opacity="0.5"/>
<text y="126" x="378" dominant-baseline='middle' text-anchor='middle' fill='white' style='paint-order: stroke; fill: white; stroke: black; stroke-width: 1px; font-family="monospace"; font-size: 18px'><tspan x="378" dy="0em">x1</tspan></text>
<rect y="98" x="434" height="70" width="70" fill="#004D40" fill-opacity="0.5"/>
<text y="133" x="469" dominant-baseline='middle' text-anchor='middle' fill='white' style='paint-order: stroke; fill: white; stroke: black; stroke-width: 1px; font-family="monospace"; font-size: 18px'><tspan x="469" dy="0em">x2</tspan></text>
<rect y="98" x="588" height="42" width="42" fill="#827717" fill-opacity="0.5"/>
<text y="119" x="609" dominant-baseline='middle' text-anchor='middle' fill='white' style='paint-order: stroke; fill: white; stroke: black; stroke-width: 1px; font-family="monospace"; font-size: 18px'><tspan x="609" dy="0em">is</tspan></text>
<rect y="98" x="714" height="28" width="28" fill="#827717" fill-opacity="0.5"/>
<text y="112" x="728" dominant-baseline='middle' text-anchor='middle' fill='white' style='paint-order: stroke; fill: white; stroke: black; stroke-width: 1px; font-family="monospace"; font-size: 18px'><tspan x="728" dy="0em">ap</tspan></text>
<rect y="98" x="770" height="28" width="28" fill="#827717" fill-opacity="0.5"/>
<text y="112" x="784" dominant-baseline='middle' text-anchor='middle' fill='white' style='paint-order: stroke; fill: white; stroke: black; stroke-width: 1px; font-family="monospace"; font-size: 18px'><tspan x="784" dy="0em">ap</tspan></text>
<rect y="98" x="826" height="56" width="56" fill="#004D40" fill-opacity="0.5"/>
<text y="126" x="854" dominant-baseline='middle' text-anchor='middle' fill='white' style='paint-order: stroke; fill: white; stroke: black; stroke-width: 1px; font-family="monospace"; font-size: 18px'><tspan x="854" dy="0em">x0</tspan></text>
<rect y="98" x="910" height="70" width="70" fill="#004D40" fill-opacity="0.5"/>
<text y="133" x="945" dominant-baseline='middle' text-anchor='middle' fill='white' style='paint-order: stroke; fill: white; stroke: black; stroke-width: 1px; font-family="monospace"; font-size: 18px'><tspan x="945" dy="0em">x2</tspan></text>
<rect y="98" x="1008" height="56" width="56" fill="#004D40" fill-opacity="0.5"/>
<text y="126" x="1036" dominant-baseline='middle' text-anchor='middle' fill='white' style='paint-order: stroke; fill: white; stroke: black; stroke-width: 1px; font-family="monospace"; font-size: 18px'><tspan x="1036" dy="0em">x1</tspan></text>
<rect y="196" x="28" height="28" width="28" fill="#827717" fill-opacity="0.5"/>
<text y="210" x="42" dominant-baseline='middle' text-anchor='middle' fill='white' style='paint-order: stroke; fill: white; stroke: black; stroke-width: 1px; font-family="monospace"; font-size: 18px'><tspan x="42" dy="0em">ap</tspan></text>
<rect y="196" x="84" height="28" width="28" fill="#827717" fill-opacity="0.5"/>
<text y="210" x="98" dominant-baseline='middle' text-anchor='middle' fill='white' style='paint-order: stroke; fill: white; stroke: black; stroke-width: 1px; font-family="monospace"; font-size: 18px'><tspan x="98" dy="0em">ap</tspan></text>
<rect y="196" x="140" height="28" width="28" fill="#827717" fill-opacity="0.5"/>
<text y="210" x="154" dominant-baseline='middle' text-anchor='middle' fill='white' style='paint-order: stroke; fill: white; stroke: black; stroke-width: 1px; font-family="monospace"; font-size: 18px'><tspan x="154" dy="0em">ap</tspan></text>
<rect y="196" x="196" height="42" width="42" fill="#827717" fill-opacity="0.5"/>
<text y="217" x="217" dominant-baseline='middle' text-anchor='middle' fill='white' style='paint-order: stroke; fill: white; stroke: black; stroke-width: 1px; font-family="monospace"; font-size: 18px'><tspan x="217" dy="0em">C</tspan></text>
<rect y="196" x="266" height="56" width="56" fill="#827717" fill-opacity="0.5"/>
<text y="224" x="294" dominant-baseline='middle' text-anchor='middle' fill='white' style='paint-order: stroke; fill: white; stroke: black; stroke-width: 1px; font-family="monospace"; font-size: 18px'><tspan x="294" dy="0em">Sum</tspan></text>
<rect y="196" x="350" height="28" width="28" fill="#004D40" fill-opacity="0.5"/>
<text y="210" x="364" dominant-baseline='middle' text-anchor='middle' fill='white' style='paint-order: stroke; fill: white; stroke: black; stroke-width: 1px; font-family="monospace"; font-size: 18px'><tspan x="364" dy="0em">1</tspan></text>
<rect y="196" x="406" height="42" width="42" fill="#004D40" fill-opacity="0.5"/>
<text y="217" x="427" dominant-baseline='middle' text-anchor='middle' fill='white' style='paint-order: stroke; fill: white; stroke: black; stroke-width: 1px; font-family="monospace"; font-size: 18px'><tspan x="427" dy="0em">2</tspan></text>
<rect y="196" x="532" height="42" width="42" fill="#827717" fill-opacity="0.5"/>
<text y="217" x="553" dominant-baseline='middle' text-anchor='middle' fill='white' style='paint-order: stroke; fill: white; stroke: black; stroke-width: 1px; font-family="monospace"; font-size: 18px'><tspan x="553" dy="0em">is</tspan></text>
<rect y="196" x="658" height="42" width="42" fill="#004D40" fill-opacity="0.5"/>
<text y="217" x="679" dominant-baseline='middle' text-anchor='middle' fill='white' style='paint-order: stroke; fill: white; stroke: black; stroke-width: 1px; font-family="monospace"; font-size: 18px'><tspan x="679" dy="0em">3</tspan></text>

</svg>
