<?xml version="1.0"?>
<svg xmlns="http://www.w3.org/2000/svg" height="280" width="658">
  <rect y="0" x="0" height="280" width="658" fill="black" />
  <rect y="0" x="0" height="14" width="14" fill="#757575"/>
    <rect y="0" x="14" height="14" width="14" fill="#757575"/>
    <rect y="0" x="28" height="14" width="14" fill="#757575"/>
    <rect y="0" x="42" height="14" width="14" fill="#757575"/>
    <rect y="0" x="56" height="14" width="14" fill="#757575"/>
    <rect y="0" x="70" height="14" width="14" fill="#757575"/>
    <rect y="0" x="84" height="14" width="14" fill="#757575"/>
    <rect y="0" x="98" height="14" width="14" fill="#757575"/>
    <rect y="0" x="112" height="14" width="14" fill="#757575"/>
    <rect y="0" x="126" height="14" width="14" fill="#757575"/>
    <rect y="0" x="140" height="14" width="14" fill="#757575"/>
    <rect y="0" x="154" height="14" width="14" fill="#757575"/>
    <rect y="0" x="168" height="14" width="14" fill="#757575"/>
    <rect y="0" x="182" height="14" width="14" fill="#757575"/>
    <rect y="0" x="196" height="14" width="14" fill="#757575"/>
    <rect y="0" x="210" height="14" width="14" fill="#757575"/>
    <rect y="0" x="224" height="14" width="14" fill="#757575"/>
    <rect y="0" x="238" height="14" width="14" fill="#757575"/>
    <rect y="0" x="252" height="14" width="14" fill="#757575"/>
    <rect y="0" x="266" height="14" width="14" fill="#757575"/>
    <rect y="0" x="280" height="14" width="14" fill="#757575"/>
    <rect y="0" x="294" height="14" width="14" fill="#757575"/>
    <rect y="0" x="308" height="14" width="14" fill="#757575"/>
    <rect y="0" x="322" height="14" width="14" fill="#757575"/>
    <rect y="0" x="336" height="14" width="14" fill="#757575"/>
    <rect y="0" x="350" height="14" width="14" fill="#757575"/>
    <rect y="0" x="364" height="14" width="14" fill="#757575"/>
    <rect y="0" x="378" height="14" width="14" fill="#757575"/>
    <rect y="0" x="392" height="14" width="14" fill="#757575"/>
    <rect y="0" x="406" height="14" width="14" fill="#757575"/>
    <rect y="0" x="420" height="14" width="14" fill="#757575"/>
    <rect y="0" x="434" height="14" width="14" fill="#757575"/>
    <rect y="0" x="448" height="14" width="14" fill="#757575"/>
    <rect y="0" x="462" height="14" width="14" fill="#757575"/>
    <rect y="0" x="476" height="14" width="14" fill="#757575"/>
    <rect y="0" x="490" height="14" width="14" fill="#757575"/>
    <rect y="0" x="504" height="14" width="14" fill="#757575"/>
    <rect y="0" x="518" height="14" width="14" fill="#757575"/>
    <rect y="0" x="532" height="14" width="14" fill="#757575"/>
    <rect y="0" x="546" height="14" width="14" fill="#757575"/>
    <rect y="0" x="560" height="14" width="14" fill="#757575"/>
    <rect y="0" x="574" height="14" width="14" fill="#757575"/>
    <rect y="0" x="588" height="14" width="14" fill="#757575"/>
    <rect y="0" x="602" height="14" width="14" fill="#757575"/>
    <rect y="0" x="616" height="14" width="14" fill="#757575"/>
    <rect y="0" x="630" height="14" width="14" fill="#757575"/>
    <rect y="0" x="644" height="14" width="14" fill="#757575"/>
    <rect y="14" x="0" height="14" width="14" fill="#757575"/>
    <rect y="14" x="644" height="14" width="14" fill="#757575"/>
    <rect y="28" x="0" height="14" width="14" fill="#757575"/>
    <rect y="28" x="28" height="14" width="14" fill="#757575"/>
    <rect y="28" x="42" height="14" width="14" fill="#757575"/>
    <rect y="28" x="56" height="14" width="14" fill="#757575"/>
    <rect y="28" x="70" height="14" width="14" fill="#757575"/>
    <rect y="28" x="644" height="14" width="14" fill="#757575"/>
    <rect y="42" x="0" height="14" width="14" fill="#757575"/>
    <rect y="42" x="28" height="14" width="14" fill="#757575"/>
    <rect y="42" x="42" height="14" width="14" fill="#757575"/>
    <rect y="42" x="70" height="14" width="14" fill="#757575"/>
    <rect y="42" x="644" height="14" width="14" fill="#757575"/>
    <rect y="56" x="0" height="14" width="14" fill="#757575"/>
    <rect y="56" x="28" height="14" width="14" fill="#757575"/>
    <rect y="56" x="56" height="14" width="14" fill="#757575"/>
    <rect y="56" x="644" height="14" width="14" fill="#757575"/>
    <rect y="70" x="0" height="14" width="14" fill="#757575"/>
    <rect y="70" x="28" height="14" width="14" fill="#757575"/>
    <rect y="70" x="42" height="14" width="14" fill="#757575"/>
    <rect y="70" x="70" height="14" width="14" fill="#757575"/>
    <rect y="70" x="644" height="14" width="14" fill="#757575"/>
    <rect y="84" x="0" height="14" width="14" fill="#757575"/>
    <rect y="84" x="644" height="14" width="14" fill="#757575"/>
    <rect y="98" x="0" height="14" width="14" fill="#757575"/>
    <rect y="98" x="644" height="14" width="14" fill="#757575"/>
    <rect y="112" x="0" height="14" width="14" fill="#757575"/>
    <rect y="112" x="28" height="14" width="14" fill="#757575"/>
    <rect y="112" x="42" height="14" width="14" fill="#757575"/>
    <rect y="112" x="84" height="14" width="14" fill="#757575"/>
    <rect y="112" x="98" height="14" width="14" fill="#757575"/>
    <rect y="112" x="112" height="14" width="14" fill="#757575"/>
    <rect y="112" x="126" height="14" width="14" fill="#757575"/>
    <rect y="112" x="168" height="14" width="14" fill="#757575"/>
    <rect y="112" x="182" height="14" width="14" fill="#757575"/>
    <rect y="112" x="224" height="14" width="14" fill="#757575"/>
    <rect y="112" x="238" height="14" width="14" fill="#757575"/>
    <rect y="112" x="252" height="14" width="14" fill="#757575"/>
    <rect y="112" x="266" height="14" width="14" fill="#757575"/>
    <rect y="112" x="308" height="14" width="14" fill="#757575"/>
    <rect y="112" x="322" height="14" width="14" fill="#757575"/>
    <rect y="112" x="336" height="14" width="14" fill="#757575"/>
    <rect y="112" x="350" height="14" width="14" fill="#757575"/>
    <rect y="112" x="448" height="14" width="14" fill="#757575"/>
    <rect y="112" x="462" height="14" width="14" fill="#757575"/>
    <rect y="112" x="476" height="14" width="14" fill="#757575"/>
    <rect y="112" x="574" height="14" width="14" fill="#757575"/>
    <rect y="112" x="588" height="14" width="14" fill="#757575"/>
    <rect y="112" x="602" height="14" width="14" fill="#757575"/>
    <rect y="112" x="616" height="14" width="14" fill="#757575"/>
    <rect y="112" x="644" height="14" width="14" fill="#757575"/>
    <rect y="126" x="0" height="14" width="14" fill="#757575"/>
    <rect y="126" x="28" height="14" width="14" fill="#757575"/>
    <rect y="126" x="84" height="14" width="14" fill="#757575"/>
    <rect y="126" x="98" height="14" width="14" fill="#757575"/>
    <rect y="126" x="126" height="14" width="14" fill="#757575"/>
    <rect y="126" x="168" height="14" width="14" fill="#757575"/>
    <rect y="126" x="224" height="14" width="14" fill="#757575"/>
    <rect y="126" x="252" height="14" width="14" fill="#757575"/>
    <rect y="126" x="308" height="14" width="14" fill="#757575"/>
    <rect y="126" x="322" height="14" width="14" fill="#757575"/>
    <rect y="126" x="350" height="14" width="14" fill="#757575"/>
    <rect y="126" x="448" height="14" width="14" fill="#757575"/>
    <rect y="126" x="574" height="14" width="14" fill="#757575"/>
    <rect y="126" x="588" height="14" width="14" fill="#757575"/>
    <rect y="126" x="616" height="14" width="14" fill="#757575"/>
    <rect y="126" x="644" height="14" width="14" fill="#757575"/>
    <rect y="140" x="0" height="14" width="14" fill="#757575"/>
    <rect y="140" x="84" height="14" width="14" fill="#757575"/>
    <rect y="140" x="112" height="14" width="14" fill="#757575"/>
    <rect y="140" x="224" height="14" width="14" fill="#757575"/>
    <rect y="140" x="238" height="14" width="14" fill="#757575"/>
    <rect y="140" x="266" height="14" width="14" fill="#757575"/>
    <rect y="140" x="308" height="14" width="14" fill="#757575"/>
    <rect y="140" x="336" height="14" width="14" fill="#757575"/>
    <rect y="140" x="350" height="14" width="14" fill="#757575"/>
    <rect y="140" x="448" height="14" width="14" fill="#757575"/>
    <rect y="140" x="462" height="14" width="14" fill="#757575"/>
    <rect y="140" x="476" height="14" width="14" fill="#757575"/>
    <rect y="140" x="574" height="14" width="14" fill="#757575"/>
    <rect y="140" x="602" height="14" width="14" fill="#757575"/>
    <rect y="140" x="616" height="14" width="14" fill="#757575"/>
    <rect y="140" x="644" height="14" width="14" fill="#757575"/>
    <rect y="154" x="0" height="14" width="14" fill="#757575"/>
    <rect y="154" x="84" height="14" width="14" fill="#757575"/>
    <rect y="154" x="98" height="14" width="14" fill="#757575"/>
    <rect y="154" x="126" height="14" width="14" fill="#757575"/>
    <rect y="154" x="224" height="14" width="14" fill="#757575"/>
    <rect y="154" x="252" height="14" width="14" fill="#757575"/>
    <rect y="154" x="308" height="14" width="14" fill="#757575"/>
    <rect y="154" x="322" height="14" width="14" fill="#757575"/>
    <rect y="154" x="336" height="14" width="14" fill="#757575"/>
    <rect y="154" x="350" height="14" width="14" fill="#757575"/>
    <rect y="154" x="574" height="14" width="14" fill="#757575"/>
    <rect y="154" x="588" height="14" width="14" fill="#757575"/>
    <rect y="154" x="602" height="14" width="14" fill="#757575"/>
    <rect y="154" x="616" height="14" width="14" fill="#757575"/>
    <rect y="154" x="644" height="14" width="14" fill="#757575"/>
    <rect y="168" x="0" height="14" width="14" fill="#757575"/>
    <rect y="168" x="644" height="14" width="14" fill="#757575"/>
    <rect y="182" x="0" height="14" width="14" fill="#757575"/>
    <rect y="182" x="644" height="14" width="14" fill="#757575"/>
    <rect y="196" x="0" height="14" width="14" fill="#757575"/>
    <rect y="196" x="28" height="14" width="14" fill="#757575"/>
    <rect y="196" x="42" height="14" width="14" fill="#757575"/>
    <rect y="196" x="84" height="14" width="14" fill="#757575"/>
    <rect y="196" x="98" height="14" width="14" fill="#757575"/>
    <rect y="196" x="112" height="14" width="14" fill="#757575"/>
    <rect y="196" x="126" height="14" width="14" fill="#757575"/>
    <rect y="196" x="168" height="14" width="14" fill="#757575"/>
    <rect y="196" x="182" height="14" width="14" fill="#757575"/>
    <rect y="196" x="224" height="14" width="14" fill="#757575"/>
    <rect y="196" x="238" height="14" width="14" fill="#757575"/>
    <rect y="196" x="252" height="14" width="14" fill="#757575"/>
    <rect y="196" x="266" height="14" width="14" fill="#757575"/>
    <rect y="196" x="308" height="14" width="14" fill="#757575"/>
    <rect y="196" x="322" height="14" width="14" fill="#757575"/>
    <rect y="196" x="336" height="14" width="14" fill="#757575"/>
    <rect y="196" x="350" height="14" width="14" fill="#757575"/>
    <rect y="196" x="448" height="14" width="14" fill="#757575"/>
    <rect y="196" x="462" height="14" width="14" fill="#757575"/>
    <rect y="196" x="476" height="14" width="14" fill="#757575"/>
    <rect y="196" x="574" height="14" width="14" fill="#757575"/>
    <rect y="196" x="588" height="14" width="14" fill="#757575"/>
    <rect y="196" x="602" height="14" width="14" fill="#757575"/>
    <rect y="196" x="616" height="14" width="14" fill="#757575"/>
    <rect y="196" x="644" height="14" width="14" fill="#757575"/>
    <rect y="210" x="0" height="14" width="14" fill="#757575"/>
    <rect y="210" x="28" height="14" width="14" fill="#757575"/>
    <rect y="210" x="84" height="14" width="14" fill="#757575"/>
    <rect y="210" x="112" height="14" width="14" fill="#757575"/>
    <rect y="210" x="168" height="14" width="14" fill="#757575"/>
    <rect y="210" x="224" height="14" width="14" fill="#757575"/>
    <rect y="210" x="238" height="14" width="14" fill="#757575"/>
    <rect y="210" x="266" height="14" width="14" fill="#757575"/>
    <rect y="210" x="308" height="14" width="14" fill="#757575"/>
    <rect y="210" x="322" height="14" width="14" fill="#757575"/>
    <rect y="210" x="350" height="14" width="14" fill="#757575"/>
    <rect y="210" x="448" height="14" width="14" fill="#757575"/>
    <rect y="210" x="574" height="14" width="14" fill="#757575"/>
    <rect y="210" x="588" height="14" width="14" fill="#757575"/>
    <rect y="210" x="616" height="14" width="14" fill="#757575"/>
    <rect y="210" x="644" height="14" width="14" fill="#757575"/>
    <rect y="224" x="0" height="14" width="14" fill="#757575"/>
    <rect y="224" x="84" height="14" width="14" fill="#757575"/>
    <rect y="224" x="98" height="14" width="14" fill="#757575"/>
    <rect y="224" x="126" height="14" width="14" fill="#757575"/>
    <rect y="224" x="224" height="14" width="14" fill="#757575"/>
    <rect y="224" x="252" height="14" width="14" fill="#757575"/>
    <rect y="224" x="308" height="14" width="14" fill="#757575"/>
    <rect y="224" x="336" height="14" width="14" fill="#757575"/>
    <rect y="224" x="350" height="14" width="14" fill="#757575"/>
    <rect y="224" x="448" height="14" width="14" fill="#757575"/>
    <rect y="224" x="462" height="14" width="14" fill="#757575"/>
    <rect y="224" x="476" height="14" width="14" fill="#757575"/>
    <rect y="224" x="574" height="14" width="14" fill="#757575"/>
    <rect y="224" x="602" height="14" width="14" fill="#757575"/>
    <rect y="224" x="616" height="14" width="14" fill="#757575"/>
    <rect y="224" x="644" height="14" width="14" fill="#757575"/>
    <rect y="238" x="0" height="14" width="14" fill="#757575"/>
    <rect y="238" x="84" height="14" width="14" fill="#757575"/>
    <rect y="238" x="112" height="14" width="14" fill="#757575"/>
    <rect y="238" x="224" height="14" width="14" fill="#757575"/>
    <rect y="238" x="238" height="14" width="14" fill="#757575"/>
    <rect y="238" x="266" height="14" width="14" fill="#757575"/>
    <rect y="238" x="308" height="14" width="14" fill="#757575"/>
    <rect y="238" x="322" height="14" width="14" fill="#757575"/>
    <rect y="238" x="336" height="14" width="14" fill="#757575"/>
    <rect y="238" x="350" height="14" width="14" fill="#757575"/>
    <rect y="238" x="574" height="14" width="14" fill="#757575"/>
    <rect y="238" x="588" height="14" width="14" fill="#757575"/>
    <rect y="238" x="602" height="14" width="14" fill="#757575"/>
    <rect y="238" x="616" height="14" width="14" fill="#757575"/>
    <rect y="238" x="644" height="14" width="14" fill="#757575"/>
    <rect y="252" x="0" height="14" width="14" fill="#757575"/>
    <rect y="252" x="644" height="14" width="14" fill="#757575"/>
    <rect y="266" x="0" height="14" width="14" fill="#757575"/>
    <rect y="266" x="14" height="14" width="14" fill="#757575"/>
    <rect y="266" x="28" height="14" width="14" fill="#757575"/>
    <rect y="266" x="42" height="14" width="14" fill="#757575"/>
    <rect y="266" x="56" height="14" width="14" fill="#757575"/>
    <rect y="266" x="70" height="14" width="14" fill="#757575"/>
    <rect y="266" x="84" height="14" width="14" fill="#757575"/>
    <rect y="266" x="98" height="14" width="14" fill="#757575"/>
    <rect y="266" x="112" height="14" width="14" fill="#757575"/>
    <rect y="266" x="126" height="14" width="14" fill="#757575"/>
    <rect y="266" x="140" height="14" width="14" fill="#757575"/>
    <rect y="266" x="154" height="14" width="14" fill="#757575"/>
    <rect y="266" x="168" height="14" width="14" fill="#757575"/>
    <rect y="266" x="182" height="14" width="14" fill="#757575"/>
    <rect y="266" x="196" height="14" width="14" fill="#757575"/>
    <rect y="266" x="210" height="14" width="14" fill="#757575"/>
    <rect y="266" x="224" height="14" width="14" fill="#757575"/>
    <rect y="266" x="238" height="14" width="14" fill="#757575"/>
    <rect y="266" x="252" height="14" width="14" fill="#757575"/>
    <rect y="266" x="266" height="14" width="14" fill="#757575"/>
    <rect y="266" x="280" height="14" width="14" fill="#757575"/>
    <rect y="266" x="294" height="14" width="14" fill="#757575"/>
    <rect y="266" x="308" height="14" width="14" fill="#757575"/>
    <rect y="266" x="322" height="14" width="14" fill="#757575"/>
    <rect y="266" x="336" height="14" width="14" fill="#757575"/>
    <rect y="266" x="350" height="14" width="14" fill="#757575"/>
    <rect y="266" x="364" height="14" width="14" fill="#757575"/>
    <rect y="266" x="378" height="14" width="14" fill="#757575"/>
    <rect y="266" x="392" height="14" width="14" fill="#757575"/>
    <rect y="266" x="406" height="14" width="14" fill="#757575"/>
    <rect y="266" x="420" height="14" width="14" fill="#757575"/>
    <rect y="266" x="434" height="14" width="14" fill="#757575"/>
    <rect y="266" x="448" height="14" width="14" fill="#757575"/>
    <rect y="266" x="462" height="14" width="14" fill="#757575"/>
    <rect y="266" x="476" height="14" width="14" fill="#757575"/>
    <rect y="266" x="490" height="14" width="14" fill="#757575"/>
    <rect y="266" x="504" height="14" width="14" fill="#757575"/>
    <rect y="266" x="518" height="14" width="14" fill="#757575"/>
    <rect y="266" x="532" height="14" width="14" fill="#757575"/>
    <rect y="266" x="546" height="14" width="14" fill="#757575"/>
    <rect y="266" x="560" height="14" width="14" fill="#757575"/>
    <rect y="266" x="574" height="14" width="14" fill="#757575"/>
    <rect y="266" x="588" height="14" width="14" fill="#757575"/>
    <rect y="266" x="602" height="14" width="14" fill="#757575"/>
    <rect y="266" x="616" height="14" width="14" fill="#757575"/>
    <rect y="266" x="630" height="14" width="14" fill="#757575"/>
    <rect y="266" x="644" height="14" width="14" fill="#757575"/>
    
  <rect y="28" x="28" height="56" width="56" fill="#827717" fill-opacity="0.5"/>
<text y="56" x="56" dominant-baseline='middle' text-anchor='middle' fill='white' style='paint-order: stroke; fill: white; stroke: black; stroke-width: 1px; font-family="monospace"; font-size: 18px'><tspan x="56" dy="0em">FromBin</tspan></text>
<rect y="112" x="28" height="28" width="28" fill="#827717" fill-opacity="0.5"/>
<text y="126" x="42" dominant-baseline='middle' text-anchor='middle' fill='white' style='paint-order: stroke; fill: white; stroke: black; stroke-width: 1px; font-family="monospace"; font-size: 18px'><tspan x="42" dy="0em">ap</tspan></text>
<rect y="112" x="84" height="56" width="56" fill="#827717" fill-opacity="0.5"/>
<text y="140" x="112" dominant-baseline='middle' text-anchor='middle' fill='white' style='paint-order: stroke; fill: white; stroke: black; stroke-width: 1px; font-family="monospace"; font-size: 18px'><tspan x="112" dy="0em">FromBin</tspan></text>
<rect y="112" x="168" height="28" width="28" fill="#827717" fill-opacity="0.5"/>
<text y="126" x="182" dominant-baseline='middle' text-anchor='middle' fill='white' style='paint-order: stroke; fill: white; stroke: black; stroke-width: 1px; font-family="monospace"; font-size: 18px'><tspan x="182" dy="0em">ap</tspan></text>
<rect y="112" x="224" height="56" width="56" fill="#827717" fill-opacity="0.5"/>
<text y="140" x="252" dominant-baseline='middle' text-anchor='middle' fill='white' style='paint-order: stroke; fill: white; stroke: black; stroke-width: 1px; font-family="monospace"; font-size: 18px'><tspan x="252" dy="0em">ToBin</tspan></text>
<rect y="112" x="308" height="56" width="56" fill="#004D40" fill-opacity="0.5"/>
<text y="140" x="336" dominant-baseline='middle' text-anchor='middle' fill='white' style='paint-order: stroke; fill: white; stroke: black; stroke-width: 1px; font-family="monospace"; font-size: 18px'><tspan x="336" dy="0em">x0</tspan></text>
<rect y="112" x="448" height="42" width="42" fill="#827717" fill-opacity="0.5"/>
<text y="133" x="469" dominant-baseline='middle' text-anchor='middle' fill='white' style='paint-order: stroke; fill: white; stroke: black; stroke-width: 1px; font-family="monospace"; font-size: 18px'><tspan x="469" dy="0em">is</tspan></text>
<rect y="112" x="574" height="56" width="56" fill="#004D40" fill-opacity="0.5"/>
<text y="140" x="602" dominant-baseline='middle' text-anchor='middle' fill='white' style='paint-order: stroke; fill: white; stroke: black; stroke-width: 1px; font-family="monospace"; font-size: 18px'><tspan x="602" dy="0em">x0</tspan></text>
<rect y="196" x="28" height="28" width="28" fill="#827717" fill-opacity="0.5"/>
<text y="210" x="42" dominant-baseline='middle' text-anchor='middle' fill='white' style='paint-order: stroke; fill: white; stroke: black; stroke-width: 1px; font-family="monospace"; font-size: 18px'><tspan x="42" dy="0em">ap</tspan></text>
<rect y="196" x="84" height="56" width="56" fill="#827717" fill-opacity="0.5"/>
<text y="224" x="112" dominant-baseline='middle' text-anchor='middle' fill='white' style='paint-order: stroke; fill: white; stroke: black; stroke-width: 1px; font-family="monospace"; font-size: 18px'><tspan x="112" dy="0em">ToBin</tspan></text>
<rect y="196" x="168" height="28" width="28" fill="#827717" fill-opacity="0.5"/>
<text y="210" x="182" dominant-baseline='middle' text-anchor='middle' fill='white' style='paint-order: stroke; fill: white; stroke: black; stroke-width: 1px; font-family="monospace"; font-size: 18px'><tspan x="182" dy="0em">ap</tspan></text>
<rect y="196" x="224" height="56" width="56" fill="#827717" fill-opacity="0.5"/>
<text y="224" x="252" dominant-baseline='middle' text-anchor='middle' fill='white' style='paint-order: stroke; fill: white; stroke: black; stroke-width: 1px; font-family="monospace"; font-size: 18px'><tspan x="252" dy="0em">FromBin</tspan></text>
<rect y="196" x="308" height="56" width="56" fill="#004D40" fill-opacity="0.5"/>
<text y="224" x="336" dominant-baseline='middle' text-anchor='middle' fill='white' style='paint-order: stroke; fill: white; stroke: black; stroke-width: 1px; font-family="monospace"; font-size: 18px'><tspan x="336" dy="0em">x0</tspan></text>
<rect y="196" x="448" height="42" width="42" fill="#827717" fill-opacity="0.5"/>
<text y="217" x="469" dominant-baseline='middle' text-anchor='middle' fill='white' style='paint-order: stroke; fill: white; stroke: black; stroke-width: 1px; font-family="monospace"; font-size: 18px'><tspan x="469" dy="0em">is</tspan></text>
<rect y="196" x="574" height="56" width="56" fill="#004D40" fill-opacity="0.5"/>
<text y="224" x="602" dominant-baseline='middle' text-anchor='middle' fill='white' style='paint-order: stroke; fill: white; stroke: black; stroke-width: 1px; font-family="monospace"; font-size: 18px'><tspan x="602" dy="0em">x0</tspan></text>

</svg>
