<?xml version="1.0"?>
<svg xmlns="http://www.w3.org/2000/svg" height="248" width="100">
  <rect y="0" x="0" height="248" width="100" fill="black" />
  <rect y="0" x="0" height="4" width="4" fill="white"/>
    <rect y="0" x="4" height="4" width="4" fill="white"/>
    <rect y="0" x="8" height="4" width="4" fill="white"/>
    <rect y="0" x="12" height="4" width="4" fill="white"/>
    <rect y="0" x="16" height="4" width="4" fill="white"/>
    <rect y="0" x="20" height="4" width="4" fill="white"/>
    <rect y="0" x="24" height="4" width="4" fill="white"/>
    <rect y="0" x="28" height="4" width="4" fill="white"/>
    <rect y="0" x="32" height="4" width="4" fill="white"/>
    <rect y="0" x="36" height="4" width="4" fill="white"/>
    <rect y="0" x="40" height="4" width="4" fill="white"/>
    <rect y="0" x="44" height="4" width="4" fill="white"/>
    <rect y="0" x="48" height="4" width="4" fill="white"/>
    <rect y="0" x="52" height="4" width="4" fill="white"/>
    <rect y="0" x="56" height="4" width="4" fill="white"/>
    <rect y="0" x="60" height="4" width="4" fill="white"/>
    <rect y="0" x="64" height="4" width="4" fill="white"/>
    <rect y="0" x="68" height="4" width="4" fill="white"/>
    <rect y="0" x="72" height="4" width="4" fill="white"/>
    <rect y="0" x="76" height="4" width="4" fill="white"/>
    <rect y="0" x="80" height="4" width="4" fill="white"/>
    <rect y="0" x="84" height="4" width="4" fill="white"/>
    <rect y="0" x="88" height="4" width="4" fill="white"/>
    <rect y="0" x="92" height="4" width="4" fill="white"/>
    <rect y="0" x="96" height="4" width="4" fill="white"/>
    <rect y="4" x="0" height="4" width="4" fill="white"/>
    <rect y="4" x="96" height="4" width="4" fill="white"/>
    <rect y="8" x="0" height="4" width="4" fill="white"/>
    <rect y="8" x="8" height="4" width="4" fill="white"/>
    <rect y="8" x="12" height="4" width="4" fill="white"/>
    <rect y="8" x="16" height="4" width="4" fill="white"/>
    <rect y="8" x="96" height="4" width="4" fill="white"/>
    <rect y="12" x="0" height="4" width="4" fill="white"/>
    <rect y="12" x="8" height="4" width="4" fill="white"/>
    <rect y="12" x="96" height="4" width="4" fill="white"/>
    <rect y="16" x="0" height="4" width="4" fill="white"/>
    <rect y="16" x="8" height="4" width="4" fill="white"/>
    <rect y="16" x="12" height="4" width="4" fill="white"/>
    <rect y="16" x="16" height="4" width="4" fill="white"/>
    <rect y="16" x="96" height="4" width="4" fill="white"/>
    <rect y="20" x="0" height="4" width="4" fill="white"/>
    <rect y="20" x="96" height="4" width="4" fill="white"/>
    <rect y="24" x="0" height="4" width="4" fill="white"/>
    <rect y="24" x="96" height="4" width="4" fill="white"/>
    <rect y="28" x="0" height="4" width="4" fill="white"/>
    <rect y="28" x="12" height="4" width="4" fill="white"/>
    <rect y="28" x="40" height="4" width="4" fill="white"/>
    <rect y="28" x="44" height="4" width="4" fill="white"/>
    <rect y="28" x="48" height="4" width="4" fill="white"/>
    <rect y="28" x="80" height="4" width="4" fill="white"/>
    <rect y="28" x="96" height="4" width="4" fill="white"/>
    <rect y="32" x="0" height="4" width="4" fill="white"/>
    <rect y="32" x="8" height="4" width="4" fill="white"/>
    <rect y="32" x="40" height="4" width="4" fill="white"/>
    <rect y="32" x="76" height="4" width="4" fill="white"/>
    <rect y="32" x="96" height="4" width="4" fill="white"/>
    <rect y="36" x="0" height="4" width="4" fill="white"/>
    <rect y="36" x="40" height="4" width="4" fill="white"/>
    <rect y="36" x="44" height="4" width="4" fill="white"/>
    <rect y="36" x="48" height="4" width="4" fill="white"/>
    <rect y="36" x="96" height="4" width="4" fill="white"/>
    <rect y="40" x="0" height="4" width="4" fill="white"/>
    <rect y="40" x="96" height="4" width="4" fill="white"/>
    <rect y="44" x="0" height="4" width="4" fill="white"/>
    <rect y="44" x="96" height="4" width="4" fill="white"/>
    <rect y="48" x="0" height="4" width="4" fill="white"/>
    <rect y="48" x="12" height="4" width="4" fill="white"/>
    <rect y="48" x="40" height="4" width="4" fill="white"/>
    <rect y="48" x="44" height="4" width="4" fill="white"/>
    <rect y="48" x="48" height="4" width="4" fill="white"/>
    <rect y="48" x="80" height="4" width="4" fill="white"/>
    <rect y="48" x="96" height="4" width="4" fill="white"/>
    <rect y="52" x="0" height="4" width="4" fill="white"/>
    <rect y="52" x="8" height="4" width="4" fill="white"/>
    <rect y="52" x="12" height="4" width="4" fill="white"/>
    <rect y="52" x="40" height="4" width="4" fill="white"/>
    <rect y="52" x="76" height="4" width="4" fill="white"/>
    <rect y="52" x="80" height="4" width="4" fill="white"/>
    <rect y="52" x="96" height="4" width="4" fill="white"/>
    <rect y="56" x="0" height="4" width="4" fill="white"/>
    <rect y="56" x="40" height="4" width="4" fill="white"/>
    <rect y="56" x="44" height="4" width="4" fill="white"/>
    <rect y="56" x="48" height="4" width="4" fill="white"/>
    <rect y="56" x="96" height="4" width="4" fill="white"/>
    <rect y="60" x="0" height="4" width="4" fill="white"/>
    <rect y="60" x="96" height="4" width="4" fill="white"/>
    <rect y="64" x="0" height="4" width="4" fill="white"/>
    <rect y="64" x="96" height="4" width="4" fill="white"/>
    <rect y="68" x="0" height="4" width="4" fill="white"/>
    <rect y="68" x="12" height="4" width="4" fill="white"/>
    <rect y="68" x="16" height="4" width="4" fill="white"/>
    <rect y="68" x="44" height="4" width="4" fill="white"/>
    <rect y="68" x="48" height="4" width="4" fill="white"/>
    <rect y="68" x="52" height="4" width="4" fill="white"/>
    <rect y="68" x="84" height="4" width="4" fill="white"/>
    <rect y="68" x="88" height="4" width="4" fill="white"/>
    <rect y="68" x="96" height="4" width="4" fill="white"/>
    <rect y="72" x="0" height="4" width="4" fill="white"/>
    <rect y="72" x="8" height="4" width="4" fill="white"/>
    <rect y="72" x="16" height="4" width="4" fill="white"/>
    <rect y="72" x="44" height="4" width="4" fill="white"/>
    <rect y="72" x="80" height="4" width="4" fill="white"/>
    <rect y="72" x="88" height="4" width="4" fill="white"/>
    <rect y="72" x="96" height="4" width="4" fill="white"/>
    <rect y="76" x="0" height="4" width="4" fill="white"/>
    <rect y="76" x="8" height="4" width="4" fill="white"/>
    <rect y="76" x="44" height="4" width="4" fill="white"/>
    <rect y="76" x="48" height="4" width="4" fill="white"/>
    <rect y="76" x="52" height="4" width="4" fill="white"/>
    <rect y="76" x="80" height="4" width="4" fill="white"/>
    <rect y="76" x="96" height="4" width="4" fill="white"/>
    <rect y="80" x="0" height="4" width="4" fill="white"/>
    <rect y="80" x="96" height="4" width="4" fill="white"/>
    <rect y="84" x="0" height="4" width="4" fill="white"/>
    <rect y="84" x="96" height="4" width="4" fill="white"/>
    <rect y="88" x="0" height="4" width="4" fill="white"/>
    <rect y="88" x="12" height="4" width="4" fill="white"/>
    <rect y="88" x="16" height="4" width="4" fill="white"/>
    <rect y="88" x="44" height="4" width="4" fill="white"/>
    <rect y="88" x="48" height="4" width="4" fill="white"/>
    <rect y="88" x="52" height="4" width="4" fill="white"/>
    <rect y="88" x="84" height="4" width="4" fill="white"/>
    <rect y="88" x="88" height="4" width="4" fill="white"/>
    <rect y="88" x="96" height="4" width="4" fill="white"/>
    <rect y="92" x="0" height="4" width="4" fill="white"/>
    <rect y="92" x="8" height="4" width="4" fill="white"/>
    <rect y="92" x="12" height="4" width="4" fill="white"/>
    <rect y="92" x="16" height="4" width="4" fill="white"/>
    <rect y="92" x="44" height="4" width="4" fill="white"/>
    <rect y="92" x="80" height="4" width="4" fill="white"/>
    <rect y="92" x="84" height="4" width="4" fill="white"/>
    <rect y="92" x="88" height="4" width="4" fill="white"/>
    <rect y="92" x="96" height="4" width="4" fill="white"/>
    <rect y="96" x="0" height="4" width="4" fill="white"/>
    <rect y="96" x="8" height="4" width="4" fill="white"/>
    <rect y="96" x="44" height="4" width="4" fill="white"/>
    <rect y="96" x="48" height="4" width="4" fill="white"/>
    <rect y="96" x="52" height="4" width="4" fill="white"/>
    <rect y="96" x="80" height="4" width="4" fill="white"/>
    <rect y="96" x="96" height="4" width="4" fill="white"/>
    <rect y="100" x="0" height="4" width="4" fill="white"/>
    <rect y="100" x="96" height="4" width="4" fill="white"/>
    <rect y="104" x="0" height="4" width="4" fill="white"/>
    <rect y="104" x="96" height="4" width="4" fill="white"/>
    <rect y="108" x="0" height="4" width="4" fill="white"/>
    <rect y="108" x="96" height="4" width="4" fill="white"/>
    <rect y="112" x="0" height="4" width="4" fill="white"/>
    <rect y="112" x="8" height="4" width="4" fill="white"/>
    <rect y="112" x="16" height="4" width="4" fill="white"/>
    <rect y="112" x="24" height="4" width="4" fill="white"/>
    <rect y="112" x="32" height="4" width="4" fill="white"/>
    <rect y="112" x="96" height="4" width="4" fill="white"/>
    <rect y="116" x="0" height="4" width="4" fill="white"/>
    <rect y="116" x="96" height="4" width="4" fill="white"/>
    <rect y="120" x="0" height="4" width="4" fill="white"/>
    <rect y="120" x="96" height="4" width="4" fill="white"/>
    <rect y="124" x="0" height="4" width="4" fill="white"/>
    <rect y="124" x="96" height="4" width="4" fill="white"/>
    <rect y="128" x="0" height="4" width="4" fill="white"/>
    <rect y="128" x="12" height="4" width="4" fill="white"/>
    <rect y="128" x="16" height="4" width="4" fill="white"/>
    <rect y="128" x="44" height="4" width="4" fill="white"/>
    <rect y="128" x="48" height="4" width="4" fill="white"/>
    <rect y="128" x="52" height="4" width="4" fill="white"/>
    <rect y="128" x="84" height="4" width="4" fill="white"/>
    <rect y="128" x="88" height="4" width="4" fill="white"/>
    <rect y="128" x="96" height="4" width="4" fill="white"/>
    <rect y="132" x="0" height="4" width="4" fill="white"/>
    <rect y="132" x="8" height="4" width="4" fill="white"/>
    <rect y="132" x="16" height="4" width="4" fill="white"/>
    <rect y="132" x="44" height="4" width="4" fill="white"/>
    <rect y="132" x="80" height="4" width="4" fill="white"/>
    <rect y="132" x="88" height="4" width="4" fill="white"/>
    <rect y="132" x="96" height="4" width="4" fill="white"/>
    <rect y="136" x="0" height="4" width="4" fill="white"/>
    <rect y="136" x="8" height="4" width="4" fill="white"/>
    <rect y="136" x="16" height="4" width="4" fill="white"/>
    <rect y="136" x="44" height="4" width="4" fill="white"/>
    <rect y="136" x="48" height="4" width="4" fill="white"/>
    <rect y="136" x="52" height="4" width="4" fill="white"/>
    <rect y="136" x="80" height="4" width="4" fill="white"/>
    <rect y="136" x="88" height="4" width="4" fill="white"/>
    <rect y="136" x="96" height="4" width="4" fill="white"/>
    <rect y="140" x="0" height="4" width="4" fill="white"/>
    <rect y="140" x="96" height="4" width="4" fill="white"/>
    <rect y="144" x="0" height="4" width="4" fill="white"/>
    <rect y="144" x="96" height="4" width="4" fill="white"/>
    <rect y="148" x="0" height="4" width="4" fill="white"/>
    <rect y="148" x="12" height="4" width="4" fill="white"/>
    <rect y="148" x="16" height="4" width="4" fill="white"/>
    <rect y="148" x="44" height="4" width="4" fill="white"/>
    <rect y="148" x="48" height="4" width="4" fill="white"/>
    <rect y="148" x="52" height="4" width="4" fill="white"/>
    <rect y="148" x="84" height="4" width="4" fill="white"/>
    <rect y="148" x="88" height="4" width="4" fill="white"/>
    <rect y="148" x="96" height="4" width="4" fill="white"/>
    <rect y="152" x="0" height="4" width="4" fill="white"/>
    <rect y="152" x="8" height="4" width="4" fill="white"/>
    <rect y="152" x="12" height="4" width="4" fill="white"/>
    <rect y="152" x="16" height="4" width="4" fill="white"/>
    <rect y="152" x="44" height="4" width="4" fill="white"/>
    <rect y="152" x="80" height="4" width="4" fill="white"/>
    <rect y="152" x="84" height="4" width="4" fill="white"/>
    <rect y="152" x="88" height="4" width="4" fill="white"/>
    <rect y="152" x="96" height="4" width="4" fill="white"/>
    <rect y="156" x="0" height="4" width="4" fill="white"/>
    <rect y="156" x="8" height="4" width="4" fill="white"/>
    <rect y="156" x="16" height="4" width="4" fill="white"/>
    <rect y="156" x="44" height="4" width="4" fill="white"/>
    <rect y="156" x="48" height="4" width="4" fill="white"/>
    <rect y="156" x="52" height="4" width="4" fill="white"/>
    <rect y="156" x="80" height="4" width="4" fill="white"/>
    <rect y="156" x="88" height="4" width="4" fill="white"/>
    <rect y="156" x="96" height="4" width="4" fill="white"/>
    <rect y="160" x="0" height="4" width="4" fill="white"/>
    <rect y="160" x="96" height="4" width="4" fill="white"/>
    <rect y="164" x="0" height="4" width="4" fill="white"/>
    <rect y="164" x="96" height="4" width="4" fill="white"/>
    <rect y="168" x="0" height="4" width="4" fill="white"/>
    <rect y="168" x="96" height="4" width="4" fill="white"/>
    <rect y="172" x="0" height="4" width="4" fill="white"/>
    <rect y="172" x="8" height="4" width="4" fill="white"/>
    <rect y="172" x="16" height="4" width="4" fill="white"/>
    <rect y="172" x="24" height="4" width="4" fill="white"/>
    <rect y="172" x="32" height="4" width="4" fill="white"/>
    <rect y="172" x="96" height="4" width="4" fill="white"/>
    <rect y="176" x="0" height="4" width="4" fill="white"/>
    <rect y="176" x="96" height="4" width="4" fill="white"/>
    <rect y="180" x="0" height="4" width="4" fill="white"/>
    <rect y="180" x="96" height="4" width="4" fill="white"/>
    <rect y="184" x="0" height="4" width="4" fill="white"/>
    <rect y="184" x="96" height="4" width="4" fill="white"/>
    <rect y="188" x="0" height="4" width="4" fill="white"/>
    <rect y="188" x="12" height="4" width="4" fill="white"/>
    <rect y="188" x="40" height="4" width="4" fill="white"/>
    <rect y="188" x="44" height="4" width="4" fill="white"/>
    <rect y="188" x="48" height="4" width="4" fill="white"/>
    <rect y="188" x="80" height="4" width="4" fill="white"/>
    <rect y="188" x="96" height="4" width="4" fill="white"/>
    <rect y="192" x="0" height="4" width="4" fill="white"/>
    <rect y="192" x="8" height="4" width="4" fill="white"/>
    <rect y="192" x="12" height="4" width="4" fill="white"/>
    <rect y="192" x="40" height="4" width="4" fill="white"/>
    <rect y="192" x="76" height="4" width="4" fill="white"/>
    <rect y="192" x="80" height="4" width="4" fill="white"/>
    <rect y="192" x="96" height="4" width="4" fill="white"/>
    <rect y="196" x="0" height="4" width="4" fill="white"/>
    <rect y="196" x="8" height="4" width="4" fill="white"/>
    <rect y="196" x="40" height="4" width="4" fill="white"/>
    <rect y="196" x="44" height="4" width="4" fill="white"/>
    <rect y="196" x="48" height="4" width="4" fill="white"/>
    <rect y="196" x="76" height="4" width="4" fill="white"/>
    <rect y="196" x="96" height="4" width="4" fill="white"/>
    <rect y="200" x="0" height="4" width="4" fill="white"/>
    <rect y="200" x="96" height="4" width="4" fill="white"/>
    <rect y="204" x="0" height="4" width="4" fill="white"/>
    <rect y="204" x="96" height="4" width="4" fill="white"/>
    <rect y="208" x="0" height="4" width="4" fill="white"/>
    <rect y="208" x="12" height="4" width="4" fill="white"/>
    <rect y="208" x="16" height="4" width="4" fill="white"/>
    <rect y="208" x="44" height="4" width="4" fill="white"/>
    <rect y="208" x="48" height="4" width="4" fill="white"/>
    <rect y="208" x="52" height="4" width="4" fill="white"/>
    <rect y="208" x="84" height="4" width="4" fill="white"/>
    <rect y="208" x="88" height="4" width="4" fill="white"/>
    <rect y="208" x="96" height="4" width="4" fill="white"/>
    <rect y="212" x="0" height="4" width="4" fill="white"/>
    <rect y="212" x="8" height="4" width="4" fill="white"/>
    <rect y="212" x="16" height="4" width="4" fill="white"/>
    <rect y="212" x="44" height="4" width="4" fill="white"/>
    <rect y="212" x="80" height="4" width="4" fill="white"/>
    <rect y="212" x="88" height="4" width="4" fill="white"/>
    <rect y="212" x="96" height="4" width="4" fill="white"/>
    <rect y="216" x="0" height="4" width="4" fill="white"/>
    <rect y="216" x="8" height="4" width="4" fill="white"/>
    <rect y="216" x="44" height="4" width="4" fill="white"/>
    <rect y="216" x="48" height="4" width="4" fill="white"/>
    <rect y="216" x="52" height="4" width="4" fill="white"/>
    <rect y="216" x="80" height="4" width="4" fill="white"/>
    <rect y="216" x="96" height="4" width="4" fill="white"/>
    <rect y="220" x="0" height="4" width="4" fill="white"/>
    <rect y="220" x="8" height="4" width="4" fill="white"/>
    <rect y="220" x="80" height="4" width="4" fill="white"/>
    <rect y="220" x="96" height="4" width="4" fill="white"/>
    <rect y="224" x="0" height="4" width="4" fill="white"/>
    <rect y="224" x="96" height="4" width="4" fill="white"/>
    <rect y="228" x="0" height="4" width="4" fill="white"/>
    <rect y="228" x="96" height="4" width="4" fill="white"/>
    <rect y="232" x="0" height="4" width="4" fill="white"/>
    <rect y="232" x="96" height="4" width="4" fill="white"/>
    <rect y="236" x="0" height="4" width="4" fill="white"/>
    <rect y="236" x="8" height="4" width="4" fill="white"/>
    <rect y="236" x="16" height="4" width="4" fill="white"/>
    <rect y="236" x="24" height="4" width="4" fill="white"/>
    <rect y="236" x="32" height="4" width="4" fill="white"/>
    <rect y="236" x="96" height="4" width="4" fill="white"/>
    <rect y="240" x="0" height="4" width="4" fill="white"/>
    <rect y="240" x="96" height="4" width="4" fill="white"/>
    <rect y="244" x="0" height="4" width="4" fill="white"/>
    <rect y="244" x="4" height="4" width="4" fill="white"/>
    <rect y="244" x="8" height="4" width="4" fill="white"/>
    <rect y="244" x="12" height="4" width="4" fill="white"/>
    <rect y="244" x="16" height="4" width="4" fill="white"/>
    <rect y="244" x="20" height="4" width="4" fill="white"/>
    <rect y="244" x="24" height="4" width="4" fill="white"/>
    <rect y="244" x="28" height="4" width="4" fill="white"/>
    <rect y="244" x="32" height="4" width="4" fill="white"/>
    <rect y="244" x="36" height="4" width="4" fill="white"/>
    <rect y="244" x="40" height="4" width="4" fill="white"/>
    <rect y="244" x="44" height="4" width="4" fill="white"/>
    <rect y="244" x="48" height="4" width="4" fill="white"/>
    <rect y="244" x="52" height="4" width="4" fill="white"/>
    <rect y="244" x="56" height="4" width="4" fill="white"/>
    <rect y="244" x="60" height="4" width="4" fill="white"/>
    <rect y="244" x="64" height="4" width="4" fill="white"/>
    <rect y="244" x="68" height="4" width="4" fill="white"/>
    <rect y="244" x="72" height="4" width="4" fill="white"/>
    <rect y="244" x="76" height="4" width="4" fill="white"/>
    <rect y="244" x="80" height="4" width="4" fill="white"/>
    <rect y="244" x="84" height="4" width="4" fill="white"/>
    <rect y="244" x="88" height="4" width="4" fill="white"/>
    <rect y="244" x="92" height="4" width="4" fill="white"/>
    <rect y="244" x="96" height="4" width="4" fill="white"/>
    
  <rect y="8" x="8" height="12" width="12" fill="green" fill-opacity="0.4"/>
<text y="14" x="14" dominant-baseline='middle' text-anchor='middle' fill='white' style='paint-order: stroke; fill: white; stroke: black; stroke-width: 2px; font-size: 10px'>==</text>
<rect y="28" x="8" height="8" width="8" fill="yellow" fill-opacity="0.4"/>
<text y="32" x="12" dominant-baseline='middle' text-anchor='middle' fill='white' style='paint-order: stroke; fill: white; stroke: black; stroke-width: 2px; font-size: 10px'>0</text>
<rect y="28" x="40" height="12" width="12" fill="green" fill-opacity="0.4"/>
<text y="34" x="46" dominant-baseline='middle' text-anchor='middle' fill='white' style='paint-order: stroke; fill: white; stroke: black; stroke-width: 2px; font-size: 10px'>==</text>
<rect y="28" x="76" height="8" width="8" fill="yellow" fill-opacity="0.4"/>
<text y="32" x="80" dominant-baseline='middle' text-anchor='middle' fill='white' style='paint-order: stroke; fill: white; stroke: black; stroke-width: 2px; font-size: 10px'>0</text>
<rect y="48" x="8" height="8" width="8" fill="yellow" fill-opacity="0.4"/>
<text y="52" x="12" dominant-baseline='middle' text-anchor='middle' fill='white' style='paint-order: stroke; fill: white; stroke: black; stroke-width: 2px; font-size: 10px'>1</text>
<rect y="48" x="40" height="12" width="12" fill="green" fill-opacity="0.4"/>
<text y="54" x="46" dominant-baseline='middle' text-anchor='middle' fill='white' style='paint-order: stroke; fill: white; stroke: black; stroke-width: 2px; font-size: 10px'>==</text>
<rect y="48" x="76" height="8" width="8" fill="yellow" fill-opacity="0.4"/>
<text y="52" x="80" dominant-baseline='middle' text-anchor='middle' fill='white' style='paint-order: stroke; fill: white; stroke: black; stroke-width: 2px; font-size: 10px'>1</text>
<rect y="68" x="8" height="12" width="12" fill="yellow" fill-opacity="0.4"/>
<text y="74" x="14" dominant-baseline='middle' text-anchor='middle' fill='white' style='paint-order: stroke; fill: white; stroke: black; stroke-width: 2px; font-size: 10px'>2</text>
<rect y="68" x="44" height="12" width="12" fill="green" fill-opacity="0.4"/>
<text y="74" x="50" dominant-baseline='middle' text-anchor='middle' fill='white' style='paint-order: stroke; fill: white; stroke: black; stroke-width: 2px; font-size: 10px'>==</text>
<rect y="68" x="80" height="12" width="12" fill="yellow" fill-opacity="0.4"/>
<text y="74" x="86" dominant-baseline='middle' text-anchor='middle' fill='white' style='paint-order: stroke; fill: white; stroke: black; stroke-width: 2px; font-size: 10px'>2</text>
<rect y="88" x="8" height="12" width="12" fill="yellow" fill-opacity="0.4"/>
<text y="94" x="14" dominant-baseline='middle' text-anchor='middle' fill='white' style='paint-order: stroke; fill: white; stroke: black; stroke-width: 2px; font-size: 10px'>3</text>
<rect y="88" x="44" height="12" width="12" fill="green" fill-opacity="0.4"/>
<text y="94" x="50" dominant-baseline='middle' text-anchor='middle' fill='white' style='paint-order: stroke; fill: white; stroke: black; stroke-width: 2px; font-size: 10px'>==</text>
<rect y="88" x="80" height="12" width="12" fill="yellow" fill-opacity="0.4"/>
<text y="94" x="86" dominant-baseline='middle' text-anchor='middle' fill='white' style='paint-order: stroke; fill: white; stroke: black; stroke-width: 2px; font-size: 10px'>3</text>
<rect y="112" x="8" height="4" width="28" fill="black" fill-opacity="0.4"/>
<text y="114" x="22" dominant-baseline='middle' text-anchor='middle' fill='white' style='paint-order: stroke; fill: white; stroke: black; stroke-width: 2px; font-size: 10px'>...</text>
<rect y="128" x="8" height="12" width="12" fill="yellow" fill-opacity="0.4"/>
<text y="134" x="14" dominant-baseline='middle' text-anchor='middle' fill='white' style='paint-order: stroke; fill: white; stroke: black; stroke-width: 2px; font-size: 10px'>10</text>
<rect y="128" x="44" height="12" width="12" fill="green" fill-opacity="0.4"/>
<text y="134" x="50" dominant-baseline='middle' text-anchor='middle' fill='white' style='paint-order: stroke; fill: white; stroke: black; stroke-width: 2px; font-size: 10px'>==</text>
<rect y="128" x="80" height="12" width="12" fill="yellow" fill-opacity="0.4"/>
<text y="134" x="86" dominant-baseline='middle' text-anchor='middle' fill='white' style='paint-order: stroke; fill: white; stroke: black; stroke-width: 2px; font-size: 10px'>10</text>
<rect y="148" x="8" height="12" width="12" fill="yellow" fill-opacity="0.4"/>
<text y="154" x="14" dominant-baseline='middle' text-anchor='middle' fill='white' style='paint-order: stroke; fill: white; stroke: black; stroke-width: 2px; font-size: 10px'>11</text>
<rect y="148" x="44" height="12" width="12" fill="green" fill-opacity="0.4"/>
<text y="154" x="50" dominant-baseline='middle' text-anchor='middle' fill='white' style='paint-order: stroke; fill: white; stroke: black; stroke-width: 2px; font-size: 10px'>==</text>
<rect y="148" x="80" height="12" width="12" fill="yellow" fill-opacity="0.4"/>
<text y="154" x="86" dominant-baseline='middle' text-anchor='middle' fill='white' style='paint-order: stroke; fill: white; stroke: black; stroke-width: 2px; font-size: 10px'>11</text>
<rect y="172" x="8" height="4" width="28" fill="black" fill-opacity="0.4"/>
<text y="174" x="22" dominant-baseline='middle' text-anchor='middle' fill='white' style='paint-order: stroke; fill: white; stroke: black; stroke-width: 2px; font-size: 10px'>...</text>
<rect y="188" x="8" height="12" width="8" fill="yellow" fill-opacity="0.4"/>
<text y="194" x="12" dominant-baseline='middle' text-anchor='middle' fill='white' style='paint-order: stroke; fill: white; stroke: black; stroke-width: 2px; font-size: 10px'>-1</text>
<rect y="188" x="40" height="12" width="12" fill="green" fill-opacity="0.4"/>
<text y="194" x="46" dominant-baseline='middle' text-anchor='middle' fill='white' style='paint-order: stroke; fill: white; stroke: black; stroke-width: 2px; font-size: 10px'>==</text>
<rect y="188" x="76" height="12" width="8" fill="yellow" fill-opacity="0.4"/>
<text y="194" x="80" dominant-baseline='middle' text-anchor='middle' fill='white' style='paint-order: stroke; fill: white; stroke: black; stroke-width: 2px; font-size: 10px'>-1</text>
<rect y="208" x="8" height="16" width="12" fill="yellow" fill-opacity="0.4"/>
<text y="216" x="14" dominant-baseline='middle' text-anchor='middle' fill='white' style='paint-order: stroke; fill: white; stroke: black; stroke-width: 2px; font-size: 10px'>-2</text>
<rect y="208" x="44" height="12" width="12" fill="green" fill-opacity="0.4"/>
<text y="214" x="50" dominant-baseline='middle' text-anchor='middle' fill='white' style='paint-order: stroke; fill: white; stroke: black; stroke-width: 2px; font-size: 10px'>==</text>
<rect y="208" x="80" height="16" width="12" fill="yellow" fill-opacity="0.4"/>
<text y="216" x="86" dominant-baseline='middle' text-anchor='middle' fill='white' style='paint-order: stroke; fill: white; stroke: black; stroke-width: 2px; font-size: 10px'>-2</text>
<rect y="236" x="8" height="4" width="28" fill="black" fill-opacity="0.4"/>
<text y="238" x="22" dominant-baseline='middle' text-anchor='middle' fill='white' style='paint-order: stroke; fill: white; stroke: black; stroke-width: 2px; font-size: 10px'>...</text>

</svg>
