<?xml version="1.0"?>
<svg xmlns="http://www.w3.org/2000/svg" height="168" width="176">
  <rect y="0" x="0" height="168" width="176" fill="black" />
  <rect y="0" x="0" height="4" width="4" fill="white"/>
    <rect y="0" x="4" height="4" width="4" fill="white"/>
    <rect y="0" x="8" height="4" width="4" fill="white"/>
    <rect y="0" x="12" height="4" width="4" fill="white"/>
    <rect y="0" x="16" height="4" width="4" fill="white"/>
    <rect y="0" x="20" height="4" width="4" fill="white"/>
    <rect y="0" x="24" height="4" width="4" fill="white"/>
    <rect y="0" x="28" height="4" width="4" fill="white"/>
    <rect y="0" x="32" height="4" width="4" fill="white"/>
    <rect y="0" x="36" height="4" width="4" fill="white"/>
    <rect y="0" x="40" height="4" width="4" fill="white"/>
    <rect y="0" x="44" height="4" width="4" fill="white"/>
    <rect y="0" x="48" height="4" width="4" fill="white"/>
    <rect y="0" x="52" height="4" width="4" fill="white"/>
    <rect y="0" x="56" height="4" width="4" fill="white"/>
    <rect y="0" x="60" height="4" width="4" fill="white"/>
    <rect y="0" x="64" height="4" width="4" fill="white"/>
    <rect y="0" x="68" height="4" width="4" fill="white"/>
    <rect y="0" x="72" height="4" width="4" fill="white"/>
    <rect y="0" x="76" height="4" width="4" fill="white"/>
    <rect y="0" x="80" height="4" width="4" fill="white"/>
    <rect y="0" x="84" height="4" width="4" fill="white"/>
    <rect y="0" x="88" height="4" width="4" fill="white"/>
    <rect y="0" x="92" height="4" width="4" fill="white"/>
    <rect y="0" x="96" height="4" width="4" fill="white"/>
    <rect y="0" x="100" height="4" width="4" fill="white"/>
    <rect y="0" x="104" height="4" width="4" fill="white"/>
    <rect y="0" x="108" height="4" width="4" fill="white"/>
    <rect y="0" x="112" height="4" width="4" fill="white"/>
    <rect y="0" x="116" height="4" width="4" fill="white"/>
    <rect y="0" x="120" height="4" width="4" fill="white"/>
    <rect y="0" x="124" height="4" width="4" fill="white"/>
    <rect y="0" x="128" height="4" width="4" fill="white"/>
    <rect y="0" x="132" height="4" width="4" fill="white"/>
    <rect y="0" x="136" height="4" width="4" fill="white"/>
    <rect y="0" x="140" height="4" width="4" fill="white"/>
    <rect y="0" x="144" height="4" width="4" fill="white"/>
    <rect y="0" x="148" height="4" width="4" fill="white"/>
    <rect y="0" x="152" height="4" width="4" fill="white"/>
    <rect y="0" x="156" height="4" width="4" fill="white"/>
    <rect y="0" x="160" height="4" width="4" fill="white"/>
    <rect y="0" x="164" height="4" width="4" fill="white"/>
    <rect y="0" x="168" height="4" width="4" fill="white"/>
    <rect y="0" x="172" height="4" width="4" fill="white"/>
    <rect y="4" x="0" height="4" width="4" fill="white"/>
    <rect y="4" x="172" height="4" width="4" fill="white"/>
    <rect y="8" x="0" height="4" width="4" fill="white"/>
    <rect y="8" x="8" height="4" width="4" fill="white"/>
    <rect y="8" x="12" height="4" width="4" fill="white"/>
    <rect y="8" x="16" height="4" width="4" fill="white"/>
    <rect y="8" x="20" height="4" width="4" fill="white"/>
    <rect y="8" x="172" height="4" width="4" fill="white"/>
    <rect y="12" x="0" height="4" width="4" fill="white"/>
    <rect y="12" x="8" height="4" width="4" fill="white"/>
    <rect y="12" x="12" height="4" width="4" fill="white"/>
    <rect y="12" x="20" height="4" width="4" fill="white"/>
    <rect y="12" x="172" height="4" width="4" fill="white"/>
    <rect y="16" x="0" height="4" width="4" fill="white"/>
    <rect y="16" x="8" height="4" width="4" fill="white"/>
    <rect y="16" x="12" height="4" width="4" fill="white"/>
    <rect y="16" x="20" height="4" width="4" fill="white"/>
    <rect y="16" x="172" height="4" width="4" fill="white"/>
    <rect y="20" x="0" height="4" width="4" fill="white"/>
    <rect y="20" x="8" height="4" width="4" fill="white"/>
    <rect y="20" x="12" height="4" width="4" fill="white"/>
    <rect y="20" x="20" height="4" width="4" fill="white"/>
    <rect y="20" x="172" height="4" width="4" fill="white"/>
    <rect y="24" x="0" height="4" width="4" fill="white"/>
    <rect y="24" x="172" height="4" width="4" fill="white"/>
    <rect y="28" x="0" height="4" width="4" fill="white"/>
    <rect y="28" x="172" height="4" width="4" fill="white"/>
    <rect y="32" x="0" height="4" width="4" fill="white"/>
    <rect y="32" x="8" height="4" width="4" fill="white"/>
    <rect y="32" x="12" height="4" width="4" fill="white"/>
    <rect y="32" x="24" height="4" width="4" fill="white"/>
    <rect y="32" x="28" height="4" width="4" fill="white"/>
    <rect y="32" x="40" height="4" width="4" fill="white"/>
    <rect y="32" x="44" height="4" width="4" fill="white"/>
    <rect y="32" x="48" height="4" width="4" fill="white"/>
    <rect y="32" x="52" height="4" width="4" fill="white"/>
    <rect y="32" x="68" height="4" width="4" fill="white"/>
    <rect y="32" x="84" height="4" width="4" fill="white"/>
    <rect y="32" x="88" height="4" width="4" fill="white"/>
    <rect y="32" x="116" height="4" width="4" fill="white"/>
    <rect y="32" x="120" height="4" width="4" fill="white"/>
    <rect y="32" x="124" height="4" width="4" fill="white"/>
    <rect y="32" x="156" height="4" width="4" fill="white"/>
    <rect y="32" x="160" height="4" width="4" fill="white"/>
    <rect y="32" x="172" height="4" width="4" fill="white"/>
    <rect y="36" x="0" height="4" width="4" fill="white"/>
    <rect y="36" x="8" height="4" width="4" fill="white"/>
    <rect y="36" x="24" height="4" width="4" fill="white"/>
    <rect y="36" x="40" height="4" width="4" fill="white"/>
    <rect y="36" x="44" height="4" width="4" fill="white"/>
    <rect y="36" x="52" height="4" width="4" fill="white"/>
    <rect y="36" x="64" height="4" width="4" fill="white"/>
    <rect y="36" x="68" height="4" width="4" fill="white"/>
    <rect y="36" x="80" height="4" width="4" fill="white"/>
    <rect y="36" x="88" height="4" width="4" fill="white"/>
    <rect y="36" x="116" height="4" width="4" fill="white"/>
    <rect y="36" x="152" height="4" width="4" fill="white"/>
    <rect y="36" x="156" height="4" width="4" fill="white"/>
    <rect y="36" x="160" height="4" width="4" fill="white"/>
    <rect y="36" x="172" height="4" width="4" fill="white"/>
    <rect y="40" x="0" height="4" width="4" fill="white"/>
    <rect y="40" x="40" height="4" width="4" fill="white"/>
    <rect y="40" x="44" height="4" width="4" fill="white"/>
    <rect y="40" x="52" height="4" width="4" fill="white"/>
    <rect y="40" x="80" height="4" width="4" fill="white"/>
    <rect y="40" x="116" height="4" width="4" fill="white"/>
    <rect y="40" x="120" height="4" width="4" fill="white"/>
    <rect y="40" x="124" height="4" width="4" fill="white"/>
    <rect y="40" x="152" height="4" width="4" fill="white"/>
    <rect y="40" x="172" height="4" width="4" fill="white"/>
    <rect y="44" x="0" height="4" width="4" fill="white"/>
    <rect y="44" x="40" height="4" width="4" fill="white"/>
    <rect y="44" x="44" height="4" width="4" fill="white"/>
    <rect y="44" x="52" height="4" width="4" fill="white"/>
    <rect y="44" x="172" height="4" width="4" fill="white"/>
    <rect y="48" x="0" height="4" width="4" fill="white"/>
    <rect y="48" x="172" height="4" width="4" fill="white"/>
    <rect y="52" x="0" height="4" width="4" fill="white"/>
    <rect y="52" x="172" height="4" width="4" fill="white"/>
    <rect y="56" x="0" height="4" width="4" fill="white"/>
    <rect y="56" x="8" height="4" width="4" fill="white"/>
    <rect y="56" x="12" height="4" width="4" fill="white"/>
    <rect y="56" x="24" height="4" width="4" fill="white"/>
    <rect y="56" x="28" height="4" width="4" fill="white"/>
    <rect y="56" x="40" height="4" width="4" fill="white"/>
    <rect y="56" x="44" height="4" width="4" fill="white"/>
    <rect y="56" x="48" height="4" width="4" fill="white"/>
    <rect y="56" x="52" height="4" width="4" fill="white"/>
    <rect y="56" x="68" height="4" width="4" fill="white"/>
    <rect y="56" x="72" height="4" width="4" fill="white"/>
    <rect y="56" x="88" height="4" width="4" fill="white"/>
    <rect y="56" x="116" height="4" width="4" fill="white"/>
    <rect y="56" x="120" height="4" width="4" fill="white"/>
    <rect y="56" x="124" height="4" width="4" fill="white"/>
    <rect y="56" x="156" height="4" width="4" fill="white"/>
    <rect y="56" x="160" height="4" width="4" fill="white"/>
    <rect y="56" x="172" height="4" width="4" fill="white"/>
    <rect y="60" x="0" height="4" width="4" fill="white"/>
    <rect y="60" x="8" height="4" width="4" fill="white"/>
    <rect y="60" x="24" height="4" width="4" fill="white"/>
    <rect y="60" x="40" height="4" width="4" fill="white"/>
    <rect y="60" x="44" height="4" width="4" fill="white"/>
    <rect y="60" x="52" height="4" width="4" fill="white"/>
    <rect y="60" x="64" height="4" width="4" fill="white"/>
    <rect y="60" x="72" height="4" width="4" fill="white"/>
    <rect y="60" x="84" height="4" width="4" fill="white"/>
    <rect y="60" x="88" height="4" width="4" fill="white"/>
    <rect y="60" x="116" height="4" width="4" fill="white"/>
    <rect y="60" x="152" height="4" width="4" fill="white"/>
    <rect y="60" x="156" height="4" width="4" fill="white"/>
    <rect y="60" x="160" height="4" width="4" fill="white"/>
    <rect y="60" x="172" height="4" width="4" fill="white"/>
    <rect y="64" x="0" height="4" width="4" fill="white"/>
    <rect y="64" x="40" height="4" width="4" fill="white"/>
    <rect y="64" x="44" height="4" width="4" fill="white"/>
    <rect y="64" x="52" height="4" width="4" fill="white"/>
    <rect y="64" x="64" height="4" width="4" fill="white"/>
    <rect y="64" x="116" height="4" width="4" fill="white"/>
    <rect y="64" x="120" height="4" width="4" fill="white"/>
    <rect y="64" x="124" height="4" width="4" fill="white"/>
    <rect y="64" x="152" height="4" width="4" fill="white"/>
    <rect y="64" x="172" height="4" width="4" fill="white"/>
    <rect y="68" x="0" height="4" width="4" fill="white"/>
    <rect y="68" x="40" height="4" width="4" fill="white"/>
    <rect y="68" x="44" height="4" width="4" fill="white"/>
    <rect y="68" x="52" height="4" width="4" fill="white"/>
    <rect y="68" x="172" height="4" width="4" fill="white"/>
    <rect y="72" x="0" height="4" width="4" fill="white"/>
    <rect y="72" x="172" height="4" width="4" fill="white"/>
    <rect y="76" x="0" height="4" width="4" fill="white"/>
    <rect y="76" x="172" height="4" width="4" fill="white"/>
    <rect y="80" x="0" height="4" width="4" fill="white"/>
    <rect y="80" x="8" height="4" width="4" fill="white"/>
    <rect y="80" x="12" height="4" width="4" fill="white"/>
    <rect y="80" x="24" height="4" width="4" fill="white"/>
    <rect y="80" x="28" height="4" width="4" fill="white"/>
    <rect y="80" x="40" height="4" width="4" fill="white"/>
    <rect y="80" x="44" height="4" width="4" fill="white"/>
    <rect y="80" x="48" height="4" width="4" fill="white"/>
    <rect y="80" x="52" height="4" width="4" fill="white"/>
    <rect y="80" x="68" height="4" width="4" fill="white"/>
    <rect y="80" x="84" height="4" width="4" fill="white"/>
    <rect y="80" x="112" height="4" width="4" fill="white"/>
    <rect y="80" x="116" height="4" width="4" fill="white"/>
    <rect y="80" x="120" height="4" width="4" fill="white"/>
    <rect y="80" x="152" height="4" width="4" fill="white"/>
    <rect y="80" x="172" height="4" width="4" fill="white"/>
    <rect y="84" x="0" height="4" width="4" fill="white"/>
    <rect y="84" x="8" height="4" width="4" fill="white"/>
    <rect y="84" x="24" height="4" width="4" fill="white"/>
    <rect y="84" x="40" height="4" width="4" fill="white"/>
    <rect y="84" x="44" height="4" width="4" fill="white"/>
    <rect y="84" x="52" height="4" width="4" fill="white"/>
    <rect y="84" x="64" height="4" width="4" fill="white"/>
    <rect y="84" x="80" height="4" width="4" fill="white"/>
    <rect y="84" x="84" height="4" width="4" fill="white"/>
    <rect y="84" x="112" height="4" width="4" fill="white"/>
    <rect y="84" x="148" height="4" width="4" fill="white"/>
    <rect y="84" x="152" height="4" width="4" fill="white"/>
    <rect y="84" x="172" height="4" width="4" fill="white"/>
    <rect y="88" x="0" height="4" width="4" fill="white"/>
    <rect y="88" x="40" height="4" width="4" fill="white"/>
    <rect y="88" x="44" height="4" width="4" fill="white"/>
    <rect y="88" x="52" height="4" width="4" fill="white"/>
    <rect y="88" x="112" height="4" width="4" fill="white"/>
    <rect y="88" x="116" height="4" width="4" fill="white"/>
    <rect y="88" x="120" height="4" width="4" fill="white"/>
    <rect y="88" x="172" height="4" width="4" fill="white"/>
    <rect y="92" x="0" height="4" width="4" fill="white"/>
    <rect y="92" x="40" height="4" width="4" fill="white"/>
    <rect y="92" x="44" height="4" width="4" fill="white"/>
    <rect y="92" x="52" height="4" width="4" fill="white"/>
    <rect y="92" x="172" height="4" width="4" fill="white"/>
    <rect y="96" x="0" height="4" width="4" fill="white"/>
    <rect y="96" x="172" height="4" width="4" fill="white"/>
    <rect y="100" x="0" height="4" width="4" fill="white"/>
    <rect y="100" x="172" height="4" width="4" fill="white"/>
    <rect y="104" x="0" height="4" width="4" fill="white"/>
    <rect y="104" x="8" height="4" width="4" fill="white"/>
    <rect y="104" x="12" height="4" width="4" fill="white"/>
    <rect y="104" x="24" height="4" width="4" fill="white"/>
    <rect y="104" x="28" height="4" width="4" fill="white"/>
    <rect y="104" x="40" height="4" width="4" fill="white"/>
    <rect y="104" x="44" height="4" width="4" fill="white"/>
    <rect y="104" x="48" height="4" width="4" fill="white"/>
    <rect y="104" x="52" height="4" width="4" fill="white"/>
    <rect y="104" x="68" height="4" width="4" fill="white"/>
    <rect y="104" x="72" height="4" width="4" fill="white"/>
    <rect y="104" x="88" height="4" width="4" fill="white"/>
    <rect y="104" x="92" height="4" width="4" fill="white"/>
    <rect y="104" x="120" height="4" width="4" fill="white"/>
    <rect y="104" x="124" height="4" width="4" fill="white"/>
    <rect y="104" x="128" height="4" width="4" fill="white"/>
    <rect y="104" x="160" height="4" width="4" fill="white"/>
    <rect y="104" x="164" height="4" width="4" fill="white"/>
    <rect y="104" x="172" height="4" width="4" fill="white"/>
    <rect y="108" x="0" height="4" width="4" fill="white"/>
    <rect y="108" x="8" height="4" width="4" fill="white"/>
    <rect y="108" x="24" height="4" width="4" fill="white"/>
    <rect y="108" x="40" height="4" width="4" fill="white"/>
    <rect y="108" x="44" height="4" width="4" fill="white"/>
    <rect y="108" x="52" height="4" width="4" fill="white"/>
    <rect y="108" x="64" height="4" width="4" fill="white"/>
    <rect y="108" x="72" height="4" width="4" fill="white"/>
    <rect y="108" x="84" height="4" width="4" fill="white"/>
    <rect y="108" x="88" height="4" width="4" fill="white"/>
    <rect y="108" x="92" height="4" width="4" fill="white"/>
    <rect y="108" x="120" height="4" width="4" fill="white"/>
    <rect y="108" x="156" height="4" width="4" fill="white"/>
    <rect y="108" x="160" height="4" width="4" fill="white"/>
    <rect y="108" x="172" height="4" width="4" fill="white"/>
    <rect y="112" x="0" height="4" width="4" fill="white"/>
    <rect y="112" x="40" height="4" width="4" fill="white"/>
    <rect y="112" x="44" height="4" width="4" fill="white"/>
    <rect y="112" x="52" height="4" width="4" fill="white"/>
    <rect y="112" x="64" height="4" width="4" fill="white"/>
    <rect y="112" x="84" height="4" width="4" fill="white"/>
    <rect y="112" x="120" height="4" width="4" fill="white"/>
    <rect y="112" x="124" height="4" width="4" fill="white"/>
    <rect y="112" x="128" height="4" width="4" fill="white"/>
    <rect y="112" x="156" height="4" width="4" fill="white"/>
    <rect y="112" x="160" height="4" width="4" fill="white"/>
    <rect y="112" x="172" height="4" width="4" fill="white"/>
    <rect y="116" x="0" height="4" width="4" fill="white"/>
    <rect y="116" x="40" height="4" width="4" fill="white"/>
    <rect y="116" x="44" height="4" width="4" fill="white"/>
    <rect y="116" x="52" height="4" width="4" fill="white"/>
    <rect y="116" x="172" height="4" width="4" fill="white"/>
    <rect y="120" x="0" height="4" width="4" fill="white"/>
    <rect y="120" x="172" height="4" width="4" fill="white"/>
    <rect y="124" x="0" height="4" width="4" fill="white"/>
    <rect y="124" x="172" height="4" width="4" fill="white"/>
    <rect y="128" x="0" height="4" width="4" fill="white"/>
    <rect y="128" x="8" height="4" width="4" fill="white"/>
    <rect y="128" x="12" height="4" width="4" fill="white"/>
    <rect y="128" x="24" height="4" width="4" fill="white"/>
    <rect y="128" x="28" height="4" width="4" fill="white"/>
    <rect y="128" x="40" height="4" width="4" fill="white"/>
    <rect y="128" x="44" height="4" width="4" fill="white"/>
    <rect y="128" x="48" height="4" width="4" fill="white"/>
    <rect y="128" x="52" height="4" width="4" fill="white"/>
    <rect y="128" x="68" height="4" width="4" fill="white"/>
    <rect y="128" x="72" height="4" width="4" fill="white"/>
    <rect y="128" x="88" height="4" width="4" fill="white"/>
    <rect y="128" x="92" height="4" width="4" fill="white"/>
    <rect y="128" x="120" height="4" width="4" fill="white"/>
    <rect y="128" x="124" height="4" width="4" fill="white"/>
    <rect y="128" x="128" height="4" width="4" fill="white"/>
    <rect y="128" x="160" height="4" width="4" fill="white"/>
    <rect y="128" x="164" height="4" width="4" fill="white"/>
    <rect y="128" x="172" height="4" width="4" fill="white"/>
    <rect y="132" x="0" height="4" width="4" fill="white"/>
    <rect y="132" x="8" height="4" width="4" fill="white"/>
    <rect y="132" x="24" height="4" width="4" fill="white"/>
    <rect y="132" x="40" height="4" width="4" fill="white"/>
    <rect y="132" x="44" height="4" width="4" fill="white"/>
    <rect y="132" x="52" height="4" width="4" fill="white"/>
    <rect y="132" x="64" height="4" width="4" fill="white"/>
    <rect y="132" x="68" height="4" width="4" fill="white"/>
    <rect y="132" x="72" height="4" width="4" fill="white"/>
    <rect y="132" x="84" height="4" width="4" fill="white"/>
    <rect y="132" x="88" height="4" width="4" fill="white"/>
    <rect y="132" x="120" height="4" width="4" fill="white"/>
    <rect y="132" x="156" height="4" width="4" fill="white"/>
    <rect y="132" x="172" height="4" width="4" fill="white"/>
    <rect y="136" x="0" height="4" width="4" fill="white"/>
    <rect y="136" x="40" height="4" width="4" fill="white"/>
    <rect y="136" x="44" height="4" width="4" fill="white"/>
    <rect y="136" x="52" height="4" width="4" fill="white"/>
    <rect y="136" x="64" height="4" width="4" fill="white"/>
    <rect y="136" x="84" height="4" width="4" fill="white"/>
    <rect y="136" x="88" height="4" width="4" fill="white"/>
    <rect y="136" x="120" height="4" width="4" fill="white"/>
    <rect y="136" x="124" height="4" width="4" fill="white"/>
    <rect y="136" x="128" height="4" width="4" fill="white"/>
    <rect y="136" x="156" height="4" width="4" fill="white"/>
    <rect y="136" x="164" height="4" width="4" fill="white"/>
    <rect y="136" x="172" height="4" width="4" fill="white"/>
    <rect y="140" x="0" height="4" width="4" fill="white"/>
    <rect y="140" x="40" height="4" width="4" fill="white"/>
    <rect y="140" x="44" height="4" width="4" fill="white"/>
    <rect y="140" x="52" height="4" width="4" fill="white"/>
    <rect y="140" x="172" height="4" width="4" fill="white"/>
    <rect y="144" x="0" height="4" width="4" fill="white"/>
    <rect y="144" x="172" height="4" width="4" fill="white"/>
    <rect y="148" x="0" height="4" width="4" fill="white"/>
    <rect y="148" x="172" height="4" width="4" fill="white"/>
    <rect y="152" x="0" height="4" width="4" fill="white"/>
    <rect y="152" x="172" height="4" width="4" fill="white"/>
    <rect y="156" x="0" height="4" width="4" fill="white"/>
    <rect y="156" x="8" height="4" width="4" fill="white"/>
    <rect y="156" x="16" height="4" width="4" fill="white"/>
    <rect y="156" x="24" height="4" width="4" fill="white"/>
    <rect y="156" x="32" height="4" width="4" fill="white"/>
    <rect y="156" x="172" height="4" width="4" fill="white"/>
    <rect y="160" x="0" height="4" width="4" fill="white"/>
    <rect y="160" x="172" height="4" width="4" fill="white"/>
    <rect y="164" x="0" height="4" width="4" fill="white"/>
    <rect y="164" x="4" height="4" width="4" fill="white"/>
    <rect y="164" x="8" height="4" width="4" fill="white"/>
    <rect y="164" x="12" height="4" width="4" fill="white"/>
    <rect y="164" x="16" height="4" width="4" fill="white"/>
    <rect y="164" x="20" height="4" width="4" fill="white"/>
    <rect y="164" x="24" height="4" width="4" fill="white"/>
    <rect y="164" x="28" height="4" width="4" fill="white"/>
    <rect y="164" x="32" height="4" width="4" fill="white"/>
    <rect y="164" x="36" height="4" width="4" fill="white"/>
    <rect y="164" x="40" height="4" width="4" fill="white"/>
    <rect y="164" x="44" height="4" width="4" fill="white"/>
    <rect y="164" x="48" height="4" width="4" fill="white"/>
    <rect y="164" x="52" height="4" width="4" fill="white"/>
    <rect y="164" x="56" height="4" width="4" fill="white"/>
    <rect y="164" x="60" height="4" width="4" fill="white"/>
    <rect y="164" x="64" height="4" width="4" fill="white"/>
    <rect y="164" x="68" height="4" width="4" fill="white"/>
    <rect y="164" x="72" height="4" width="4" fill="white"/>
    <rect y="164" x="76" height="4" width="4" fill="white"/>
    <rect y="164" x="80" height="4" width="4" fill="white"/>
    <rect y="164" x="84" height="4" width="4" fill="white"/>
    <rect y="164" x="88" height="4" width="4" fill="white"/>
    <rect y="164" x="92" height="4" width="4" fill="white"/>
    <rect y="164" x="96" height="4" width="4" fill="white"/>
    <rect y="164" x="100" height="4" width="4" fill="white"/>
    <rect y="164" x="104" height="4" width="4" fill="white"/>
    <rect y="164" x="108" height="4" width="4" fill="white"/>
    <rect y="164" x="112" height="4" width="4" fill="white"/>
    <rect y="164" x="116" height="4" width="4" fill="white"/>
    <rect y="164" x="120" height="4" width="4" fill="white"/>
    <rect y="164" x="124" height="4" width="4" fill="white"/>
    <rect y="164" x="128" height="4" width="4" fill="white"/>
    <rect y="164" x="132" height="4" width="4" fill="white"/>
    <rect y="164" x="136" height="4" width="4" fill="white"/>
    <rect y="164" x="140" height="4" width="4" fill="white"/>
    <rect y="164" x="144" height="4" width="4" fill="white"/>
    <rect y="164" x="148" height="4" width="4" fill="white"/>
    <rect y="164" x="152" height="4" width="4" fill="white"/>
    <rect y="164" x="156" height="4" width="4" fill="white"/>
    <rect y="164" x="160" height="4" width="4" fill="white"/>
    <rect y="164" x="164" height="4" width="4" fill="white"/>
    <rect y="164" x="168" height="4" width="4" fill="white"/>
    <rect y="164" x="172" height="4" width="4" fill="white"/>
    
  <rect y="8" x="8" height="16" width="16" fill="green" fill-opacity="0.4"/>
<text y="16" x="16" dominant-baseline='middle' text-anchor='middle' fill='white' style='paint-order: stroke; fill: white; stroke: black; stroke-width: 2px; font-size: 10px'>+</text>
<rect y="32" x="8" height="8" width="8" fill="green" fill-opacity="0.4"/>
<text y="36" x="12" dominant-baseline='middle' text-anchor='middle' fill='white' style='paint-order: stroke; fill: white; stroke: black; stroke-width: 2px; font-size: 10px'>ap</text>
<rect y="32" x="24" height="8" width="8" fill="green" fill-opacity="0.4"/>
<text y="36" x="28" dominant-baseline='middle' text-anchor='middle' fill='white' style='paint-order: stroke; fill: white; stroke: black; stroke-width: 2px; font-size: 10px'>ap</text>
<rect y="32" x="40" height="16" width="16" fill="green" fill-opacity="0.4"/>
<text y="40" x="48" dominant-baseline='middle' text-anchor='middle' fill='white' style='paint-order: stroke; fill: white; stroke: black; stroke-width: 2px; font-size: 10px'>+</text>
<rect y="32" x="64" height="8" width="8" fill="yellow" fill-opacity="0.4"/>
<text y="36" x="68" dominant-baseline='middle' text-anchor='middle' fill='white' style='paint-order: stroke; fill: white; stroke: black; stroke-width: 2px; font-size: 10px'>1</text>
<rect y="32" x="80" height="12" width="12" fill="yellow" fill-opacity="0.4"/>
<text y="38" x="86" dominant-baseline='middle' text-anchor='middle' fill='white' style='paint-order: stroke; fill: white; stroke: black; stroke-width: 2px; font-size: 10px'>2</text>
<rect y="32" x="116" height="12" width="12" fill="green" fill-opacity="0.4"/>
<text y="38" x="122" dominant-baseline='middle' text-anchor='middle' fill='white' style='paint-order: stroke; fill: white; stroke: black; stroke-width: 2px; font-size: 10px'>==</text>
<rect y="32" x="152" height="12" width="12" fill="yellow" fill-opacity="0.4"/>
<text y="38" x="158" dominant-baseline='middle' text-anchor='middle' fill='white' style='paint-order: stroke; fill: white; stroke: black; stroke-width: 2px; font-size: 10px'>3</text>
<rect y="56" x="8" height="8" width="8" fill="green" fill-opacity="0.4"/>
<text y="60" x="12" dominant-baseline='middle' text-anchor='middle' fill='white' style='paint-order: stroke; fill: white; stroke: black; stroke-width: 2px; font-size: 10px'>ap</text>
<rect y="56" x="24" height="8" width="8" fill="green" fill-opacity="0.4"/>
<text y="60" x="28" dominant-baseline='middle' text-anchor='middle' fill='white' style='paint-order: stroke; fill: white; stroke: black; stroke-width: 2px; font-size: 10px'>ap</text>
<rect y="56" x="40" height="16" width="16" fill="green" fill-opacity="0.4"/>
<text y="64" x="48" dominant-baseline='middle' text-anchor='middle' fill='white' style='paint-order: stroke; fill: white; stroke: black; stroke-width: 2px; font-size: 10px'>+</text>
<rect y="56" x="64" height="12" width="12" fill="yellow" fill-opacity="0.4"/>
<text y="62" x="70" dominant-baseline='middle' text-anchor='middle' fill='white' style='paint-order: stroke; fill: white; stroke: black; stroke-width: 2px; font-size: 10px'>2</text>
<rect y="56" x="84" height="8" width="8" fill="yellow" fill-opacity="0.4"/>
<text y="60" x="88" dominant-baseline='middle' text-anchor='middle' fill='white' style='paint-order: stroke; fill: white; stroke: black; stroke-width: 2px; font-size: 10px'>1</text>
<rect y="56" x="116" height="12" width="12" fill="green" fill-opacity="0.4"/>
<text y="62" x="122" dominant-baseline='middle' text-anchor='middle' fill='white' style='paint-order: stroke; fill: white; stroke: black; stroke-width: 2px; font-size: 10px'>==</text>
<rect y="56" x="152" height="12" width="12" fill="yellow" fill-opacity="0.4"/>
<text y="62" x="158" dominant-baseline='middle' text-anchor='middle' fill='white' style='paint-order: stroke; fill: white; stroke: black; stroke-width: 2px; font-size: 10px'>3</text>
<rect y="80" x="8" height="8" width="8" fill="green" fill-opacity="0.4"/>
<text y="84" x="12" dominant-baseline='middle' text-anchor='middle' fill='white' style='paint-order: stroke; fill: white; stroke: black; stroke-width: 2px; font-size: 10px'>ap</text>
<rect y="80" x="24" height="8" width="8" fill="green" fill-opacity="0.4"/>
<text y="84" x="28" dominant-baseline='middle' text-anchor='middle' fill='white' style='paint-order: stroke; fill: white; stroke: black; stroke-width: 2px; font-size: 10px'>ap</text>
<rect y="80" x="40" height="16" width="16" fill="green" fill-opacity="0.4"/>
<text y="88" x="48" dominant-baseline='middle' text-anchor='middle' fill='white' style='paint-order: stroke; fill: white; stroke: black; stroke-width: 2px; font-size: 10px'>+</text>
<rect y="80" x="64" height="8" width="8" fill="yellow" fill-opacity="0.4"/>
<text y="84" x="68" dominant-baseline='middle' text-anchor='middle' fill='white' style='paint-order: stroke; fill: white; stroke: black; stroke-width: 2px; font-size: 10px'>0</text>
<rect y="80" x="80" height="8" width="8" fill="yellow" fill-opacity="0.4"/>
<text y="84" x="84" dominant-baseline='middle' text-anchor='middle' fill='white' style='paint-order: stroke; fill: white; stroke: black; stroke-width: 2px; font-size: 10px'>1</text>
<rect y="80" x="112" height="12" width="12" fill="green" fill-opacity="0.4"/>
<text y="86" x="118" dominant-baseline='middle' text-anchor='middle' fill='white' style='paint-order: stroke; fill: white; stroke: black; stroke-width: 2px; font-size: 10px'>==</text>
<rect y="80" x="148" height="8" width="8" fill="yellow" fill-opacity="0.4"/>
<text y="84" x="152" dominant-baseline='middle' text-anchor='middle' fill='white' style='paint-order: stroke; fill: white; stroke: black; stroke-width: 2px; font-size: 10px'>1</text>
<rect y="104" x="8" height="8" width="8" fill="green" fill-opacity="0.4"/>
<text y="108" x="12" dominant-baseline='middle' text-anchor='middle' fill='white' style='paint-order: stroke; fill: white; stroke: black; stroke-width: 2px; font-size: 10px'>ap</text>
<rect y="104" x="24" height="8" width="8" fill="green" fill-opacity="0.4"/>
<text y="108" x="28" dominant-baseline='middle' text-anchor='middle' fill='white' style='paint-order: stroke; fill: white; stroke: black; stroke-width: 2px; font-size: 10px'>ap</text>
<rect y="104" x="40" height="16" width="16" fill="green" fill-opacity="0.4"/>
<text y="112" x="48" dominant-baseline='middle' text-anchor='middle' fill='white' style='paint-order: stroke; fill: white; stroke: black; stroke-width: 2px; font-size: 10px'>+</text>
<rect y="104" x="64" height="12" width="12" fill="yellow" fill-opacity="0.4"/>
<text y="110" x="70" dominant-baseline='middle' text-anchor='middle' fill='white' style='paint-order: stroke; fill: white; stroke: black; stroke-width: 2px; font-size: 10px'>2</text>
<rect y="104" x="84" height="12" width="12" fill="yellow" fill-opacity="0.4"/>
<text y="110" x="90" dominant-baseline='middle' text-anchor='middle' fill='white' style='paint-order: stroke; fill: white; stroke: black; stroke-width: 2px; font-size: 10px'>3</text>
<rect y="104" x="120" height="12" width="12" fill="green" fill-opacity="0.4"/>
<text y="110" x="126" dominant-baseline='middle' text-anchor='middle' fill='white' style='paint-order: stroke; fill: white; stroke: black; stroke-width: 2px; font-size: 10px'>==</text>
<rect y="104" x="156" height="12" width="12" fill="yellow" fill-opacity="0.4"/>
<text y="110" x="162" dominant-baseline='middle' text-anchor='middle' fill='white' style='paint-order: stroke; fill: white; stroke: black; stroke-width: 2px; font-size: 10px'>5</text>
<rect y="128" x="8" height="8" width="8" fill="green" fill-opacity="0.4"/>
<text y="132" x="12" dominant-baseline='middle' text-anchor='middle' fill='white' style='paint-order: stroke; fill: white; stroke: black; stroke-width: 2px; font-size: 10px'>ap</text>
<rect y="128" x="24" height="8" width="8" fill="green" fill-opacity="0.4"/>
<text y="132" x="28" dominant-baseline='middle' text-anchor='middle' fill='white' style='paint-order: stroke; fill: white; stroke: black; stroke-width: 2px; font-size: 10px'>ap</text>
<rect y="128" x="40" height="16" width="16" fill="green" fill-opacity="0.4"/>
<text y="136" x="48" dominant-baseline='middle' text-anchor='middle' fill='white' style='paint-order: stroke; fill: white; stroke: black; stroke-width: 2px; font-size: 10px'>+</text>
<rect y="128" x="64" height="12" width="12" fill="yellow" fill-opacity="0.4"/>
<text y="134" x="70" dominant-baseline='middle' text-anchor='middle' fill='white' style='paint-order: stroke; fill: white; stroke: black; stroke-width: 2px; font-size: 10px'>3</text>
<rect y="128" x="84" height="12" width="12" fill="yellow" fill-opacity="0.4"/>
<text y="134" x="90" dominant-baseline='middle' text-anchor='middle' fill='white' style='paint-order: stroke; fill: white; stroke: black; stroke-width: 2px; font-size: 10px'>5</text>
<rect y="128" x="120" height="12" width="12" fill="green" fill-opacity="0.4"/>
<text y="134" x="126" dominant-baseline='middle' text-anchor='middle' fill='white' style='paint-order: stroke; fill: white; stroke: black; stroke-width: 2px; font-size: 10px'>==</text>
<rect y="128" x="156" height="12" width="12" fill="yellow" fill-opacity="0.4"/>
<text y="134" x="162" dominant-baseline='middle' text-anchor='middle' fill='white' style='paint-order: stroke; fill: white; stroke: black; stroke-width: 2px; font-size: 10px'>8</text>
<rect y="156" x="8" height="4" width="28" fill="black" fill-opacity="0.4"/>
<text y="158" x="22" dominant-baseline='middle' text-anchor='middle' fill='white' style='paint-order: stroke; fill: white; stroke: black; stroke-width: 2px; font-size: 10px'>...</text>

</svg>
